<svg width="190" height="177" viewBox="0 0 190 177" fill="none" xmlns="http://www.w3.org/2000/svg">
<path fill-rule="evenodd" clip-rule="evenodd" d="M109.817 7.3918C129.546 10.8722 148.285 16.801 162.742 30.6933C177.543 44.9166 192.204 63.3822 189.24 83.7132C186.428 103.005 161.958 108.451 149.252 123.219C134.359 140.53 132.189 171.557 109.817 176.027C86.8088 180.624 68.6434 158.086 50.7334 142.904C30.2907 125.574 4.17037 110.343 0.919747 83.7132C-2.55384 55.2574 10.8216 24.4629 34.2694 8.02934C55.7209 -7.00507 84.0341 2.84335 109.817 7.3918Z" fill="#D7FFF1"/>
<g clip-path="url(#clip0_1491_75210)">
<path d="M87.0131 78.3625C79.0771 78.246 68.0532 78.4163 65.7836 84.5132L60.2072 97.5983C59.9599 97.3154 59.6356 97.1106 59.2738 97.0089L57.0287 96.3773C56.7818 96.3073 56.5235 96.2867 56.2687 96.3168C56.0138 96.3469 55.7675 96.427 55.5437 96.5525C55.3199 96.6781 55.1231 96.8466 54.9646 97.0484C54.8061 97.2502 54.689 97.4813 54.62 97.7284L53.4487 101.888C53.3788 102.134 53.3584 102.393 53.3885 102.647C53.4186 102.902 53.4987 103.148 53.6243 103.372C53.7498 103.596 53.9183 103.793 54.12 103.951C54.3218 104.109 54.5528 104.227 54.7999 104.295L57.0457 104.928C57.1206 104.948 57.1956 104.955 57.2705 104.967C56.8413 106.037 56.5742 107.213 56.5742 107.913V123.121C56.5742 123.901 56.9012 124.262 57.4204 124.431V128.482C57.4198 128.842 57.4902 129.198 57.6275 129.53C57.7648 129.863 57.9664 130.165 58.2207 130.419C58.475 130.673 58.777 130.875 59.1093 131.012C59.4417 131.149 59.7979 131.22 60.1575 131.219H67.5006C67.8603 131.22 68.2165 131.149 68.5488 131.012C68.8812 130.875 69.1832 130.673 69.4374 130.419C69.6917 130.165 69.8933 129.863 70.0306 129.53C70.168 129.198 70.2383 128.842 70.2377 128.482V124.579H104.649V128.482C104.648 128.842 104.719 129.198 104.856 129.53C104.993 129.863 105.195 130.165 105.449 130.419C105.704 130.673 106.006 130.875 106.338 131.012C106.671 131.15 107.027 131.22 107.387 131.219H114.729C115.088 131.22 115.445 131.15 115.777 131.013C116.11 130.875 116.412 130.674 116.666 130.419C116.921 130.165 117.122 129.863 117.26 129.531C117.397 129.198 117.468 128.842 117.467 128.482V124.431C117.987 124.262 118.312 123.901 118.312 123.122V107.914C118.312 107.214 118.044 106.038 117.615 104.968C117.69 104.956 117.765 104.95 117.84 104.928L120.087 104.296C120.334 104.227 120.565 104.11 120.766 103.952C120.968 103.793 121.137 103.596 121.262 103.373C121.387 103.149 121.468 102.903 121.498 102.648C121.528 102.393 121.507 102.135 121.437 101.888L120.267 97.7291C120.198 97.4819 120.081 97.2507 119.923 97.0488C119.764 96.847 119.567 96.6784 119.343 96.5529C119.12 96.4274 118.873 96.3473 118.618 96.3172C118.363 96.2872 118.105 96.3079 117.858 96.378L115.613 97.0096C115.251 97.1118 114.927 97.3165 114.679 97.599L109.102 84.5139C106.67 78.3244 94.9483 78.4797 87.0124 78.3632M109.741 98.4255C109.873 98.8179 109.478 99.0796 109.064 99.1034C109.064 99.1034 107.712 99.2179 105.848 99.3685C104.43 96.0543 101.133 93.7186 97.314 93.7186C93.1229 93.7186 89.5648 96.5326 88.4235 100.365C88.1073 100.369 87.7401 100.382 87.4464 100.382C80.2259 100.382 65.8204 99.1034 65.8204 99.1034C65.4075 99.0789 65.0116 98.8173 65.1438 98.4255C70.6915 81.5132 70.8571 82.7846 87.1357 82.9624C103.414 83.1396 103.508 81.9315 109.741 98.4255ZM97.314 96.9149C98.319 96.9116 99.309 97.1585 100.195 97.6332C101.081 98.1079 101.834 98.7956 102.388 99.6342C99.1278 99.8761 95.3755 100.123 91.8787 100.267C92.382 99.2572 93.1576 98.408 94.1181 97.8156C95.0786 97.2232 96.1856 96.9112 97.314 96.9149ZM59.7841 102.403C59.8332 102.476 59.8809 102.548 59.9354 102.619H59.7242L59.7841 102.403ZM63.3913 106.65C64.8194 106.627 72.4862 109.207 72.4862 109.207C73.4436 109.477 74.2864 111.287 74.2816 112.282C74.2673 115.632 65.6221 114.469 62.1124 114.483C61.8765 114.483 61.6429 114.437 61.4249 114.347C61.2069 114.257 61.0089 114.125 60.8421 113.958C60.6753 113.791 60.543 113.593 60.4529 113.375C60.3628 113.157 60.3166 112.924 60.3169 112.688V108.446C60.3169 107.452 61.9631 106.675 63.3913 106.65ZM111.495 106.65C112.923 106.674 114.569 107.452 114.569 108.446V112.688C114.57 112.924 114.523 113.158 114.433 113.376C114.343 113.594 114.211 113.792 114.044 113.958C113.877 114.125 113.679 114.258 113.461 114.348C113.243 114.438 113.01 114.484 112.774 114.483C109.265 114.47 100.619 115.632 100.604 112.282C100.6 111.287 101.442 109.477 102.4 109.207C102.4 109.207 110.067 106.627 111.495 106.65Z" fill="#026442"/>
</g>
<g clip-path="url(#clip1_1491_75210)">
<circle cx="109.741" cy="64.012" r="25.0902" fill="#D7FFF1" stroke="black" stroke-width="3.46072"/>
<path d="M98.2499 64.4295L105.367 71.4586L120.032 57.2086" stroke="#026442" stroke-width="3.81819" stroke-linecap="round" stroke-linejoin="round"/>
</g>
<defs>
<clipPath id="clip0_1491_75210">
<rect width="68.1371" height="68.1371" fill="white" transform="translate(53.375 70.7109)"/>
</clipPath>
<clipPath id="clip1_1491_75210">
<rect width="54.5064" height="54.5064" fill="white" transform="translate(82.8691 37)"/>
</clipPath>
</defs>
</svg>
