<svg width="5" height="10" viewBox="0 0 5 10" fill="none" xmlns="http://www.w3.org/2000/svg">
<path d="M3.56542 5.23871L0.227506 8.57663C0.114357 8.68978 0.0609498 8.82179 0.0672112 8.97266C0.0735097 9.12352 0.133215 9.25553 0.246365 9.36868C0.359514 9.48183 0.49469 9.5384 0.651818 9.5384C0.808983 9.5384 0.944121 9.48183 1.05727 9.36868L4.79121 5.63474C4.85409 5.57187 4.8981 5.50903 4.92322 5.44616C4.94838 5.38328 4.96094 5.31415 4.96094 5.23871C4.96094 5.16328 4.94838 5.09415 4.92322 5.03127C4.8981 4.9684 4.85409 4.90556 4.79121 4.84269L1.03841 1.08989C0.925263 0.976741 0.790125 0.920166 0.63296 0.920166C0.475832 0.920166 0.340656 0.976741 0.227506 1.08989C0.114357 1.20304 0.0577817 1.33818 0.0577817 1.49534C0.0577817 1.65251 0.114357 1.78765 0.227506 1.9008L3.56542 5.23871Z" fill="white"/>
</svg>
