<svg width="78" height="74" viewBox="0 0 78 74" fill="none" xmlns="http://www.w3.org/2000/svg">
<path fill-rule="evenodd" clip-rule="evenodd" d="M32.8931 70.3536C24.7617 68.9191 17.0385 66.4756 11.08 60.7498C4.97964 54.8877 -1.063 47.277 0.158669 38.8975C1.31788 30.9464 11.4031 28.7016 16.6398 22.615C22.7781 15.4805 23.6727 2.69257 32.8931 0.850319C42.3761 -1.0444 49.863 8.24461 57.2446 14.5021C65.6702 21.6445 76.4357 27.9222 77.7755 38.8975C79.2071 50.6257 73.6944 63.3177 64.0303 70.0908C55.189 76.2873 43.5197 72.2283 32.8931 70.3536Z" fill="#D7FFF1"/>
<path d="M28.2671 41.108L27.0356 44.7425C26.9179 45.0899 27.0186 45.474 27.2916 45.719L35.8676 53.4135C36.1117 53.6326 36.4543 53.7045 36.7659 53.6021L40.2166 52.4685C40.8766 52.2517 41.065 51.4082 40.5599 50.9312L29.7647 40.7357C29.279 40.277 28.4815 40.4752 28.2671 41.108Z" fill="#026442" stroke="black" stroke-width="0.824305"/>
<path d="M55.7383 30.8063L49.3455 25.2682C48.7029 24.7115 49.0986 23.6558 49.9488 23.6587L56.211 23.6796C56.7076 23.6813 57.1126 24.0781 57.1243 24.5746L57.255 30.0918C57.2738 30.8872 56.3397 31.3273 55.7383 30.8063Z" fill="#026442" stroke="black" stroke-width="0.916689"/>
<circle cx="43.6777" cy="37.0009" r="3.09535" fill="#026442" stroke="black" stroke-width="1.16076"/>
<path d="M24.4928 48.7698C24.3573 48.8291 23.3834 49.7522 22.3249 50.8192C20.665 52.4875 20.394 52.7924 20.394 53.0126C20.394 53.5122 20.936 53.8425 21.3764 53.6138C21.5119 53.5376 22.4688 52.6315 23.5105 51.5898C25.1873 49.8961 25.3905 49.6675 25.3905 49.4134C25.3905 49.0408 25.2719 48.846 24.984 48.7444C24.8146 48.6851 24.6707 48.6936 24.4928 48.7698Z" fill="#026442"/>
<path d="M24.2222 55.8584C22.2067 57.8739 20.4791 59.6523 20.3775 59.8047C20.0896 60.2705 20.3944 60.8379 20.9364 60.8379C21.1651 60.8379 21.6562 60.3721 25.0437 56.9932C28.736 53.3093 28.8969 53.1315 28.8969 52.8266C28.8969 52.4371 28.6343 52.1999 28.2024 52.1999C27.9145 52.1999 27.7028 52.3947 24.2222 55.8584Z" fill="#026442"/>
<path d="M29.4044 57.6281C27.2788 59.7453 27.2195 59.83 27.3889 60.2873C27.4651 60.482 27.9054 60.6853 28.1256 60.626C28.2272 60.5921 29.2181 59.6691 30.3274 58.5681C32.0974 56.7982 32.3345 56.5272 32.3345 56.2986C32.3345 55.9514 32.1058 55.6888 31.7586 55.6211C31.4792 55.5618 31.4284 55.6126 29.4044 57.6281Z" fill="#026442"/>
<path d="M51.6858 22.9581C46.9011 23.2715 42.1502 24.8043 38.4833 27.2263C36.2984 28.6575 34.2744 30.4952 32.7586 32.4091C32.3605 32.9087 31.9625 33.3406 31.8694 33.3576C31.7762 33.3745 30.3874 33.4338 28.7783 33.4846C27.1693 33.5354 25.7212 33.6201 25.5603 33.6624C25.3909 33.7048 25.1623 33.8403 25.0437 33.9673C24.9251 34.1028 23.8581 35.7626 22.6725 37.6765C20.5808 41.047 20.5215 41.1656 20.5215 41.589C20.5215 42.0548 20.6739 42.3512 21.0804 42.6476C21.2328 42.7661 22.0882 42.944 24.1545 43.2997C25.7212 43.5791 27.0253 43.8162 27.0508 43.8332C27.0677 43.8586 27.0084 44.1465 26.9153 44.4768C26.712 45.1966 26.7035 45.6878 26.8644 46.0011C26.9322 46.1282 28.7953 48.0251 30.9971 50.2269C35.5786 54.7915 35.1467 54.4782 36.4255 54.1564C36.8404 54.0463 37.1876 53.9785 37.2046 53.9955C37.2215 54.0124 37.4586 55.2996 37.7212 56.8494C38.2547 59.8896 38.297 60.042 38.8475 60.3638C39.4064 60.6856 39.7451 60.6009 41.0832 59.771C46.2744 56.5699 47.1128 56.0195 47.2737 55.7485C47.4261 55.4859 47.4515 55.1557 47.5616 52.2425L47.6802 49.0244L47.9088 48.855C51.0846 46.433 53.4642 43.6045 55.1918 40.1748C57.3344 35.9489 58.4014 30.5629 58.0881 25.6342C57.9441 23.3138 57.8086 23.1445 56.0471 22.9836C55.1495 22.9073 52.6936 22.8904 51.6858 22.9581ZM56.4875 24.3809C56.7077 24.4656 56.767 25.16 56.7585 27.4719C56.7416 29.7753 56.5807 31.2828 56.1403 33.3745C54.5143 41.0047 49.9159 46.8649 42.7938 50.3963C42.3281 50.625 41.8199 50.8706 41.6675 50.9298L41.3796 51.0399L35.7141 45.3745C32.5977 42.258 30.0486 39.6582 30.0486 39.5989C30.0486 39.4295 31.4968 36.6434 32.0387 35.7711C33.1735 33.9588 34.9011 31.884 36.3662 30.5714C40.5073 26.8791 45.453 24.8551 51.7282 24.3046C52.3294 24.2538 56.3266 24.3131 56.4875 24.3809ZM30.9294 34.9835C29.8962 36.5417 28.3295 39.8953 27.6351 42.0124C27.5504 42.3004 27.4488 42.4613 27.3641 42.4613C27.1524 42.4613 22.2321 41.6144 22.0628 41.5467C21.9357 41.4958 22.1983 41.0216 23.9174 38.227C25.0268 36.4316 25.9329 34.9581 25.9329 34.9496C25.9414 34.9327 29.6083 34.7887 30.4636 34.7718L31.0818 34.7549L30.9294 34.9835ZM34.7487 46.3568C37.628 49.2361 39.9738 51.6158 39.9569 51.6412C39.8806 51.7089 37.3739 52.5219 36.544 52.7506L35.7141 52.9708L34.4692 51.7852C33.7833 51.1331 32.0641 49.4394 30.6414 48.0167L28.067 45.4337L28.2194 44.8155C28.4311 43.9856 29.3796 41.1063 29.4474 41.1063C29.4728 41.1063 31.8609 43.469 34.7487 46.3568ZM46.2744 50.9468C46.249 51.4718 46.2067 52.6151 46.1728 53.4789L46.122 55.054L42.8531 57.078C41.0578 58.1874 39.5673 59.0935 39.5419 59.0851C39.4826 59.0681 38.5172 53.6144 38.5595 53.572C38.5765 53.5551 38.9999 53.3942 39.508 53.2248C41.532 52.5135 43.9371 51.3956 45.5038 50.4302C45.8764 50.2015 46.2151 50.0152 46.2575 50.0068C46.2914 49.9983 46.3083 50.4302 46.2744 50.9468Z" fill="black"/>
<path d="M48.3213 24.2327L56.8335 31.5841" stroke="black" stroke-width="1.16076"/>
<path d="M35.2772 15.1019C30.9067 15.6206 27.5225 19.2088 27.2674 23.6049C27.0889 26.768 28.6279 29.8716 31.2553 31.6147C37.3009 35.6366 45.3533 31.3426 45.3533 24.1066C45.3533 19.4894 41.9436 15.6716 37.3179 15.1019C36.4676 14.9999 36.1445 14.9999 35.2772 15.1019ZM38.2788 17.1256C40.6766 17.8229 42.5473 19.685 43.2785 22.1084C43.4826 22.7886 43.5081 23.0097 43.5081 24.1066C43.5081 25.2034 43.4826 25.4245 43.2785 26.1048C42.5473 28.5281 40.6766 30.3903 38.2788 31.0875C37.3945 31.3426 35.8299 31.4021 34.9116 31.215C33.4066 30.9089 32.3692 30.3392 31.1958 29.1658C30.439 28.4176 30.286 28.2135 29.8948 27.4227C29.2741 26.1813 29.0956 25.433 29.0956 24.1066C29.0956 22.8566 29.2656 22.0743 29.7843 20.986C30.1925 20.1357 30.6261 19.549 31.3319 18.8687C32.3947 17.8654 33.3811 17.3382 34.8521 16.9981C35.6088 16.828 37.4795 16.896 38.2788 17.1256Z" fill="#171616"/>
<circle cx="36.3209" cy="24.0926" r="7.52398" fill="#D7FFF1"/>
<circle cx="36.3209" cy="27.8021" r="0.824305" fill="#02553C"/>
<line x1="36.321" y1="25.3293" x2="36.321" y2="20.3834" stroke="#02553C" stroke-width="1.64861" stroke-linecap="round"/>
</svg>
