<svg width="60" height="56" viewBox="0 0 60 56" fill="none" xmlns="http://www.w3.org/2000/svg">
<path fill-rule="evenodd" clip-rule="evenodd" d="M25.3024 53.6565C19.0475 52.5531 13.1065 50.6734 8.52311 46.269C3.8305 41.7596 -0.817688 35.9053 0.122055 29.4595C1.01376 23.3433 8.77161 21.6165 12.7998 16.9345C17.5216 11.4464 18.2098 1.60955 25.3024 0.19244C32.597 -1.26503 38.3561 5.88035 44.0343 10.6938C50.5155 16.188 58.7967 21.0169 59.8273 29.4595C60.9286 38.4812 56.688 48.2443 49.2541 53.4544C42.4531 58.2209 33.4767 55.0985 25.3024 53.6565Z" fill="#D7FFF1"/>
<path d="M42.7363 26.1898C43.154 32.4806 38.3929 37.9188 32.1022 38.3365C25.8115 38.7542 20.3732 33.9932 19.9555 27.7024C19.5378 21.4117 24.2989 15.9734 30.5896 15.5557C36.8804 15.138 42.3186 19.8991 42.7363 26.1898ZM21.8905 27.5739C22.2372 32.796 26.7516 36.7483 31.9737 36.4015C37.1958 36.0548 41.1481 31.5404 40.8013 26.3183C40.4546 21.0962 35.9402 17.144 30.7181 17.4907C25.496 17.8374 21.5438 22.3518 21.8905 27.5739Z" fill="#D7FFF1"/>
<mask id="path-3-inside-1_1504_60227" fill="white">
<path d="M34.1139 14.7194C34.1701 14.7324 34.2263 14.7455 34.2842 14.7589C35.2171 14.9767 36.0728 15.3173 36.9322 15.7371C37.0233 15.7815 37.1145 15.826 37.2084 15.8717C38.1109 16.3355 38.9177 16.9231 39.6588 17.6145C39.8078 17.7531 39.9602 17.8833 40.1175 18.0123C42.3249 19.9073 43.5557 23.0329 43.7801 25.8761C43.9648 28.7072 43.2951 31.3891 41.752 33.7686C41.6065 34.0166 41.6065 34.0166 41.5511 34.2909C41.7063 34.537 41.9231 34.7318 42.1285 34.9368C42.1826 34.9951 42.2368 35.0535 42.2927 35.1136C42.5903 35.4249 42.5903 35.4249 42.9811 35.573C43.0994 35.5689 43.2177 35.5615 43.3356 35.551C43.8799 35.5275 44.2921 35.8717 44.6728 36.2187C44.72 36.2605 44.7673 36.3023 44.816 36.3453C44.955 36.4685 45.0929 36.5929 45.2305 36.7178C45.3013 36.7817 45.372 36.8456 45.4449 36.9114C45.5716 37.0259 45.6981 37.1406 45.8244 37.2554C46.0216 37.4297 46.2242 37.5951 46.4293 37.76C46.8062 38.0646 47.1602 38.3877 47.5136 38.7186C47.7757 38.9627 48.0433 39.1944 48.3228 39.4187C48.649 39.6804 48.9573 39.955 49.2623 40.2407C49.5706 40.5294 49.8824 40.8072 50.2115 41.0725C51.167 41.8469 52.1325 42.65 52.2998 43.9456C52.3104 44.1303 52.3129 44.3125 52.3105 44.4975C52.3096 44.595 52.3096 44.595 52.3086 44.6944C52.2824 45.6467 51.9256 46.3001 51.2625 46.9711C50.9285 47.2803 50.5852 47.5083 50.1626 47.6779C50.0936 47.7058 50.0247 47.7338 49.9537 47.7626C49.0132 48.0217 47.9883 47.8831 47.1489 47.4115C46.3488 46.901 45.7649 46.1214 45.1767 45.3904C44.9454 45.1123 44.7006 44.8486 44.4542 44.5839C44.2217 44.3325 44.0015 44.0746 43.7871 43.8076C43.4862 43.4335 43.1662 43.0831 42.8382 42.733C42.5329 42.4051 42.2501 42.0633 41.9697 41.7137C41.7587 41.4605 41.5366 41.2201 41.3113 40.9795C40.1093 39.6886 40.1093 39.6886 39.9854 39.0664C39.9952 38.9564 40.0067 38.8465 40.0196 38.7367C40.0234 38.4044 39.9364 38.2606 39.7114 38.019C39.5957 37.908 39.4782 37.7988 39.3591 37.6915C39.2993 37.6349 39.2396 37.5784 39.178 37.5201C39.0311 37.3814 38.8828 37.2446 38.7328 37.1092C38.4839 37.2037 38.2588 37.307 38.0328 37.4475C35.1468 39.2037 31.756 39.8202 28.4454 39.0453C26.8075 38.6364 25.2846 37.98 23.9367 36.9527C23.8698 36.9022 23.8029 36.8518 23.734 36.7998C22.8958 36.1483 22.1531 35.45 21.5099 34.6041C21.4569 34.5358 21.4039 34.4675 21.3493 34.3971C19.3473 31.7419 18.5532 28.4005 18.9716 25.1189C19.066 24.4851 19.2184 23.8677 19.3961 23.2526C19.4127 23.1952 19.4292 23.1377 19.4462 23.0785C20.0461 21.0644 21.2138 19.3995 22.6842 17.9292C22.7284 17.8813 22.7726 17.8335 22.8181 17.7842C24.3133 16.1907 26.4759 15.2542 28.5556 14.7194C28.6093 14.7053 28.6631 14.6911 28.7184 14.6765C30.3706 14.2632 32.4674 14.3061 34.1139 14.7194ZM23.6236 18.9469C23.5583 19.0117 23.493 19.0765 23.4257 19.1432C21.2849 21.301 20.2239 24.128 20.2336 27.1573C20.2847 30.1839 21.6256 32.9488 23.7682 35.0597C25.1197 36.2936 26.7662 37.1645 28.5263 37.6377C28.5841 37.6532 28.642 37.6688 28.7016 37.6848C29.565 37.9046 30.4202 37.9994 31.3103 37.9949C31.4025 37.9944 31.4947 37.994 31.5897 37.9935C32.3474 37.9831 33.0649 37.9162 33.8008 37.7355C33.8625 37.7204 33.9243 37.7053 33.9879 37.6897C35.7174 37.2491 37.2171 36.4644 38.5762 35.3087C38.6512 35.2452 38.7262 35.1817 38.8034 35.1163C40.8418 33.3455 42.1975 30.641 42.4122 27.9498C42.4746 26.763 42.4617 25.5848 42.1774 24.4269C42.1622 24.3651 42.1471 24.3034 42.1315 24.2397C41.6901 22.5067 40.9031 21.0166 39.7505 19.6514C39.6958 19.5862 39.6411 19.5209 39.5848 19.4536C39.1608 18.9639 38.6981 18.5578 38.1848 18.164C38.1181 18.1117 38.0514 18.0595 37.9827 18.0056C33.6872 14.747 27.4417 15.1408 23.6236 18.9469ZM40.3545 35.4799C40.2827 35.5526 40.211 35.6252 40.1371 35.7001C40.0291 35.8091 40.0291 35.8091 39.919 35.9203C39.8634 35.9768 39.8078 36.0333 39.7505 36.0915C40.0728 36.4766 40.4084 36.8373 40.7682 37.1875C40.8534 37.1179 40.9382 37.0476 41.0227 36.9771C41.0699 36.9381 41.1171 36.899 41.1658 36.8588C41.3406 36.695 41.4834 36.516 41.6294 36.3264C41.4616 36.1565 41.2936 35.9869 41.1254 35.8175C41.0775 35.769 41.0296 35.7204 40.9803 35.6704C40.9346 35.6245 40.889 35.5786 40.8419 35.5313C40.7997 35.4887 40.7575 35.446 40.714 35.4021C40.5363 35.2399 40.542 35.3004 40.3545 35.4799ZM42.1431 37.7013C42.0699 37.7714 41.9967 37.8415 41.9213 37.9137C41.8525 37.9825 41.7837 38.0514 41.7129 38.1224C41.6183 38.2165 41.6183 38.2165 41.5219 38.3125C41.3686 38.5182 41.3686 38.5182 41.402 38.8018C41.4912 39.135 41.6638 39.3208 41.9034 39.5557C41.9899 39.6447 42.0763 39.7339 42.1624 39.8233C42.2264 39.8892 42.2264 39.8892 42.2917 39.9564C42.4613 40.1361 42.6154 40.3265 42.7694 40.5196C43.0178 40.829 43.2772 41.1246 43.5474 41.415C43.8176 41.7053 44.077 42.001 44.3254 42.3104C44.6263 42.6845 44.9463 43.0348 45.2743 43.385C45.5792 43.7123 45.8616 44.0537 46.1415 44.4027C46.3967 44.7089 46.6672 44.9998 46.9403 45.29C47.1133 45.4743 47.2793 45.6592 47.4363 45.8574C47.7647 46.2631 48.2009 46.4659 48.7121 46.5265C49.3547 46.5599 49.8406 46.3965 50.3249 45.9687C50.7446 45.5227 50.9494 45.0848 50.9797 44.473C50.959 43.8606 50.6835 43.3231 50.2408 42.9024C50.0372 42.7308 49.8301 42.564 49.6219 42.3978C49.3608 42.186 49.1159 41.9582 48.8708 41.7281C48.5659 41.4424 48.2576 41.1678 47.9314 40.9061C47.6052 40.6444 47.297 40.3698 46.992 40.0841C46.6193 39.7351 46.2354 39.4079 45.837 39.0881C45.5601 38.8585 45.2976 38.6146 45.0345 38.3696C44.7068 38.0662 44.3648 37.7838 44.015 37.5062C43.8214 37.3441 43.8214 37.3441 43.6303 37.1282C43.4457 36.9341 43.4457 36.9341 43.207 36.9215C42.7379 36.9808 42.4622 37.3772 42.1431 37.7013Z"/>
</mask>
<path d="M34.1139 14.7194C34.1701 14.7324 34.2263 14.7455 34.2842 14.7589C35.2171 14.9767 36.0728 15.3173 36.9322 15.7371C37.0233 15.7815 37.1145 15.826 37.2084 15.8717C38.1109 16.3355 38.9177 16.9231 39.6588 17.6145C39.8078 17.7531 39.9602 17.8833 40.1175 18.0123C42.3249 19.9073 43.5557 23.0329 43.7801 25.8761C43.9648 28.7072 43.2951 31.3891 41.752 33.7686C41.6065 34.0166 41.6065 34.0166 41.5511 34.2909C41.7063 34.537 41.9231 34.7318 42.1285 34.9368C42.1826 34.9951 42.2368 35.0535 42.2927 35.1136C42.5903 35.4249 42.5903 35.4249 42.9811 35.573C43.0994 35.5689 43.2177 35.5615 43.3356 35.551C43.8799 35.5275 44.2921 35.8717 44.6728 36.2187C44.72 36.2605 44.7673 36.3023 44.816 36.3453C44.955 36.4685 45.0929 36.5929 45.2305 36.7178C45.3013 36.7817 45.372 36.8456 45.4449 36.9114C45.5716 37.0259 45.6981 37.1406 45.8244 37.2554C46.0216 37.4297 46.2242 37.5951 46.4293 37.76C46.8062 38.0646 47.1602 38.3877 47.5136 38.7186C47.7757 38.9627 48.0433 39.1944 48.3228 39.4187C48.649 39.6804 48.9573 39.955 49.2623 40.2407C49.5706 40.5294 49.8824 40.8072 50.2115 41.0725C51.167 41.8469 52.1325 42.65 52.2998 43.9456C52.3104 44.1303 52.3129 44.3125 52.3105 44.4975C52.3096 44.595 52.3096 44.595 52.3086 44.6944C52.2824 45.6467 51.9256 46.3001 51.2625 46.9711C50.9285 47.2803 50.5852 47.5083 50.1626 47.6779C50.0936 47.7058 50.0247 47.7338 49.9537 47.7626C49.0132 48.0217 47.9883 47.8831 47.1489 47.4115C46.3488 46.901 45.7649 46.1214 45.1767 45.3904C44.9454 45.1123 44.7006 44.8486 44.4542 44.5839C44.2217 44.3325 44.0015 44.0746 43.7871 43.8076C43.4862 43.4335 43.1662 43.0831 42.8382 42.733C42.5329 42.4051 42.2501 42.0633 41.9697 41.7137C41.7587 41.4605 41.5366 41.2201 41.3113 40.9795C40.1093 39.6886 40.1093 39.6886 39.9854 39.0664C39.9952 38.9564 40.0067 38.8465 40.0196 38.7367C40.0234 38.4044 39.9364 38.2606 39.7114 38.019C39.5957 37.908 39.4782 37.7988 39.3591 37.6915C39.2993 37.6349 39.2396 37.5784 39.178 37.5201C39.0311 37.3814 38.8828 37.2446 38.7328 37.1092C38.4839 37.2037 38.2588 37.307 38.0328 37.4475C35.1468 39.2037 31.756 39.8202 28.4454 39.0453C26.8075 38.6364 25.2846 37.98 23.9367 36.9527C23.8698 36.9022 23.8029 36.8518 23.734 36.7998C22.8958 36.1483 22.1531 35.45 21.5099 34.6041C21.4569 34.5358 21.4039 34.4675 21.3493 34.3971C19.3473 31.7419 18.5532 28.4005 18.9716 25.1189C19.066 24.4851 19.2184 23.8677 19.3961 23.2526C19.4127 23.1952 19.4292 23.1377 19.4462 23.0785C20.0461 21.0644 21.2138 19.3995 22.6842 17.9292C22.7284 17.8813 22.7726 17.8335 22.8181 17.7842C24.3133 16.1907 26.4759 15.2542 28.5556 14.7194C28.6093 14.7053 28.6631 14.6911 28.7184 14.6765C30.3706 14.2632 32.4674 14.3061 34.1139 14.7194ZM23.6236 18.9469C23.5583 19.0117 23.493 19.0765 23.4257 19.1432C21.2849 21.301 20.2239 24.128 20.2336 27.1573C20.2847 30.1839 21.6256 32.9488 23.7682 35.0597C25.1197 36.2936 26.7662 37.1645 28.5263 37.6377C28.5841 37.6532 28.642 37.6688 28.7016 37.6848C29.565 37.9046 30.4202 37.9994 31.3103 37.9949C31.4025 37.9944 31.4947 37.994 31.5897 37.9935C32.3474 37.9831 33.0649 37.9162 33.8008 37.7355C33.8625 37.7204 33.9243 37.7053 33.9879 37.6897C35.7174 37.2491 37.2171 36.4644 38.5762 35.3087C38.6512 35.2452 38.7262 35.1817 38.8034 35.1163C40.8418 33.3455 42.1975 30.641 42.4122 27.9498C42.4746 26.763 42.4617 25.5848 42.1774 24.4269C42.1622 24.3651 42.1471 24.3034 42.1315 24.2397C41.6901 22.5067 40.9031 21.0166 39.7505 19.6514C39.6958 19.5862 39.6411 19.5209 39.5848 19.4536C39.1608 18.9639 38.6981 18.5578 38.1848 18.164C38.1181 18.1117 38.0514 18.0595 37.9827 18.0056C33.6872 14.747 27.4417 15.1408 23.6236 18.9469ZM40.3545 35.4799C40.2827 35.5526 40.211 35.6252 40.1371 35.7001C40.0291 35.8091 40.0291 35.8091 39.919 35.9203C39.8634 35.9768 39.8078 36.0333 39.7505 36.0915C40.0728 36.4766 40.4084 36.8373 40.7682 37.1875C40.8534 37.1179 40.9382 37.0476 41.0227 36.9771C41.0699 36.9381 41.1171 36.899 41.1658 36.8588C41.3406 36.695 41.4834 36.516 41.6294 36.3264C41.4616 36.1565 41.2936 35.9869 41.1254 35.8175C41.0775 35.769 41.0296 35.7204 40.9803 35.6704C40.9346 35.6245 40.889 35.5786 40.8419 35.5313C40.7997 35.4887 40.7575 35.446 40.714 35.4021C40.5363 35.2399 40.542 35.3004 40.3545 35.4799ZM42.1431 37.7013C42.0699 37.7714 41.9967 37.8415 41.9213 37.9137C41.8525 37.9825 41.7837 38.0514 41.7129 38.1224C41.6183 38.2165 41.6183 38.2165 41.5219 38.3125C41.3686 38.5182 41.3686 38.5182 41.402 38.8018C41.4912 39.135 41.6638 39.3208 41.9034 39.5557C41.9899 39.6447 42.0763 39.7339 42.1624 39.8233C42.2264 39.8892 42.2264 39.8892 42.2917 39.9564C42.4613 40.1361 42.6154 40.3265 42.7694 40.5196C43.0178 40.829 43.2772 41.1246 43.5474 41.415C43.8176 41.7053 44.077 42.001 44.3254 42.3104C44.6263 42.6845 44.9463 43.0348 45.2743 43.385C45.5792 43.7123 45.8616 44.0537 46.1415 44.4027C46.3967 44.7089 46.6672 44.9998 46.9403 45.29C47.1133 45.4743 47.2793 45.6592 47.4363 45.8574C47.7647 46.2631 48.2009 46.4659 48.7121 46.5265C49.3547 46.5599 49.8406 46.3965 50.3249 45.9687C50.7446 45.5227 50.9494 45.0848 50.9797 44.473C50.959 43.8606 50.6835 43.3231 50.2408 42.9024C50.0372 42.7308 49.8301 42.564 49.6219 42.3978C49.3608 42.186 49.1159 41.9582 48.8708 41.7281C48.5659 41.4424 48.2576 41.1678 47.9314 40.9061C47.6052 40.6444 47.297 40.3698 46.992 40.0841C46.6193 39.7351 46.2354 39.4079 45.837 39.0881C45.5601 38.8585 45.2976 38.6146 45.0345 38.3696C44.7068 38.0662 44.3648 37.7838 44.015 37.5062C43.8214 37.3441 43.8214 37.3441 43.6303 37.1282C43.4457 36.9341 43.4457 36.9341 43.207 36.9215C42.7379 36.9808 42.4622 37.3772 42.1431 37.7013Z" fill="black" stroke="#D7FFF1" stroke-width="0.503666" mask="url(#path-3-inside-1_1504_60227)"/>
<path d="M23.957 20.3232C26.523 17.3422 30.8062 16.3032 34.4971 17.5302L34.8525 17.6562C34.9041 17.6756 34.9557 17.6949 35.0088 17.7148V17.7138C37.2846 18.5899 39.0948 20.3317 40.2031 22.4843L40.415 22.9199C41.4828 25.3853 41.453 28.1856 40.4971 30.6806C40.0576 31.7552 39.4262 32.6641 38.6631 33.5254L38.3281 33.8916L38.3252 33.8945L38.2021 34.0322C36.7018 35.6472 34.4164 36.5578 32.2236 36.7431L31.7861 36.7705C30.0094 36.8136 28.3776 36.4716 26.8145 35.6767L26.5029 35.5117L26.501 35.5107L26.2871 35.3965C24.2502 34.2457 22.6915 32.2709 21.9502 30.0537L21.8135 29.6074C21.6668 29.0358 21.5378 28.4607 21.4932 27.8818L21.4795 27.6328V27.6318L21.4727 27.4716C21.4307 26.2195 21.5713 25.0517 21.9307 23.8779L22.0977 23.374V23.373C22.1262 23.293 22.1552 23.2132 22.1846 23.1308C22.5096 22.2903 22.9825 21.5164 23.5488 20.8134L23.7969 20.5166L23.7988 20.5156C23.8515 20.4526 23.9038 20.3891 23.958 20.3242L23.957 20.3232ZM31.2109 18.1142C29.3416 18.1478 27.528 18.8047 26.0469 19.9326L25.7354 20.1816L25.542 20.3427L25.54 20.3437C23.8893 21.7728 22.9032 23.7661 22.625 25.9023L22.5781 26.331V26.334C22.4417 28.3901 23.077 30.5338 24.335 32.1767L24.5947 32.499L24.5957 32.5C24.7349 32.6581 24.8765 32.8137 25.0186 32.9677V32.9668L25.1514 33.1191L25.1533 33.122C26.5806 34.6701 28.6731 35.4458 30.7148 35.6504L31.1221 35.6836H31.127C33.1846 35.7357 35.2748 35.0354 36.8594 33.7158L37.1689 33.4443L37.1709 33.4424C37.333 33.2873 37.4918 33.13 37.6484 32.9707L37.6475 32.9697L37.8447 32.7734L37.8477 32.7705C38.2011 32.3983 38.4864 31.9988 38.7461 31.5752L38.999 31.1435L39.1289 30.914L39.1299 30.9111C40.1639 28.9671 40.3498 26.7269 39.8105 24.625L39.6924 24.206V24.2041L39.5312 23.7549C39.1862 22.8726 38.7056 22.0761 38.1143 21.3408L37.8096 20.9775L37.6396 20.7841L37.6367 20.7812L37.334 20.4756C35.8874 19.0979 33.9983 18.3599 32.0381 18.1533L31.6172 18.1172L31.6123 18.1162L31.2109 18.1142Z" fill="#003A2F" stroke="#D7FFF1" stroke-width="0.251833"/>
</svg>
