<svg width="197" height="112" viewBox="0 0 197 112" fill="none" xmlns="http://www.w3.org/2000/svg">
<path d="M154.961 6.3973C139.73 2.03078 123.811 -0.437755 107.939 0.513175C96.834 0.90131 85.9318 3.53286 75.4772 7.17357C72.3245 8.45829 69.1562 10.0147 66.7897 12.5221C62.3098 17.1564 58.5187 22.3807 54.5019 27.407C53.957 28.1755 53.1513 28.9091 53.2836 29.9416C53.2097 28.0125 51.1196 27.3993 49.5004 27.4614C48.5896 27.636 48.2315 28.7034 48.2159 29.5185C48.2899 31.3427 49.1734 33.1747 50.7615 34.1489C49.8857 34.999 48.9438 35.8761 48.5818 37.0871C48.4028 37.0794 48.0447 37.0638 47.8656 37.06C43.5258 39.5168 38.5787 40.526 34.0014 42.424C29.2412 44.1667 24.5005 45.956 19.8726 48.0248C15.5327 50.078 10.9671 51.7974 7.12158 54.7317C5.59583 55.8961 4.26466 57.7242 4.58383 59.7425C5.03922 62.7622 5.42067 65.8013 6.12906 68.7744C6.02785 68.9375 5.82549 69.2635 5.72427 69.4265C6.13297 69.279 6.82188 69.442 6.99704 68.953C7.36292 67.5712 7.30064 66.1196 7.31621 64.7068C7.17218 64.6098 6.88416 64.4235 6.74014 64.3264C6.8569 64.9707 7.2617 65.6461 6.84523 66.2749C6.42487 65.0639 6.53384 63.7714 6.46768 62.5177L7.05153 63.0029C7.02817 62.704 6.98535 62.1024 6.96201 61.7997L6.48326 62.017C6.55721 60.9535 5.98116 59.3311 7.29674 58.8304C8.24643 58.6364 9.31682 58.9003 9.92401 59.6882C8.97041 59.5524 8.0168 59.3893 7.04762 59.401C7.17218 60.3946 8.14914 59.991 8.82249 60.0104C7.44464 62.7079 8.24255 65.9643 9.60095 68.5183C11.1656 69.279 12.8665 69.8457 14.6297 69.7448C15.4432 68.9103 16.4318 68.0525 16.5253 66.8066C16.6537 65.1958 16.7977 63.3794 15.7896 61.9976C14.7776 60.2704 12.345 59.6843 10.5896 60.5732C11.08 60.8759 11.6366 61.0467 12.1932 61.1592C10.7959 61.5668 10.1809 63.0106 10.4066 64.3614C10.1887 64.4623 9.74886 64.6602 9.53088 64.7573C9.54645 63.3949 9.91623 62.0131 11.0761 61.1631C10.6207 61.2213 9.97072 60.8216 9.65933 61.3261C9.4725 61.8268 9.29347 62.3314 9.11832 62.8399C9.15724 62.2421 9.19615 61.6522 9.23119 61.0583C9.63988 60.6275 10.0408 60.0996 10.7414 60.2821L10.7686 59.9211C12.7186 59.8085 15.0151 59.8396 16.463 61.3417C17.0935 62.5371 17.0468 63.9655 16.895 65.2735C16.677 67.0589 16.8561 68.8715 16.5798 70.653C17.2103 70.8626 17.8447 71.0722 18.4753 71.274C18.0121 70.719 17.8486 70.1096 17.9771 69.4459L17.3699 69.7098C17.113 67.2607 17.9109 64.7922 17.3387 62.378C17.3465 61.9433 17.3504 61.5124 17.3543 61.0816C21.6435 62.1762 25.9134 63.3522 30.082 64.8465C34.3012 66.1274 38.6644 66.8415 42.9847 67.7071C44.2614 67.9322 45.5303 68.2854 46.8342 68.2815C46.8809 68.4368 46.9665 68.7512 47.0132 68.9064C40.3069 67.5868 33.4059 66.8842 26.9915 64.4002C24.0762 63.2707 21.0013 62.6342 18.051 61.6095C17.8603 61.7453 17.6657 61.8851 17.4711 62.0325C17.9498 62.5992 17.9109 63.3444 17.9187 64.0314C17.9381 65.8401 17.689 67.6372 17.5022 69.4304L18.0277 69.3877C18.2339 68.3048 18.448 67.2219 18.592 66.1312C20.0127 66.5466 21.4529 66.9036 22.8346 67.4393C21.4061 67.2762 20.0711 66.6979 18.6893 66.3408C18.5882 67.9128 18.6465 69.4847 18.5648 71.0567C21.0714 72.7722 24.0062 73.6727 26.828 74.7245C32.6898 77.0961 39.112 77.2824 45.18 78.9048C47.1806 79.5258 49.4109 79.4326 51.2441 80.5349C50.6291 79.4016 50.0103 78.1945 50.0336 76.8709C50.0726 74.8526 49.7845 72.7567 50.5279 70.8277C49.9246 70.8238 49.3174 70.8044 48.7102 70.7656C46.842 70.2765 44.8958 70.0436 42.9614 69.9815C42.7862 69.9039 42.4321 69.7525 42.2569 69.6749C41.5096 69.6128 40.7195 69.6982 40.0228 69.3644C40.9608 69.3178 41.965 69.1665 42.8135 69.6672C45.8923 69.803 48.9321 70.4434 51.9836 70.8781C51.8124 70.9713 51.4699 71.1498 51.2986 71.243C51.3219 72.4229 51.0417 73.5679 50.8354 74.7207L50.5124 74.6547C50.5318 76.4362 50.4306 78.3963 51.5321 79.9178C52.3184 81.2452 53.9453 81.5169 55.2414 82.1069C55.5528 81.9283 55.8642 81.7537 56.1678 81.5751C55.1986 81.3733 54.3579 80.8532 53.56 80.2865C53.4471 80.1895 53.2214 79.9877 53.1085 79.8906C52.186 79.3395 51.8902 78.1984 51.5633 77.2474C51.1312 76.0287 51.6878 74.775 51.7968 73.5524L52.151 73.5252C52.1004 73.3311 51.9992 72.9391 51.9486 72.7412L52.5402 72.8537C52.5285 72.5471 52.5052 71.9377 52.4935 71.635C52.9567 71.6156 53.416 71.5962 53.8753 71.5807C53.7274 71.6971 53.4277 71.9261 53.2798 72.0387C52.1743 74.2976 51.318 77.2203 53.0929 79.3822C52.8555 78.0392 52.3378 76.7157 52.4896 75.33C52.7115 73.9638 53.381 72.7218 54.175 71.604C54.9573 71.6156 55.7358 71.6699 56.5064 71.7903C57.7558 72.4579 59.0909 73.2031 59.6786 74.5693C60.4142 76.4207 60.6789 78.5438 60.1729 80.4806C59.2816 82.3009 57.063 81.3345 55.6579 82.2466C57.2693 82.5222 59.1687 83.0772 60.6439 82.0525C61.3639 81.2879 61.0448 80.1429 61.0603 79.2036C61.037 77.2513 60.4648 75.3766 60.1924 73.4553L59.8382 73.5834L59.9082 73.0478L59.2816 73.2613C59.3906 73.075 59.6047 72.6985 59.7097 72.5122C59.157 72.2871 58.6044 72.062 58.0478 71.8329C58.5421 71.7126 59.0325 71.5186 59.5424 71.5457C60.2002 71.7864 60.4648 72.485 60.3909 73.1371C60.531 73.6106 60.6672 74.0841 60.7996 74.5615C61.0292 75.1864 61.0526 76.3159 62.0101 75.9355C61.5235 74.0182 60.9631 71.9688 59.4256 70.6026C60.1963 68.7356 62.1969 67.9788 63.7733 66.9425C73.5233 61.5668 83.7911 57.1615 94.3235 53.5479C99.4107 51.941 104.548 50.4855 109.702 49.0999C110.601 51.5451 110.924 54.1651 111.395 56.719C107.094 57.6699 102.968 59.2419 98.8074 60.6663C93.9265 62.3663 88.9911 63.8878 84.0986 65.549C77.9605 67.7692 71.7212 69.6904 65.4703 71.5729C64.2559 71.9455 63.0104 72.1978 61.7726 72.4734C61.7376 73.5796 62.808 72.9197 63.3801 72.9042C71.3242 70.7695 79.1826 68.297 86.8932 65.4248C95.0436 62.7351 103.12 59.8163 111.321 57.2934C112.134 66.1507 112.306 75.0894 111.516 83.9583C111.726 83.9622 112.142 83.9738 112.352 83.9816C112.364 79.8014 112.784 75.625 112.691 71.437C112.742 66.236 112.189 61.0506 111.944 55.8651C111.543 53.5324 111.056 51.2152 110.469 48.9213C114.738 48.1645 118.884 46.8409 123.118 45.9055C127.408 44.6674 131.662 43.3167 135.967 42.1367C138.894 41.4071 141.797 40.5609 144.635 39.5362C147.278 42.0591 146.908 45.9948 147.122 49.3211C147.877 57.177 147.328 65.0716 147.332 72.943C140.24 75.7027 133.184 78.5438 126.115 81.3539C121.355 83.3528 116.556 85.2779 111.652 86.8926C111.815 86.1396 111.975 85.3905 112.127 84.6414C111.889 84.4008 111.652 84.1601 111.418 83.9195C111.364 84.9209 111.333 85.9378 111.06 86.9159C110.507 87.6339 109.527 87.731 108.725 88.0221C110.005 87.8202 111.301 87.6572 112.524 87.2225C120.402 84.5172 128.069 81.2646 135.788 78.1557C142.654 75.5668 149.34 72.5316 156.234 70.0126C158.495 69.2169 160.706 68.2272 163.076 67.7886C163.107 69.0461 162.185 70.0204 161.044 70.4163C156.444 72.2987 151.808 74.0997 147.18 75.9122C139.653 79.0756 132.109 82.2 124.481 85.1149C118.841 87.5058 113.01 89.4077 107.386 91.8413C107.904 89.757 106.74 87.8629 106.592 85.8213C105.794 81.35 103.7 76.7002 99.5741 74.3713C96.9391 72.7683 93.6696 73.0439 90.8205 73.8551C87.1073 74.9574 83.8028 77.2086 81.2339 80.0731C80.0584 81.7149 79.0931 83.5119 78.2796 85.3556C76.9874 88.9381 75.4889 92.474 73.5272 95.7498C72.7527 97.2868 70.8688 97.446 69.3898 97.8613C66.058 98.5017 62.6756 99.4759 59.2543 98.9713C55.4477 98.5405 51.6489 98.0359 47.8617 97.4421C44.0979 96.7861 40.2251 96.4252 36.6715 94.9347C35.173 94.2943 33.6745 93.6112 32.0514 93.3473C30.3388 93.1144 28.8326 92.2023 27.155 91.8374C27.0304 91.8918 26.7813 92.0004 26.6568 92.0509C26.3571 93.126 28.093 93.1221 28.6301 93.8712C27.0382 93.3667 25.5358 92.5865 24.1579 91.6472C24.8002 91.6317 26.3259 92.9048 26.1741 91.6977C23.4029 90.7739 20.5615 89.9627 18.0043 88.5111C16.8795 87.9832 16.0387 87.0323 15.3887 85.996C15.2681 85.8873 15.0228 85.6738 14.9022 85.5652L15.5989 85.8174C15.4121 84.0476 15.56 82.2699 15.6534 80.5C15.3965 80.5466 14.8905 80.6436 14.6375 80.6902C14.6297 81.0317 14.6219 81.7149 14.618 82.0525C10.43 79.9372 6.26529 77.6666 2.68053 74.6198C7.95062 76.0209 12.4812 79.3123 17.6073 81.121C21.2037 82.3786 24.8235 83.5585 28.4511 84.7229C31.3314 85.6273 34.4529 85.7786 37.1503 87.207C37.6991 87.172 38.244 87.1177 38.785 87.0439C38.7811 89.0933 39.112 91.1737 38.7811 93.2075L38.244 93.9916C37.9638 93.5297 37.738 93.0406 37.5395 92.5399L37.053 93.1532C36.5703 91.3057 36.8506 89.3728 36.8973 87.4942C35.6479 87.0983 34.3479 87.2691 33.0945 87.5563C33.114 89.0428 33.1529 90.5333 33.1413 92.0198C32.826 91.8452 32.2032 91.4997 31.8918 91.3251C31.7984 90.1102 31.7712 88.8837 31.8101 87.6689C32.0164 87.5485 32.4251 87.304 32.6275 87.1837C31.8101 86.7684 30.9149 86.5355 29.9963 86.4501C29.899 86.648 29.7005 87.0478 29.6032 87.2458C29.8951 87.3312 30.4828 87.4981 30.7748 87.5835C30.7748 87.9832 30.7748 88.7867 30.7709 89.1903C30.3038 89.004 29.829 88.8177 29.3541 88.6275C30.2883 89.0467 31.1212 89.7027 30.8565 90.8748C30.008 90.7002 29.1634 90.5022 28.3188 90.2965C27.9101 88.8759 27.7038 87.3933 27.1161 86.0309C26.1352 85.3012 24.8936 85.0645 23.7921 84.5676C23.7532 84.8937 23.7103 85.2197 23.6675 85.5458L24.1424 85.5031C24.2825 86.6908 24.3915 87.8862 24.2903 89.0855C23.2316 89.1748 22.3013 88.5926 21.375 88.1657C21.593 86.846 21.8187 85.5147 21.6202 84.1756C20.7912 83.7176 19.9388 83.2674 18.9968 83.085C19.4678 83.6129 20.1022 83.935 20.6938 84.3037C20.6783 85.4138 20.5265 86.5161 20.3591 87.6145C19.8337 87.5835 19.3043 87.5524 18.775 87.5369C23.5585 90.3858 29.1984 90.9098 34.3557 92.7689C35.9203 93.1377 37.4655 93.5452 38.9057 94.2671C39.7737 93.5297 39.5946 92.2721 39.6919 91.2669C44.2653 92.6719 49.0605 93.0678 53.7896 93.6034C56.2651 93.8247 58.7211 94.3254 61.216 94.2322C63.7382 94.2322 66.2098 93.6927 68.6502 93.1027C69.9074 92.7767 71.1763 92.4119 72.2895 91.7287C73.7024 90.8904 74.2628 89.2253 74.7649 87.7581C74.6988 86.551 73.7452 85.6001 73.6518 84.3813C73.5545 84.6686 73.4533 84.9597 73.3443 85.2469C73.5078 85.5108 73.8347 86.0348 73.9982 86.2949C68.9305 88.2355 63.6214 90.413 58.0711 89.6871C52.8049 88.9342 47.5932 87.8396 42.3698 86.846C36.3485 85.8951 30.4984 84.1485 24.6639 82.4329C20.4097 81.1016 16.21 79.5879 12.1893 77.6511C9.13777 76.1723 5.89165 75.0778 2.98413 73.3117C3.29552 73.0556 3.92216 72.5394 4.23355 72.2832C3.75481 72.291 2.7973 72.3065 2.32245 72.3181C2.66885 71.8446 2.99971 71.1848 3.67307 71.1654C4.69673 71.2042 5.65421 71.6234 6.65062 71.8174C6.60002 71.9843 6.49493 72.3181 6.44432 72.485C7.37457 72.8848 8.29704 73.3079 9.23508 73.6843C8.69016 72.78 7.43297 72.8654 6.85303 71.996C11.006 73.6727 15.1669 75.3533 19.2615 77.1737C21.2466 77.9771 23.2316 78.8931 25.3879 79.1066C26.1858 79.1648 26.8981 79.5374 27.4975 80.042C22.9397 79.0949 18.5687 77.4299 14.3534 75.4775C12.5435 74.7517 10.7959 73.8318 8.91202 73.3079C10.3327 74.5615 12.2944 74.9031 13.933 75.7919C18.0938 77.95 22.5855 79.3278 27.0888 80.5621C27.9296 79.9256 29.0194 80.2555 29.8757 80.663C28.9843 80.6009 28.0735 80.1817 27.2017 80.5893C29.6616 81.3849 32.1799 81.9827 34.7176 82.4484C34.3167 81.905 33.6434 81.7692 33.0595 81.5053C36.0721 81.8973 38.9874 82.856 42.0234 83.0889C41.7665 83.2635 41.5057 83.4343 41.241 83.6051C40.3653 83.3256 39.4701 83.1044 38.567 82.9181C38.3802 83.0889 38.4075 83.3295 38.4542 83.5546C40.521 83.4615 42.5877 84.7151 44.6078 84.164C43.806 83.9389 42.9886 83.869 42.1596 83.9583C42.1051 83.772 41.9961 83.3994 41.9416 83.2092C43.5414 83.543 45.1527 83.7953 46.7719 84.0126L46.8497 84.4861C46.0752 84.4085 45.2929 84.3464 44.5144 84.2843L44.4988 84.5172C46.9782 84.7501 49.3992 85.3284 51.8513 85.7165C52.1082 85.6894 52.6181 85.6311 52.875 85.604C52.945 85.7631 53.0851 86.0775 53.1552 86.2366C53.1474 86.0659 53.1396 85.7204 53.1357 85.5496C53.992 85.5341 54.8483 85.4875 55.7046 85.4992C55.0429 85.6855 54.3657 85.8058 53.6923 85.9611C57.4561 86.3764 61.325 87.1526 65.0616 86.1474C67.7355 85.9106 70.2499 84.4202 72.9706 84.8626C73.1419 84.6298 73.3131 84.393 73.4805 84.1601C72.5581 83.7836 71.5577 83.5158 70.573 83.8457C68.2454 84.4473 65.879 84.9131 63.4697 84.983C63.1661 85.2314 62.8235 85.34 62.4421 85.3167C59.9277 85.3866 57.4951 84.688 55.0274 84.3348C48.8387 82.9569 42.5255 82.2621 36.3368 80.9037C32.6859 80.2865 29.0388 79.518 25.5903 78.144C23.2199 77.1659 20.7834 76.3586 18.4675 75.2485C14.9022 73.5291 11.0722 72.4578 7.47578 70.8083C6.1096 70.3386 4.7551 69.3528 3.24101 69.7137C1.97992 70.1174 0.65657 71.1382 0.633224 72.5704C0.477524 73.6727 1.00296 74.7517 1.85147 75.4387C5.67366 78.6641 10.2782 80.7406 14.4468 83.4576C14.3962 84.2377 14.3339 85.0218 14.2794 85.8058C17.728 90.5527 22.9552 94.1779 28.8948 94.7989C30.1948 95.2103 31.1251 93.7432 32.4017 93.9877C33.8886 94.2594 35.1185 95.2103 36.5158 95.7304C43.3701 98.4939 50.8471 98.9053 58.0828 100.012C63.1388 100.966 68.0975 99.2081 73.0057 98.2766C72.9434 101.665 74.041 105.298 76.7695 107.491C80.4593 110.464 85.3285 112.242 90.0926 111.535C94.1172 110.693 97.7526 108.077 99.7726 104.498C101.267 101.809 102.229 98.8316 102.785 95.808C102.992 95.1055 103.065 94.3719 103.108 93.6461C104.194 93.7781 105.323 93.9062 106.37 93.5025C125.018 86.4928 143.428 78.8737 161.951 71.5418C162.333 73.3117 163.208 75.0506 164.734 76.1024C167.759 78.2178 171.935 78.8582 175.345 77.3289C178.396 75.5396 180.233 72.2483 181.21 68.9452C182.125 66.1196 182.136 63.1387 182.413 60.2122C184.982 57.7708 187.691 55.4692 190.252 53.0084C191.353 51.9178 192.887 51.4947 194.132 50.6253C195.444 49.193 196.137 47.2951 196.394 45.3971C196.289 44.0774 195.285 43.1265 194.031 42.8393C194.697 39.4703 194.759 36.0003 194.42 32.5886C194.082 29.8911 193.276 27.0305 191.272 25.0938C187.41 23.0133 183.024 22.2487 178.766 21.4026C176.368 21.0688 174.006 20.4749 171.581 20.3236C168.728 16.8614 166.392 12.9257 162.928 9.99531C160.776 7.91103 157.779 7.13476 154.961 6.3973ZM120.775 1.3826C129.98 1.82119 139.034 3.64542 148.025 5.55116C151.15 6.37013 154.245 7.3133 157.405 7.98865C148.924 8.23706 140.513 9.89051 132.448 12.4833C128.003 13.8728 123.146 14.7111 119.444 17.727C117.942 18.872 117.502 20.7466 116.782 22.3846C113.754 28.1018 112.59 34.5371 110.457 40.5959C109.998 41.9854 109.176 43.2429 108.873 44.6829C108.756 45.9754 109.122 47.2407 109.297 48.5138C105.409 49.2784 101.657 50.602 97.7253 51.1454C93.8642 52.1778 90.186 53.7769 86.4456 55.1664C79.2333 57.864 72.3595 61.3572 65.5403 64.897C62.8586 66.3564 60.1262 67.7769 57.7519 69.7137C54.7277 69.0112 51.645 68.592 48.5974 67.9904C48.0719 68.2932 48.7725 68.7977 49.0489 69.0151C48.3716 69.0927 47.6866 69.1471 47.0016 69.1781C47.2974 68.7939 47.8306 68.5183 47.924 68.0215C41.7781 66.3874 35.426 65.5917 29.323 63.7869C25.6448 62.4479 21.8226 61.5901 18.0666 60.5072C17.8525 60.4528 17.4205 60.3442 17.2025 60.2898C14.8711 59.1099 12.2204 58.8615 9.83838 57.8058C8.41382 57.1071 7.0126 57.9183 5.84103 58.7062C7.38626 57.3245 8.42549 55.4304 10.2237 54.332C13.0456 52.3602 16.3579 51.2967 19.425 49.7908C25.6993 46.8565 32.1487 44.3414 38.6527 41.9776C32.2071 44.9042 25.9951 48.3353 20.0127 52.1157C17.8058 53.5091 15.4471 54.7589 13.6489 56.6879C15.3342 56.1562 16.5953 54.8404 18.0899 53.9593C23.4184 50.6835 28.7625 47.396 34.4802 44.8343C38.8395 42.6374 43.2961 40.6424 47.7722 38.7018C48.6207 38.2787 49.7962 38.3059 50.2788 37.3705C50.3489 37.4985 50.4851 37.7625 50.5552 37.8906C52.8477 38.8493 55.2765 37.778 57.6352 38.1623C57.9037 38.4999 58.149 38.8531 58.3786 39.2141C59.8771 38.1661 61.7181 39.1792 63.3568 39.3344C68.7592 40.5144 74.2551 41.2363 79.6575 42.424C85.7995 43.5884 91.9414 44.9042 98.2002 45.2496C99.5897 45.2651 100.971 45.0012 102.361 45.1332C100.979 46.9147 98.6283 46.577 96.6588 46.4567C91.8247 46.0336 87.0061 45.3117 82.3004 44.124C78.8207 43.437 75.3371 42.7772 71.8341 42.2415C71.2152 42.1523 70.6119 42.3774 70.0981 42.7112L72.0676 42.75C71.6083 42.9596 71.1218 43.3167 70.5808 43.0683C69.6583 42.8276 68.5802 42.9091 67.7589 42.3968C68.3855 41.8922 69.8413 43.0993 70.1059 42.0164C68.0664 41.8146 66.058 41.3411 64.0107 41.2634L64.0068 41.3876C64.6801 41.5002 65.3496 41.574 66.0113 41.7214C65.4391 42.0281 64.3065 41.4071 64.0068 42.2144C66.5873 42.7073 69.1951 43.7281 71.8574 43.2934C71.9197 43.4098 72.0443 43.6505 72.1104 43.7708C76.0338 45.0089 80.1557 45.4398 84.1881 46.2044C85.021 46.4101 85.8773 46.2704 86.6947 46.0918C83.7444 45.9366 80.8641 45.238 77.9566 44.7489C76.0533 44.419 74.2162 43.7203 72.27 43.6233C72.1766 43.4292 71.9898 43.0411 71.8925 42.847C76.1467 43.534 80.4087 44.2172 84.6046 45.2108C88.8588 45.859 93.1091 46.5227 97.3906 46.9729C98.2547 47.0894 99.1226 46.9263 99.975 46.8409C99.9712 47.5435 99.8972 48.2499 99.4768 48.8437C98.5505 48.6613 97.5151 48.6497 96.76 48.0053C93.366 47.9006 90.1666 46.6158 86.8231 46.2044C90.4157 47.6405 94.269 48.0752 97.99 49.0417C98.7256 49.1193 99.8583 49.5579 100.251 48.6613C100.625 48.0325 100.318 47.2873 100.275 46.6158C101.466 46.577 102.295 45.7464 102.968 44.8692C102.17 44.7178 101.368 44.5509 100.551 44.5704C96.3513 44.6286 92.2022 43.8562 88.0959 43.0722C83.7677 42.4395 79.5291 41.3488 75.2476 40.4833C71.6317 39.7691 67.9574 39.3538 64.3688 38.496C62.4654 38.0419 60.5193 37.8362 58.5927 37.4947C60.7568 37.06 62.9403 37.6227 65.0849 37.91C68.3466 38.3486 71.585 39.0744 74.8817 39.2063C75.8431 39.3228 76.6488 39.9516 77.6024 40.1068C79.1398 40.3707 80.7006 40.1767 82.2303 39.9826C85.8695 39.5285 89.5049 40.2621 93.148 40.1961C94.0043 40.2271 94.9151 40.0952 95.7013 40.5182C95.4639 40.6424 94.9891 40.8947 94.7516 41.0228C96.8067 41.1858 98.8619 41.3605 100.921 41.2673C102.33 41.1664 103.735 41.6516 105.124 41.4692C105.132 41.3682 105.148 41.1625 105.152 41.0577C102.918 40.1805 100.497 40.1223 98.1652 39.641C92.1283 38.6435 85.9824 38.6901 79.8833 38.7483C76.065 37.7896 72.0949 37.5995 68.2571 36.7067C65.5092 36.4777 62.8741 35.6122 60.1223 35.4375C60.1379 35.325 60.1613 35.0999 60.1768 34.9873L59.9082 35.0261L59.9978 35.7054C57.8142 35.5501 56.0043 34.2925 54.175 33.2252C53.9687 33.2446 53.5561 33.2834 53.3537 33.2989C54.7238 32.7905 55.3154 31.3777 56.1406 30.2909C60.1184 25.0743 64.6412 20.277 68.4323 14.913C68.7981 14.5054 68.946 13.9892 68.9499 13.4458C74.5314 12.9839 80.1791 12.9257 85.7333 13.7214C85.5893 14.6801 85.4647 15.6504 85.1417 16.5742C84.7641 17.5717 83.939 18.3557 83.6899 19.4153C83.4291 20.4905 83.5653 21.6005 83.612 22.6912C83.8767 22.6524 84.4099 22.5786 84.6785 22.5398C84.5345 22.7223 84.2426 23.0832 84.0986 23.2656C83.1372 26.984 81.8216 30.6247 81.3078 34.4478C80.2219 33.9393 79.7782 32.6779 78.6689 32.2083C77.1081 31.4436 75.4383 30.8925 73.714 30.6518L74.0643 31.3427C72.8033 29.9493 70.7287 30.0386 69.0005 30.0075C69.0005 29.3671 68.5996 29.0062 68.0314 28.8237C68.0197 29.1187 67.9924 29.7048 67.9808 29.9998C65.081 30.4422 61.9672 30.8886 59.4918 32.5421C62.084 32.3402 64.4778 31.1292 67.0817 30.974C70.9934 31.0982 74.8156 32.0181 78.5404 33.1553C79.93 33.6909 80.7123 35.1969 82.1914 35.5773C83.1683 35.8373 84.1414 36.3341 85.1728 36.2177C85.7061 35.6704 85.7255 34.8398 85.924 34.1412C86.613 30.221 87.6483 26.3513 89.1857 22.6757C90.5597 22.5786 92.1283 23.1104 93.3154 22.206C94.4481 21.2667 94.2651 19.1786 92.9067 18.5304C91.9064 18.2548 90.8438 18.3169 89.8124 18.185C89.7618 16.8692 89.7229 15.5495 89.7384 14.2337C96.0633 15.0838 102.326 16.4966 108.363 18.5809C110.165 19.2523 112.029 19.9548 113.497 21.2357C114.326 21.9809 113.785 23.1997 113.652 24.1234C112.411 28.8781 110.527 33.4309 108.768 38.0109C108.149 39.4741 107.421 41.2673 105.666 41.6089C102.579 42.2338 99.3951 42.521 96.2502 42.226C90.8711 41.7758 85.492 41.279 80.1479 40.5299C81.771 41.3061 83.5848 41.4342 85.3363 41.7059C92.4007 42.5559 99.6442 44.353 106.713 42.5482C108.908 41.966 109.69 39.5324 110.363 37.6305C111.835 32.4062 114.361 27.5118 115.517 22.206C116.14 20.6613 114.777 19.5124 113.621 18.7749C110.558 16.8459 107.055 15.7708 103.583 14.8354C93.0702 11.8855 82.0941 11.0821 71.223 10.8065C72.7994 9.66539 74.4886 8.66012 76.3413 8.03523C84.6629 5.07376 93.3076 2.99336 102.085 1.93763C108.289 1.26228 114.54 1.19629 120.775 1.3826ZM161.683 10.888C165.723 14.1872 168.335 18.7866 171.378 22.9318C172.764 24.8842 174.706 26.363 176.002 28.3774C173.683 29.2895 171.121 29.6776 169.078 31.1952C168.844 31.2729 168.374 31.4242 168.14 31.5019C168.331 29.3205 167.712 27.1509 166.568 25.2995C163.796 20.9485 160.854 16.6169 156.965 13.1741C155.233 11.7691 152.886 11.6643 150.753 11.7031C145.339 11.8467 139.925 12.6734 134.772 14.3502C130.697 15.4952 126.532 16.5858 122.854 18.7516C120.974 19.9199 119.627 21.8101 118.958 23.9022C117.058 28.6762 115.641 33.6521 113.267 38.2321C112.368 39.9981 111.792 41.9116 111.457 43.8601L112.185 43.5729C112.193 43.7048 112.204 43.9765 112.212 44.1124C111.994 44.0774 111.554 44.0037 111.333 43.9649C111.134 44.7683 110.866 46.2122 112.177 46.053C115.03 45.5717 117.844 44.8188 120.697 44.3336C120.915 44.6092 121.114 44.8925 121.297 45.1914C118.958 45.8279 116.611 46.4489 114.256 47.0311C112.89 47.264 111.57 47.6948 110.231 48.048C109.873 47.1903 109.499 46.3208 109.406 45.3854C109.694 43.9959 110.523 42.8005 110.932 41.4498C112.255 37.4714 113.376 33.4154 115.015 29.5457C116.198 26.2426 117.319 22.9086 118.736 19.6909C119.596 17.9792 121.382 17.0322 123.064 16.2792C127.61 14.3618 132.444 13.2789 137.154 11.8467C143.603 10.1156 150.263 9.09096 156.938 8.84255C158.764 8.71447 160.243 9.9565 161.683 10.888ZM158.417 16.4228C159.776 17.921 161.278 19.2873 162.621 20.7971C164.442 23.3355 166.085 26.0835 166.863 29.1381C167.058 29.7941 166.949 30.4772 166.879 31.1448C165.602 31.5601 164.326 31.9831 163.041 32.3674C157.308 34.0014 151.769 36.2177 146.051 37.8983C138.372 40.5997 130.502 42.7112 122.686 44.9701C122.06 45.2845 121.939 44.3064 121.565 44.0153C132.662 41.9272 143.253 37.9061 153.906 34.2693C158.005 32.6857 162.352 31.7076 166.494 30.353C166.35 27.1664 164.726 24.2903 163.002 21.6937C161.936 20.0286 160.344 18.8176 158.95 17.4475C158.452 16.9235 157.662 16.5082 157.845 15.6155C157.253 17.2107 156.253 15.5961 157.152 15.2507C155.311 13.5351 152.785 13.015 150.337 13.1508C146.491 13.4225 142.665 13.9737 138.894 14.7694C139.594 18.4256 140.415 22.0547 141.381 25.6488C142.33 29.437 143.576 33.1708 144.016 37.0677C143.595 37.1453 143.175 37.2268 142.751 37.3006C141.984 29.5146 139.61 22.0353 137.959 14.4162C142.541 13.3993 147.223 12.6463 151.929 12.6928C154.502 12.7161 157.343 13.9698 158.417 16.4228ZM154.653 15.1303C155.763 17.168 156.008 19.5085 156.475 21.7442C157.168 25.0122 157.573 28.3308 158.09 31.6261C153.599 33.0156 149.224 34.77 144.72 36.1284C144.304 33.9277 143.922 31.7153 143.307 29.5573C141.852 24.9269 140.805 20.1838 139.618 15.4797C143.697 14.8548 147.799 14.191 151.937 14.1872C152.867 14.257 154.167 14.1406 154.653 15.1303ZM88.8744 14.1134C88.9989 15.4719 89.0768 16.8342 89.0651 18.2005C88.0219 18.1694 86.9243 18.2199 85.9746 17.7114C86.1965 16.3995 86.3561 15.0799 86.6908 13.7913C87.4225 13.8805 88.1504 13.9892 88.8744 14.1134ZM60.2469 23.0832C57.5418 26.2814 55.2959 29.8329 52.6648 33.0816C53.4315 31.1021 54.8172 29.4642 56.0627 27.7758C58.0594 25.1442 59.8499 22.338 62.1735 19.9665C64.0963 18.0297 65.7894 15.8717 67.8134 14.0358C65.5909 17.2922 62.7496 20.0519 60.2469 23.0832ZM137.469 17.1215C139.361 23.7857 141.069 30.5354 141.696 37.4558C140.976 37.6887 140.26 37.9216 139.54 38.1584C139.388 33.4348 138.613 28.7577 138.01 24.073C137.847 22.5515 137.251 21.1037 137.236 19.5628L136.979 19.6016C136.932 19.1359 136.885 18.674 136.831 18.2121C136.465 17.4553 136.48 16.6169 136.593 15.8018C136.262 15.8988 135.601 16.0929 135.27 16.1899C136.406 19.6172 137.142 23.1764 137.539 26.7627C137.952 30.7062 138.524 34.6341 138.824 38.5931C138.321 38.1855 138.181 37.5606 138.115 36.9513C137.598 32.3907 136.932 27.8456 136.072 23.3355C135.55 21.2667 134.935 19.2213 134.332 17.1719C134.094 17.1836 133.62 17.2107 133.382 17.2224C133.577 17.7114 133.764 18.2044 133.954 18.6934C134.13 19.2989 134.285 19.9083 134.468 20.5138C136.099 26.394 136.714 32.4722 137.566 38.496C134.53 39.5401 131.382 40.2388 128.361 41.3255C128.011 39.8351 127.719 38.333 127.415 36.8309C127.244 36.7145 126.902 36.4855 126.73 36.3691C124.516 36.3108 122.297 36.3458 120.106 36.6912C120.121 34.4129 119.728 32.1656 119.557 29.8989C119.666 28.7772 119.771 27.6554 119.923 26.5376C119.759 26.5337 119.432 26.5221 119.269 26.5182C118.529 29.961 119.697 33.5008 118.996 36.9319C119.732 38.8803 119.207 41.0771 119.432 43.1226C119.117 42.816 118.864 42.4201 118.88 41.9582C118.51 38.8454 118.961 35.5462 117.51 32.6469C117.584 36.175 117.829 39.7109 118.276 43.2119C116.416 43.798 114.583 44.4656 112.718 45.04C113.442 42.0514 114.489 39.1598 115.563 36.2837C116.143 34.801 116.463 33.2058 117.315 31.8434C117.837 29.6349 118.576 27.4885 119.323 25.3499C119.545 25.7186 119.759 26.0951 119.977 26.4639C120.187 25.4043 120.137 24.2243 120.74 23.2734C121.39 22.338 122.324 21.6471 123.294 21.0727C125.952 19.5395 128.824 18.4256 131.716 17.4242C133.538 16.8459 135.013 15.5146 136.866 15.0178C137.527 15.4525 137.216 16.4616 137.469 17.1215ZM134.133 15.2002C129.836 17.4126 124.796 18.3674 121.087 21.651C121.842 20.6457 122.811 19.8151 123.908 19.2057C127.12 17.4203 130.669 16.3801 134.133 15.2002ZM163.275 24.3641C164.193 25.9438 164.47 27.7758 165.034 29.4913C163.037 29.9532 161.157 30.7916 159.157 31.2496C158.137 26.2504 157.569 21.1503 156.23 16.221C159.238 18.2897 161.414 21.2823 163.275 24.3641ZM85.5154 18.7866C88.022 19.0078 90.5558 18.837 93.0468 19.1669C93.148 20.2459 92.7666 21.2396 92.101 22.0818C89.5749 22.1129 87.0255 22.1245 84.5306 21.6626C84.0596 20.5603 84.7447 19.3726 85.0093 18.2897C85.1339 18.414 85.3908 18.6624 85.5154 18.7866ZM178.828 22.404C182.098 23.0755 185.425 23.5956 188.547 24.8027C185.34 25.346 182.284 26.5104 179.139 27.31C178.579 27.3993 177.937 27.5895 177.423 27.2479C175.119 25.7963 173.395 23.6382 171.849 21.4414C174.216 21.3948 176.497 22.1206 178.828 22.404ZM88.3917 22.4777C86.5195 26.7977 85.8734 31.4825 84.6707 35.9965C83.7911 35.6588 82.9854 35.1697 82.2303 34.6069C82.277 31.8628 83.4524 29.3477 84.1219 26.7317C84.5345 25.3693 84.7602 23.9332 85.4141 22.6524C86.3288 22.241 87.4148 22.5709 88.3917 22.4777ZM191.42 26.984C191.875 27.8612 192.579 28.8587 192.451 29.8756C186.749 31.5872 181.062 33.3688 175.325 34.964C175.59 35.1348 175.854 35.3056 176.123 35.4764C181.689 33.7996 187.216 31.9094 192.937 30.8071C193.65 33.7996 193.767 36.9396 193.338 39.9865C193.105 41.2285 192.708 42.4356 192.525 43.6932C191.167 45.432 188.784 45.6222 186.959 46.6624C185.807 47.0699 185.005 48.1839 183.767 48.3547L184.145 49.1154C186.737 48.1878 189.092 46.5071 191.902 46.2665C191.98 47.854 191.579 49.391 190.914 50.8232C188.995 52.7716 186.78 54.3979 184.779 56.261C184.83 53.8507 184.9 51.2696 183.717 49.0844C182.389 46.9574 179.54 46.1462 177.178 46.7361C175.014 47.3028 172.834 48.2499 171.371 50.0004C168.358 53.5363 166.941 58.0736 165.886 62.5138C165.482 64.0974 165.248 65.7819 164.361 67.1908C164.092 67.7226 163.138 67.4897 163.38 66.8066C164.505 62.7972 165.661 58.7839 167.175 54.9025C168.117 52.4068 169.576 50.1052 171.464 48.2149C173.628 46.0259 176.87 44.8809 179.926 45.3311C181.755 45.6222 182.783 47.2291 184.168 48.246C183.168 46.9069 181.934 45.5795 180.245 45.1642C178.626 44.6247 176.936 45.2379 175.333 45.5174C175.376 42.1329 175.259 38.7328 174.737 35.391C174.072 33.5784 172.78 32.0918 171.616 30.5859C176.236 28.8082 181.074 27.702 185.795 26.2388C187.621 25.6954 190.112 25.1985 191.42 26.984ZM52.7621 30.2521C52.3806 31.1681 51.9758 32.0802 51.5399 32.9768C50.2827 32.3208 49.5276 30.9235 49.7067 29.5068C49.6405 28.9596 50.0764 28.2803 50.6914 28.4705C51.7773 28.4162 52.2483 29.4991 52.7621 30.2521ZM173.753 34.7777C171.557 34.7389 169.292 34.9795 167.253 35.8179C166.54 36.0081 166.404 36.6757 166.451 37.3084C167.167 37.7547 167.887 38.1933 168.619 38.6164C170.433 37.9876 173.48 38.2865 173.799 35.7907C172.094 36.4389 170.347 36.9823 168.584 37.4442C168.128 37.6033 167.288 37.3239 167.688 36.7417C169.635 36.1634 171.643 35.6316 173.679 35.554L173.651 34.8903C174.687 38.4029 174.706 42.1135 174.733 45.7464C171.199 46.4994 168.942 49.7209 167.572 52.8299C166.135 56.3735 164.804 59.9716 163.816 63.6666C163.458 64.7922 163.24 65.9721 162.718 67.0434C157.631 68.5222 152.781 70.6685 147.846 72.5588C148.056 64.9474 148.321 57.3245 147.861 49.717C147.706 47.5706 147.873 45.3854 147.383 43.274C146.919 41.7797 146.145 40.3707 145.043 39.249C152.754 36.7145 160.453 34.1257 168.229 31.793C169.179 31.4747 170.113 31.1215 171.047 30.7644C172.363 31.7774 173.18 33.2485 173.753 34.7777ZM55.8331 35.6704C56.3196 35.9576 57.0163 36.0819 57.2343 36.6641C55.1908 37.3472 52.7426 37.6654 50.7381 36.6602C51.357 35.6588 52.0693 34.7195 52.7932 33.7957C53.669 34.6263 54.7316 35.2008 55.8331 35.6704ZM58.7172 36.1595C58.9235 36.6796 58.2034 37.4209 57.6741 37.1647C57.3199 36.6252 58.2034 35.8645 58.7172 36.1595ZM126.863 38.4611C127.131 39.4974 127.275 40.557 127.567 41.5895C125.185 42.1173 122.745 43.0644 120.281 42.5637C120.145 40.8365 120.102 39.1015 120.094 37.3705C122.005 37.157 123.975 36.959 125.874 37.3394C126.47 37.3705 126.75 37.9604 126.863 38.4611ZM67.3541 42.2299C67.0155 42.5637 66.0152 42.3541 65.8673 41.9194C66.3071 41.7214 67.1673 41.7137 67.3541 42.2299ZM194.603 45.0672C194.596 47.2252 193.646 49.3832 192.202 50.9746C193.093 49.1542 193.054 47.1126 193.027 45.137C193.482 44.7489 194.662 43.895 194.603 45.0672ZM178.089 57.7437C179.486 61.7492 178.867 66.3331 176.917 70.0553C175.59 70.1174 174.473 71.1848 173.087 70.7345C173.075 70.4939 173.06 70.0204 173.048 69.7836C172.367 70.0708 171.912 70.7695 172.643 71.3128C174.045 72.1008 175.555 70.8781 176.843 70.3619C176.395 71.5457 175.527 72.8421 174.122 72.9003C172.865 73.0517 171.947 72.027 171.094 71.2779C170.896 71.2391 170.499 71.1576 170.3 71.1188C168.152 67.6062 168.459 63.2396 169.814 59.498C170.401 60.0375 171.02 60.5382 171.659 61.0118C171.627 60.6896 171.557 60.0375 171.526 59.7115C171.764 59.3738 172.001 59.0323 172.239 58.6907C172.091 58.6131 171.795 58.4539 171.647 58.3763C171.265 58.8498 170.888 59.3195 170.503 59.793C170.355 59.4786 170.207 59.1642 170.059 58.8537C171.04 57.1964 172.464 55.6012 174.434 55.2014C176.166 54.8249 177.275 56.5016 178.089 57.7437ZM16.0348 64.0314C16.4669 66.0808 14.9722 68.8792 12.5785 68.4717C10.6869 68.3203 9.99406 66.3525 9.36742 64.8776C9.96294 65.1066 10.3444 65.5723 10.3989 66.2166C10.574 64.9668 10.43 63.5152 11.4031 62.5526C11.7884 62.0558 12.1387 61.528 12.5279 61.035C14.2911 60.9147 15.7974 62.3431 16.0348 64.0314ZM31.6933 67.2568C32.7676 67.4082 33.8574 67.4897 34.9122 67.7575C33.8458 67.7731 32.7754 67.7226 31.7089 67.6566C31.7167 68.0642 31.7245 68.8754 31.7323 69.2829C35.4961 69.4576 39.1743 70.4434 42.938 70.6142C44.7557 70.917 46.589 71.2119 48.43 71.3478C48.7025 71.4293 49.2474 71.5923 49.5198 71.6738C49.5082 71.7592 49.4887 71.9261 49.477 72.0115C48.504 71.6156 47.4492 71.5923 46.4177 71.4526C41.5174 70.7151 36.5859 70.1368 31.6817 69.3838C31.8374 71.34 31.5921 73.2885 31.5376 75.2447C31.382 75.3533 31.0706 75.5707 30.911 75.6755C30.9616 72.7994 30.9811 69.9194 31.1718 67.0472C30.2999 66.9502 29.467 67.1753 28.6496 67.4625C28.7002 67.2607 28.8053 66.8609 28.8559 66.663C28.2721 66.6979 27.8673 66.4534 27.6337 65.9333C28.9843 66.3447 30.4984 66.4612 31.6933 67.2568ZM56.522 70.3231C57.0163 70.3969 57.46 70.6259 57.8376 70.9519C54.969 70.3813 52.1082 69.706 49.1851 69.4692C49.4848 69.2868 49.7845 69.1121 50.0842 68.9375C52.2133 69.4847 54.389 69.8069 56.522 70.3231ZM24.2163 71.6001C26.0379 72.3026 27.9296 72.8305 29.6499 73.7659C29.9691 73.9987 30.2921 74.2239 30.6191 74.4412C30.1948 74.3636 29.79 74.22 29.4047 74.0104C26.8864 72.6131 24.0022 72.062 21.4295 70.7772C22.4142 70.8277 23.3056 71.274 24.2163 71.6001ZM49.3447 78.3032C49.5198 78.602 49.6872 78.9009 49.8546 79.2036C47.13 78.5632 44.386 77.9888 41.677 77.3056C44.277 77.2862 46.7369 78.4545 49.3447 78.3032ZM32.6975 81.5285C32.246 81.8701 31.9386 81.7964 31.7751 81.3073C32.2383 80.9696 32.5457 81.0434 32.6975 81.5285ZM98.0095 88.4917C99.4223 93.1144 98.2625 98.4396 95.0475 102.057C93.8603 103.474 92.3034 104.696 90.478 105.135C88.2127 105.372 86.2471 103.749 84.8692 102.135C82.962 99.0024 82.059 95.2491 82.6351 91.5968C83.7366 92.6603 83.1216 94.2283 83.1683 95.5752C83.2695 94.9541 83.3512 94.3331 83.4135 93.7121C84.1492 93.7276 84.912 94.0187 85.6282 93.7975C86.4417 93.0795 86.7803 91.9539 86.757 90.8981C86.5896 90.4945 86.2004 90.1646 86.2159 89.7066C86.6636 89.4776 87.1423 89.365 87.6522 89.3728C87.5471 88.6198 87.0995 88.0259 86.5507 87.5252C86.0953 87.9289 85.6438 88.3442 85.1923 88.7517C85.9591 88.4684 86.7648 88.2278 87.3914 88.9458C86.5195 88.9808 85.7878 89.3611 85.2585 90.0442C85.7606 90.3198 86.2588 90.6031 86.7492 90.8904C86.5001 91.7326 86.0564 92.4895 85.5776 93.2231C85.0171 93.0989 84.4294 92.9979 83.9662 92.6292C83.8534 92.0742 83.8884 91.4997 83.7249 90.9602C83.3707 91.034 83.2306 91.5696 82.7674 91.5463C83.2462 90.3276 83.3629 88.8061 84.4216 87.9056C84.2542 88.612 84.0168 89.2951 83.7132 89.9588C83.8533 90.2383 83.9935 90.5139 84.1375 90.7933C84.4489 88.2899 85.7022 85.8174 87.8935 84.459C89.427 83.5042 91.3265 82.8172 93.1208 83.4071C95.425 84.2145 97.3478 86.128 98.0095 88.4917ZM50.5046 84.6181C50.4773 84.7462 50.4267 85.0062 50.3995 85.1343C50.166 85.1266 49.7028 85.1033 49.4692 85.0955C49.0567 84.8704 48.9749 84.6259 49.2279 84.3581C49.5471 84.424 50.1854 84.5521 50.5046 84.6181ZM48.1031 84.719C47.8189 84.8083 46.2932 84.3697 47.1845 84.1407C47.5426 84.1756 48.2587 84.2455 48.6168 84.2804C48.7336 84.5599 48.5623 84.7074 48.1031 84.719ZM52.6414 85.375C52.3223 85.4021 51.6878 85.4565 51.3726 85.4798C51.0184 85.2779 50.9133 85.014 51.0573 84.6802C51.5282 84.9092 52.5169 84.8238 52.6414 85.375ZM26.4232 86.5743C26.6607 87.6533 27.4858 89.167 25.6409 89.4581C25.9951 89.3844 26.7035 89.233 27.0577 89.1593C27.1277 89.4038 27.264 89.8968 27.334 90.1452C26.5984 89.92 25.8627 89.6871 25.1154 89.4892C25.3023 88.1385 24.5394 86.8732 24.9092 85.5263C25.3996 85.864 26.2831 85.8757 26.4232 86.5743ZM52.4702 89.3728C54.7238 89.7376 56.9696 90.1995 59.2582 90.2616C62.7379 90.5139 66.1864 89.6794 69.4559 88.5654C70.9389 88.0764 72.3712 87.4166 73.9125 87.1216C73.8658 88.0104 73.679 88.8837 73.4572 89.7454C71.9353 91.6744 69.3314 92.0587 67.0894 92.6447C63.9095 93.5103 60.5583 93.6966 57.3004 93.2075C53.2992 92.5555 49.2552 92.2372 45.25 91.6395C43.3273 91.3367 41.4473 90.8011 39.5129 90.5566C39.4662 89.3611 39.365 88.1657 39.3066 86.9702C43.6931 87.7659 48.0758 88.5965 52.4702 89.3728ZM36.15 88.3093C36.0994 89.6794 36.0877 91.0495 36.076 92.4196C35.4221 92.2877 34.7098 92.2644 34.1377 91.8723C33.908 90.5294 34.0248 89.1593 34.0832 87.8086C34.811 87.8086 35.535 87.894 36.15 88.3093ZM31.4403 93.7936C30.985 94.174 29.9769 94.3991 29.5137 94.0459C29.8523 93.4715 31.1601 93.0251 31.4403 93.7936Z" fill="#003A2F"/>
<path d="M59.8771 40.2931C57.6702 40.2543 55.728 38.9347 53.5172 38.8221C54.5798 39.7653 56.0588 39.8856 57.3783 40.2116C56.849 40.2931 56.3118 40.3708 55.7747 40.4484L55.8214 40.623C58.2891 41.0228 60.7684 41.4226 63.1739 42.1135C63.4814 41.8961 63.4969 41.6943 63.2323 41.508L62.9092 41.4226L62.5784 41.2984C62.8469 41.1975 63.3802 40.9957 63.6448 40.8947C62.6251 40.9452 61.6092 41.0461 60.5894 41.0849C60.9592 40.8715 61.325 40.658 61.6909 40.4484C61.0331 40.5338 60.3714 40.6231 59.7098 40.7162L59.8771 40.2931Z" fill="#003A2F"/>
<path d="M172.651 40.592C171.343 38.9269 169.296 40.5221 168.373 41.768C169.117 42.1794 169.938 42.4278 170.791 42.4705C171.413 41.8456 172.024 41.213 172.651 40.592ZM172.036 40.5842C171.604 41.1198 171.16 41.6516 170.717 42.1872C170.362 42.1173 169.658 41.9854 169.308 41.9194C169.553 41.3294 170.098 41.015 170.604 40.6851C170.962 40.658 171.678 40.6075 172.036 40.5842Z" fill="#003A2F"/>
<path d="M145.837 45.1564C146.585 43.635 145.612 42.0242 144.152 41.4342C144.3 41.6322 144.596 42.0242 144.744 42.2183C142.389 42.2804 140.124 43.1459 138.041 44.1978C138.512 45.2535 139.283 46.4528 140.606 46.4024C142.408 46.3325 144.086 45.5213 145.837 45.1564ZM145.666 44.3685C144.277 44.7994 142.825 45.0012 141.389 45.1991C140.7 45.3427 140.073 45.0012 139.621 44.5083C141.128 44.1783 142.603 43.6815 144.14 43.5224C144.857 43.3012 145.285 43.8756 145.666 44.3685Z" fill="#003A2F"/>
<path d="M68.697 43.9066C58.184 48.6535 47.4297 52.9502 37.2943 58.485C36.9284 58.7373 36.1617 58.7683 36.0722 59.2574C36.9635 59.4398 37.5785 58.6131 38.3413 58.3297C43.3584 55.9543 48.3172 53.4547 53.416 51.2579C57.1331 49.6394 60.8191 47.9588 64.5128 46.2937C65.9529 45.5834 67.4592 44.943 68.697 43.9066Z" fill="#003A2F"/>
<path d="M81.2144 46.9768C78.5638 46.48 75.9988 45.6028 73.3287 45.2147C72.8772 45.0517 72.4335 45.2496 72.0521 45.4825C73.4611 45.9754 74.9557 46.0841 76.3958 46.4451C79.385 47.2019 82.4327 48.215 85.5543 47.9743C84.1881 47.3688 82.6507 47.3455 81.2144 46.9768Z" fill="#003A2F"/>
<path d="M144.946 47.5396C143.876 47.8928 142.837 48.3275 141.801 48.7777C142.159 49.3405 142.529 49.8917 142.887 50.4506C143.732 49.686 144.993 49.3561 145.518 48.2887C145.195 48.3314 144.545 48.4168 144.218 48.4556L144.214 48.2227C144.479 48.2227 145.008 48.2227 145.269 48.2227L144.946 47.5396Z" fill="#003A2F"/>
<path d="M176.722 57.9455C175.796 56.9286 174.29 56.8509 173.005 56.816C173.048 57.2119 173.099 57.6078 173.153 58.0037C173.655 57.6971 174.157 57.3904 174.663 57.0877C175.551 57.6156 175.854 58.8576 176.925 59.0594C176.602 59.5912 176.567 60.1307 177.038 60.5964C176.5 61.1243 175.913 61.6056 175.255 61.9782C175.173 61.3882 175.08 60.8021 174.979 60.2161C174.278 61.1476 173.636 62.1179 172.92 63.0378C172.966 61.6483 173.25 60.2782 173.215 58.8886C172.717 60.3247 172.39 62.0403 173.071 63.4648C172.865 63.4725 172.449 63.4919 172.242 63.4997C172.079 64.7107 172.682 65.8595 173.889 66.2477C173.655 65.7625 173.406 65.2929 173.138 64.831C173.196 63.8529 173.496 62.801 174.301 62.1761L174.527 62.0752C175.621 61.6832 174.107 60.8953 174.527 62.0752C174.375 62.6807 174.259 63.294 174.107 63.8995C174.336 64.3575 174.562 64.8155 174.788 65.2773C175.387 64.8659 175.995 64.4661 176.609 64.078C177.512 65.4675 176.103 66.6009 175.306 67.579C175.38 68.7589 176.403 67.4936 176.882 67.2219C177.006 65.3511 177.458 63.488 177.267 61.6095C177.279 60.3752 177.458 59.0245 176.722 57.9455ZM177.147 61.8113C177.092 62.444 177.03 63.0766 176.952 63.7132C176.247 63.8529 175.562 64.3148 174.831 64.1712C174.379 63.6549 174.659 63.0145 174.741 62.4323C175.559 62.2887 176.353 62.0403 177.147 61.8113Z" fill="#003A2F"/>
<path d="M33.8263 58.8848C32.6119 58.3919 31.1523 58.5083 30.1443 59.3816C30.1209 61.5435 34.2194 60.9303 33.8263 58.8848ZM33.4604 59.3234C33.0089 59.7038 32.538 60.0725 32.0476 60.414C31.6856 60.2627 30.9616 59.956 30.5997 59.8047C31.4988 59.3738 32.464 59.0129 33.4604 59.3234Z" fill="#003A2F"/>
<path d="M171.102 63.2435C170.822 62.5682 170.487 61.9122 170.098 61.2951C169.903 62.017 169.732 62.7467 169.58 63.4764C169.744 63.5773 170.067 63.7714 170.226 63.8723C170.518 63.6588 170.81 63.4531 171.102 63.2435Z" fill="#003A2F"/>
<path d="M15.0267 66.8299C15.0735 65.2347 15.5327 63.5385 14.7699 62.0403C14.836 63.6356 14.5675 65.2696 15.0267 66.8299Z" fill="#003A2F"/>
<path d="M7.03986 63.8956C6.78297 64.1324 6.78297 64.1324 7.03986 63.8956V63.8956Z" fill="#003A2F"/>
<path d="M171.332 64.8465C170.759 64.9319 170.183 65.0251 169.607 65.1143C169.58 66.337 169.529 67.5596 169.241 68.7511C170.074 68.8598 171.09 69.0345 171.69 68.2854C171.876 67.6062 171.483 66.6824 170.612 66.9463L170.705 66.6397C170.596 66.5543 170.37 66.3874 170.261 66.302C170.417 65.9178 170.759 65.7159 171.297 65.7004C171.304 65.4869 171.324 65.06 171.332 64.8465ZM170.405 66.8959C170.152 67.1753 170.152 67.1753 170.405 66.8959V66.8959Z" fill="#003A2F"/>
<path d="M174.247 67.3733C173.99 67.8119 173.5 68.1961 173.492 68.7395C173.64 69.3178 174.344 69.182 174.788 69.3411C174.621 68.6813 174.43 68.0254 174.247 67.3733Z" fill="#003A2F"/>
<path d="M11.983 70.0398C10.2003 69.5701 8.35931 68.8443 7.42128 67.1365C7.39793 67.5906 7.3551 68.4911 7.33176 68.9413C8.88087 70.1717 10.8698 70.5715 12.6525 71.3361C17.4516 73.1332 22.1885 75.0933 27.0226 76.7972C30.5373 78.0315 34.2 78.7883 37.882 79.3472C41.1632 79.8208 44.3665 80.7096 47.6477 81.1909C50.3878 81.5247 52.9372 82.627 55.6151 83.2325C55.9304 83.0617 56.2417 82.887 56.5531 82.7085C54.1088 82.627 52.0031 81.1986 49.6055 80.8998C45.7989 80.3292 42.1012 79.2036 38.2946 78.6059C33.0984 77.7675 27.9295 76.5177 23.1109 74.3597C19.4172 72.8887 15.848 71.0644 11.983 70.0398Z" fill="#003A2F"/>
<path d="M106.899 81.1366C105.533 75.9433 101.131 71.7204 95.8804 70.5443C92.5487 70.1717 89.1118 71.1964 86.5741 73.3933C85.0911 74.7556 83.4603 76.0675 82.5456 77.9073C84.881 75.6716 87.2163 73.238 90.3418 72.1279C92.358 71.4681 94.5688 71.0023 96.6667 71.569C101.221 72.6674 104.856 76.4207 106.3 80.8028C107.359 83.6944 107.429 86.7994 107.546 89.8347C108.663 86.9819 107.573 83.9544 106.899 81.1366Z" fill="#003A2F"/>
<path d="M75.4033 75.5163C73.6206 75.4814 71.7095 75.5901 70.1098 76.4207C69.3858 77.4531 70.4095 78.4002 71.1646 79.0018C72.667 78.6641 74.5664 78.4196 75.3643 76.9214C75.376 76.5682 75.3916 75.8696 75.4033 75.5163ZM74.5508 76.1684C74.3991 76.739 74.1577 77.2785 73.7062 77.686C72.5502 78.0043 71.3475 78.505 70.3083 77.5579C70.7559 77.4764 71.6433 77.3173 72.0871 77.2358C71.655 77.1737 70.7909 77.0456 70.3628 76.9835C71.4721 75.8929 73.1496 76.2926 74.5508 76.1684Z" fill="#003A2F"/>
<path d="M61.9984 76.0054C61.7455 76.4944 61.2511 76.9641 61.4535 77.5773C61.5781 79.3123 61.6481 81.0706 61.3407 82.7978C59.7098 83.9428 57.6897 82.2971 56.1212 83.4304C57.9894 83.4886 59.9044 84.1213 61.7377 83.4886C62.0763 83.7914 62.0996 84.7268 62.7029 84.5444C62.6056 81.6916 62.2475 78.8465 61.9984 76.0054Z" fill="#003A2F"/>
<path d="M16.7744 82.1767C16.7238 82.006 16.6226 81.6605 16.5681 81.4897C16.6032 81.7032 16.6693 82.1302 16.7044 82.3436C17.5684 82.5105 17.7942 83.1898 16.7705 83.3567C16.4046 84.1834 16.1049 85.0334 15.7702 85.8757C16.4163 86.5355 17.0624 87.1914 17.7669 87.7892C18.4481 86.4035 18.6349 84.6647 17.7124 83.3373C18.2807 83.0345 18.8607 82.7512 19.4367 82.4795C18.5765 82.1923 17.6891 81.9206 16.7744 82.1767ZM17.4128 84.1213C17.5295 84.8587 17.5801 85.604 17.5684 86.3492C16.6071 85.9494 16.8133 84.7539 17.4128 84.1213Z" fill="#003A2F"/>
<path d="M38.1856 82.6968C37.1853 82.6348 36.1694 82.5028 35.2159 82.1651C34.9901 82.3281 34.7682 82.495 34.5425 82.6619C35.5039 82.7163 36.4419 82.9297 37.3566 83.2092C37.6368 83.0384 37.9132 82.8676 38.1856 82.6968Z" fill="#003A2F"/>
<path d="M96.3086 88.0648C95.4017 85.7049 92.8406 84.3736 90.3846 84.4279C90.8244 84.6647 91.2681 84.882 91.7119 85.1072C91.7313 86.2677 91.6574 87.436 91.7897 88.5965C92.2101 87.4787 92.2023 86.2638 92.2334 85.0916C92.5565 85.1343 93.2065 85.2275 93.5334 85.2702C94.4792 85.9688 93.9343 87.7426 95.2266 87.9561C94.7556 88.9963 94.0511 90.2926 94.9736 91.3018C94.9813 91.1815 95.0047 90.937 95.0164 90.8128C94.9385 90.4246 94.7789 89.6522 94.7011 89.2641C95.0242 89.0584 95.3472 88.8527 95.6664 88.6547C95.8766 89.0661 96.079 89.4815 96.2775 89.8968C95.9077 90.118 95.6041 90.4052 95.3706 90.7584C95.7053 90.7468 96.367 90.7196 96.7017 90.7079C96.7757 91.6007 96.8574 92.4934 96.9352 93.3861C96.1023 93.2968 95.2577 93.1804 94.417 93.3085C94.67 94.2516 96.2463 93.7626 96.6589 94.7484C96.0751 95.3423 94.8724 95.0783 94.6816 96.0332L95.7831 95.8042C95.6664 96.5688 94.7673 96.4679 94.4793 97.0928C93.4828 98.3115 92.0933 99.6816 90.3729 99.4876C88.5241 99.0063 87.7145 97.0229 87.8936 95.2569C88.5475 95.9905 89.0262 97.085 90.116 97.248C90.9451 97.512 91.922 96.988 92.2295 96.2078C92.214 95.4393 92.105 94.6747 92.0738 93.9139C91.5328 94.9542 90.3496 95.4393 89.431 94.5039C89.5283 95.6722 90.9645 96.4368 91.6807 95.1909C91.8403 95.4898 91.996 95.7886 92.1517 96.0914C91.6379 96.7046 90.9373 97.5702 90.0382 97.0656C88.5825 96.235 87.9636 93.976 89.1585 92.6603C89.7813 91.6162 91.2526 92.0393 91.9765 92.7301C92.3424 93.421 92.2023 94.2555 92.393 94.993C93.7903 93.3512 91.6496 90.8438 89.8163 91.4881C86.8193 92.9397 86.7531 98.3775 90.0615 99.5147C90.9723 99.8602 91.9493 99.5109 92.7744 99.1072C93.1987 99.7205 93.7708 100.21 94.4715 100.477C94.6466 100.287 95.0008 99.9068 95.1759 99.7166C95.102 99.4953 94.958 99.0567 94.884 98.8355C94.4053 98.6686 93.9382 98.4823 93.4711 98.2843C94.1406 97.609 94.9385 97.4382 95.8065 97.7293C97.305 94.7795 97.5697 91.1427 96.3086 88.0648Z" fill="#003A2F"/>
<path d="M89.252 85.0722C88.7849 85.4293 88.3217 85.7903 87.8624 86.159C88.0687 86.6364 88.2945 87.1099 88.6136 87.5252C88.4813 86.7334 88.7343 86.1435 89.3687 85.7553L89.0457 86.8693C90.6726 87.0789 89.1897 85.7476 89.252 85.0722Z" fill="#003A2F"/>
<path d="M90.0342 87.5136C89.5399 87.339 88.8393 87.6495 88.6758 88.1579C88.9638 88.8061 90.33 88.1269 90.0342 87.5136Z" fill="#003A2F"/>
<path d="M37.5123 91.3522C38.1973 92.4662 36.2162 91.4454 37.5123 91.3522V91.3522Z" fill="#003A2F"/>
<path d="M90.9762 92.7224C90.3106 92.5166 90.2055 94.0964 90.7504 94.2322C91.0384 93.8247 91.1747 93.1881 90.9762 92.7224Z" fill="#003A2F"/>
<path d="M84.768 98.2805C85.6165 97.9079 86.5623 96.4446 85.3791 95.9012C84.729 96.0681 84.1024 96.3087 83.468 96.5261C83.5419 97.3295 83.3745 98.9636 84.6668 98.4629C84.3904 97.8147 84.2464 97.1199 84.188 96.4213C85.3518 96.4213 84.7757 97.5585 84.768 98.2805Z" fill="#003A2F"/>
<path d="M87.3953 100.943C87.1228 100.171 86.3989 99.1149 85.4492 99.472C85.4025 100.019 85.4531 100.57 85.4881 101.122C86.1498 101.37 86.827 101.42 87.3953 100.943Z" fill="#003A2F"/>
<path d="M93.0663 101.129C92.4903 101.106 91.9142 101.114 91.3343 101.149C91.4666 101.56 91.6067 101.968 91.7507 102.379C92.354 102.154 92.9807 101.844 93.0663 101.129Z" fill="#003A2F"/>
<path d="M90.3729 101.44C89.431 101.164 88.0025 101.49 88.1387 102.721C89.1585 103 90.7271 102.892 90.3729 101.44Z" fill="#003A2F"/>
</svg>
