<svg width="202" height="116" viewBox="0 0 202 116" fill="none" xmlns="http://www.w3.org/2000/svg">
<path d="M42.9059 6.96203C58.5768 2.46921 74.9565 -0.0707285 91.2883 0.907708C102.714 1.30707 113.932 4.01474 124.689 7.76076C127.932 9.08264 131.192 10.6841 133.627 13.264C138.237 18.0323 142.138 23.4077 146.271 28.5795C146.831 29.3702 147.66 30.125 147.524 31.1873C147.6 29.2025 149.751 28.5715 151.417 28.6354C152.354 28.8151 152.722 29.9134 152.738 30.752C152.662 32.629 151.753 34.514 150.119 35.5164C151.02 36.391 151.989 37.2936 152.362 38.5396C152.546 38.5316 152.915 38.5156 153.099 38.5116C157.564 41.0396 162.654 42.0779 167.364 44.0308C172.262 45.8239 177.14 47.665 181.902 49.7936C186.367 51.9062 191.065 53.6754 195.021 56.6946C196.591 57.8927 197.961 59.7736 197.633 61.8503C197.164 64.9574 196.772 68.0844 196.043 71.1435C196.147 71.3112 196.355 71.6467 196.459 71.8144C196.039 71.6626 195.33 71.8304 195.15 71.3272C194.773 69.9054 194.837 68.4118 194.821 66.9582C194.969 66.8583 195.266 66.6666 195.414 66.5668C195.294 67.2297 194.877 67.9246 195.306 68.5716C195.738 67.3256 195.626 65.9957 195.694 64.7058L195.094 65.205C195.118 64.8975 195.162 64.2784 195.186 63.9669L195.678 64.1906C195.602 63.0963 196.195 61.427 194.841 60.9118C193.864 60.7121 192.763 60.9837 192.138 61.7944C193.119 61.6546 194.1 61.4869 195.098 61.4989C194.969 62.5213 193.964 62.1059 193.271 62.1259C194.689 64.9014 193.868 68.2521 192.47 70.8799C190.86 71.6626 189.11 72.2457 187.296 72.1419C186.459 71.2832 185.442 70.4007 185.346 69.1187C185.214 67.4614 185.065 65.5923 186.103 64.1706C187.144 62.3935 189.647 61.7904 191.453 62.705C190.949 63.0165 190.376 63.1922 189.803 63.308C191.241 63.7273 191.874 65.213 191.641 66.6027C191.866 66.7066 192.318 66.9102 192.542 67.0101C192.526 65.6083 192.146 64.1866 190.953 63.312C191.421 63.3719 192.09 62.9605 192.41 63.4797C192.603 63.9949 192.787 64.5141 192.967 65.0372C192.927 64.4222 192.887 63.8152 192.851 63.2042C192.43 62.7609 192.018 62.2177 191.297 62.4054L191.269 62.034C189.262 61.9182 186.9 61.9502 185.41 63.4957C184.761 64.7257 184.809 66.1954 184.965 67.5412C185.19 69.3783 185.005 71.2433 185.29 73.0764C184.641 73.292 183.988 73.5077 183.339 73.7154C183.816 73.1443 183.984 72.5173 183.852 71.8344L184.477 72.1059C184.741 69.586 183.92 67.046 184.509 64.562C184.501 64.1147 184.497 63.6714 184.493 63.2281C180.079 64.3543 175.686 65.5644 171.397 67.1019C167.056 68.4198 162.566 69.1547 158.121 70.0452C156.807 70.2769 155.502 70.6403 154.16 70.6363C154.112 70.796 154.024 71.1195 153.976 71.2793C160.876 69.9214 167.977 69.1986 174.577 66.6427C177.576 65.4805 180.74 64.8256 183.776 63.7713C183.972 63.911 184.172 64.0548 184.373 64.2066C183.88 64.7896 183.92 65.5564 183.912 66.2633C183.892 68.1243 184.148 69.9733 184.341 71.8184L183.8 71.7745C183.588 70.6602 183.367 69.546 183.219 68.4238C181.757 68.8511 180.276 69.2185 178.854 69.7697C180.324 69.6019 181.697 69.0069 183.119 68.6395C183.223 70.2569 183.163 71.8743 183.247 73.4917C180.668 75.2569 177.648 76.1834 174.745 77.2657C168.714 79.7058 162.106 79.8975 155.862 81.5668C153.804 82.2058 151.509 82.1099 149.623 83.2441C150.255 82.078 150.892 80.836 150.868 79.4742C150.828 77.3975 151.124 75.2409 150.36 73.2561C150.98 73.2521 151.605 73.2321 152.23 73.1922C154.152 72.689 156.155 72.4494 158.145 72.3855C158.325 72.3056 158.69 72.1499 158.87 72.07C159.639 72.0061 160.452 72.0939 161.169 71.7505C160.203 71.7026 159.17 71.5468 158.297 72.062C155.129 72.2018 152.002 72.8607 148.862 73.308C149.038 73.4039 149.39 73.5876 149.567 73.6834C149.543 74.8975 149.831 76.0756 150.043 77.2617L150.376 77.1938C150.356 79.0269 150.46 81.0437 149.326 82.6091C148.517 83.975 146.843 84.2545 145.51 84.8615C145.189 84.6778 144.869 84.4981 144.557 84.3144C145.554 84.1068 146.419 83.5716 147.24 82.9885C147.356 82.8887 147.588 82.681 147.704 82.5812C148.653 82.0141 148.958 80.84 149.294 79.8615C149.739 78.6075 149.166 77.3176 149.054 76.0596L148.69 76.0317C148.742 75.832 148.846 75.4286 148.898 75.2249L148.289 75.3408C148.301 75.0253 148.325 74.3983 148.337 74.0868C147.861 74.0668 147.388 74.0468 146.915 74.0309C147.068 74.1507 147.376 74.3863 147.528 74.5021C148.665 76.8264 149.547 79.8336 147.72 82.058C147.965 80.6762 148.497 79.3144 148.341 77.8887C148.113 76.4829 147.424 75.205 146.607 74.0548C145.802 74.0668 145.001 74.1227 144.208 74.2465C142.923 74.9334 141.549 75.7002 140.944 77.1059C140.187 79.0109 139.915 81.1954 140.436 83.1882C141.353 85.0612 143.635 84.0668 145.081 85.0053C143.423 85.2889 141.469 85.86 139.951 84.8056C139.21 84.0189 139.538 82.8408 139.522 81.8743C139.546 79.8655 140.135 77.9366 140.416 75.9598L140.78 76.0916L140.708 75.5404L141.353 75.7601C141.241 75.5684 141.02 75.181 140.912 74.9893C141.481 74.7577 142.049 74.5261 142.622 74.2904C142.114 74.1666 141.609 73.967 141.084 73.9949C140.408 74.2425 140.135 74.9614 140.211 75.6323C140.067 76.1195 139.927 76.6067 139.791 77.098C139.554 77.7409 139.53 78.9031 138.545 78.5117C139.046 76.5388 139.623 74.4302 141.204 73.0245C140.412 71.1035 138.353 70.3248 136.731 69.2585C126.699 63.7273 116.134 59.1946 105.297 55.4765C100.063 53.8232 94.7765 52.3255 89.4741 50.8998C88.5489 53.4158 88.2165 56.1115 87.732 58.7393C92.1573 59.7177 96.4024 61.3351 100.684 62.8008C105.706 64.55 110.784 66.1155 115.818 67.8248C122.133 70.1091 128.553 72.086 134.985 74.0229C136.234 74.4063 137.516 74.6658 138.79 74.9494C138.826 76.0876 137.724 75.4087 137.136 75.3927C128.962 73.1962 120.876 70.6523 112.942 67.697C104.556 64.9294 96.2462 61.9262 87.808 59.3303C86.971 68.4438 86.7948 77.6411 87.6078 86.7665C87.3915 86.7705 86.963 86.7825 86.7468 86.7905C86.7348 82.4893 86.3022 78.1922 86.3983 73.8831C86.3463 68.5316 86.915 63.1962 87.1673 57.8607C87.5798 55.4605 88.0804 53.0763 88.6851 50.7161C84.2918 49.9374 80.0267 48.5755 75.6694 47.6131C71.2561 46.3391 66.8788 44.9493 62.4494 43.7353C59.4378 42.9845 56.4502 42.1139 53.5307 41.0595C50.8114 43.6554 51.1919 47.7049 50.9716 51.1275C50.1947 59.2105 50.7593 67.3336 50.7553 75.4326C58.0521 78.2721 65.3129 81.1954 72.5857 84.0868C77.4836 86.1435 82.4215 88.1243 87.4676 89.7857C87.2994 89.0109 87.1352 88.2402 86.979 87.4694C87.2233 87.2218 87.4676 86.9742 87.7079 86.7266C87.764 87.7569 87.796 88.8032 88.0764 89.8096C88.6451 90.5485 89.6543 90.6483 90.4793 90.9478C89.1617 90.7402 87.8281 90.5724 86.5706 90.1251C78.4648 87.3416 70.5752 83.9949 62.6337 80.796C55.5691 78.1323 48.6888 75.0093 41.5963 72.4174C39.2695 71.5987 36.9947 70.5804 34.5558 70.1291C34.5237 71.423 35.4729 72.4254 36.6463 72.8328C41.38 74.7697 46.1498 76.6227 50.9115 78.4877C58.6569 81.7425 66.4182 84.9574 74.2677 87.9566C80.0707 90.4167 86.0699 92.3736 91.8569 94.8775C91.3243 92.733 92.5217 90.7841 92.6739 88.6834C93.4949 84.0828 95.6495 79.2984 99.8946 76.9023C102.606 75.2529 105.97 75.5364 108.902 76.3711C112.722 77.5053 116.122 79.8216 118.765 82.7689C119.975 84.4582 120.968 86.3072 121.805 88.2042C123.135 91.8903 124.677 95.5285 126.695 98.8991C127.492 100.481 129.43 100.644 130.952 101.072C134.38 101.731 137.86 102.733 141.381 102.214C145.297 101.771 149.206 101.251 153.103 100.64C156.976 99.9654 160.96 99.594 164.617 98.0605C166.159 97.4015 167.7 96.6986 169.37 96.4271C171.133 96.1875 172.682 95.2489 174.409 94.8736C174.537 94.9295 174.793 95.0413 174.921 95.0932C175.23 96.1994 173.443 96.1954 172.891 96.9662C174.529 96.447 176.075 95.6443 177.492 94.6779C176.831 94.6619 175.262 95.9718 175.418 94.7298C178.269 93.7793 181.193 92.9446 183.824 91.451C184.981 90.9079 185.846 89.9295 186.515 88.8632C186.639 88.7513 186.892 88.5317 187.016 88.4199L186.299 88.6794C186.491 86.8584 186.339 85.0293 186.243 83.2082C186.507 83.2561 187.028 83.3559 187.288 83.4039C187.296 83.7553 187.304 84.4582 187.308 84.8056C191.617 82.6291 195.902 80.2928 199.591 77.1579C194.168 78.5996 189.507 81.9861 184.232 83.8472C180.532 85.1411 176.807 86.3552 173.075 87.5533C170.111 88.4838 166.9 88.6395 164.124 90.1092C163.559 90.0732 162.999 90.0173 162.442 89.9414C162.446 92.0501 162.106 94.1906 162.446 96.2833L162.999 97.09C163.287 96.6148 163.519 96.1116 163.724 95.5964L164.224 96.2274C164.721 94.3264 164.433 92.3376 164.384 90.4047C165.67 89.9973 167.008 90.1731 168.297 90.4686C168.277 91.9981 168.237 93.5317 168.249 95.0612C168.574 94.8815 169.214 94.5261 169.535 94.3464C169.631 93.0964 169.659 91.8344 169.619 90.5844C169.407 90.4606 168.986 90.209 168.778 90.0852C169.619 89.6579 170.54 89.4183 171.485 89.3304C171.585 89.5341 171.789 89.9454 171.89 90.1491C171.589 90.237 170.984 90.4087 170.684 90.4965C170.684 90.9079 170.684 91.7346 170.688 92.1499C171.169 91.9582 171.657 91.7665 172.146 91.5708C171.185 92.0021 170.328 92.6771 170.6 93.8831C171.473 93.7034 172.342 93.4997 173.211 93.2881C173.632 91.8264 173.844 90.3009 174.449 88.8991C175.458 88.1483 176.735 87.9047 177.869 87.3935C177.909 87.729 177.953 88.0644 177.997 88.3999L177.508 88.356C177.364 89.578 177.252 90.808 177.356 92.0421C178.445 92.1339 179.403 91.5349 180.356 91.0956C180.131 89.7378 179.899 88.368 180.103 86.9902C180.956 86.5189 181.834 86.0556 182.803 85.868C182.318 86.4111 181.665 86.7425 181.057 87.1219C181.073 88.2641 181.229 89.3983 181.401 90.5285C181.942 90.4965 182.486 90.4646 183.031 90.4486C178.109 93.3799 172.306 93.9191 167 95.832C165.39 96.2114 163.8 96.6307 162.318 97.3736C161.425 96.6148 161.609 95.3208 161.509 94.2865C156.803 95.7322 151.869 96.1395 147.003 96.6907C144.456 96.9183 141.929 97.4335 139.362 97.3376C136.767 97.3376 134.224 96.7825 131.713 96.1755C130.419 95.84 129.114 95.4646 127.969 94.7617C126.515 93.8991 125.938 92.1858 125.421 90.6762C125.49 89.4342 126.471 88.4558 126.567 87.2018C126.667 87.4973 126.771 87.7969 126.883 88.0924C126.715 88.3639 126.379 88.9031 126.21 89.1707C131.425 91.1675 136.887 93.4079 142.598 92.6611C148.017 91.8863 153.379 90.7601 158.754 89.7378C164.949 88.7593 170.968 86.9622 176.972 85.197C181.349 83.8272 185.67 82.2697 189.807 80.2769C192.947 78.7553 196.287 77.6291 199.279 75.812C198.958 75.5484 198.313 75.0173 197.993 74.7537C198.486 74.7617 199.471 74.7777 199.959 74.7896C199.603 74.3024 199.263 73.6235 198.57 73.6035C197.516 73.6435 196.531 74.0748 195.506 74.2745C195.558 74.4462 195.666 74.7896 195.718 74.9614C194.761 75.3727 193.812 75.808 192.847 76.1954C193.407 75.2649 194.701 75.3527 195.298 74.4582C191.025 76.1834 186.743 77.9127 182.53 79.7857C180.488 80.6123 178.445 81.5548 176.227 81.7745C175.406 81.8344 174.673 82.2178 174.056 82.7369C178.746 81.7625 183.243 80.0492 187.58 78.0405C189.443 77.2936 191.241 76.3472 193.179 75.808C191.717 77.098 189.699 77.4494 188.013 78.3639C183.732 80.5844 179.11 82.0021 174.477 83.2721C173.612 82.6171 172.49 82.9566 171.609 83.3759C172.526 83.312 173.463 82.8807 174.36 83.3C171.829 84.1187 169.238 84.7337 166.627 85.213C167.04 84.6539 167.732 84.5141 168.333 84.2425C165.233 84.6459 162.234 85.6323 159.11 85.8719C159.374 86.0516 159.643 86.2274 159.915 86.4031C160.816 86.1155 161.737 85.8879 162.666 85.6962C162.859 85.8719 162.831 86.1195 162.783 86.3512C160.656 86.2553 158.529 87.5453 156.451 86.9782C157.276 86.7465 158.117 86.6747 158.97 86.7665C159.026 86.5748 159.138 86.1914 159.194 85.9957C157.548 86.3392 155.89 86.5988 154.224 86.8224L154.144 87.3096C154.941 87.2298 155.746 87.1659 156.547 87.102L156.563 87.3416C154.012 87.5812 151.521 88.1763 148.998 88.5756C148.734 88.5477 148.209 88.4878 147.945 88.4598C147.873 88.6235 147.728 88.947 147.656 89.1108C147.664 88.935 147.672 88.5796 147.676 88.4039C146.795 88.3879 145.914 88.34 145.033 88.352C145.714 88.5437 146.411 88.6675 147.104 88.8272C143.231 89.2545 139.25 90.0532 135.405 89.0189C132.654 88.7753 130.067 87.2417 127.268 87.697C127.091 87.4574 126.915 87.2138 126.743 86.9742C127.692 86.5868 128.721 86.3112 129.735 86.6507C132.13 87.2697 134.564 87.7489 137.043 87.8208C137.356 88.0764 137.708 88.1882 138.101 88.1643C140.688 88.2362 143.191 87.5173 145.73 87.1539C152.098 85.7362 158.593 85.0213 164.961 83.6235C168.718 82.9885 172.47 82.1978 176.019 80.7841C178.457 79.7777 180.964 78.947 183.347 77.8048C187.016 76.0357 190.957 74.9334 194.657 73.2361C196.063 72.7529 197.456 71.7385 199.014 72.1099C200.312 72.5253 201.673 73.5756 201.697 75.0492C201.858 76.1834 201.317 77.2936 200.444 78.0005C196.511 81.3192 191.774 83.4558 187.484 86.2513C187.536 87.054 187.6 87.8608 187.657 88.6675C184.108 93.5517 178.73 97.2817 172.618 97.9207C171.281 98.344 170.324 96.8344 169.01 97.086C167.48 97.3656 166.215 98.344 164.777 98.8792C157.724 101.723 150.031 102.146 142.586 103.284C137.384 104.267 132.282 102.457 127.232 101.499C127.296 104.985 126.166 108.723 123.359 110.98C119.562 114.039 114.552 115.868 109.65 115.141C105.509 114.275 101.769 111.583 99.6904 107.901C98.1525 105.133 97.1633 102.07 96.5906 98.959C96.3784 98.2362 96.3023 97.4814 96.2582 96.7346C95.1409 96.8704 93.9795 97.0022 92.9022 96.5868C73.715 89.3743 54.7722 81.5349 35.7132 73.9909C35.3207 75.812 34.4196 77.6012 32.8497 78.6834C29.738 80.8599 25.4408 81.5189 21.9326 79.9454C18.7928 78.1044 16.9025 74.7178 15.8973 71.3192C14.9561 68.4118 14.9441 65.3447 14.6598 62.3335C12.0166 59.8216 9.22922 57.4534 6.59404 54.9214C5.46067 53.7992 3.88277 53.3639 2.60122 52.4693C1.25159 50.9957 0.538733 49.0428 0.274414 47.0899C0.382545 45.7321 1.41579 44.7536 2.70535 44.4581C2.02052 40.9917 1.95644 37.4214 2.30486 33.911C2.65329 31.1354 3.48229 28.1921 5.54477 26.1993C9.51757 24.0587 14.031 23.272 18.4123 22.4014C20.8793 22.0579 23.3102 21.4469 25.8052 21.2911C28.7408 17.7288 31.1437 13.6793 34.708 10.6641C36.9226 8.51955 40.0064 7.72082 42.9059 6.96203ZM78.0803 1.80228C68.6089 2.25356 59.2936 4.13056 50.0425 6.09142C46.8266 6.93408 43.6427 7.90453 40.3908 8.59942C49.1174 8.85501 57.7718 10.5563 66.0698 13.224C70.6433 14.6537 75.6414 15.5164 79.45 18.6194C80.9958 19.7975 81.4484 21.7264 82.1893 23.4117C85.305 29.2943 86.5025 35.9158 88.6971 42.1498C89.1697 43.5795 90.0147 44.8735 90.3271 46.3551C90.4472 47.685 90.0708 48.9869 89.8906 50.2968C93.8914 51.0835 97.752 52.4454 101.797 53.0045C105.77 54.0668 109.554 55.7121 113.403 57.1418C120.824 59.9174 127.896 63.5117 134.913 67.1538C137.672 68.6554 140.484 70.1171 142.927 72.1099C146.038 71.3871 149.21 70.9558 152.346 70.3368C152.887 70.6483 152.166 71.1674 151.881 71.3911C152.578 71.4709 153.283 71.5269 153.988 71.5588C153.684 71.1634 153.135 70.8799 153.039 70.3687C159.362 68.6874 165.898 67.8687 172.178 66.0117C175.962 64.6339 179.895 63.7513 183.76 62.6371C183.98 62.5812 184.425 62.4693 184.649 62.4134C187.048 61.1994 189.775 60.9438 192.226 59.8575C193.692 59.1387 195.134 59.9733 196.339 60.784C194.749 59.3623 193.68 57.4134 191.83 56.2832C188.926 54.2545 185.518 53.1602 182.362 51.6107C175.906 48.5915 169.27 46.0036 162.578 43.5715C169.21 46.5827 175.602 50.1131 181.757 54.0029C184.028 55.4366 186.455 56.7225 188.305 58.7073C186.571 58.1602 185.274 56.8064 183.736 55.8998C178.253 52.5292 172.755 49.1466 166.871 46.5108C162.386 44.2504 157.801 42.1977 153.195 40.2009C152.322 39.7656 151.112 39.7936 150.616 38.8311C150.544 38.9629 150.404 39.2345 150.331 39.3663C147.973 40.3527 145.474 39.2504 143.047 39.6458C142.77 39.9932 142.518 40.3567 142.282 40.7281C140.74 39.6498 138.846 40.6921 137.16 40.8519C131.601 42.0659 125.946 42.8087 120.387 44.0308C114.068 45.2289 107.748 46.5827 101.308 46.9381C99.8786 46.9541 98.4569 46.6826 97.0272 46.8183C98.4489 48.6514 100.868 48.304 102.894 48.1802C107.868 47.7449 112.826 47.002 117.668 45.78C121.248 45.0731 124.833 44.3942 128.437 43.8431C129.074 43.7512 129.695 43.9829 130.223 44.3263L128.197 44.3663C128.669 44.5819 129.17 44.9493 129.727 44.6937C130.676 44.4461 131.785 44.53 132.63 44.0028C131.985 43.4837 130.488 44.7257 130.215 43.6115C132.314 43.4038 134.38 42.9166 136.487 42.8367L136.491 42.9645C135.798 43.0803 135.109 43.1562 134.428 43.3079C135.017 43.6234 136.182 42.9845 136.491 43.8151C133.836 44.3223 131.152 45.3727 128.413 44.9254C128.349 45.0452 128.221 45.2928 128.153 45.4166C124.116 46.6905 119.875 47.1338 115.726 47.9206C114.869 48.1322 113.988 47.9885 113.147 47.8048C116.182 47.645 119.146 46.9262 122.137 46.423C124.096 46.0835 125.986 45.3647 127.989 45.2648C128.085 45.0651 128.277 44.6658 128.377 44.4661C124 45.173 119.614 45.8758 115.297 46.8982C110.92 47.5651 106.547 48.2481 102.141 48.7113C101.252 48.8311 100.359 48.6634 99.4821 48.5755C99.4861 49.2984 99.5622 50.0252 99.9948 50.6362C100.948 50.4485 102.013 50.4366 102.79 49.7736C106.282 49.6658 109.574 48.3439 113.014 47.9206C109.318 49.3982 105.353 49.8455 101.525 50.8399C100.768 50.9198 99.6023 51.3711 99.1978 50.4485C98.8133 49.8016 99.1297 49.0348 99.1738 48.3439C97.9483 48.304 97.0953 47.4493 96.4024 46.5468C97.2234 46.391 98.0484 46.2193 98.8894 46.2393C103.211 46.2992 107.48 45.5044 111.705 44.6977C116.158 44.0468 120.52 42.9246 124.925 42.034C128.645 41.2992 132.426 40.8718 136.118 39.9893C138.077 39.522 140.079 39.3103 142.062 38.9589C139.835 38.5116 137.588 39.0907 135.381 39.3862C132.025 39.8375 128.693 40.5843 125.301 40.7201C124.312 40.8399 123.483 41.4869 122.502 41.6466C120.92 41.9182 119.314 41.7185 117.74 41.5188C113.996 41.0516 110.255 41.8063 106.507 41.7385C105.626 41.7704 104.688 41.6346 103.879 42.0699C104.124 42.1977 104.612 42.4573 104.857 42.5891C102.742 42.7568 100.628 42.9365 98.509 42.8407C97.0592 42.7369 95.6135 43.2361 94.1837 43.0484C94.1757 42.9445 94.1597 42.7329 94.1557 42.625C96.4545 41.7225 98.9455 41.6626 101.344 41.1674C107.556 40.141 113.88 40.1889 120.155 40.2488C124.084 39.2624 128.169 39.0667 132.118 38.1482C134.945 37.9126 137.656 37.022 140.488 36.8423C140.472 36.7265 140.448 36.4948 140.432 36.379L140.708 36.419L140.616 37.1178C142.863 36.9581 144.725 35.6642 146.607 34.5659C146.819 34.5859 147.244 34.6258 147.452 34.6418C146.042 34.1186 145.434 32.665 144.585 31.5467C140.492 26.1793 135.838 21.2432 131.937 15.724C131.561 15.3047 131.409 14.7736 131.405 14.2144C125.662 13.7392 119.851 13.6793 114.136 14.498C114.284 15.4844 114.412 16.4828 114.745 17.4333C115.133 18.4597 115.982 19.2664 116.238 20.3566C116.507 21.4629 116.367 22.605 116.318 23.7272C116.046 23.6873 115.497 23.6114 115.221 23.5715C115.369 23.7592 115.67 24.1306 115.818 24.3183C116.807 28.1442 118.161 31.8902 118.689 35.8239C119.807 35.3007 120.263 34.0028 121.405 33.5196C123.011 32.7329 124.729 32.1658 126.503 31.9181L126.142 32.629C127.44 31.1953 129.574 31.2872 131.353 31.2552C131.353 30.5963 131.765 30.2249 132.35 30.0372C132.362 30.3407 132.39 30.9437 132.402 31.2472C135.385 31.7025 138.589 32.1618 141.136 33.863C138.469 33.6554 136.006 32.4094 133.327 32.2496C129.302 32.3774 125.369 33.3239 121.537 34.494C120.107 35.0452 119.302 36.5947 117.78 36.9861C116.775 37.2536 115.774 37.7648 114.713 37.645C114.164 37.0819 114.144 36.2273 113.94 35.5084C113.231 31.4749 112.165 27.4932 110.584 23.7113C109.17 23.6114 107.556 24.1586 106.334 23.228C105.169 22.2616 105.357 20.113 106.755 19.4461C107.784 19.1625 108.877 19.2264 109.939 19.0907C109.991 17.7368 110.031 16.379 110.015 15.0251C103.507 15.8998 97.0632 17.3534 90.8517 19.498C88.9975 20.1889 87.0792 20.9117 85.5694 22.2296C84.7163 22.9964 85.273 24.2504 85.4091 25.2009C86.6867 30.0931 88.625 34.7776 90.4352 39.4901C91.072 40.9956 91.8209 42.8407 93.6271 43.1921C96.8029 43.8351 100.079 44.1306 103.315 43.8271C108.849 43.3639 114.384 42.8527 119.883 42.0819C118.213 42.8806 116.346 43.0124 114.544 43.292C107.276 44.1666 99.8225 46.0156 92.5498 44.1586C90.291 43.5595 89.4861 41.0555 88.7932 39.0987C87.2794 33.7233 84.6803 28.6873 83.4908 23.228C82.8501 21.6386 84.2518 20.4565 85.4412 19.6977C88.593 17.7129 92.1973 16.6066 95.7697 15.6442C106.587 12.609 117.88 11.7823 129.066 11.4988C127.444 10.3247 125.706 9.29031 123.799 8.64734C115.237 5.60021 106.342 3.45963 97.3115 2.37337C90.9278 1.67848 84.496 1.61059 78.0803 1.80228ZM35.9895 11.5826C31.8325 14.9772 29.1453 19.7097 26.0135 23.9748C24.5878 25.9836 22.5893 27.5052 21.2557 29.5779C23.6426 30.5164 26.2778 30.9158 28.3803 32.4773C28.6206 32.5571 29.1052 32.7129 29.3455 32.7928C29.1493 30.5483 29.786 28.3159 30.9634 26.411C33.8149 21.9341 36.8425 17.4772 40.8434 13.9349C42.6255 12.4892 45.0404 12.3814 47.2351 12.4213C52.8058 12.5691 58.3765 13.4197 63.6789 15.145C67.872 16.3231 72.1572 17.4453 75.9417 19.6737C77.8761 20.8758 79.2617 22.8207 79.9506 24.9733C81.9049 29.8854 83.3627 35.0052 85.8056 39.7177C86.7307 41.5348 87.3235 43.5036 87.6679 45.5084L86.919 45.2129C86.911 45.3487 86.8989 45.6282 86.8909 45.768C87.1152 45.7321 87.5678 45.6562 87.796 45.6163C88.0003 46.4429 88.2766 47.9286 86.927 47.7648C83.9914 47.2696 81.096 46.4949 78.1604 45.9957C77.9361 46.2792 77.7319 46.5707 77.5437 46.8783C79.9506 47.5332 82.3655 48.1722 84.7884 48.7712C86.1941 49.0108 87.5517 49.4541 88.9294 49.8176C89.2978 48.935 89.6823 48.0404 89.7784 47.0779C89.4821 45.6482 88.629 44.4182 88.2085 43.0284C86.8469 38.9349 85.6935 34.7616 84.0075 30.78C82.79 27.3814 81.6366 23.9509 80.1788 20.6402C79.2938 18.879 77.4556 17.9045 75.7255 17.1298C71.0478 15.1569 66.0738 14.0427 61.228 12.5691C54.592 10.7879 47.7397 9.73361 40.8714 9.47801C38.9931 9.34622 37.4713 10.6242 35.9895 11.5826ZM39.3496 17.2775C37.9519 18.8191 36.406 20.2248 35.0243 21.7784C33.1501 24.3902 31.46 27.2177 30.6591 30.3606C30.4588 31.0356 30.571 31.7384 30.6431 32.4253C31.9566 32.8527 33.2702 33.288 34.5918 33.6833C40.4909 35.3646 46.1898 37.645 52.0729 39.3742C59.9745 42.1538 68.0722 44.3263 76.1139 46.6506C76.7587 46.9741 76.8829 45.9677 77.2673 45.6682C65.8495 43.5196 54.9524 39.3822 43.9912 35.6402C39.7741 34.0108 35.3007 33.0044 31.0395 31.6106C31.1877 28.3319 32.8577 25.3726 34.6319 22.7009C35.7292 20.9876 37.3672 19.7416 38.8009 18.3319C39.3135 17.7927 40.1265 17.3654 39.9383 16.4469C40.547 18.0883 41.5763 16.4269 40.6511 16.0715C42.5454 14.3063 45.1446 13.7712 47.6636 13.9109C51.6204 14.1905 55.5571 14.7576 59.4378 15.5763C58.7169 19.3383 57.8719 23.0723 56.8787 26.7704C55.9015 30.6681 54.62 34.51 54.1674 38.5196C54.6 38.5995 55.0325 38.6833 55.469 38.7592C56.258 30.748 58.7009 23.0523 60.399 15.2128C55.6853 14.1665 50.8675 13.3918 46.0256 13.4397C43.3784 13.4636 40.4549 14.7536 39.3496 17.2775ZM43.2222 15.9477C42.0809 18.0443 41.8286 20.4525 41.348 22.7528C40.6351 26.1154 40.2186 29.53 39.686 32.9206C44.3076 34.3503 48.809 36.1554 53.4426 37.5531C53.8711 35.2888 54.2636 33.0124 54.8963 30.792C56.3941 26.0276 57.4714 21.1474 58.6929 16.3071C54.4958 15.6641 50.2747 14.9812 46.0176 14.9772C45.0605 15.0491 43.7228 14.9293 43.2222 15.9477ZM110.904 14.9013C110.776 16.2991 110.696 17.7009 110.708 19.1066C111.781 19.0747 112.91 19.1266 113.888 18.6034C113.659 17.2536 113.495 15.8958 113.151 14.5699C112.398 14.6617 111.649 14.7735 110.904 14.9013ZM140.359 24.1306C143.143 27.4213 145.454 31.0755 148.161 34.4182C147.372 32.3814 145.946 30.6961 144.665 28.9589C142.61 26.2512 140.768 23.3638 138.377 20.9237C136.399 18.9309 134.657 16.7105 132.574 14.8215C134.861 18.1721 137.784 21.0116 140.359 24.1306ZM60.9036 17.9964C58.9572 24.8534 57.1991 31.7983 56.5543 38.919C57.2952 39.1586 58.0321 39.3982 58.773 39.6418C58.9292 34.7816 59.7262 29.9693 60.3469 25.149C60.5151 23.5835 61.1278 22.0939 61.1439 20.5084L61.4082 20.5483C61.4562 20.0691 61.5043 19.5938 61.5604 19.1186C61.9368 18.3399 61.9208 17.4772 61.8047 16.6386C62.1451 16.7384 62.8259 16.9381 63.1663 17.0379C61.9969 20.5643 61.24 24.2264 60.8315 27.9165C60.407 31.9741 59.8183 36.0156 59.5099 40.0891C60.0265 39.6698 60.1707 39.0268 60.2388 38.3998C60.7714 33.7073 61.4562 29.0308 62.3413 24.3902C62.878 22.2616 63.5107 20.1569 64.1315 18.0483C64.3758 18.0603 64.8644 18.0883 65.1087 18.1002C64.9084 18.6034 64.7162 19.1106 64.5199 19.6138C64.3397 20.2368 64.1795 20.8638 63.9913 21.4868C62.3133 27.5372 61.6805 33.7912 60.8035 39.9893C63.9272 41.0635 67.1671 41.7824 70.2749 42.9006C70.6353 41.3671 70.9357 39.8215 71.2481 38.276C71.4243 38.1562 71.7767 37.9206 71.9529 37.8007C74.2317 37.7408 76.5144 37.7768 78.7691 38.1322C78.7531 35.788 79.1576 33.4757 79.3338 31.1434C79.2217 29.9892 79.1135 28.8351 78.9574 27.6849C79.1256 27.6809 79.462 27.6689 79.6302 27.6649C80.3911 31.2073 79.1896 34.8495 79.9105 38.3798C79.1536 40.3846 79.6943 42.645 79.462 44.7496C79.7864 44.4342 80.0467 44.0268 80.0307 43.5516C80.4111 40.3487 79.9466 36.9541 81.4404 33.9709C81.3643 37.6011 81.112 41.2393 80.6514 44.8415C82.5657 45.4445 84.452 46.1314 86.3703 46.7225C85.6254 43.6474 84.5481 40.6722 83.4428 37.7129C82.8461 36.1873 82.5177 34.5459 81.6406 33.1442C81.104 30.8718 80.343 28.6634 79.5741 26.4629C79.3458 26.8423 79.1256 27.2296 78.9013 27.609C78.685 26.5188 78.7371 25.3047 78.1163 24.3263C77.4475 23.3638 76.4864 22.653 75.4892 22.0619C72.7539 20.4844 69.7983 19.3383 66.8227 18.3079C64.9485 17.7129 63.4306 16.343 61.5243 15.8319C60.8435 16.2791 61.1639 17.3175 60.9036 17.9964ZM64.3357 16.0196C68.7571 18.2959 73.9433 19.2784 77.7599 22.657C76.983 21.6226 75.9858 20.768 74.8564 20.141C71.5524 18.3039 67.9 17.2336 64.3357 16.0196ZM34.3515 25.4485C33.4064 27.0739 33.1221 28.9589 32.5414 30.7241C34.5958 31.1993 36.5302 32.0619 38.5886 32.5332C39.6379 27.3894 40.2226 22.1418 41.6003 17.0699C38.5046 19.1985 36.2659 22.2776 34.3515 25.4485ZM114.36 19.7097C111.781 19.9373 109.174 19.7616 106.611 20.101C106.507 21.2113 106.899 22.2336 107.584 23.1002C110.183 23.1322 112.806 23.1442 115.373 22.6689C115.858 21.5347 115.153 20.3127 114.881 19.1985C114.753 19.3263 114.488 19.5819 114.36 19.7097ZM18.3482 23.4317C14.9842 24.1226 11.56 24.6578 8.34816 25.8998C11.6481 26.4589 14.7919 27.657 18.0278 28.4796C18.6045 28.5715 19.2653 28.7672 19.794 28.4157C22.1648 26.9221 23.939 24.7017 25.5289 22.4413C23.094 22.3934 20.7471 23.1402 18.3482 23.4317ZM111.401 23.5076C113.327 27.9525 113.992 32.7728 115.229 37.4174C116.134 37.0699 116.963 36.5667 117.74 35.9876C117.692 33.1642 116.483 30.5763 115.794 27.8846C115.369 26.4828 115.137 25.0052 114.464 23.6873C113.523 23.264 112.406 23.6034 111.401 23.5076ZM5.39259 28.1442C4.92403 29.0467 4.19915 30.0731 4.33131 31.1194C10.1984 32.8806 16.0494 34.7137 21.9526 36.3551C21.6802 36.5308 21.4079 36.7065 21.1316 36.8822C15.4047 35.157 9.71781 33.2121 3.83071 32.0779C3.09782 35.157 2.97768 38.3878 3.41821 41.5228C3.6585 42.8008 4.06699 44.0428 4.25522 45.3367C5.6529 47.1259 8.10386 47.3215 9.98213 48.3918C11.1676 48.8112 11.9926 49.9573 13.2661 50.133L12.8776 50.9158C10.2104 49.9613 7.78748 48.2321 4.89599 47.9845C4.8159 49.6179 5.22839 51.1993 5.91322 52.673C7.8876 54.6778 10.1664 56.3511 12.2248 58.268C12.1728 55.788 12.1007 53.1323 13.3182 50.8838C14.6838 48.6953 17.6153 47.8607 20.0463 48.4677C22.273 49.0508 24.5157 50.0252 26.0215 51.8263C29.1212 55.4645 30.579 60.1331 31.6643 64.7018C32.0808 66.3312 32.3211 68.0644 33.2342 69.5141C33.5105 70.0612 34.4917 69.8216 34.2434 69.1187C33.086 64.9933 31.8966 60.8639 30.3387 56.8703C29.3695 54.3024 27.8677 51.9342 25.9254 49.9893C23.6987 47.7369 20.3627 46.5588 17.2189 47.022C15.3366 47.3215 14.2793 48.9749 12.8536 50.0212C13.8828 48.6434 15.1524 47.2776 16.8905 46.8503C18.5565 46.2952 20.2946 46.9262 21.9446 47.2137C21.9005 43.7313 22.0207 40.2329 22.5573 36.7944C23.2421 34.9293 24.5717 33.3998 25.7692 31.8503C21.0154 30.0212 16.0374 28.883 11.1796 27.3774C9.30131 26.8183 6.73822 26.3071 5.39259 28.1442ZM148.061 31.5068C148.453 32.4493 148.87 33.3878 149.318 34.3103C150.612 33.6354 151.389 32.1977 151.205 30.74C151.273 30.1769 150.824 29.4781 150.191 29.6737C149.074 29.6178 148.589 30.732 148.061 31.5068ZM23.5705 36.1634C25.8293 36.1234 28.1601 36.371 30.2586 37.2337C30.9915 37.4293 31.1317 38.1162 31.0836 38.7672C30.3467 39.2265 29.6058 39.6777 28.8529 40.1131C26.9867 39.4661 23.8509 39.7736 23.5225 37.2057C25.2766 37.8726 27.0748 38.4317 28.8889 38.907C29.3575 39.0707 30.2226 38.7832 29.8101 38.1841C27.8076 37.5891 25.7411 37.042 23.6466 36.9621L23.6747 36.2792C22.6094 39.8934 22.5893 43.7113 22.5613 47.4493C26.1977 48.2241 28.5205 51.5388 29.9302 54.7377C31.408 58.3839 32.7776 62.0859 33.7949 65.8879C34.1633 67.046 34.3876 68.2601 34.9242 69.3623C40.1585 70.8839 45.1486 73.0924 50.2267 75.0372C50.0104 67.2058 49.7381 59.3623 50.2107 51.5348C50.3709 49.3263 50.1987 47.0779 50.7033 44.9054C51.1798 43.3679 51.9768 41.9182 53.1102 40.764C45.1766 38.1562 37.255 35.4924 29.2534 33.0923C28.2762 32.7648 27.315 32.4014 26.3539 32.034C25.0003 33.0763 24.1592 34.5899 23.5705 36.1634ZM144.901 37.0819C144.4 37.3774 143.683 37.5052 143.459 38.1043C145.562 38.8071 148.081 39.1346 150.143 38.1003C149.506 37.0699 148.774 36.1035 148.029 35.153C147.128 36.0076 146.034 36.5987 144.901 37.0819ZM141.933 37.5851C141.721 38.1202 142.462 38.883 143.007 38.6194C143.371 38.0643 142.462 37.2816 141.933 37.5851ZM71.8167 39.9533C71.5404 41.0196 71.3922 42.1099 71.0919 43.1722C73.5428 43.7153 76.0539 44.6897 78.5889 44.1746C78.7291 42.3974 78.7731 40.6123 78.7812 38.8311C76.8148 38.6115 74.7883 38.4078 72.834 38.7992C72.2212 38.8311 71.9329 39.4381 71.8167 39.9533ZM133.047 43.8311C133.395 44.1746 134.424 43.9589 134.576 43.5116C134.124 43.3079 133.239 43.3 133.047 43.8311ZM2.11664 46.7504C2.12465 48.9709 3.10183 51.1914 4.58762 52.8287C3.67051 50.9557 3.71056 48.8551 3.7386 46.8223C3.27003 46.423 2.05656 45.5444 2.11664 46.7504ZM19.1091 59.7936C17.6714 63.915 18.3082 68.6315 20.3146 72.4614C21.6802 72.5253 22.8296 73.6235 24.2554 73.1602C24.2674 72.9126 24.2834 72.4254 24.2954 72.1818C24.9962 72.4773 25.4648 73.1962 24.7119 73.7553C23.2702 74.566 21.7163 73.308 20.3907 72.7769C20.8512 73.9949 21.7443 75.3288 23.1901 75.3887C24.4836 75.5444 25.4288 74.4901 26.3058 73.7194C26.5101 73.6794 26.9186 73.5956 27.1228 73.5556C29.3335 69.9414 29.0171 65.4486 27.6234 61.5987C27.0187 62.1538 26.3819 62.669 25.7251 63.1562C25.7572 62.8248 25.8293 62.1538 25.8613 61.8184C25.617 61.4709 25.3727 61.1195 25.1284 60.7681C25.2806 60.6882 25.585 60.5244 25.7371 60.4446C26.1296 60.9318 26.5181 61.415 26.9146 61.9022C27.0667 61.5788 27.2189 61.2553 27.3711 60.9358C26.3619 59.2305 24.8961 57.5891 22.8697 57.1778C21.0875 56.7904 19.9462 58.5157 19.1091 59.7936ZM185.85 66.2633C185.406 68.3719 186.944 71.2513 189.407 70.832C191.353 70.6762 192.066 68.6515 192.711 67.1339C192.098 67.3695 191.705 67.8487 191.649 68.5117C191.469 67.2257 191.617 65.7321 190.616 64.7417C190.22 64.2305 189.859 63.6874 189.459 63.1802C187.645 63.0564 186.095 64.526 185.85 66.2633ZM169.739 69.582C168.634 69.7377 167.512 69.8216 166.427 70.0971C167.524 70.1131 168.626 70.0612 169.723 69.9933C169.715 70.4126 169.707 71.2473 169.699 71.6666C165.826 71.8463 162.042 72.8607 158.169 73.0364C156.299 73.3479 154.412 73.6515 152.518 73.7912C152.238 73.8751 151.677 74.0428 151.397 74.1267C151.409 74.2146 151.429 74.3863 151.441 74.4741C152.442 74.0668 153.527 74.0428 154.589 73.8991C159.631 73.1403 164.705 72.5452 169.751 71.7705C169.591 73.7833 169.843 75.788 169.899 77.8008C170.059 77.9127 170.38 78.1363 170.544 78.2441C170.492 75.2849 170.472 72.3216 170.276 69.3663C171.173 69.2665 172.03 69.4981 172.871 69.7936C172.819 69.586 172.711 69.1746 172.658 68.9709C173.259 69.0069 173.676 68.7553 173.916 68.2201C172.526 68.6435 170.968 68.7633 169.739 69.582ZM144.192 72.7369C143.683 72.8128 143.227 73.0484 142.838 73.3839C145.79 72.7968 148.734 72.1019 151.741 71.8583C151.433 71.6706 151.124 71.4909 150.816 71.3112C148.625 71.8743 146.387 72.2058 144.192 72.7369ZM177.432 74.0508C175.558 74.7737 173.612 75.3168 171.841 76.2793C171.513 76.5189 171.181 76.7505 170.844 76.9742C171.281 76.8943 171.697 76.7465 172.094 76.5309C174.685 75.0932 177.652 74.5261 180.3 73.2042C179.286 73.2561 178.369 73.7154 177.432 74.0508ZM151.577 80.9478C151.397 81.2553 151.225 81.5628 151.052 81.8743C153.856 81.2154 156.679 80.6243 159.467 79.9214C156.791 79.9015 154.26 81.1036 151.577 80.9478ZM168.706 84.2665C169.17 84.6179 169.487 84.5421 169.655 84.0389C169.178 83.6914 168.862 83.7673 168.706 84.2665ZM101.505 91.4311C100.051 96.1875 101.244 101.667 104.552 105.389C105.774 106.846 107.376 108.104 109.254 108.556C111.585 108.799 113.607 107.13 115.025 105.469C116.987 102.246 117.916 98.3839 117.324 94.6259C116.19 95.7202 116.823 97.3336 116.775 98.7194C116.671 98.0804 116.587 97.4415 116.523 96.8025C115.766 96.8184 114.981 97.118 114.244 96.8903C113.407 96.1515 113.059 94.9934 113.083 93.9071C113.255 93.4918 113.655 93.1523 113.639 92.6811C113.179 92.4454 112.686 92.3296 112.161 92.3376C112.27 91.5628 112.73 90.9518 113.295 90.4366C113.763 90.852 114.228 91.2793 114.692 91.6986C113.904 91.4071 113.075 91.1595 112.43 91.8983C113.327 91.9342 114.08 92.3256 114.624 93.0285C114.108 93.312 113.595 93.6036 113.091 93.8991C113.347 94.7657 113.803 95.5445 114.296 96.2993C114.873 96.1715 115.477 96.0676 115.954 95.6883C116.07 95.1172 116.034 94.5261 116.202 93.971C116.567 94.0469 116.711 94.598 117.188 94.574C116.695 93.32 116.575 91.7545 115.485 90.828C115.658 91.5548 115.902 92.2577 116.214 92.9406C116.07 93.2282 115.926 93.5117 115.778 93.7993C115.457 91.2234 114.168 88.6794 111.913 87.2817C110.335 86.2992 108.381 85.5924 106.535 86.1994C104.164 87.0301 102.185 88.9989 101.505 91.4311ZM150.384 87.4454C150.412 87.5772 150.464 87.8448 150.492 87.9766C150.732 87.9686 151.209 87.9446 151.449 87.9366C151.873 87.705 151.957 87.4534 151.697 87.1778C151.369 87.2457 150.712 87.3775 150.384 87.4454ZM152.855 87.5493C153.147 87.6411 154.717 87.1898 153.8 86.9542C153.431 86.9902 152.694 87.062 152.326 87.098C152.206 87.3855 152.382 87.5373 152.855 87.5493ZM148.185 88.2242C148.513 88.2521 149.166 88.308 149.49 88.332C149.855 88.1243 149.963 87.8528 149.815 87.5093C149.33 87.7449 148.313 87.6571 148.185 88.2242ZM175.161 89.4582C174.917 90.5684 174.068 92.1259 175.966 92.4255C175.602 92.3496 174.873 92.1938 174.509 92.118C174.437 92.3696 174.296 92.8767 174.224 93.1323C174.981 92.9007 175.738 92.6611 176.507 92.4574C176.315 91.0676 177.1 89.7657 176.719 88.3799C176.215 88.7274 175.306 88.7393 175.161 89.4582ZM148.361 92.3376C146.042 92.713 143.732 93.1882 141.377 93.2521C137.796 93.5117 134.248 92.6531 130.884 91.5069C129.358 91.0037 127.884 90.3248 126.299 90.0213C126.347 90.9358 126.539 91.8344 126.767 92.721C128.333 94.7058 131.012 95.1012 133.319 95.7042C136.591 96.5948 140.039 96.7865 143.391 96.2833C147.508 95.6124 151.669 95.2849 155.79 94.6699C157.768 94.3584 159.703 93.8073 161.693 93.5557C161.741 92.3256 161.845 91.0956 161.905 89.8655C157.392 90.6842 152.883 91.5389 148.361 92.3376ZM165.153 91.2434C165.205 92.6531 165.217 94.0628 165.229 95.4726C165.902 95.3368 166.635 95.3128 167.224 94.9095C167.46 93.5277 167.34 92.1179 167.28 90.7282C166.531 90.7282 165.786 90.816 165.153 91.2434ZM169.999 96.8863C170.468 97.2777 171.505 97.5093 171.982 97.1459C171.633 96.5549 170.288 96.0956 169.999 96.8863Z" fill="#003A2F"/>
<path d="M140.74 41.8383C143.011 41.7984 145.009 40.4406 147.284 40.3247C146.19 41.2952 144.669 41.419 143.311 41.7545C143.856 41.8383 144.408 41.9182 144.961 41.9981L144.913 42.1778C142.374 42.5891 139.823 43.0005 137.348 43.7113C137.031 43.4877 137.015 43.28 137.288 43.0883L137.62 43.0005L137.961 42.8727C137.684 42.7688 137.136 42.5612 136.863 42.4573C137.912 42.5092 138.958 42.6131 140.007 42.653C139.627 42.4334 139.25 42.2137 138.874 41.9981C139.55 42.0859 140.231 42.1778 140.912 42.2736L140.74 41.8383Z" fill="#003A2F"/>
<path d="M24.7039 42.1458C26.0496 40.4325 28.1561 42.0739 29.1053 43.3559C28.3403 43.7792 27.4953 44.0348 26.6183 44.0787C25.9775 43.4357 25.3487 42.7848 24.7039 42.1458ZM25.3367 42.1378C25.7812 42.6889 26.2378 43.2361 26.6943 43.7872C27.0588 43.7153 27.7837 43.5795 28.1441 43.5116C27.8918 42.9046 27.3311 42.5811 26.8105 42.2416C26.442 42.2137 25.7052 42.1618 25.3367 42.1378Z" fill="#003A2F"/>
<path d="M52.2932 46.8423C51.5242 45.2768 52.5254 43.6195 54.0273 43.0124C53.8751 43.2161 53.5707 43.6195 53.4185 43.8191C55.8414 43.883 58.1723 44.7736 60.3148 45.8559C59.8303 46.9421 59.0373 48.1762 57.6757 48.1243C55.8214 48.0524 54.0953 47.2177 52.2932 46.8423ZM52.4694 46.0316C53.8991 46.4749 55.3929 46.6826 56.8707 46.8862C57.5795 47.034 58.2243 46.6826 58.6889 46.1754C57.139 45.8359 55.6212 45.3247 54.0393 45.161C53.3024 44.9334 52.8618 45.5244 52.4694 46.0316Z" fill="#003A2F"/>
<path d="M131.665 45.5563C142.482 50.4405 153.547 54.8615 163.976 60.5564C164.352 60.816 165.141 60.8479 165.233 61.3511C164.316 61.5388 163.684 60.6882 162.899 60.3966C157.736 57.9525 152.634 55.3806 147.388 53.1203C143.563 51.4549 139.771 49.7257 135.97 48.0124C134.488 47.2816 132.938 46.6226 131.665 45.5563Z" fill="#003A2F"/>
<path d="M118.785 48.7153C121.513 48.2041 124.152 47.3016 126.899 46.9022C127.364 46.7345 127.82 46.9382 128.213 47.1778C126.763 47.685 125.225 47.7968 123.743 48.1682C120.668 48.9469 117.532 49.9893 114.32 49.7417C115.726 49.1187 117.308 49.0947 118.785 48.7153Z" fill="#003A2F"/>
<path d="M53.2102 49.2944C54.3116 49.6578 55.3808 50.1051 56.4461 50.5684C56.0777 51.1474 55.6972 51.7145 55.3288 52.2896C54.4597 51.5029 53.1622 51.1634 52.6215 50.0652C52.9539 50.1091 53.6227 50.197 53.9591 50.2369L53.9631 49.9973C53.6908 49.9973 53.1461 49.9973 52.8778 49.9973L53.2102 49.2944Z" fill="#003A2F"/>
<path d="M20.5149 60.0013C21.468 58.9549 23.0179 58.8751 24.3395 58.8391C24.2954 59.2465 24.2434 59.6538 24.1873 60.0612C23.6707 59.7457 23.1541 59.4302 22.6334 59.1187C21.7203 59.6618 21.4079 60.9398 20.3066 61.1474C20.639 61.6946 20.6751 62.2497 20.1905 62.7289C20.7431 63.272 21.3479 63.7672 22.0247 64.1506C22.1088 63.5436 22.2049 62.9406 22.309 62.3375C23.0299 63.296 23.6907 64.2944 24.4276 65.2409C24.3795 63.8112 24.0872 62.4014 24.1232 60.9717C24.6358 62.4494 24.9722 64.2145 24.2714 65.6802C24.4837 65.6882 24.9122 65.7081 25.1244 65.7161C25.2926 66.9621 24.6719 68.1442 23.4304 68.5436C23.6707 68.0444 23.927 67.5612 24.2033 67.0859C24.1432 66.0795 23.8349 64.9973 23.0059 64.3543L22.7736 64.2505C21.6482 63.8471 23.2061 63.0364 22.7736 64.2505C22.9298 64.8735 23.0499 65.5045 23.2061 66.1275C22.9698 66.5987 22.7376 67.07 22.5053 67.5452C21.8885 67.1219 21.2638 66.7105 20.631 66.3112C19.7019 67.7409 21.1516 68.907 21.9726 69.9134C21.8965 71.1275 20.8433 69.8256 20.3507 69.546C20.2225 67.6211 19.758 65.7042 19.9542 63.7712C19.9422 62.5013 19.758 61.1115 20.5149 60.0013ZM20.0783 63.9789C20.1344 64.6299 20.1985 65.2808 20.2786 65.9358C21.0035 66.0796 21.7083 66.5548 22.4612 66.407C22.9258 65.8759 22.6374 65.2169 22.5533 64.6179C21.7123 64.4701 20.8953 64.2145 20.0783 63.9789Z" fill="#003A2F"/>
<path d="M167.544 60.9678C168.794 60.4606 170.296 60.5804 171.333 61.4789C171.357 63.7034 167.14 63.0724 167.544 60.9678ZM167.921 61.419C168.385 61.8104 168.87 62.1898 169.374 62.5412C169.747 62.3855 170.492 62.07 170.864 61.9142C169.939 61.4709 168.946 61.0995 167.921 61.419Z" fill="#003A2F"/>
<path d="M26.2979 65.4526C26.5862 64.7577 26.9306 64.0828 27.3311 63.4478C27.5313 64.1906 27.7076 64.9414 27.8637 65.6922C27.6955 65.796 27.3631 65.9957 27.1989 66.0995C26.8986 65.8799 26.5982 65.6682 26.2979 65.4526Z" fill="#003A2F"/>
<path d="M186.888 69.1427C186.84 67.5013 186.367 65.7561 187.152 64.2146C187.084 65.8559 187.36 67.5373 186.888 69.1427Z" fill="#003A2F"/>
<path d="M195.106 66.1235C195.37 66.3671 195.37 66.3671 195.106 66.1235V66.1235Z" fill="#003A2F"/>
<path d="M26.0616 67.1019C26.6503 67.1898 27.243 67.2856 27.8357 67.3775C27.8638 68.6355 27.9158 69.8935 28.2122 71.1195C27.3551 71.2313 26.3099 71.411 25.6931 70.6403C25.5009 69.9414 25.9054 68.9909 26.8025 69.2625L26.7064 68.947C26.8185 68.8591 27.0508 68.6874 27.1629 68.5995C27.0027 68.2042 26.6503 67.9965 26.0976 67.9805C26.0896 67.7609 26.0696 67.3216 26.0616 67.1019ZM27.0147 69.2105C27.275 69.4981 27.275 69.4981 27.0147 69.2105V69.2105Z" fill="#003A2F"/>
<path d="M23.0619 69.7018C23.3262 70.1531 23.8308 70.5484 23.8388 71.1075C23.6866 71.7026 22.9617 71.5628 22.5052 71.7265C22.6774 71.0476 22.8736 70.3727 23.0619 69.7018Z" fill="#003A2F"/>
<path d="M190.019 72.4454C191.854 71.9622 193.748 71.2154 194.713 69.4582C194.737 69.9254 194.781 70.8519 194.805 71.3152C193.211 72.5812 191.165 72.9925 189.331 73.7793C184.393 75.6283 179.519 77.6451 174.545 79.3983C170.928 80.6682 167.16 81.447 163.371 82.0221C159.995 82.5093 156.699 83.4239 153.323 83.9191C150.504 84.2625 147.881 85.3967 145.125 86.0197C144.801 85.844 144.48 85.6643 144.16 85.4806C146.675 85.3967 148.842 83.927 151.309 83.6195C155.225 83.0325 159.03 81.8743 162.947 81.2593C168.293 80.3967 173.612 79.1107 178.57 76.8903C182.37 75.3767 186.043 73.4997 190.019 72.4454Z" fill="#003A2F"/>
<path d="M92.3575 83.8632C93.7632 78.5197 98.2927 74.1746 103.695 72.9646C107.123 72.5812 110.66 73.6355 113.271 75.8959C114.797 77.2977 116.475 78.6475 117.416 80.5405C115.013 78.2401 112.61 75.7361 109.394 74.594C107.32 73.915 105.045 73.4358 102.886 74.0189C98.2005 75.1491 94.46 79.0109 92.9742 83.5197C91.8849 86.495 91.8128 89.6898 91.6927 92.8129C90.5433 89.8775 91.6647 86.7625 92.3575 83.8632Z" fill="#003A2F"/>
<path d="M124.765 78.0804C126.599 78.0444 128.565 78.1563 130.211 79.0109C130.956 80.0732 129.903 81.0477 129.126 81.6667C127.58 81.3192 125.626 81.0676 124.805 79.5261C124.793 79.1627 124.777 78.4438 124.765 78.0804ZM125.642 78.7513C125.798 79.3384 126.046 79.8935 126.511 80.3128C127.7 80.6403 128.938 81.1555 130.007 80.181C129.546 80.0972 128.633 79.9334 128.177 79.8496C128.621 79.7857 129.51 79.6539 129.951 79.59C128.81 78.4678 127.083 78.8791 125.642 78.7513Z" fill="#003A2F"/>
<path d="M138.557 78.5836C138.818 79.0868 139.326 79.57 139.118 80.201C138.99 81.9861 138.918 83.7952 139.234 85.5724C140.912 86.7505 142.991 85.0572 144.605 86.2234C142.682 86.2833 140.712 86.9342 138.826 86.2833C138.477 86.5948 138.453 87.5572 137.832 87.3695C137.932 84.4342 138.301 81.5069 138.557 78.5836Z" fill="#003A2F"/>
<path d="M185.089 84.9334C185.141 84.7577 185.246 84.4023 185.302 84.2266C185.266 84.4462 185.198 84.8855 185.161 85.1052C184.272 85.2769 184.04 85.9758 185.093 86.1475C185.47 86.9981 185.778 87.8727 186.123 88.7393C185.458 89.4183 184.793 90.0932 184.068 90.7082C183.367 89.2825 183.175 87.4933 184.124 86.1275C183.54 85.816 182.943 85.5245 182.35 85.2449C183.235 84.9494 184.148 84.6699 185.089 84.9334ZM184.433 86.9342C184.312 87.693 184.26 88.4598 184.272 89.2266C185.262 88.8152 185.049 87.5852 184.433 86.9342Z" fill="#003A2F"/>
<path d="M163.059 85.4686C164.088 85.4047 165.133 85.2689 166.115 84.9215C166.347 85.0892 166.575 85.2609 166.807 85.4326C165.818 85.4886 164.853 85.7082 163.912 85.9957C163.624 85.82 163.339 85.6443 163.059 85.4686Z" fill="#003A2F"/>
<path d="M103.255 90.9918C104.188 88.5636 106.823 87.1938 109.35 87.2497C108.897 87.4934 108.441 87.717 107.984 87.9486C107.964 89.1427 108.04 90.3448 107.904 91.5389C107.472 90.3887 107.48 89.1387 107.448 87.9326C107.115 87.9766 106.446 88.0724 106.11 88.1164C105.137 88.8352 105.698 90.6603 104.368 90.8799C104.853 91.9502 105.577 93.2841 104.628 94.3224C104.62 94.1986 104.596 93.947 104.584 93.8192C104.664 93.4199 104.829 92.6251 104.909 92.2258C104.576 92.0141 104.244 91.8025 103.915 91.5988C103.699 92.0221 103.491 92.4494 103.287 92.8767C103.667 93.1044 103.98 93.3999 104.22 93.7633C103.875 93.7514 103.195 93.7234 102.85 93.7114C102.774 94.6299 102.69 95.5485 102.61 96.467C103.467 96.3752 104.336 96.2553 105.201 96.3871C104.941 97.3576 103.319 96.8544 102.894 97.8688C103.495 98.4798 104.732 98.2082 104.929 99.1907L103.795 98.955C103.915 99.7418 104.841 99.6379 105.137 100.281C106.162 101.535 107.592 102.945 109.362 102.745C111.264 102.25 112.097 100.209 111.913 98.3919C111.24 99.1467 110.748 100.273 109.626 100.441C108.773 100.712 107.768 100.173 107.452 99.3704C107.468 98.5796 107.58 97.7929 107.612 97.0101C108.169 98.0804 109.386 98.5796 110.331 97.6172C110.231 98.8192 108.753 99.606 108.016 98.324C107.852 98.6316 107.692 98.9391 107.532 99.2506C108.06 99.8815 108.781 100.772 109.706 100.253C111.204 99.3983 111.841 97.074 110.612 95.7202C109.971 94.6459 108.457 95.0812 107.712 95.7921C107.336 96.503 107.48 97.3616 107.283 98.1204C105.846 96.4311 108.048 93.8512 109.935 94.5141C113.018 96.0077 113.087 101.603 109.682 102.773C108.745 103.128 107.74 102.769 106.891 102.354C106.454 102.985 105.866 103.488 105.145 103.763C104.965 103.568 104.6 103.176 104.42 102.981C104.496 102.753 104.644 102.302 104.72 102.074C105.213 101.902 105.694 101.711 106.174 101.507C105.485 100.812 104.664 100.636 103.771 100.936C102.229 97.9007 101.957 94.1587 103.255 90.9918Z" fill="#003A2F"/>
<path d="M110.515 87.9127C110.996 88.2801 111.473 88.6515 111.945 89.0309C111.733 89.5221 111.501 90.0093 111.172 90.4366C111.308 89.6219 111.048 89.0149 110.395 88.6155L110.728 89.7617C109.054 89.9774 110.579 88.6076 110.515 87.9127Z" fill="#003A2F"/>
<path d="M109.711 90.4247C110.219 90.245 110.94 90.5644 111.108 91.0876C110.812 91.7545 109.406 91.0557 109.711 90.4247Z" fill="#003A2F"/>
<path d="M163.752 94.3743C163.047 95.5205 165.085 94.4702 163.752 94.3743V94.3743Z" fill="#003A2F"/>
<path d="M108.741 95.7841C109.426 95.5724 109.534 97.1978 108.974 97.3376C108.677 96.9183 108.537 96.2633 108.741 95.7841Z" fill="#003A2F"/>
<path d="M115.129 101.503C114.256 101.12 113.283 99.614 114.5 99.0549C115.169 99.2266 115.814 99.4742 116.467 99.6978C116.391 100.525 116.563 102.206 115.233 101.691C115.518 101.024 115.666 100.309 115.726 99.59C114.528 99.59 115.121 100.76 115.129 101.503Z" fill="#003A2F"/>
<path d="M112.426 104.243C112.706 103.448 113.451 102.362 114.428 102.729C114.476 103.292 114.424 103.859 114.388 104.426C113.707 104.682 113.01 104.734 112.426 104.243Z" fill="#003A2F"/>
<path d="M106.591 104.434C107.183 104.41 107.776 104.418 108.373 104.454C108.237 104.878 108.093 105.297 107.944 105.72C107.324 105.489 106.679 105.169 106.591 104.434Z" fill="#003A2F"/>
<path d="M109.362 104.754C110.331 104.47 111.801 104.806 111.661 106.072C110.612 106.359 108.998 106.247 109.362 104.754Z" fill="#003A2F"/>
</svg>
