<svg width="196" height="70" viewBox="0 0 196 70" fill="none" xmlns="http://www.w3.org/2000/svg">
<path opacity="0.98" d="M108.796 4.70994C111.762 4.7895 114.745 4.57293 117.697 4.86905L118.153 5.22263C115.023 5.19169 111.903 4.89999 108.774 4.98839L108.796 4.70994Z" fill="#003A2F"/>
<path opacity="0.98" d="M98.8454 6.43084C100.896 6.03748 102.996 5.88279 105.086 6.00654C104.538 9.52909 103.654 12.9898 103.027 16.499C102.814 18.2007 101.568 19.6238 101.802 21.3917C98.9206 21.4934 96.0433 21.6834 93.1616 21.6878C95.8621 21.458 98.5714 21.3475 101.276 21.1442C101.369 16.0394 102.792 11.1069 104.242 6.24963C102.439 6.24079 100.64 6.31151 98.8454 6.43084Z" fill="#003A2F"/>
<path opacity="0.98" d="M110.132 8.29517C110.344 7.46425 110.07 6.44771 110.693 5.77148C110.857 9.36917 110.464 12.9801 110.857 16.569C111.003 17.886 111.096 19.2075 111.144 20.5335C118.216 20.4672 125.283 20.0075 132.355 19.9677C132.624 18.6551 132.92 17.3468 133.168 16.0342C133.181 16.4364 133.199 17.2496 133.208 17.6562C133.53 17.475 133.857 17.3071 134.193 17.1479C134.242 17.3866 134.335 17.8595 134.383 18.0938C134.202 18.6507 134.021 19.2075 133.848 19.7644C136.266 19.9147 138.684 19.7158 141.101 19.6318C138.604 20.1578 136.023 19.9633 133.486 20.0827C133.539 19.6849 133.641 18.8937 133.694 18.496C133.451 18.1998 133.203 17.9037 132.956 17.612C132.894 18.4827 132.828 19.3534 132.735 20.2241C127.086 20.1048 121.451 20.5909 115.803 20.7191C113.301 20.834 110.791 20.7279 108.293 20.9224C108.51 18.1335 109.447 15.4728 109.633 12.684C109.982 11.2431 109.801 9.74043 110.132 8.29517Z" fill="#003A2F"/>
<path opacity="0.98" d="M125.999 5.97461C129.057 6.1956 131.793 7.72925 134.582 8.87397C138.714 10.885 143.134 12.9313 145.852 16.8119C146.201 17.9345 146.891 19.4725 145.613 20.2637C146.506 19.088 146.228 17.3511 145.233 16.3257C144.093 15.0837 142.807 13.9744 141.366 13.0948C136.482 10.2441 131.457 7.55246 125.999 5.97461Z" fill="#003A2F"/>
<path opacity="0.98" d="M140.381 10.875C145.216 12.1523 148.947 15.9533 151.377 20.1653C151.696 22.3222 151.355 24.5674 151.422 26.7552C151.439 30.0037 149.331 32.6467 147.705 35.2721C145.428 38.9228 141.84 41.4995 139.466 45.0795C137.486 47.5988 136.505 50.6749 134.949 53.4284C133.305 55.5455 131.042 57.804 128.152 57.6935C122.41 57.7642 116.665 57.7509 110.928 57.8835C96.3426 58.2902 81.753 58.0426 67.1633 58.1576C64.6264 58.0515 61.7049 58.7586 59.6807 56.7919C59.3536 52.8848 58.3327 49.0573 57.9658 45.1635C58.1073 44.832 58.3857 44.1646 58.5227 43.8331C59.5658 47.6076 59.8619 51.5323 60.5072 55.3864C60.6265 56.0803 60.9536 56.9952 61.8375 56.8449C65.8197 56.7874 69.8063 56.7742 73.7886 56.7388C84.259 56.3676 94.7338 56.7123 105.2 56.4162C104.638 51.1125 104.108 45.7955 104.166 40.4564C104.241 35.9615 103.998 31.2678 105.664 27.0071L106.172 26.627L106.154 27.2148C106.057 29.0004 105.633 30.7462 105.443 32.523C104.669 40.4476 105.368 48.4208 106.23 56.3101C112.072 56.1377 117.911 55.9477 123.758 55.9256C126.185 55.9433 128.66 56.2438 131.046 55.656C132.744 55.0195 133.968 53.5168 134.702 51.9036C135.758 49.6142 136.739 47.2673 138.202 45.1988C141.415 40.2443 146.586 36.8411 149.265 31.4976C150.874 28.8722 150.741 25.69 150.591 22.7332C150.485 20.8371 149.291 19.277 148.204 17.814C148.049 18.2914 147.895 18.7687 147.731 19.2416C147.652 18.3709 147.705 17.3809 147.117 16.6605C145.176 14.3975 142.697 12.7136 140.381 10.875ZM128.757 56.3897C128.903 56.9554 129.239 57.0438 129.765 56.646C129.614 56.0714 129.274 55.983 128.757 56.3897ZM106.468 56.9996C113.725 57.2294 121.005 57.2294 128.262 57.0349C126.163 56.7432 124.041 56.92 121.933 56.9023C116.78 56.9642 111.622 56.783 106.468 56.9996Z" fill="#003A2F"/>
<path opacity="0.98" d="M73.8196 20.6562C73.8814 20.6828 74.0008 20.7402 74.0626 20.7667C73.961 21.3325 73.8328 21.8894 73.7179 22.4507C76.246 22.5523 78.7785 22.4109 81.3066 22.3667C78.9376 22.5567 76.5598 22.7247 74.1864 22.7026C73.1345 22.6982 71.9854 22.0662 72.1842 20.8507C72.5909 20.8021 73.4129 20.7049 73.8196 20.6562Z" fill="#003A2F"/>
<path opacity="0.98" d="M121.081 21.4075C128.038 21.2307 135.003 20.7313 141.96 20.9214C142.884 21.1158 143.803 21.3457 144.722 21.5843C141.779 22.4859 138.681 21.8451 135.675 22.2473C133.62 22.539 131.547 22.6451 129.479 22.6274C122.191 22.5655 114.911 23.1268 107.627 23.0252L108.189 22.2694C111.159 21.7213 114.261 22.508 117.196 21.6639C118.46 21.3147 119.786 21.4517 121.081 21.4075Z" fill="#003A2F"/>
<path opacity="0.98" d="M75.1644 23.5971C82.6028 23.2038 90.028 22.6292 97.4709 22.3242C97.4842 22.5275 97.5107 22.9386 97.5239 23.1419C94.987 23.6192 92.3793 23.0049 89.8291 23.4336C90.8103 23.5529 91.8092 23.5087 92.7904 23.6546L93.2898 23.7651C86.4745 24.2689 79.6372 24.4501 72.8484 25.2059C72.3755 25.723 71.9998 26.5407 71.1645 26.4213C67.9204 26.4699 64.6542 26.5804 61.4189 26.1959C62.5548 26.1561 63.6907 26.0457 64.8133 25.8512C64.7338 25.0733 64.6631 24.2954 64.6012 23.5131C64.9724 24.2866 65.1846 25.1219 65.3083 25.9661C67.3724 26.2092 69.4541 26.1959 71.5225 26.1296L72.1324 25.312C70.2275 25.3031 68.3094 25.4269 66.4177 25.1971C66.2409 25.0291 65.8873 24.6932 65.7105 24.5253C67.558 24.3308 69.4187 24.3529 71.275 24.3794C71.5446 24.6711 71.8186 24.9584 72.0927 25.2457C71.5358 23.027 73.9092 23.7385 75.1644 23.5971Z" fill="#003A2F"/>
<path opacity="0.98" d="M46.7139 24.1434C48.9282 23.4981 51.284 24.1743 53.5513 23.75C52.0486 24.0196 50.5061 24.024 49.0166 24.3732C47.368 25.2306 46.0907 26.7024 44.3317 27.3742C40.7296 28.6603 36.8358 28.2847 33.1188 29.0007C27.0814 29.7918 20.7921 30.3841 15.2585 33.0845C16.3767 33.0889 17.4993 33.058 18.6175 32.9519C15.6563 33.0138 13.1238 34.6403 10.662 36.09C9.87967 37.0844 9.78686 38.481 9.35814 39.6611C9.69846 39.8026 10.3791 40.081 10.7194 40.2224C9.78244 40.2048 8.84545 40.2843 7.91288 40.3727C7.51511 40.3241 6.71955 40.2313 6.32177 40.1871C6.50298 39.6081 6.67977 39.0335 6.85656 38.4545C7.36483 38.0921 7.86869 37.7297 8.3637 37.3496C6.27315 37.2524 5.64997 39.5153 4.09863 40.4125C4.19587 39.0777 5.18147 38.0567 6.37039 37.5485C7.54162 36.9607 8.7217 36.28 10.0609 36.2093C10.0299 36.0281 9.95923 35.6657 9.92387 35.4845C11.2807 34.9673 12.5801 34.3088 13.8442 33.6061C13.8663 33.4602 13.9061 33.1685 13.9238 33.0182C15.7535 31.6658 17.9943 31.0824 20.1644 30.5299C27.046 28.8769 34.1309 28.4438 41.1097 27.3786C43.8897 27.0604 46.3161 25.6063 48.5835 24.0726C48.115 24.0903 47.1824 24.1257 46.7139 24.1434Z" fill="#003A2F"/>
<path opacity="0.98" d="M155.054 25.3824C157.551 24.9227 160.119 25.1216 162.647 25.0598C163.619 24.8918 163.805 26.0233 163.977 26.7127C164.295 28.5867 164.194 30.5005 164.225 32.3921C161.445 32.4496 158.572 32.8032 155.836 32.2374C154.806 30.169 154.987 27.6409 155.054 25.3824ZM155.893 25.9216C155.823 27.8309 155.615 29.8817 156.463 31.6585C158.788 32.0739 161.188 31.7424 163.535 31.601C163.54 29.6872 163.451 27.7691 163.159 25.873C160.737 25.8597 158.311 25.8288 155.893 25.9216Z" fill="#003A2F"/>
<path opacity="0.98" d="M184.766 33.8457C185.204 34.1462 185.641 34.4512 186.07 34.7694C185.831 34.6545 185.35 34.4203 185.106 34.3054C183.789 36.6434 181.425 38.0666 179.131 39.2953C174.932 41.4388 170.428 42.8974 166.155 44.8863C166.327 45.3592 166.504 45.8365 166.685 46.3094C166.071 45.6199 165.54 44.8686 164.992 44.1305C165.637 44.2321 166.261 44.0332 166.848 43.7813C171.167 41.8852 175.697 40.4621 179.843 38.1859C181.739 37.081 183.666 35.8125 184.766 33.8457Z" fill="#003A2F"/>
<path opacity="0.98" d="M15.564 34.4861C18.2291 34.3049 20.9075 34.1369 23.5814 34.3181C22.1583 35.0872 20.5671 35.4894 18.9495 35.3789C16.0811 35.401 14.0524 37.9644 11.1973 38.0528C12.1343 36.8462 13.7872 36.6341 14.9231 35.6706C14.3618 35.8208 13.2348 36.1214 12.6735 36.2761C13.4867 35.4761 14.4811 34.8485 15.564 34.4861Z" fill="#003A2F"/>
<path opacity="0.98" d="M13.018 37.9872C15.5417 37.3463 17.5482 34.9773 20.3548 35.574C17.5659 36.7497 14.9052 38.2922 11.9882 39.1275C10.7904 39.5208 10.1584 38.2701 11.6523 38.0226L11.6346 38.6767C12.0412 38.3452 12.5186 38.1286 13.018 37.9872Z" fill="#003A2F"/>
<path opacity="0.98" d="M150.577 45.6232C151.293 45.6762 152.314 45.1768 152.858 45.769C153.189 47.2762 153.251 48.8275 153.547 50.3435C153.711 48.8761 153.799 47.3955 153.993 45.9326C154.122 45.8972 154.374 45.8353 154.502 45.8C154.36 47.7137 154.064 49.6098 153.883 51.5191L154.842 51.2053C154.816 51.5368 154.767 52.1998 154.74 52.5313C155.262 51.7269 155.752 50.9092 156.239 50.0827C155.611 51.002 156.442 51.3379 156.968 51.2318L156.022 52.4252L157.803 51.7578C156.906 52.2793 156 52.792 155.081 53.2826C155.686 53.1589 156.296 53.0395 156.902 52.8893C156.071 53.1058 156.194 53.9942 156.049 54.6572C155.112 54.7544 154.661 53.9014 154.051 53.3666C154.082 53.4859 154.144 53.7246 154.179 53.8439C154.126 54.1842 154.02 54.8649 153.967 55.2096C153.326 55.2582 152.69 55.3113 152.058 55.3997C151.841 55.3157 151.62 55.2317 151.403 55.1522L151.386 54.3036C150.073 54.3743 148.756 54.3831 147.443 54.3389C148.716 54.1135 149.989 53.8704 151.262 53.6229C151.355 53.6097 151.54 53.5787 151.629 53.5655C151.576 53.3533 151.461 52.929 151.403 52.7125C151.209 51.6959 151.028 50.675 150.771 49.6717C151.182 48.3281 150.97 46.9403 150.577 45.6232ZM151.24 45.6409C151.585 48.1469 152.208 50.6396 152.208 53.181C152.862 53.1058 153.512 53.066 154.175 53.0705L154.161 51.5235C153.909 51.6827 153.406 52.0053 153.154 52.1644C152.897 50.0871 152.756 47.9966 152.424 45.9326C152.128 45.8618 151.536 45.7116 151.24 45.6409Z" fill="#003A2F"/>
<path opacity="0.98" d="M40.3669 46.8226C40.7381 46.1464 40.9149 44.9619 42.0331 45.2713C41.9182 46.6591 41.5823 48.0645 40.5127 49.0236C39.779 48.2104 39.947 47.2115 40.2564 46.2701C40.2829 46.4071 40.3403 46.6856 40.3669 46.8226Z" fill="#003A2F"/>
<path opacity="0.98" d="M42.4445 48.5807C42.0733 47.5995 42.0998 46.5874 42.5948 45.6504C43.766 46.3531 44.9196 47.0912 46.0555 47.8558C45.6975 48.1741 45.335 48.4835 44.9726 48.7928C44.9594 47.9089 43.9826 47.9708 43.3638 47.7321C43.134 47.9442 42.6743 48.3685 42.4445 48.5807Z" fill="#003A2F"/>
<path opacity="0.98" d="M146.645 47.6574L147.007 47.4629C147.984 48.3159 149.159 49.0275 149.818 50.1899C149.827 50.5788 149.844 51.3567 149.853 51.7412C148.616 50.5169 147.604 49.1026 146.645 47.6574Z" fill="#003A2F"/>
<path opacity="0.98" d="M28.0843 54.5522C27.8412 52.36 28.4379 49.9203 30.113 48.4043C29.9804 48.7093 29.7152 49.3236 29.5826 49.633C29.9141 49.5137 30.577 49.2838 30.9085 49.1689C30.608 49.6418 30.3074 50.1147 30.0113 50.5877C29.7373 50.4506 29.4588 50.3181 29.1848 50.1855C29.1008 50.4595 28.9329 51.012 28.8489 51.286C30.3207 51.6749 31.7483 52.2583 32.9328 53.2395C31.8367 53.0495 30.7538 52.802 29.6798 52.5323C29.366 52.8373 29.0522 53.1423 28.7473 53.4561C27.5539 55.1267 30.0644 55.4008 31.2356 55.2461C31.156 55.4715 31.0013 55.9135 30.9218 56.1389C31.5273 56.0858 32.1328 56.0284 32.7383 55.9577C31.7173 56.2228 30.7052 56.5013 29.6754 56.7355C29.8831 56.4173 30.2986 55.7809 30.5063 55.4626C29.9008 55.4671 29.2997 55.4671 28.6942 55.4671C28.9329 57.0007 29.1937 58.53 29.5296 60.0415C28.3672 58.4637 28.2832 56.4306 28.0843 54.5522Z" fill="#003A2F"/>
<path opacity="0.98" d="M9.3667 53.3981C9.51697 52.3639 9.71144 51.2855 10.3877 50.459C10.37 51.4976 10.2993 52.7352 9.3667 53.3981Z" fill="#003A2F"/>
<path opacity="0.98" d="M38.2273 52.9927C39.014 52.4977 39.2836 51.5607 39.6593 50.7695C39.7742 50.9949 39.9952 51.4502 40.1057 51.68C39.9643 52.0071 39.6726 52.6568 39.5267 52.9838L40.1631 52.6037C40.3753 52.8778 40.5874 53.1606 40.7908 53.4435L40.7377 53.7087L40.6405 54.0711L39.8714 53.9429L39.9289 54.6147C41.5421 54.6015 43.1509 54.6501 44.7597 54.6766C44.0658 54.9108 43.3807 55.1716 42.6824 55.397C42.1432 55.4324 41.604 55.4677 41.0648 55.5031C43.0006 56.2898 44.3354 58.0268 46.2182 58.8754C46.8723 58.1594 47.1464 57.2091 47.4778 56.3207C47.8137 56.776 48.1408 57.2401 48.4546 57.7174C47.9994 60.1041 46.3508 62.336 44.1851 63.4675C44.4061 63.1404 44.8525 62.4863 45.0735 62.1548C44.7641 62.2388 44.1453 62.4112 43.836 62.4951C43.889 62.367 43.9951 62.1106 44.0437 61.9869C42.7973 60.3604 41.436 58.8047 39.7654 57.6025L39.8759 57.8942C39.54 57.3594 39.1908 56.829 38.8549 56.2942C39.1731 55.7771 39.456 55.2379 39.7433 54.7031C38.8726 54.7296 38.0019 54.7341 37.1268 54.7341C35.9555 55.1672 34.6959 55.1672 33.4628 55.0921C34.2451 54.7606 35.0362 54.4512 35.8229 54.1241C33.7236 53.6601 31.549 54.049 29.4585 53.5893C31.5535 53.6822 33.6573 53.5098 35.739 53.8501C36.9102 54.0534 38.077 53.7484 39.2217 53.5186C38.9742 53.386 38.4748 53.1253 38.2273 52.9927ZM40.2029 56.2545C41.8161 58.0268 43.4382 59.9096 45.4624 61.2178C43.7343 59.5472 42.2404 57.5715 40.2029 56.2545Z" fill="#003A2F"/>
<path opacity="0.98" d="M145.318 51.0469C146.993 51.5286 148.598 52.2711 150.012 53.3009C148.408 52.7927 146.304 52.6159 145.318 51.0469Z" fill="#003A2F"/>
<path opacity="0.98" d="M163.32 51.793C163.992 53.3531 164.071 55.3597 163.276 56.8845C163.236 56.0271 163.192 55.1697 163.126 54.3166C162.339 55.0724 162.498 56.2039 162.321 57.1806C161.968 57.0436 161.623 56.8934 161.287 56.7298C161.557 56.6547 162.091 56.5088 162.361 56.4337C161.543 55.7 160.637 55.0768 159.674 54.5553C159.961 54.3078 160.253 54.0603 160.545 53.8128C160.969 53.9366 161.817 54.1796 162.242 54.3034C162.445 53.8924 162.639 53.4813 162.83 53.0659C162.953 52.7476 163.196 52.1112 163.32 51.793Z" fill="#003A2F"/>
<path opacity="0.98" d="M153.061 56.8418C153.375 57.0053 154.003 57.3368 154.317 57.5003C154.675 59.0561 155.24 60.55 155.678 62.0836C154.896 62.3002 154.118 62.5344 153.353 62.804C153.813 63.4449 154.277 64.0858 154.737 64.7311C153.243 64.9255 151.563 65.1112 150.246 64.2272C150.768 64.3068 151.294 64.3863 151.824 64.4615C151.881 64.3112 151.992 64.0195 152.045 63.8692C154.308 62.256 153.49 59.1312 153.061 56.8418Z" fill="#003A2F"/>
<path d="M132.541 1.43124C134.102 0.631266 135.896 0.896452 137.58 0.940649C137.624 1.78924 137.646 2.66877 138.19 3.37594C145.474 5.72283 152.532 8.76804 159.197 12.5337C161.831 14.1601 164.346 15.9767 167.073 17.4529C170.905 19.4506 175.21 20.1798 179.378 21.1389C182.449 21.8284 185.609 22.0582 188.659 22.8096C190.069 23.0925 190.29 24.6526 190.573 25.8062C190.723 28.1663 190.78 30.5309 190.785 32.8955C190.445 36.4446 193.605 38.7782 194.979 41.735C195.289 42.619 195.576 43.5073 195.885 44.3913C195.903 45.2929 195.899 46.199 195.854 47.105C195.655 47.8298 195.532 48.5724 195.386 49.3105C194.634 50.8176 195.452 52.5988 194.608 54.0794C194.091 54.9943 193.384 56.0683 192.252 56.2274C187.996 57.0362 183.718 57.7566 179.453 58.5301C176.204 59.0604 172.991 59.8693 169.703 60.0637C168.562 60.1035 167.643 59.2505 167.042 58.371C166.883 58.3312 166.56 58.2472 166.401 58.2074C165.34 62.9056 161.561 67.0027 156.863 68.2182C150.782 69.8668 143.878 66.7508 140.988 61.1819C140.749 60.2891 140.479 59.4096 140.183 58.5389C138.291 58.5257 139.639 61.3808 137.872 61.4206C130.358 61.7079 122.836 61.456 115.322 61.7079C96.0253 61.8537 76.7331 61.814 57.4364 61.9598C56.3226 61.9775 55.2044 61.9377 54.0907 61.8537C54.2011 60.8018 54.3603 59.7588 54.5238 58.7201C53.5603 58.7599 52.5968 58.8174 51.6333 58.8792C50.5549 63.2592 47.187 67.1221 42.838 68.4878C40.4425 69.3054 37.826 69.2524 35.3509 68.859C30.5466 67.9397 26.7545 64.0017 25.2429 59.4538C24.5136 59.6218 24.0275 60.0682 23.917 60.8195C23.8153 61.0847 23.6209 61.6107 23.5236 61.8758C20.9602 61.8758 18.4365 61.3808 15.8995 61.0847C12.1869 60.6029 8.43457 60.214 4.83247 59.1356C3.206 58.5301 1.40716 57.9776 0.244764 56.6031C0.0149368 55.8163 0.143109 54.9766 0.121011 54.1678C0.213826 50.2165 -0.126495 46.2299 0.470172 42.3052C0.898888 40.3605 1.51765 38.2655 3.04247 36.8865C5.87111 34.6899 8.16055 31.7419 11.5726 30.3762C21.2121 26.3189 31.5676 24.1576 41.9408 23.1146C43.8854 22.9776 45.8478 22.8803 47.7218 22.3146C49.0433 21.8152 50.4355 22.3234 51.7924 22.2616C51.8631 21.108 53.1139 20.7323 53.8873 20.1047C61.7457 15.1104 69.5289 9.98347 77.7143 5.52836C80.9584 3.67206 84.7328 3.22124 88.3349 2.48756C91.9856 1.73179 95.7203 1.66991 99.4241 1.41356C109.881 1.13512 120.374 0.998106 130.8 2.01465C131.458 2.2047 132.024 1.76272 132.541 1.43124ZM132.86 2.08979C134.353 2.52292 135.883 2.8323 137.372 3.29196C137.297 0.976007 134.322 1.85554 132.86 2.08979ZM91.9503 3.17705C87.3272 3.94608 82.4566 4.51623 78.4656 7.1946C76.6668 8.14485 75.058 9.52382 73.131 10.2C73.0381 10.4475 72.8569 10.9381 72.7641 11.1856C72.7685 10.8542 72.7774 10.1912 72.7818 9.86414C65.9931 14.4032 58.8242 18.3722 52.0576 22.9157C55.4961 23.1367 58.5016 21.2715 61.4849 19.8616C62.8108 19.2605 63.9688 18.3722 65.1356 17.5103L65.2063 17.0816C65.4229 17.1523 65.8605 17.2893 66.0815 17.36C65.8914 15.8529 67.5223 15.1634 68.4814 14.3193C67.6902 15.3225 66.4262 16.0076 66.1345 17.3379C70.8371 13.948 75.7784 10.863 81.0026 8.34816C85.3781 6.24878 90.1691 5.16152 94.9911 4.78584C104.564 3.77371 114.226 3.84885 123.812 4.6665C122.296 5.62117 120.444 5.00241 118.778 5.33831C120.281 5.45322 121.823 5.56813 123.295 5.15268L123.136 5.65653C124.1 5.74051 125.063 5.86868 126.031 5.82006C125.129 5.62117 124.188 5.60349 123.278 5.52394C123.627 5.28085 123.98 5.04218 124.334 4.80352C128.422 5.493 132.418 6.73937 136.143 8.56031C137.593 9.26747 138.919 10.2045 140.382 10.8763C142.698 12.7149 145.177 14.3988 147.118 16.6617C147.706 17.3821 147.652 18.3722 147.732 19.2429C146.959 21.7179 143.851 20.529 141.96 20.9224C135.003 20.7323 128.038 21.2318 121.081 21.4085C119.786 21.4527 118.46 21.3157 117.196 21.6649C113.97 21.7621 110.725 21.6251 107.517 22.0096L107.716 22.624L107.198 22.4649C106.973 24.0737 106.2 25.572 106.155 27.2161L106.173 26.6283L105.665 27.0084C106.001 26.1819 106.248 25.3244 106.535 24.4803C106.774 23.667 106.836 22.8184 106.871 21.9743C104.052 22.0759 101.232 22.1953 98.4164 22.3986L98.0451 22.0317C97.9877 22.3102 97.8728 22.8626 97.8109 23.1411C100.449 23.088 103.092 22.7787 105.727 22.9997C103.168 23.0262 100.622 23.3046 98.0628 23.4549C96.1225 23.5212 94.1778 23.3223 92.242 23.5123L92.79 23.6538C91.8089 23.5079 90.81 23.5521 89.8288 23.4328C92.379 23.0041 94.9867 23.6184 97.5236 23.1411C97.5103 22.9378 97.4838 22.5267 97.4706 22.3234C90.0277 22.6284 82.6025 23.203 75.1641 23.5963C73.9088 23.7378 71.5354 23.0262 72.0923 25.2449C71.8183 24.9576 71.5443 24.6703 71.2747 24.3786C69.4184 24.3521 67.5577 24.33 65.7102 24.5245C65.887 24.6924 66.2406 25.0283 66.4174 25.1963C68.309 25.4261 70.2272 25.3023 72.1321 25.3112L71.5222 26.1288C69.4537 26.1951 67.372 26.2084 65.308 25.9653C65.1842 25.1211 64.9721 24.2858 64.6008 23.5123C63.6992 23.477 62.7976 23.4372 61.8915 23.4284C61.1181 23.6759 60.6363 24.4096 60.0617 24.9443C59.9071 25.1742 59.6021 25.6294 59.4518 25.8548C59.4474 26.0095 59.4341 26.3145 59.4297 26.4692L58.9038 26.5797C58.9259 26.7697 58.9656 27.1498 58.9877 27.3399L58.422 27.4548C58.4662 27.6581 58.5502 28.0691 58.5944 28.2724L58.1215 28.2238C58.0994 28.9221 58.0419 29.616 57.9403 30.3055C57.2287 33.4391 57.8033 36.6611 57.6795 39.8345L58.0729 39.7329C58.064 41.1118 58.0242 42.5261 58.5237 43.8344C58.3867 44.1659 58.1082 44.8333 57.9668 45.1647C57.9756 44.3559 58.1701 43.4985 57.7679 42.7471C57.6795 41.9383 57.622 41.1295 57.5557 40.3207C56.8221 37.2092 57.2729 33.9695 57.1801 30.8049L57.6486 31.0613C57.6088 30.0315 57.653 29.0017 57.7502 27.9807C53.6664 28.321 49.556 28.184 45.4589 28.2326C49.6134 27.773 53.8166 27.9984 57.9889 27.8967C58.1126 27.6183 58.3646 27.0658 58.4883 26.7918C58.506 26.6636 58.5369 26.4073 58.5502 26.2835C60.2474 22.951 64.4152 21.4262 65.4317 17.6915C61.9092 20.4053 58.1524 23.3621 53.5515 23.751C51.2841 24.1753 48.9284 23.4991 46.7141 24.1444C40.9684 24.6482 35.1874 25.0195 29.5389 26.2393C24.3987 27.4062 19.2586 28.6746 14.3173 30.5221C11.3295 31.7022 8.39921 33.2668 6.1805 35.6357C5.42914 36.5418 4.28442 36.9352 3.36953 37.6379C3.16622 38.071 2.94965 38.4997 2.73751 38.9285C2.87452 38.9417 3.15738 38.9771 3.2944 38.9903L3.21042 38.4246L3.59494 38.4511C4.13857 37.744 4.70872 37.0456 5.42914 36.5108C7.89094 34.5308 11.3958 34.8888 13.9239 33.0192C13.9062 33.1695 13.8665 33.4612 13.8444 33.6071C12.5803 34.3098 11.2809 34.9684 9.92403 35.4855C9.95939 35.6667 10.0301 36.0291 10.061 36.2103C8.72186 36.281 7.54178 36.9617 6.37055 37.5495C5.18163 38.0578 4.19603 39.0787 4.09879 40.4135C5.65013 39.5163 6.27331 37.2534 8.36386 37.3506C7.86884 37.7307 7.36499 38.0931 6.85672 38.4555C6.67993 39.0345 6.50314 39.6091 6.32193 40.1881C6.71971 40.2323 7.51526 40.3251 7.91304 40.3737C6.71087 40.5549 5.51311 40.8024 4.36398 41.2091C3.2723 42.4201 2.33973 43.7593 1.57069 45.1957C1.46462 45.8056 1.35854 46.4155 1.20385 47.0122C1.08452 49.2618 1.09778 51.5159 1.0359 53.7656C1.78284 52.7756 2.58281 51.7413 3.79383 51.2949C6.31309 50.2386 9.01798 49.5403 11.7494 49.3679C11.493 50.5082 11.2279 51.6441 10.9627 52.78C10.4456 54.6628 8.53623 55.9534 6.60037 55.8429C4.81921 55.7898 3.03805 55.5688 1.25247 55.697C1.99057 57.213 3.69659 57.7787 5.20373 58.1898C9.29201 59.2417 13.5173 59.4936 17.6807 60.0814C19.3337 60.2803 20.969 60.6383 22.6397 60.6825C22.6794 58.0748 22.5911 55.4318 22.9933 52.8507C23.1037 52.2319 23.1966 51.6176 23.2938 50.9988C23.4485 50.548 23.5943 50.0972 23.7358 49.6464C24.0098 48.9127 24.2927 48.1834 24.5844 47.4586C24.7037 47.242 24.9335 46.8089 25.0529 46.5967C26.8252 43.4631 29.4726 40.7008 32.8714 39.3793C36.6724 37.8279 41.0435 37.9694 44.8357 39.4632C49.198 40.9571 52.5835 44.6653 54.2498 48.8994C54.7404 50.2917 55.0011 51.7502 55.3282 53.1866C55.5182 55.6484 55.5713 58.1146 55.589 60.5853C57.5292 60.8151 59.4916 60.6118 61.4407 60.6383C79.2523 60.5366 97.0684 60.488 114.88 60.3775C122.42 60.0505 129.982 60.4571 137.518 60.0637C137.518 57.518 137.416 54.9412 137.911 52.4352C138.044 51.7016 138.172 50.9679 138.362 50.2475C138.601 49.611 138.839 48.979 139.074 48.3425C139.18 48.1171 139.392 47.6663 139.498 47.4453C141.469 43.525 145.124 40.6212 149.341 39.4544C154.905 38.4865 161.155 39.7196 164.991 44.1305C165.539 44.8686 166.07 45.62 166.684 46.3094C167.201 47.4718 167.855 48.5724 168.324 49.7613C168.514 50.3138 168.695 50.8706 168.894 51.4231C169.022 51.8828 169.163 52.3424 169.314 52.8021C169.42 53.4164 169.521 54.0308 169.632 54.6451C169.981 56.0329 169.928 57.4693 169.977 58.8881C170.772 58.8837 171.568 58.866 172.355 58.7069C178.962 57.2528 185.662 56.2406 192.292 54.897C193.119 54.844 193.34 53.9424 193.742 53.3678C193.751 52.1656 193.684 50.9325 194.064 49.7745C194.139 49.527 194.294 49.0364 194.369 48.7889C194.944 47.0608 194.851 45.1294 194.153 43.4543C193.123 41.5803 191.912 39.8168 190.582 38.1506C189.503 36.5329 187.603 35.8479 186.069 34.7695C185.64 34.4512 185.203 34.1463 184.765 33.8457C181.088 32.0734 177.283 30.5751 173.645 28.7144C172.766 28.2017 171.546 27.8083 171.563 26.5752C177.526 26.2172 183.541 26.8846 189.313 28.4094C189.287 27.689 189.26 26.9642 189.229 26.2438C189.092 25.6162 188.977 24.9797 188.876 24.3477C186.073 23.4726 183.099 23.34 180.248 22.6549C176.805 21.8328 173.23 21.5058 169.897 20.255C166.817 19.1191 164.169 17.1125 161.173 15.7955L161.601 16.8739C160.638 16.8429 159.573 17.0904 158.724 16.5291C157.265 15.6363 155.869 14.6419 154.379 13.8021C148.572 10.4078 142.106 8.4012 135.688 6.53164C140.855 7.83547 145.955 9.45752 150.817 11.6453C153.694 12.9403 156.315 14.7082 159.051 16.2595C159.82 16.3744 160.598 16.4761 161.376 16.5601L161.062 15.7247C153.336 10.8144 145.014 6.59352 136.055 4.47645C130.473 2.90744 124.63 2.82789 118.88 2.58038C109.899 2.33287 100.909 2.5185 91.9503 3.17705ZM108.798 4.7107L108.776 4.98915C111.905 4.90075 115.026 5.19245 118.155 5.22339L117.7 4.86981C114.747 4.57369 111.764 4.79026 108.798 4.7107ZM98.8451 6.42999C95.3093 6.69075 91.7293 6.95594 88.3305 8.04762C84.3792 9.21443 80.7374 11.2298 77.3076 13.4795C75.5663 14.6728 73.7983 15.8706 72.3266 17.3998C72.468 18.3324 72.6669 19.2605 72.8127 20.1931C73.0647 20.308 73.5685 20.5423 73.8204 20.6572C73.4138 20.7058 72.5918 20.803 72.1851 20.8517C71.9862 22.0671 73.1354 22.6991 74.1873 22.7035C76.5607 22.7256 78.9385 22.5577 81.3075 22.3676C85.2544 22.1157 89.2145 21.9964 93.1613 21.687C96.043 21.6826 98.9202 21.4925 101.802 21.3909C101.568 19.623 102.814 18.1998 103.026 16.4982C103.654 12.9889 104.538 9.52824 105.086 6.00569C102.995 5.88194 100.896 6.03663 98.8451 6.42999ZM110.133 8.29512C109.802 9.74038 109.983 11.2431 109.634 12.6839C109.448 15.4728 108.511 18.1335 108.295 20.9224C110.792 20.7279 113.302 20.834 115.804 20.7191C121.452 20.5909 127.087 20.1047 132.736 20.224C132.829 19.3534 132.895 18.4827 132.957 17.612C133.204 17.9037 133.452 18.1998 133.695 18.4959C133.642 18.8937 133.54 19.6848 133.487 20.0826C136.024 19.9633 138.605 20.1578 141.102 19.6318C141.849 19.5169 142.861 19.7158 143.273 18.8937C143.754 18.3103 144.316 17.2672 143.639 16.6352C141.014 14.0275 137.677 12.3259 134.557 10.4033C134.685 12.6707 133.832 14.8894 134.194 17.1479C133.858 17.307 133.531 17.475 133.209 17.6562C133.2 17.2495 133.182 16.4363 133.169 16.0341C133.288 15.1988 133.359 14.3546 133.54 13.5325C133.54 12.3922 133.832 11.1282 133.147 10.1161C131.034 8.60451 128.462 7.94154 126 7.23438C120.988 6.04547 115.777 6.41231 110.694 5.77144C110.071 6.44767 110.345 7.46421 110.133 8.29512ZM126 5.97475C131.458 7.5526 136.484 10.2442 141.368 13.095C142.808 13.9745 144.095 15.0839 145.235 16.3258C146.229 17.3512 146.508 19.0882 145.615 20.2638C146.892 19.4727 146.203 17.9346 145.854 16.812C143.135 12.9314 138.716 10.8851 134.583 8.87411C131.794 7.72939 129.059 6.19574 126 5.97475ZM66.8461 17.7357C66.8505 17.9921 66.8593 18.5048 66.8638 18.7611C66.5455 19.6053 66.3776 20.4892 66.1743 21.3643C66.0815 22.0715 65.9842 22.7787 65.8914 23.4814C67.867 23.2737 69.8515 23.1101 71.836 23.066C71.9023 21.6251 71.8669 20.1798 71.7166 18.7434C71.5885 18.5003 71.3277 18.0097 71.1951 17.7667C70.1432 17.9214 69.0913 18.0584 68.0438 18.2396C68.6538 17.6959 69.2372 17.0993 69.4847 16.2949C70.2449 16.4982 70.9697 16.8429 71.7741 16.812C72.3001 16.2905 72.8614 15.7999 73.3431 15.2341C72.7067 15.5921 72.1365 16.0518 71.562 16.4938C71.3587 16.2065 71.1509 15.9236 70.9476 15.6363C74.9784 12.9005 79.133 10.315 83.5439 8.22441C77.4049 10.2884 72.3663 14.4916 66.8461 17.7357ZM62.2142 22.8671C62.9744 23.309 63.8009 23.3311 64.5964 22.9687C64.7467 22.1511 64.9633 21.3467 65.1931 20.5467C64.1898 21.3113 63.2263 22.1157 62.2142 22.8671ZM172.792 27.0835C174.71 27.8393 176.642 28.5774 178.604 29.2227C182.069 30.3188 185.742 30.0005 189.322 30.1464C189.313 29.9166 189.291 29.4525 189.282 29.2227C188.221 28.9045 187.152 28.626 186.06 28.4802C181.654 27.8746 177.265 26.8625 172.792 27.0835ZM183.037 31.6359C183.307 31.6845 183.846 31.7817 184.115 31.8303L183.93 32.3784L184.553 32.1972L184.531 32.6524C185.335 33.0104 186.118 33.4303 186.882 33.8723C187.726 34.3142 188.566 34.7695 189.441 35.1584C189.503 33.9076 189.472 32.6568 189.393 31.4105C187.289 31.4767 185.026 30.7652 183.037 31.6359ZM2.14526 40.387C1.74748 41.3858 1.33644 42.3759 0.916567 43.3615C1.14197 43.3615 1.58395 43.3526 1.80494 43.3482C2.07896 42.535 2.40602 41.735 2.74193 40.9439C2.76403 40.7229 2.8038 40.2765 2.8259 40.0555C2.65353 40.1395 2.31321 40.303 2.14526 40.387ZM30.1135 48.4044C28.4384 49.9204 27.8417 52.3601 28.0848 54.5523C28.2837 56.4307 28.3677 58.4638 29.5301 60.0416C30.6748 62.0173 32.8184 63.0559 34.7144 64.1785C37.6624 65.8978 41.375 65.0581 44.186 63.4669C46.3517 62.3355 48.0002 60.1035 48.4555 57.7168C48.429 57.4296 48.3759 56.8594 48.345 56.5721L48.8179 56.55C48.7472 56.1832 48.6013 55.4495 48.5306 55.0782L48.4378 54.5169L48.7604 54.2518C48.566 53.1733 48.3361 52.1038 48.2168 51.0165C48.1284 50.7336 47.9472 50.1723 47.8588 49.8895L47.5538 49.9911C47.5362 48.811 46.7185 47.8608 45.9671 47.0299C41.5386 42.9283 33.7244 43.4852 30.1135 48.4044ZM144.377 49.2442C143.303 50.9546 143.286 52.9612 143.273 54.9147C144.665 54.7423 146.061 54.5921 147.445 54.3401C148.757 54.3843 150.075 54.3755 151.387 54.3048L151.405 55.1534C150.684 55.1887 149.982 55.2904 149.27 55.3876C148.17 55.7633 147.056 56.0904 145.946 56.4307C145.164 56.6163 144.391 56.8285 143.617 57.0318C143.688 57.7389 143.891 58.3975 144.227 59.0118C144.236 59.1356 144.258 59.3787 144.271 59.5024C145.88 61.4736 147.798 63.3565 150.247 64.2271C151.564 65.1111 153.243 64.9255 154.737 64.731C157.986 64.0062 161.239 62.1985 162.498 58.9411C162.75 58.3842 163.011 57.8273 163.29 57.2837L163.276 56.8859C164.072 55.3611 163.992 53.3545 163.321 51.7944L163.484 51.3347L162.976 51.2817C162.883 50.7557 162.772 50.2386 162.635 49.7303C160.907 46.3536 157.014 44.6962 153.376 44.5725C149.814 44.3957 146.411 46.3979 144.377 49.2442ZM9.36714 53.3987C10.2997 52.7358 10.3704 51.4982 10.3881 50.4596C9.71188 51.2861 9.51741 52.3645 9.36714 53.3987ZM1.61931 54.7954C3.36953 54.6805 5.11976 54.5479 6.86114 54.3357C7.68321 54.2606 8.05447 53.4253 8.54949 52.8905C8.55391 52.6032 8.55833 52.033 8.56275 51.7502C8.81467 51.6353 9.31411 51.4099 9.56161 51.2949C6.56502 50.8618 3.1839 52.1479 1.61931 54.7954Z" fill="#003A2F"/>
<path d="M141.917 25.3909C143.402 25.245 144.926 25.1522 146.358 25.6561C147.282 26.2041 147.441 27.1765 147.419 28.1665C146.641 28.5643 145.863 29.1079 144.948 29.0814C142.968 29.1123 140.957 29.2317 139.013 28.7985C138.862 28.4317 138.557 27.698 138.407 27.3312C141.174 28.1665 144.109 27.835 146.959 27.835C146.982 27.4947 147.026 26.8141 147.048 26.4737C144.294 26.7168 141.514 26.7036 138.752 26.5621C139.742 26.0097 140.803 25.603 141.917 25.3909Z" fill="#003A2F"/>
<path d="M96.0576 27.4017C98.0023 27.2912 99.9515 27.2692 101.896 27.3664L101.852 27.7376C102.917 27.8084 102.674 28.8956 102.789 29.6337C100.716 31.9453 97.1316 31.5165 94.4268 30.7652C94.4356 30.1022 94.4489 29.4437 94.4621 28.7807L95.0057 28.9221L94.6919 28.2238L95.3637 28.3608L95.2046 27.6979C95.4345 27.7553 95.8941 27.8658 96.1195 27.9233L96.0576 27.4017ZM94.4754 29.0017L94.7096 30.1818C96.7118 30.3011 98.7404 30.3188 100.729 30.0271C101.423 29.8591 102.369 29.616 102.444 28.7277C99.7791 28.6702 97.1361 29.205 94.4754 29.0017Z" fill="#003A2F"/>
<path d="M18.6158 32.9521C21.6522 32.7223 24.8123 32.2008 27.7691 33.1864C23.9063 34.9675 20.0257 36.7089 16.2601 38.6845C14.5497 39.5685 12.6978 40.448 10.7177 40.2226C10.3774 40.0812 9.69677 39.8027 9.35645 39.6613C9.78516 38.4812 9.87798 37.0846 10.6603 36.0901C13.1221 34.6405 15.6546 33.014 18.6158 32.9521ZM15.5618 34.4858C14.4789 34.8482 13.4845 35.4758 12.6713 36.2758C13.2326 36.1211 14.3596 35.8205 14.9209 35.6703C13.785 36.6338 12.1321 36.8459 11.1951 38.0525C14.0502 37.9641 16.0789 35.4007 18.9473 35.3786C20.5649 35.4891 22.1561 35.0869 23.5792 34.3178C20.9053 34.1366 18.2269 34.3046 15.5618 34.4858ZM13.016 37.9862C12.5166 38.1277 12.0392 38.3442 11.6326 38.6757L11.6503 38.0216C10.1564 38.2691 10.7884 39.5199 11.9862 39.1265C14.9032 38.2912 17.5639 36.7487 20.3528 35.573C17.5463 34.9764 15.5397 37.3454 13.016 37.9862Z" fill="#003A2F"/>
<path d="M34.6046 45.987C34.8167 45.9516 35.2455 45.8809 35.4576 45.8455C35.7493 46.5262 36.041 47.2113 36.3416 47.8875C36.4697 49.0189 36.6244 50.146 36.8189 51.2686C36.9117 49.8808 37.0001 48.4576 36.6112 47.1052C36.5493 46.7162 36.4211 45.9384 36.3592 45.5494C36.5891 45.5715 37.0443 45.6201 37.2697 45.6422C37.9636 47.8168 37.5835 50.2034 38.4409 52.3249C38.8166 50.0134 38.5559 47.64 39.1879 45.3594L40.3635 45.5759C40.337 45.7483 40.284 46.0931 40.2575 46.2698C39.9481 47.2113 39.7801 48.2101 40.5138 49.0234C40.1867 49.5847 39.9127 50.1681 39.6608 50.7692C39.2851 51.5603 39.0155 52.4973 38.2288 52.9923C37.6807 53.0277 37.1327 53.0763 36.5891 53.1249C35.8686 50.8355 33.4864 49.5758 32.6201 47.3394C33.7825 48.0731 34.5427 49.2399 35.2852 50.367C35.2322 48.8819 35.051 47.4057 34.6046 45.987Z" fill="#003A2F"/>
<path d="M151.243 45.6426C151.539 45.7133 152.131 45.8636 152.427 45.9343C152.759 47.9983 152.9 50.0889 153.156 52.1661C153.408 52.007 153.912 51.6844 154.164 51.5253L154.177 53.0722C153.514 53.0678 152.865 53.1075 152.211 53.1827C152.211 50.6413 151.587 48.1486 151.243 45.6426Z" fill="#003A2F"/>
<path d="M154.503 45.8008C155.139 45.845 155.775 45.898 156.412 45.9687C155.921 47.3521 155.448 48.7399 154.971 50.1277C154.94 50.3973 154.874 50.9365 154.843 51.2061L153.884 51.5199C154.065 49.6106 154.361 47.7145 154.503 45.8008Z" fill="#003A2F"/>
<path d="M147.007 47.4628C147.719 47.0164 148.514 46.7291 149.363 46.7556C149.827 47.7324 150.335 48.6826 150.773 49.6726C151.029 50.6759 151.211 51.6969 151.405 52.7134C150.883 51.8693 150.331 51.0383 149.818 50.1898C149.16 49.0274 147.984 48.3158 147.007 47.4628Z" fill="#003A2F"/>
<path d="M157.682 46.9585C157.877 46.9364 158.27 46.901 158.464 46.8789C158.473 46.9761 158.487 47.1662 158.495 47.2634L157.908 47.2723C157.947 47.4844 158.027 47.9043 158.071 48.1164L157.669 48.196C157.351 48.7352 157.028 49.27 156.697 49.7959C156.688 49.5131 156.666 48.9385 156.657 48.6557L157.068 48.6336C157.267 48.0722 157.483 47.5154 157.682 46.9585Z" fill="#003A2F"/>
<path d="M156.971 51.2336C157.673 49.8811 158.403 48.5287 159.49 47.4414C159.755 47.5519 160.281 47.7729 160.546 47.8834C160.635 48.5684 160.728 49.2535 160.812 49.9386C159.835 50.5839 158.845 51.2159 157.806 51.7595L156.025 52.4269L156.971 51.2336Z" fill="#003A2F"/>
<path d="M42.4458 48.581C42.6757 48.3689 43.1353 47.9446 43.3652 47.7324C43.9839 47.9711 44.9607 47.9092 44.9739 48.7932C43.3784 50.0705 41.9155 51.5246 40.1653 52.603L39.5288 52.9831C39.6747 52.656 39.9664 52.0063 40.1078 51.6793C40.7973 50.5832 41.584 49.5489 42.4458 48.581Z" fill="#003A2F"/>
<path d="M30.9099 49.168C32.9784 50.1757 35.1087 51.3911 36.4788 53.2872C34.0921 53.0132 32.0811 51.674 30.0127 50.5867C30.3088 50.1138 30.6094 49.6409 30.9099 49.168Z" fill="#003A2F"/>
<path d="M40.7919 53.4428C42.9973 52.2407 45.1011 50.8617 47.1696 49.4297L47.0723 50.5435C46.8381 50.7468 46.6304 50.9766 46.458 51.2374C46.9972 51.1136 47.5232 50.9633 48.0624 50.8352C48.4778 52.3335 46.9132 52.5898 45.9674 52.9832C44.5221 53.5577 42.9178 53.2705 41.4592 53.7566C43.4437 54.3533 45.795 53.9423 47.9209 53.8981C47.9519 54.1146 48.0137 54.5566 48.0403 54.7776C46.9486 54.698 45.8569 54.645 44.7608 54.6759C43.152 54.6494 41.5432 54.6008 39.93 54.6141L39.8726 53.9423L40.6416 54.0704L40.7388 53.708L40.7919 53.4428Z" fill="#003A2F"/>
<path d="M144.108 51.6447C144.342 51.0304 144.581 50.4205 144.824 49.8105C147.215 50.805 149.761 51.6801 151.63 53.5673C151.542 53.5806 151.356 53.6115 151.263 53.6248C148.647 54.1065 146.269 52.9663 144.108 51.6447ZM145.319 51.0481C146.305 52.6171 148.408 52.7939 150.013 53.3022C148.598 52.2723 146.994 51.5298 145.319 51.0481Z" fill="#003A2F"/>
<path d="M160.877 51.1398C161.235 49.7122 162.415 50.6447 162.684 51.6038C160.523 52.2314 158.433 53.0668 156.307 53.7916C156.956 53.8181 158.256 53.8623 158.905 53.8888C160.09 53.1949 161.482 53.0403 162.83 53.0668C162.64 53.4822 162.446 53.8933 162.242 54.3043C161.818 54.1806 160.969 53.9375 160.545 53.8137C160.253 54.0612 159.962 54.3087 159.674 54.5562C160.638 55.0778 161.544 55.7009 162.362 56.4346C162.092 56.5098 161.557 56.6556 161.288 56.7308C159.648 55.807 158.039 54.5607 156.05 54.6579C156.196 53.9949 156.072 53.1066 156.903 52.89C158.256 52.3685 159.555 51.732 160.877 51.1398Z" fill="#003A2F"/>
<path d="M3.06006 54.1062C4.49648 52.683 6.19367 51.2864 8.34167 51.388C8.13394 52.2322 8.58917 53.5891 7.04226 53.5095L7.39142 52.493C7.14833 52.5372 6.66216 52.6256 6.41907 52.6698C6.42349 52.851 6.43233 53.2222 6.43675 53.4035C5.34949 53.7924 4.24013 54.1902 3.06006 54.1062Z" fill="#003A2F"/>
<path d="M31.2364 55.2451C30.0651 55.3998 27.5547 55.1257 28.748 53.4551L29.4596 53.5877C31.5502 54.0473 33.7247 53.6584 35.8241 54.1225C35.0373 54.4495 34.2462 54.7589 33.4639 55.0904C34.697 55.1655 35.9567 55.1655 37.1279 54.7324C38.003 54.7324 38.8737 54.728 39.7444 54.7014C39.4571 55.2362 39.1742 55.7754 38.856 56.2926C38.5953 56.3898 38.0826 56.5798 37.8218 56.6727C37.782 57.0837 37.7422 57.4947 37.7113 57.9058C38.0472 58.003 38.719 58.1975 39.0549 58.2947C39.7532 59.7223 39.8637 61.3443 40.1289 62.8913C39.8063 63.015 39.161 63.2625 38.8383 63.3907C39.1345 63.6691 39.7267 64.2216 40.0228 64.5C37.7025 65.0702 38.1665 62.5907 38.0693 61.225C37.1898 61.5079 36.9157 62.3653 36.6019 63.1299C36.1776 63.183 35.7534 63.236 35.3335 63.289C36.0318 62.0117 36.5754 60.6637 36.9732 59.2626L37.3047 59.2671C37.3356 58.6615 37.4063 57.4594 37.4417 56.8583L36.6285 57.097C36.1334 59.0505 35.192 60.9819 33.6672 62.3388C33.7645 60.151 35.9655 58.8295 36.1821 56.6771C34.8429 58.0826 33.2606 59.1963 31.643 60.2527C30.8872 59.9079 30.3568 59.2847 30.1049 58.498C32.0717 56.929 34.7766 56.655 37.1191 55.8815C35.6959 55.276 34.1755 55.6429 32.7391 55.9567C32.1336 56.0274 31.5281 56.0848 30.9226 56.1379C31.0021 55.9125 31.1568 55.4705 31.2364 55.2451Z" fill="#003A2F"/>
<path d="M154.183 53.8457C154.638 54.6368 154.359 55.4236 153.935 56.144C153.52 56.1307 152.68 56.0954 152.26 56.0777L152.061 55.4015C152.693 55.3131 153.33 55.26 153.97 55.2114C154.023 54.8667 154.129 54.186 154.183 53.8457Z" fill="#003A2F"/>
<path d="M154.248 55.8791C154.637 55.5344 155.044 55.2117 155.468 54.9023C157.342 55.3576 159.256 56.025 160.697 57.373C161.351 57.8326 161.612 58.5486 161.563 59.3442C159.689 59.0569 158.266 57.6735 156.525 57.0282C156.476 57.0857 156.383 57.2006 156.334 57.2581C157.643 58.3011 158.898 59.4105 159.888 60.7762C158.522 61.5585 157.258 62.4999 155.923 63.3352C155.862 63.0214 155.742 62.3983 155.68 62.0845C155.243 60.5508 154.677 59.0569 154.319 57.5012C154.005 57.3376 153.378 57.0061 153.064 56.8426C153.493 59.1321 154.31 62.2568 152.047 63.87C151.707 63.1098 151.305 62.3806 150.863 61.6734C151.062 61.0591 151.269 60.4491 151.473 59.8348C152.021 58.7431 152.724 57.6603 152.719 56.3874C153.219 56.4448 153.718 56.4979 154.222 56.5553C155.336 58.3984 156.458 60.2591 157.908 61.8635C157.917 61.4922 157.926 60.7497 157.93 60.3784L158.991 60.8779C157.939 59.4547 156.639 58.2481 155.508 56.8912C155.093 56.5465 154.673 56.2106 154.248 55.8791Z" fill="#003A2F"/>
<path d="M41.0654 55.5026C41.6046 55.4672 42.1439 55.4318 42.6831 55.3965C44.3095 55.4893 45.9935 55.5733 47.4785 56.3202C47.147 57.2086 46.873 58.1588 46.2189 58.8748C44.3361 58.0262 43.0013 56.2893 41.0654 55.5026Z" fill="#003A2F"/>
<path d="M145.511 58.578C147.756 57.8443 149.489 56.0764 151.8 55.5195C151.809 55.7317 151.827 56.1604 151.835 56.3725C150.116 57.4598 148.843 59.0995 147.146 60.2177C146.536 59.7448 145.763 59.3647 145.511 58.578Z" fill="#003A2F"/>
<path d="M40.2051 56.2539C42.2426 57.571 43.7365 59.5466 45.4646 61.2173C43.4403 59.909 41.8183 58.0262 40.2051 56.2539Z" fill="#003A2F"/>
<path d="M39.7666 57.6016C41.4373 58.8037 42.7986 60.3595 44.0449 61.986C43.9963 62.1097 43.8902 62.3661 43.8372 62.4942C43.3422 62.6445 42.8472 62.7859 42.3566 62.9274C41.1544 61.4467 40.4914 59.67 39.8771 57.8933L39.7666 57.6016Z" fill="#003A2F"/>
<path d="M147.9 61.2263C149.128 59.8695 150.392 58.5435 151.59 57.1602C151.405 57.6198 151.223 58.075 151.042 58.5347C150.587 59.6264 149.721 60.444 148.987 61.3412C148.682 61.5004 148.072 61.8186 147.767 61.9821C147.798 61.7921 147.869 61.4164 147.9 61.2263Z" fill="#003A2F"/>
</svg>
