<svg width="245" height="163" viewBox="0 0 245 163" fill="none" xmlns="http://www.w3.org/2000/svg">
<path d="M63.0239 3.11593C66.7272 -0.822497 73.521 -0.00811052 77.0644 3.73006C76.2917 9.13706 74.5467 14.3571 72.7883 19.5105C73.2812 21.6065 73.7341 23.7026 74.147 25.8253C72.8549 24.9976 70.2573 23.3421 68.9651 22.5277C68.3391 23.0083 67.0735 23.9829 66.4341 24.4636C66.7538 28.6557 67.7396 33.3951 71.6693 35.6914C76.9977 38.6419 83.1121 40.3641 89.1999 40.6712C89.7993 40.1238 91.0248 39.0291 91.6243 38.495C89.413 36.8529 87.0019 35.5179 84.6041 34.1561C85.9229 32.821 85.5632 30.9653 85.7897 29.2831C88.5471 31.4192 91.5444 33.315 93.9555 35.865C93.9288 43.0076 93.4093 50.1501 92.4102 57.226C91.3179 71.8182 90.9316 86.4905 91.3979 101.109C91.9307 108.292 91.984 115.728 94.4351 122.55C96.8595 126.569 101.575 122.831 105.132 123.165C135.757 121.99 166.396 123.645 197.021 124.473C200.857 124.486 204.814 125.154 208.53 123.805C208.13 124.313 207.331 125.314 206.932 125.808C200.857 128.665 194.103 127.53 187.643 127.343C171.351 126.436 155.006 126.703 138.741 125.421C138.674 128.278 138.634 131.148 138.594 134.019C151.463 134.366 164.211 136.982 177.119 136.195C188.389 136.115 201.097 137.263 210.755 130.347C208.97 129.813 207.198 129.279 205.426 128.732C206.052 127.784 206.852 126.943 207.824 126.222C209.862 127.584 215.55 127.597 213.845 131.389C210.368 135.474 205.053 137.743 199.778 138.331C189.081 139.773 178.278 138.745 167.594 137.85C147.626 137.223 127.658 137.036 107.69 136.675C104.879 136.515 101.695 136.889 99.3905 134.913C96.3267 132.911 100.869 126.983 97.2724 125.741C92.1571 128.839 87.5081 132.804 81.8599 134.993C78.21 136.756 73.9739 137.209 70.6436 139.626L71.8958 141.575C79.3822 142.016 86.9086 140.293 94.4484 140.507C123.741 141.028 153.034 141.308 182.328 141.522C195.675 141.615 209.076 141.588 222.344 139.946C224.995 139.693 227.739 138.798 229.404 136.595C234.373 130.24 236.598 122.283 238.369 114.54C242.352 95.7291 242.139 76.1972 239.182 57.2527C237.73 48.3611 235.092 39.483 230.27 31.8197C225.821 26.3059 217.975 27.1203 211.647 26.2926C177.945 24.4769 144.176 25.8787 110.447 26.4261C103.986 26.0122 97.9785 29.43 91.5177 27.8279C94.3285 29.3232 97.006 31.1122 99.8168 32.6341C115.536 31.2724 131.481 33.542 147.053 30.5114C148.146 28.7758 144.815 28.3352 143.976 28.7224C130.282 28.8826 116.548 30.4179 102.854 29.4166C107.01 27.908 111.513 28.6824 115.829 28.5488C126.752 28.7358 137.662 27.7745 148.585 28.3886C149.012 28.6022 149.891 29.0295 150.33 29.2564C153.86 29.9106 157.457 29.43 161 29.3365C173.096 28.7758 185.192 30.5648 196.887 33.5687C201.177 35.0105 206.399 35.7315 209.01 39.9102C210.995 41.3788 208.117 44.2225 206.332 43.9287C202.456 36.7728 193.824 35.1307 186.457 34.076C171.018 32.4606 155.432 33.2216 139.967 34.0893C140.206 40.0838 140.26 46.0648 140.193 52.0593C154.18 52.4731 168.221 52.393 182.141 50.7242C189.854 49.3224 197.46 47.2798 204.987 45.0903C208.397 45.0769 211.607 44.1824 214.485 42.34C212.433 40.0838 210.382 37.8275 208.477 35.4511C212.353 37.2 216.256 38.9757 219.88 41.2052C219.413 43.9822 216.896 45.157 214.644 46.2918C221.651 64.0081 221.865 83.6602 220.079 102.404C218.947 110.295 217.988 119.653 210.648 124.393C209.915 123.859 209.183 123.311 208.464 122.764C211.994 122.23 213.632 118.892 214.844 115.982C216.736 110.762 217.242 105.195 217.748 99.7209C218.881 81.6175 217.988 63.1403 212.593 45.7311C200.258 51.592 186.484 53.6346 172.976 54.5291C152.502 54.7694 131.987 54.8896 111.539 53.7147C105.332 53.5011 100.669 48.7483 94.9812 46.8659L94.8746 45.7578C96.2867 46.1316 99.1241 46.8926 100.549 47.2797C100.07 43.1277 99.6969 38.9623 99.2839 34.7969C94.5017 32.0067 91.0115 26.9868 85.43 25.6918C83.7915 25.3046 80.5012 24.5437 78.8627 24.1565C80.3014 25.1578 83.1921 27.1604 84.6441 28.1617C82.4727 29.3766 80.1549 30.3245 77.837 31.1923C78.2366 30.2444 79.0226 28.3486 79.4222 27.3873C77.0111 26.9868 75.2527 24.8908 74.7065 22.6212C94.9812 22.8481 115.349 22.9816 135.65 22.1806C162.799 22.3675 190.014 20.6319 217.069 23.5958C223.077 24.3301 230.27 25.4382 233.627 31.1656C240.501 43.061 242.526 57.0123 243.605 70.4965C244.51 86.13 244.124 102.004 240.461 117.304C238.836 123.819 236.944 130.427 233.267 136.115C230.843 139.826 227.166 143.284 222.491 143.324C194.969 146.141 167.275 144.245 139.673 144.432C117.667 143.992 95.6473 144.165 73.6408 144.032C75.4791 148.971 77.837 153.724 79.3822 158.771C75.7456 162.042 69.7244 163.617 65.3285 161.08C60.9858 156.928 59.7603 150.667 58.215 145.086C46.9587 144.205 35.5292 142.924 24.9656 138.691C19.6638 136.542 14.9615 132.777 12.0841 127.771C4.39786 112.618 -0.117986 95.5289 1.21412 78.4401C2.17324 64.3819 3.34549 49.9098 9.12684 36.8796C11.5912 30.8719 16.8531 26.3593 23.0607 24.5837C34.9831 21.1393 47.5182 21.206 59.7736 19.7775C59.3207 19.11 58.4148 17.7749 57.9619 17.094C59.0942 12.3012 59.4805 6.86745 63.0239 3.11593ZM67.0602 3.16934C64.4227 4.79811 62.5977 7.53499 61.6519 10.4454C61.1723 12.408 60.7594 15.6388 63.5435 15.8658C66.7805 12.2477 69.2849 7.98891 71.4429 3.64996C70.0175 2.62196 68.5655 2.46175 67.0602 3.16934ZM63.9298 21.2594C62.1581 21.8735 60.4397 22.768 58.5347 22.8348C48.877 23.3421 39.419 25.4649 29.8678 26.7866C22.1815 27.8413 14.8549 32.4873 11.7911 39.8168C7.52831 50.3771 5.65004 61.7785 5.19713 73.1265C4.14476 88.146 5.5568 103.593 11.538 117.531C13.6027 125.354 18.8646 132.537 26.5242 135.567C37.3143 139.799 49.0368 140.681 60.4796 141.548C62.0515 146.929 63.2637 152.643 66.5007 157.315C68.5922 160.359 72.5085 159.452 75.5324 158.677C74.1737 153.684 72.2688 148.865 69.6578 144.405C67.8595 141.869 68.4989 138.651 68.4057 135.754C76.1852 131.976 86.0028 131.589 91.5177 124.046C86.7754 97.6783 88.5738 70.7234 90.8783 44.2091C83.0056 44.3293 74.1737 42.3534 69.125 35.7982C65.7148 31.526 66.4475 25.6651 64.6624 20.7521C69.2049 17.4144 72.3221 12.4347 73.4011 6.89416C69.1783 10.8192 65.3818 15.5721 63.9298 21.2594ZM102.641 34.7035L102.574 35.9718C110.26 35.1574 118.013 35.7715 125.686 35.0239C118.027 34.5032 110.327 34.8236 102.641 34.7035ZM119.758 37.5205C114.097 37.9877 108.236 37.6406 102.814 39.5631C101.988 42.2466 102.374 45.0368 102.628 47.7737C107.929 51.8056 114.83 50.9111 121.077 51.2182C126.845 51.2182 132.613 52.0459 138.381 51.6855C138.648 46.0782 138.008 40.4576 137.249 34.9037C131.428 35.7982 125.686 37.4137 119.758 37.5205ZM103.174 127.076C101.722 129.293 100.443 131.976 103.6 133.445C111.513 134.86 119.692 133.525 127.698 134.406C130.615 134.833 133.572 134.913 136.503 134.579C136.756 131.696 136.876 128.812 136.943 125.928C125.66 125.381 114.39 125.982 103.174 127.076Z" fill="#003A2F"/>
<path d="M26.604 37.08C29.9742 32.3939 34.0905 27.5743 40.1649 26.6798C36.8346 29.5769 32.7717 31.6863 30.0009 35.2109C24.4193 42.3935 20.8626 50.978 19.1708 59.8828L18.6646 59.8695C18.0785 51.6989 22.2214 43.782 26.604 37.08Z" fill="#003A2F"/>
<path d="M56.5099 34.0627C57.0827 33.4886 58.2016 32.3538 58.7744 31.7797C58.0018 33.582 58.2283 36.4391 56.0303 37.2268C52.1805 37.7474 48.2375 37.6006 44.4676 38.6419C38.4465 40.0437 34.2637 45.0102 28.762 47.5201C30.7869 44.7298 33.1847 42.2733 35.649 39.8969C35.4492 39.2828 35.0496 38.0678 34.8498 37.4671C35.2228 37.8676 35.9554 38.6686 36.3284 39.0691C42.6559 36.0386 49.6762 35.1975 56.5099 34.0627Z" fill="#003A2F"/>
<path d="M17.3992 62.6864C17.6257 62.6864 18.0786 62.7131 18.305 62.7131C19.1975 65.1963 18.6381 67.9065 18.6114 70.4832C17.8921 78.6404 18.6913 86.811 19.1576 94.9682C18.6114 94.8747 17.5191 94.7145 16.9729 94.6211C17.5591 84.0073 16.0405 73.3135 17.3992 62.6864Z" fill="#003A2F"/>
<path d="M25.1121 77.0517C33.9573 78.1731 42.8691 78.6137 51.7809 78.7872C54.3119 78.7872 56.8429 79.1477 59.1475 80.2158C48.6904 81.4707 38.1401 79.8953 27.6431 80.376C26.8039 79.2545 25.9646 78.1464 25.1121 77.0517Z" fill="#003A2F"/>
<path d="M17.8387 97.6383C18.4782 96.7304 19.1309 95.8226 19.7836 94.9281C20.1566 102.137 22.7409 108.973 25.3385 115.622C27.0436 119.453 28.6954 123.472 31.6127 126.556C33.6908 127.891 36.062 128.665 38.2999 129.733C40.9375 129.907 43.5751 130.187 46.1993 130.534C46.0261 131.055 45.6665 132.096 45.48 132.617C50.6352 132.323 55.8038 132.59 60.9591 132.977C60.5328 133.525 59.6803 134.633 59.254 135.194C51.9674 135.594 44.6674 134.352 37.6605 132.35C34.3036 131.375 31.0799 129.546 29.1084 126.582C23.6334 117.718 19.9035 107.851 17.8387 97.6383Z" fill="#003A2F"/>
<path d="M14.3088 118.238C19.4774 120.428 23.5936 124.874 24.6459 130.507C20.7562 126.823 17.6124 122.43 14.3088 118.238Z" fill="#003A2F"/>
</svg>
