<svg width="242" height="168" viewBox="0 0 242 168" fill="none" xmlns="http://www.w3.org/2000/svg">
<path fill-rule="evenodd" clip-rule="evenodd" d="M111 148.769C91.1929 145.275 65.0039 153.515 50.4898 139.568C35.6299 125.288 20.9106 106.749 23.8865 86.3377C26.7102 66.9696 51.2767 61.5015 64.0328 46.6751C78.9851 29.2962 57.0401 5.90134 79.5 1.41382C102.6 -3.20151 143.519 17.9232 161.5 33.1658C182.024 50.5639 209.69 59.6029 212.953 86.3377C216.44 114.906 203.012 145.823 179.471 162.321C157.935 177.415 136.885 153.336 111 148.769Z" fill="#D7FFF1"/>
<path d="M238.272 102.817H2.65161V59.1797H238.272V102.817Z" fill="white"/>
<path d="M241.5 105.135H0.5V57.1328H241.5V105.135Z" fill="white"/>
<path d="M239.891 102.812H2.11597V58.627H239.891V102.812Z" fill="#003A2F"/>
<mask id="mask0_1445_74018" style="mask-type:luminance" maskUnits="userSpaceOnUse" x="4" y="60" width="39" height="42">
<path d="M42.9998 101.588H4.26758V60.6758H42.9998V101.588Z" fill="white"/>
</mask>
<g mask="url(#mask0_1445_74018)">
<mask id="mask1_1445_74018" style="mask-type:luminance" maskUnits="userSpaceOnUse" x="4" y="60" width="39" height="42">
<path d="M4.26758 60.666H42.9998V101.578H4.26758V60.666Z" fill="white"/>
</mask>
<g mask="url(#mask1_1445_74018)">
<rect width="40.1304" height="41.7744" transform="matrix(1 0 0 -1 3.95532 102.189)" fill="#D7FFF1"/>
</g>
</g>
<mask id="mask2_1445_74018" style="mask-type:luminance" maskUnits="userSpaceOnUse" x="44" y="60" width="38" height="42">
<path d="M81.4612 101.588H44.8809V60.6758H81.4612V101.588Z" fill="white"/>
</mask>
<g mask="url(#mask2_1445_74018)">
<mask id="mask3_1445_74018" style="mask-type:luminance" maskUnits="userSpaceOnUse" x="44" y="60" width="38" height="42">
<path d="M44.8799 60.666H81.4602V101.578H44.8799V60.666Z" fill="white"/>
</mask>
<g mask="url(#mask3_1445_74018)">
<rect width="37.5689" height="41.7744" transform="matrix(1 0 0 -1 44.3586 102.189)" fill="#D7FFF1"/>
</g>
</g>
<mask id="mask4_1445_74018" style="mask-type:luminance" maskUnits="userSpaceOnUse" x="83" y="60" width="37" height="42">
<path d="M119.926 101.588H83.3467V60.6758H119.926V101.588Z" fill="white"/>
</mask>
<g mask="url(#mask4_1445_74018)">
<mask id="mask5_1445_74018" style="mask-type:luminance" maskUnits="userSpaceOnUse" x="83" y="60" width="37" height="42">
<path d="M83.3506 60.666H119.93V101.578H83.3506V60.666Z" fill="white"/>
</mask>
<g mask="url(#mask5_1445_74018)">
<rect width="38.4227" height="41.7744" transform="matrix(1 0 0 -1 82.7253 102.189)" fill="#D7FFF1"/>
</g>
</g>
<mask id="mask6_1445_74018" style="mask-type:luminance" maskUnits="userSpaceOnUse" x="121" y="60" width="39" height="42">
<path d="M159.996 101.588H121.802V60.6758H159.996V101.588Z" fill="white"/>
</mask>
<g mask="url(#mask6_1445_74018)">
<mask id="mask7_1445_74018" style="mask-type:luminance" maskUnits="userSpaceOnUse" x="121" y="60" width="39" height="42">
<path d="M121.799 60.666H159.993V101.578H121.799V60.666Z" fill="white"/>
</mask>
<g mask="url(#mask7_1445_74018)">
<rect width="39.2766" height="41.7744" transform="matrix(1 0 0 -1 121.279 102.189)" fill="#D7FFF1"/>
</g>
</g>
<mask id="mask8_1445_74018" style="mask-type:luminance" maskUnits="userSpaceOnUse" x="161" y="60" width="38" height="42">
<path d="M198.999 101.588H161.881V60.6758H198.999V101.588Z" fill="white"/>
</mask>
<g mask="url(#mask8_1445_74018)">
<mask id="mask9_1445_74018" style="mask-type:luminance" maskUnits="userSpaceOnUse" x="161" y="60" width="38" height="42">
<path d="M161.877 60.666H198.995V101.578H161.877V60.666Z" fill="white"/>
</mask>
<g mask="url(#mask9_1445_74018)">
<rect width="38.4227" height="41.7744" transform="matrix(1 0 0 -1 161.272 102.189)" fill="#D7FFF1"/>
</g>
</g>
<path d="M29.1693 83.8106L35.4931 86.018C35.0679 88.0814 34.4004 89.8058 33.487 91.1911C32.5736 92.5745 31.4391 93.6184 30.0863 94.3228C28.734 95.0276 27.0112 95.3798 24.9202 95.3798C22.384 95.3798 20.3099 94.9528 18.7031 94.0942C17.0946 93.2379 15.7049 91.7281 14.5389 89.5682C13.372 87.4086 12.7881 84.644 12.7881 81.2741C12.7881 76.7833 13.8136 73.331 15.8708 70.918C17.9262 68.5046 20.8328 67.2988 24.5902 67.2988C27.5324 67.2988 29.8453 67.9897 31.5281 69.3722C33.2108 70.7548 34.4614 72.8782 35.2801 75.7389L28.915 77.3848C28.6904 76.5583 28.4565 75.9558 28.211 75.5735C27.8076 74.9331 27.3131 74.4412 26.727 74.0953C26.1404 73.7512 25.4845 73.5776 24.7618 73.5776C23.1222 73.5776 21.8646 74.3415 20.9921 75.8679C20.3317 77.0002 20.0021 78.7791 20.0021 81.2052C20.0021 84.2102 20.3953 86.2664 21.1833 87.382C21.9677 88.4936 23.0742 89.0518 24.4977 89.0518C25.8803 89.0518 26.924 88.6054 27.6307 87.7094C28.3368 86.817 28.85 85.5152 29.1693 83.8106ZM67.002 90.438H58.8376L57.6609 94.9352H50.3014L59.0457 67.7439H66.9579L75.7209 94.9352H68.1729L67.002 90.438ZM65.4735 84.5533L62.9253 74.787L60.3745 84.5533H65.4735ZM91.7602 94.9352V67.7439H103.749C105.972 67.7439 107.669 67.9676 108.845 68.4122C110.019 68.8573 110.967 69.682 111.687 70.8901C112.407 72.0959 112.767 73.5672 112.767 75.2966C112.767 76.8068 112.492 78.109 111.944 79.2048C111.395 80.2992 110.641 81.1871 109.68 81.8671C109.068 82.3018 108.226 82.6594 107.16 82.9444C108.018 83.2781 108.642 83.6113 109.034 83.945C109.297 84.1687 109.68 84.6435 110.182 85.3736C110.686 86.1023 111.021 86.6646 111.192 87.0592L114.677 94.9347H106.531L102.702 86.6335C102.217 85.5589 101.783 84.8613 101.406 84.5394C100.889 84.1195 100.305 83.9099 99.6511 83.9099H99.0183V94.9343H91.7602V94.9352ZM99.0174 78.7679H102.02C102.344 78.7679 102.974 78.6443 103.907 78.3954C104.377 78.2849 104.763 78.0008 105.062 77.5418C105.361 77.0832 105.51 76.5569 105.51 75.9626C105.51 75.0833 105.275 74.4082 104.803 73.9375C104.33 73.4671 103.445 73.2318 102.146 73.2318H99.0178L99.0174 78.7679ZM131.1 67.7439H148.923V73.5776H138.355V78.3232H147.395V83.8106H138.355V94.9352H131.1V67.7439ZM184.56 90.438H176.398L175.222 94.9352H167.862L176.605 67.7439H184.517L193.282 94.9352H185.733L184.56 90.438ZM183.031 84.5533L180.486 74.787L177.934 84.5533H183.031Z" fill="#003A2F"/>
<mask id="mask10_1445_74018" style="mask-type:luminance" maskUnits="userSpaceOnUse" x="201" y="61" width="37" height="40">
<path d="M237.734 100.726H201.691V61.4238H237.734V100.726Z" fill="white"/>
</mask>
<g mask="url(#mask10_1445_74018)">
<mask id="mask11_1445_74018" style="mask-type:luminance" maskUnits="userSpaceOnUse" x="201" y="61" width="37" height="40">
<path d="M201.689 61.4238H237.732V100.726H201.689V61.4238Z" fill="white"/>
</mask>
<g mask="url(#mask11_1445_74018)">
<rect width="37.5689" height="40.2593" transform="matrix(1 0 0 -1 201.115 101.312)" fill="#003A2F"/>
</g>
</g>
<path d="M237.736 100.726H201.693V61.4238H237.736V100.726Z" stroke="white" stroke-width="1.56957" stroke-miterlimit="2.613"/>
<mask id="mask12_1445_74018" style="mask-type:luminance" maskUnits="userSpaceOnUse" x="208" y="75" width="25" height="26">
<path d="M208.43 75.7227H216.367L220.519 84.1136L224.556 75.7227H232.404L225.14 88.9314L231.282 99.8029L231.611 100.298H223.507L223.33 99.8557L220.373 94.2335L217.385 99.9193L217.146 100.498H209.083L209.443 99.931L215.755 88.783L208.43 75.7227Z" fill="white"/>
</mask>
<g mask="url(#mask12_1445_74018)">
<mask id="mask13_1445_74018" style="mask-type:luminance" maskUnits="userSpaceOnUse" x="208" y="75" width="25" height="26">
<path d="M208.432 75.7207H232.406V100.496H208.432V75.7207Z" fill="white"/>
</mask>
<g mask="url(#mask13_1445_74018)">
<rect width="25.6152" height="25.7573" transform="matrix(1 0 0 -1 207.89 101.061)" fill="#F8F8F8"/>
</g>
</g>
</svg>
