<svg width="191" height="178" viewBox="0 0 191 178" fill="none" xmlns="http://www.w3.org/2000/svg">
<path fill-rule="evenodd" clip-rule="evenodd" d="M80.6827 169.941C60.9537 166.461 42.2149 160.532 27.758 146.64C12.9567 132.416 -1.70445 113.951 1.25966 93.6198C4.07224 74.3281 28.5418 68.8816 41.2476 54.1137C56.1408 36.8033 58.3114 5.77617 80.6827 1.30637C103.691 -3.29076 121.857 19.247 139.767 34.4295C160.209 51.759 186.33 66.9904 189.58 93.6198C193.054 122.076 179.678 152.87 156.231 169.304C134.779 184.338 106.466 174.49 80.6827 169.941Z" fill="#D7FFF1"/>
<g clip-path="url(#clip0_1873_26423)">
<path d="M95.4287 81.5173C85.4189 81.3704 71.5141 81.5852 68.6513 89.2754L61.6177 105.78C61.3058 105.423 60.8966 105.165 60.4403 105.037L57.6085 104.24C57.2971 104.152 56.9713 104.126 56.6499 104.164C56.3285 104.202 56.0177 104.303 55.7354 104.461C55.4531 104.619 55.2049 104.832 55.005 105.086C54.805 105.341 54.6573 105.632 54.5704 105.944L53.093 111.19C53.0048 111.501 52.979 111.827 53.017 112.148C53.055 112.47 53.1561 112.78 53.3144 113.063C53.4727 113.345 53.6852 113.593 53.9397 113.793C54.1942 113.993 54.4856 114.14 54.7973 114.227L57.6299 115.025C57.7245 115.051 57.819 115.059 57.9136 115.075C57.3721 116.424 57.0352 117.907 57.0352 118.79V137.973C57.0352 138.956 57.4478 139.411 58.1026 139.625V144.735C58.1018 145.188 58.1906 145.638 58.3638 146.057C58.537 146.476 58.7913 146.857 59.112 147.178C59.4328 147.498 59.8137 147.753 60.2329 147.926C60.6521 148.099 61.1014 148.188 61.555 148.187H70.8171C71.2707 148.188 71.72 148.099 72.1392 147.926C72.5584 147.753 72.9393 147.498 73.26 147.178C73.5808 146.857 73.835 146.476 74.0083 146.057C74.1815 145.638 74.2702 145.188 74.2694 144.735V139.812H117.673V144.735C117.673 145.188 117.761 145.638 117.935 146.057C118.108 146.476 118.362 146.857 118.683 147.178C119.004 147.499 119.385 147.753 119.804 147.926C120.224 148.099 120.673 148.188 121.127 148.187H130.387C130.841 148.188 131.29 148.099 131.71 147.926C132.129 147.753 132.51 147.499 132.831 147.178C133.152 146.857 133.406 146.477 133.58 146.057C133.753 145.638 133.842 145.188 133.841 144.735V139.625C134.497 139.412 134.907 138.957 134.907 137.974V118.791C134.907 117.908 134.569 116.425 134.028 115.076C134.123 115.061 134.218 115.052 134.312 115.026L137.146 114.228C137.457 114.141 137.749 113.993 138.003 113.794C138.257 113.594 138.47 113.345 138.628 113.063C138.786 112.781 138.887 112.47 138.925 112.149C138.963 111.828 138.937 111.502 138.849 111.191L137.373 105.945C137.286 105.633 137.139 105.342 136.939 105.087C136.739 104.832 136.49 104.62 136.208 104.461C135.926 104.303 135.615 104.202 135.293 104.164C134.972 104.126 134.646 104.152 134.334 104.241L131.503 105.037C131.046 105.166 130.637 105.425 130.324 105.781L123.291 89.2763C120.222 81.4692 105.438 81.6652 95.4278 81.5182M124.096 106.823C124.263 107.318 123.764 107.648 123.243 107.678C123.243 107.678 121.537 107.823 119.186 108.013C117.397 103.833 113.239 100.886 108.422 100.886C103.135 100.886 98.6473 104.436 97.2077 109.269C96.8089 109.274 96.3457 109.292 95.9753 109.292C86.8679 109.292 68.6977 107.678 68.6977 107.678C68.1769 107.648 67.6776 107.318 67.8443 106.823C74.8418 85.4914 75.0507 87.0951 95.5834 87.3194C116.115 87.5428 116.235 86.0191 124.096 106.823ZM108.422 104.918C109.689 104.914 110.938 105.225 112.055 105.824C113.173 106.423 114.123 107.29 114.822 108.348C110.709 108.653 105.977 108.965 101.566 109.146C102.201 107.872 103.179 106.801 104.39 106.054C105.602 105.307 106.998 104.913 108.422 104.918ZM61.084 111.84C61.1459 111.932 61.2061 112.024 61.2748 112.112H61.0084L61.084 111.84ZM65.6339 117.198C67.4352 117.168 77.1056 120.423 77.1056 120.423C78.3131 120.763 79.3762 123.046 79.3702 124.301C79.3521 128.527 68.4476 127.06 64.0207 127.077C63.7232 127.077 63.4286 127.019 63.1536 126.906C62.8786 126.792 62.6288 126.625 62.4184 126.415C62.208 126.205 62.0412 125.955 61.9276 125.68C61.8139 125.405 61.7556 125.111 61.7561 124.813V119.463C61.7561 118.208 63.8325 117.229 65.6339 117.198ZM126.308 117.198C128.11 117.228 130.186 118.208 130.186 119.463V124.813C130.186 125.111 130.128 125.405 130.015 125.68C129.901 125.955 129.734 126.205 129.524 126.416C129.313 126.626 129.064 126.793 128.789 126.906C128.514 127.02 128.219 127.078 127.921 127.078C123.495 127.06 112.59 128.527 112.572 124.301C112.566 123.046 113.629 120.763 114.836 120.423C114.836 120.423 124.507 117.168 126.308 117.198Z" fill="#026442"/>
<path d="M105.542 107.266H99.2949L102.565 103.996L112.49 98.8584L118.912 106.332C115.176 106.799 117.044 106.332 105.542 107.266Z" fill="#D7FFF1" stroke="#D7FFF1" stroke-width="3.9235"/>
</g>
<path d="M116.593 56.1855C105.989 57.444 97.7779 66.1501 97.159 76.8162C96.7258 84.4908 100.46 92.021 106.835 96.2502C121.503 106.009 141.04 95.5901 141.04 78.0334C141.04 66.8309 132.767 57.5678 121.544 56.1855C119.481 55.9379 118.697 55.9379 116.593 56.1855ZM123.876 61.0956C129.694 62.7873 134.232 67.3054 136.007 73.1852C136.502 74.8356 136.564 75.372 136.564 78.0334C136.564 80.6947 136.502 81.2311 136.007 82.8816C134.232 88.7613 129.694 93.2794 123.876 94.9711C121.73 95.5901 117.934 95.7345 115.706 95.2806C112.054 94.5379 109.537 93.1556 106.69 90.3086C104.854 88.4931 104.483 87.998 103.534 86.0793C102.028 83.0673 101.595 81.2518 101.595 78.0334C101.595 75.0007 102.007 73.1026 103.266 70.4619C104.256 68.3989 105.308 66.9753 107.02 65.3249C109.599 62.8905 111.992 61.6114 115.562 60.7861C117.398 60.3735 121.936 60.5386 123.876 61.0956Z" fill="#171616"/>
<circle cx="119.124" cy="78.0004" r="18.2553" fill="#D7FFF1"/>
<circle cx="119.125" cy="87" r="2" fill="#02553C"/>
<line x1="119.125" y1="81" x2="119.125" y2="69" stroke="#02553C" stroke-width="4" stroke-linecap="round"/>
<defs>
<clipPath id="clip0_1873_26423">
<rect width="85.9434" height="85.9434" fill="white" transform="translate(53 71.8662)"/>
</clipPath>
</defs>
</svg>
