<svg width="191" height="177" viewBox="0 0 191 177" fill="none" xmlns="http://www.w3.org/2000/svg">
<path fill-rule="evenodd" clip-rule="evenodd" d="M80.6827 169.592C60.9537 166.111 42.2149 160.182 27.758 146.29C12.9567 132.067 -1.70445 113.601 1.25966 93.2701C4.07224 73.9784 28.5418 68.532 41.2476 53.7641C56.1408 36.4536 58.3114 5.42656 80.6827 0.956757C103.691 -3.64037 121.857 18.8974 139.767 34.0799C160.209 51.4094 186.33 66.6408 189.58 93.2701C193.054 121.726 179.678 152.521 156.231 168.954C134.779 183.988 106.466 174.14 80.6827 169.592Z" fill="#D7FFF1"/>
<path d="M94.1393 46.6799C92.6076 46.9186 90.7178 47.4159 89.4446 47.9132C78.2053 52.2697 72.9736 65.2397 78.0263 76.1209C80.0553 80.4774 83.9742 84.3962 88.271 86.3457C94.8753 89.3296 102.812 88.6333 108.74 84.5355C110.471 83.3419 113.196 80.5768 114.31 78.9059C115.464 77.1553 116.578 74.5892 117.155 72.4408C117.593 70.8096 117.672 70.0537 117.692 67.5273C117.712 64.3246 117.553 63.2703 116.598 60.5052C114.211 53.4632 107.945 48.132 100.525 46.839C99.013 46.5605 95.3726 46.4809 94.1393 46.6799ZM101.301 50.2208C106.333 51.5536 110.789 55.2735 112.958 59.9681C114.171 62.5939 114.489 64.1456 114.489 67.4278C114.489 69.994 114.43 70.5112 113.972 72.0628C112.421 77.1354 109.158 81.0344 104.623 83.2424C99.2318 85.8484 92.8463 85.55 87.7936 82.4467C84.75 80.5768 82.6613 78.2892 81.1097 75.1064C77.8672 68.5219 79.001 60.7638 83.9742 55.4525C86.7194 52.5283 89.6834 50.8374 93.5425 50.0218C95.2533 49.6439 99.5501 49.7632 101.301 50.2208Z" fill="#003A2F"/>
<path d="M99.8092 65.4379L95.035 70.2122L92.449 67.6062C89.843 65.0003 89.1269 64.4433 88.371 64.4433C87.7344 64.4433 86.9785 65.3186 86.9785 66.0546C86.9785 66.6315 87.3963 67.1288 90.5791 70.3315C92.5683 72.3208 94.3984 74.0116 94.6769 74.0713C94.9355 74.1509 95.3931 74.0713 95.6915 73.9122C95.9899 73.753 98.6157 71.2267 101.56 68.2826C106.493 63.3094 106.871 62.8917 106.871 62.2352C106.871 61.3202 106.195 60.6637 105.28 60.6637C104.663 60.6637 104.186 61.0815 99.8092 65.4379Z" fill="#003A2F"/>
<path d="M54.6125 66.8306C52.6829 67.2285 50.7334 68.7403 49.8382 70.5903L49.2812 71.7043V98.9571V126.21L49.9377 127.543C50.6339 128.955 51.549 129.87 53.1603 130.706L54.0555 131.183H96.924H139.792L141.046 130.507C142.438 129.751 143.433 128.677 144.109 127.185L144.567 126.21V98.9571V71.7043L144.01 70.5903C143.353 69.2177 142.04 67.9645 140.529 67.2683L139.395 66.7312L130.443 66.6715C125.529 66.6317 121.193 66.6715 120.835 66.7312C119.482 66.9898 118.925 68.5016 119.86 69.3769C120.318 69.8145 120.377 69.8145 129.269 69.8344C134.183 69.8344 138.36 69.914 138.559 69.9935C138.877 70.1129 135.317 73.7333 119.104 89.8065C108.203 100.648 98.9928 109.679 98.6546 109.898C97.7992 110.435 96.0487 110.435 95.1933 109.898C94.8551 109.679 85.6449 100.648 74.7437 89.8065C58.5512 73.7333 54.9705 70.1129 55.2888 69.9935C55.4877 69.914 59.6851 69.8344 64.6184 69.8344L73.59 69.8145L74.0077 69.357C74.8034 68.5016 74.505 67.2285 73.4308 66.8505C72.6749 66.5919 55.9254 66.572 54.6125 66.8306ZM78.1056 97.6442L79.4981 99.0367L66.0706 112.345C57.8152 120.56 52.6033 125.573 52.5237 125.434C52.3447 125.156 52.3049 72.7188 52.484 72.5398C52.6033 72.4403 72.297 91.756 78.1056 97.6442ZM141.483 98.9571C141.483 116.88 141.424 125.335 141.284 125.414C141.165 125.494 135.496 120.023 128.692 113.26C121.889 106.516 115.882 100.549 115.325 100.011L114.33 99.0367L127.757 85.7286C135.138 78.428 141.245 72.4801 141.344 72.5398C141.424 72.5796 141.483 84.4753 141.483 98.9571ZM93.7809 112.723C95.6707 113.737 98.0181 113.757 99.9675 112.782C100.465 112.524 103.091 110.117 106.472 106.835L112.142 101.304L125.51 114.553C132.87 121.834 138.897 127.861 138.897 127.941C138.897 128.04 120.019 128.1 96.924 128.1C73.8486 128.1 54.9506 128.04 54.9506 127.98C54.9506 127.901 60.9781 121.873 68.3184 114.573L81.7062 101.304L87.3358 106.795C90.439 109.818 93.3234 112.484 93.7809 112.723Z" fill="black"/>
</svg>
