<svg width="189" height="58" viewBox="0 0 189 58" fill="none" xmlns="http://www.w3.org/2000/svg">
<path d="M58.2043 2.87715C58.2043 2.87715 55.542 0.785238 54.895 0.637109C54.2478 0.488028 53.725 0.363759 53.725 0.810623C53.725 1.25825 54.8451 2.92634 54.6962 3.54802C54.5465 4.17142 58.2043 2.87715 58.2043 2.87715Z" fill="#D8DDE3"/>
<path d="M20.7099 47.0842L24.3397 50.3312L29.9888 50.7013L57.3079 50.1734L138.514 49.4465L140.669 50.1734C140.669 50.1734 143.941 50.0832 145.275 50.1808C146.609 50.2798 165.701 50.7013 165.701 50.7013C165.701 50.7013 169.702 50.9016 170.931 51.729L174.521 44.8808L171.57 28.4379C171.57 28.4379 162.024 24.3071 161.274 24.2228C160.523 24.1372 145.935 23.7157 145.935 23.7157L120.974 26.1159L45.987 21.6909L22.7341 22.2823L20.7099 47.0842Z" fill="#100F0D"/>
<path d="M2.14761 40.635C2.14761 40.635 2.66824 42.0612 2.57731 42.4461C2.48733 42.8289 1.49085 43.4187 1.49085 44.074C1.49085 44.7317 2.57732 46.7906 3.68704 46.9277C3.68704 46.9277 4.04887 48.7388 5.27165 48.7388C6.49366 48.7388 14.5298 48.9868 14.5298 48.9868C14.5298 48.9868 5.83767 39.4571 2.14761 40.635Z" fill="#2F2E33"/>
<path d="M137.081 18.5893C137.081 18.5893 132.823 14.8167 128.662 12.8811C124.5 10.9442 110.159 3.13018 104.757 2.2477C99.3557 1.36445 100.742 6.49311 100.742 6.6399C100.742 6.78517 135.823 26.6706 137.081 18.5893Z" fill="#798D9D"/>
<path d="M14.0478 20.2378H5.9522L5.32366 20.5894C5.32366 20.5894 2.51703 22.7013 4.69454 27.4442C6.87205 32.1857 17.6439 26.9103 14.0478 20.2378Z" fill="#B71D23"/>
<path d="M52.6945 4.46099L48.9196 4.31592C48.9196 4.31592 30.5927 8.66995 19.0657 14.6715C7.5378 20.6716 25.9845 18.1067 25.9845 18.1067C25.9845 18.1067 54.3396 7.70343 52.6945 4.46099Z" fill="#798D9D"/>
<path d="M138.781 16.8638C138.781 16.8638 136.306 16.1035 135.387 16.8638C134.468 17.6225 134.758 18.5893 134.758 18.5893L138.781 16.8638Z" fill="#131312"/>
<path d="M170.931 51.7291C170.931 51.7291 188.36 50.4743 188.602 47.3287C188.602 47.3287 188.704 46.654 187.785 46.2176C187.785 46.2176 188.368 36.0578 186.965 32.9122C185.561 29.7666 185.659 25.8971 178.498 23.2356C171.337 20.574 154.209 17.4285 138.386 16.8491C138.386 16.8491 134.564 18.1544 132.531 18.1067C132.531 18.1067 109.79 4.36569 104.226 4.02616C104.226 4.02616 105.774 2.96277 105.387 2.47873C105 1.99393 91.79 -0.280443 75.097 0.783719C58.4039 1.84941 48.9194 4.31594 48.9194 4.31594C48.9194 4.31594 51.3873 5.52671 51.0485 5.71964C50.7105 5.91391 25.3075 14.3328 25.3075 14.3328C25.3075 14.3328 21.5811 15.1064 19.5488 14.2352C19.5488 14.2352 15.0493 15.4459 13.7909 15.5413C12.533 15.6381 6.14575 15.3962 6.0489 16.1721C5.95207 16.9459 6.14577 18.3496 5.80775 18.6392C5.46803 18.929 3.72633 21.6382 4.25879 22.5586L5.32352 20.5264C5.32352 20.5264 14.2265 20.9612 14.3716 22.0746C14.5168 23.1879 13.5979 26.0914 13.1139 26.6231C12.6299 27.1548 4.40387 26.8152 4.40387 26.8152C4.40387 26.8152 3.82298 30.7354 3.04936 31.2671C2.27478 31.8009 -0.0470428 32.236 0.00062561 33.6389C0.0490417 35.0418 -0.14389 40.849 2.17793 41.2356C2.17793 41.2356 4.88791 40.8966 6.67822 43.0257C8.46854 45.1555 10.5008 48.1545 14.1781 49.025C17.8554 49.8962 24.3394 50.3313 24.3394 50.3313C24.3394 50.3313 22.6944 29.3226 40.1135 28.8385C57.5326 28.356 56.8065 50.1688 56.8065 50.1688H140.669C140.669 50.1688 136.258 28.4111 155.951 27.6375C175.645 26.8629 170.931 51.7291 170.931 51.7291Z" fill="#D8DDE3"/>
<path d="M61.2452 5.52667C67.6174 3.99792 88.5172 2.21354 98.5208 4.31594C108.525 6.41891 118.784 10.1782 128.341 18.1434L126.487 18.1067C124.242 16.2869 118.557 12.1359 109.735 8.71252C98.0747 4.18859 90.3649 3.80731 81.2528 4.31594C72.1415 4.82667 63.3481 5.08059 57.6133 7.88512C51.8784 10.6889 45.5708 14.895 46.0169 15.3411C46.4077 15.7319 72.0096 16.8601 78.2397 17.1291L46.5902 16.4886C46.5902 16.4886 44.6145 16.4238 44.6145 15.5943C44.6145 14.7669 54.8735 7.05562 61.2452 5.52667Z" fill="white"/>
<path d="M57.6131 7.88486C63.348 5.08033 72.1414 4.82641 81.2527 4.31568C90.3648 3.80705 98.0745 4.18833 109.735 8.71226C118.557 12.1356 124.242 16.2866 126.487 18.1065L78.2396 17.1289C72.0094 16.8599 46.4076 15.7317 46.0168 15.3409C45.5707 14.8948 51.8783 10.6886 57.6131 7.88486Z" fill="#100F0D"/>
<path d="M116.936 16.4883C116.936 16.4883 105.402 8.6489 96.4186 7.12014C87.4338 5.5912 76.9834 6.41859 76.9834 6.41859C76.9834 6.41859 79.0864 16.8047 79.9786 17.2508C80.8708 17.6969 118.832 17.9501 118.832 17.9501L116.936 16.4883Z" fill="#738A9E"/>
<path d="M71.3765 6.80263L72.7148 16.1685L52.3883 15.4671C52.3883 15.4671 50.2853 15.5319 50.2853 14.767C50.2853 14.0029 59.6521 6.1636 71.3765 6.80263Z" fill="#738A9E"/>
<path d="M113.41 15.8495C113.357 15.518 113.366 15.1561 113.467 14.7666C113.952 12.8773 115.104 11.0245 117.856 11.9777C120.609 12.9309 121.004 14.4233 121.364 15.8821C121.364 15.8821 122.857 15.4682 122.984 16.1339C123.059 16.5324 122.797 17.0923 122.413 17.5041C119.583 17.9584 115.724 16.74 113.41 15.8495Z" fill="#D8DDE3"/>
<path d="M122.413 17.5042C122.157 17.7812 121.847 17.9905 121.544 18.0405C120.789 18.1663 119.439 18.4366 118.954 18.2214C118.468 18.0038 116.111 18.2862 115.355 18.0822C114.757 17.9205 113.615 17.1178 113.41 15.8496C115.724 16.7401 119.583 17.9585 122.413 17.5042Z" fill="#C6CBD0"/>
<path d="M182.641 26.8725C182.641 26.8725 184.73 27.5605 185.703 30.6705C186.676 33.7795 185.49 33.0438 185.038 32.9008C184.588 32.7578 178.085 32.0944 177.088 31.9758C176.092 31.8561 176.21 31.0018 175.926 30.5521C175.64 30.1 172.935 27.0631 173.671 26.2798C174.407 25.4963 181.431 26.3028 182.641 26.8725Z" fill="#738A9E"/>
<path d="M187.198 39.3557C187.198 39.3557 187.104 44.0326 186.7 44.7206C186.297 45.4073 185.3 46.0968 183.781 46.286C182.262 46.4766 179.39 46.7126 179.153 44.7437C178.916 42.774 178.512 39.0721 178.512 39.0721C178.512 39.0721 187.317 38.9291 187.198 39.3557Z" fill="#12100F"/>
<path d="M83.0804 3.88148C87.9133 3.88148 93.9744 3.96347 97.7232 4.32169C102.544 4.78114 108.721 6.9527 115.115 10.4355C117.807 11.9019 127.214 17.6382 127.308 17.6948C127.345 17.7143 130.278 19.2586 131.146 22.9128C132.022 26.6073 131.659 39.6209 131.655 39.7526C131.657 39.8077 131.797 44.5411 130.382 46.5086C116.527 46.3692 92.9251 46.1406 91.0389 46.1786C88.2864 46.2344 84.3693 45.7445 82.2089 44.7057C80.1067 43.6928 79.2132 42.2616 77.5927 38.4711C76.299 35.4462 75.8844 27.9328 75.6848 24.3219C75.6392 23.5057 75.6066 22.9167 75.5767 22.6084C75.4411 21.2045 76.1561 20.2841 76.7869 19.4718C76.8858 19.3444 76.9819 19.2199 77.0706 19.1C77.7378 18.1931 77.6589 17.1631 77.6553 17.1193L77.6471 17.0239L77.5502 17.0224C77.3581 17.0165 58.3162 16.5727 54.2622 16.4297C53.0141 16.3834 51.7682 16.4005 50.5632 16.4162C47.8942 16.4482 45.5886 16.4787 44.888 15.7945C44.7814 15.6915 44.7404 15.5732 44.7621 15.4325C44.8954 14.571 47.2554 13.2096 48.1535 12.7576C48.2495 12.6987 57.0086 7.34733 59.5085 6.29499C62.0009 5.24436 75.4524 3.95753 75.5879 3.94399C75.6543 3.94266 78.9101 3.88148 83.0804 3.88148ZM140.344 46.8273L140.346 46.6098C140.212 46.6098 136.258 46.5681 130.642 46.5109C132.01 44.4249 131.878 39.947 131.871 39.7526C131.875 39.6268 132.239 26.5865 131.356 22.8639C130.464 19.1075 127.444 17.5213 127.414 17.5064C127.326 17.4529 117.915 11.7149 115.218 10.2449C108.799 6.75005 102.593 4.56969 97.7441 4.10643C90.7476 3.43918 75.7263 3.72515 75.5752 3.72877C75.0122 3.78253 61.9473 5.03276 59.4244 6.09615C56.9095 7.15441 48.1371 12.5155 48.0492 12.5692C47.9211 12.6338 44.7255 14.2522 44.5482 15.3997C44.5164 15.6113 44.5797 15.7966 44.7376 15.9485C45.5022 16.6939 47.7371 16.6657 50.5662 16.6314C51.7682 16.6158 53.011 16.6009 54.2548 16.6447C58.1553 16.7841 75.9246 17.1997 77.4429 17.2353C77.4444 17.5041 77.4013 18.2862 76.8971 18.9706C76.8092 19.0905 76.7139 19.2125 76.6163 19.3383C75.9938 20.1411 75.2177 21.1399 75.3622 22.6292C75.3914 22.9338 75.424 23.5214 75.4688 24.3331C75.6692 27.9574 76.0861 35.4952 77.3945 38.5575C79.0382 42.4001 79.9512 43.8567 82.1151 44.8999C84.306 45.9538 88.2649 46.4497 91.0425 46.3946C93.7094 46.3387 139.878 46.8214 140.344 46.8273Z" fill="#12100F"/>
<path d="M141.999 41.9584C141.999 49.4255 148.053 55.4783 155.52 55.4783C162.986 55.4783 169.039 49.4255 169.039 41.9584C169.039 34.4906 162.986 28.4377 155.52 28.4377C148.053 28.4377 141.999 34.4906 141.999 41.9584Z" fill="#242227"/>
<path d="M165.701 41.9587C165.701 47.5998 161.129 52.1706 155.487 52.1706C149.847 52.1706 145.275 47.5998 145.275 41.9587C145.275 36.3176 149.847 31.7458 155.487 31.7458C161.129 31.7458 165.701 36.3176 165.701 41.9587Z" fill="#C2BDBA"/>
<path d="M159.031 35.1103L156.669 37.7965C156.669 37.7965 156.26 38.4407 155.702 38.4407C155.143 38.4407 154.735 37.9907 154.735 37.9907L152.263 35.1103C152.263 35.1103 151.92 34.7022 152.263 34.4236C152.607 34.1438 153.813 33.7356 155.487 33.7356C157.162 33.7356 159.634 34.1876 159.031 35.1103Z" fill="#242227"/>
<path d="M159.032 48.8059L156.669 46.1198C156.669 46.1198 156.261 45.4756 155.702 45.4756C155.144 45.4756 154.735 45.9253 154.735 45.9253L152.264 48.8059C152.264 48.8059 151.92 49.2139 152.264 49.4924C152.608 49.7725 153.814 50.1807 155.488 50.1807C157.163 50.1807 159.634 49.7286 159.032 48.8059Z" fill="#242227"/>
<path d="M148.557 38.544L151.243 40.9076C151.243 40.9076 151.887 41.3158 151.887 41.8741C151.887 42.4327 151.436 42.8409 151.436 42.8409L148.557 45.3118C148.557 45.3118 148.148 45.6565 147.869 45.3118C147.59 44.9685 147.181 43.7613 147.181 42.0878C147.181 40.4138 147.632 37.9414 148.557 38.544Z" fill="#242227"/>
<path d="M162.251 38.544L159.565 40.9076C159.565 40.9076 158.92 41.3158 158.92 41.8741C158.92 42.4327 159.372 42.8409 159.372 42.8409L162.251 45.3118C162.251 45.3118 162.659 45.6565 162.939 45.3118C163.218 44.9685 163.627 43.7613 163.627 42.0878C163.627 40.4138 163.175 37.9414 162.251 38.544Z" fill="#242227"/>
<path d="M26.7138 43.5769C26.7138 51.0447 32.7667 57.0976 40.2345 57.0976C47.7008 57.0976 53.7537 51.0447 53.7537 43.5769C53.7537 36.109 47.7008 30.0562 40.2345 30.0562C32.7667 30.0562 26.7138 36.109 26.7138 43.5769Z" fill="#242227"/>
<path d="M50.4148 43.5767C50.4148 49.2178 45.8417 53.7909 40.2014 53.7909C34.561 53.7909 29.9885 49.2178 29.9885 43.5767C29.9885 37.9379 34.561 33.364 40.2014 33.364C45.8417 33.364 50.4148 37.9379 50.4148 43.5767Z" fill="#C2BDBA"/>
<path d="M43.7455 36.7287L41.3817 39.4156C41.3817 39.4156 40.9736 40.0613 40.4152 40.0613C39.8559 40.0613 39.4479 39.6098 39.4479 39.6098L36.977 36.7287C36.977 36.7287 36.6329 36.3213 36.977 36.0427C37.3201 35.7629 38.5267 35.3547 40.2015 35.3547C41.8763 35.3547 44.3472 35.8059 43.7455 36.7287Z" fill="#242227"/>
<path d="M43.7455 50.4251L41.3825 47.7382C41.3825 47.7382 40.9736 47.094 40.4152 47.094C39.8566 47.094 39.4479 47.546 39.4479 47.546L36.9777 50.4251C36.9777 50.4251 36.6328 50.8325 36.9777 51.1131C37.3209 51.3909 38.5272 51.799 40.2015 51.799C41.877 51.799 44.3472 51.3493 43.7455 50.4251Z" fill="#242227"/>
<path d="M33.2705 40.1624L35.9559 42.5259C35.9559 42.5259 36.6016 42.9341 36.6016 43.4927C36.6016 44.0534 36.1496 44.4592 36.1496 44.4592L33.2705 46.9324C33.2705 46.9324 32.8617 47.2748 32.5832 46.9324C32.3032 46.5868 31.8942 45.3819 31.8942 43.7064C31.8942 42.0322 32.3464 39.56 33.2705 40.1624Z" fill="#242227"/>
<path d="M46.9646 40.1624L44.2785 42.5259C44.2785 42.5259 43.6337 42.9341 43.6337 43.4927C43.6337 44.0511 44.0857 44.4592 44.0857 44.4592L46.9646 46.9324C46.9646 46.9324 47.3735 47.2748 47.6528 46.9324C47.9319 46.5868 48.3401 45.3819 48.3401 43.7064C48.3401 42.0322 47.8888 39.56 46.9646 40.1624Z" fill="#242227"/>
</svg>
