<svg width="81" height="81" viewBox="0 0 81 81" fill="none" xmlns="http://www.w3.org/2000/svg">
<rect x="0.300781" y="0.5" width="80" height="80" rx="40" fill="#D7FFF1"/>
<path d="M40.3379 61.2506C40.4997 61.2806 40.6657 61.2712 40.8555 61.2213C41.2287 61.1231 41.7061 60.8618 42.4443 60.404L45.9141 58.2545C46.8125 57.6941 47.474 57.2765 47.9609 56.9596C48.4476 56.643 48.7627 56.4264 48.9678 56.2692C49.1199 56.1526 49.217 56.0647 49.2793 55.9889L49.3301 55.9167L49.3311 55.9157L49.3955 55.7829C49.4523 55.6362 49.4889 55.433 49.5215 55.0338C49.5433 54.767 49.5635 54.4081 49.5859 53.9147L49.6631 51.9879L49.793 48.4743L50.0068 48.3151L50.0088 48.3141H50.0078C53.5346 45.6243 56.179 42.4813 58.0986 38.6706H58.0996C60.4055 34.1226 61.5892 28.3678 61.3447 23.0368L61.3164 22.5221C61.2766 21.8805 61.237 21.3817 61.1689 20.9938C61.101 20.6064 61.0022 20.3173 60.8369 20.1032C60.6693 19.8862 60.4417 19.7561 60.1377 19.6696C59.912 19.6054 59.6397 19.5636 59.3125 19.528L58.9658 19.4938C58.0917 19.4196 55.8969 19.3964 54.6113 19.442L54.1221 19.4655C48.9757 19.8025 43.8632 21.4104 39.8438 23.9577L39.458 24.2067C37.0309 25.7966 34.7827 27.8389 33.0977 29.9665V29.9655C32.8786 30.2404 32.6602 30.4966 32.4844 30.6852C32.3962 30.7797 32.3193 30.8566 32.2598 30.9098C32.2301 30.9364 32.2057 30.9557 32.1875 30.9684L32.1738 30.9801C32.1738 30.9801 32.1712 30.9805 32.166 30.9811C32.1612 30.9817 32.1545 30.9814 32.1465 30.9821C32.1301 30.9835 32.1083 30.9861 32.0811 30.9879C32.0264 30.9916 31.9514 30.9958 31.8584 31.0006C31.6724 31.0103 31.4152 31.0219 31.1055 31.0348L28.7666 31.1188C27.8754 31.1469 27.0284 31.184 26.3818 31.2204C26.0586 31.2386 25.7843 31.2568 25.5801 31.2731C25.4781 31.2813 25.3929 31.2892 25.3271 31.2965C25.2639 31.3036 25.2121 31.311 25.1816 31.319V31.32C25.0761 31.3466 24.9575 31.3998 24.8496 31.4635C24.7412 31.5276 24.6366 31.6058 24.5625 31.6852L24.5596 31.6872C24.521 31.7313 24.4178 31.8823 24.2705 32.1051C24.1204 32.3321 23.9196 32.6428 23.6816 33.0143C23.4436 33.386 23.1685 33.819 22.8711 34.2917L21.9248 35.8063C20.7678 37.6706 20.1708 38.64 19.8633 39.2008C19.7098 39.4808 19.6255 39.6649 19.5801 39.8112C19.5335 39.9615 19.5293 40.0695 19.5293 40.1911C19.5293 40.4598 19.5728 40.6877 19.6807 40.8932C19.7614 41.0471 19.8762 41.1837 20.0264 41.3141L20.1885 41.443C20.2204 41.4673 20.2633 41.4881 20.3115 41.5075C20.3622 41.5279 20.4252 41.5489 20.501 41.571C20.6527 41.615 20.8611 41.6657 21.1338 41.7233C21.6794 41.8385 22.4895 41.9865 23.6328 42.1833L25.876 42.5866C26.1664 42.6399 26.4034 42.6845 26.5693 42.7165C26.6471 42.7314 26.7087 42.7444 26.7529 42.7536C26.7478 42.7875 26.7405 42.832 26.7295 42.8844C26.7163 42.9474 26.6997 43.0209 26.6797 43.1012L26.6104 43.36C26.3843 44.1605 26.3648 44.7377 26.5615 45.1208L26.5625 45.1217L26.6113 45.1881C26.6323 45.2132 26.6599 45.2457 26.6943 45.2838C26.7635 45.3604 26.8612 45.4639 26.9824 45.5915C27.2249 45.8467 27.5657 46.1992 27.9805 46.6227C28.8105 47.4703 29.9364 48.605 31.1553 49.8239L32.8115 51.4762C33.2867 51.9497 33.6897 52.3497 34.0352 52.6862C34.7252 53.3582 35.1905 53.7827 35.543 54.0378C35.8975 54.2943 36.1504 54.3886 36.4141 54.3844C36.5423 54.3824 36.6683 54.3571 36.8027 54.3229C36.8701 54.3058 36.9417 54.286 37.0166 54.2653C37.092 54.2444 37.1725 54.2218 37.2598 54.1999H37.2607L37.584 54.1188C37.684 54.0951 37.7747 54.0748 37.8516 54.0592C37.9207 54.0452 37.9777 54.0361 38.0195 54.0299C38.0286 54.0724 38.0413 54.1311 38.0557 54.2047C38.0873 54.3672 38.1315 54.6002 38.1836 54.8864C38.2878 55.459 38.4261 56.2439 38.5713 57.1012L38.7686 58.2194C38.9457 59.2027 39.0672 59.8014 39.1904 60.1881C39.2733 60.4481 39.3597 60.6221 39.4707 60.7545C39.5818 60.887 39.7123 60.9712 39.8662 61.0612L39.9854 61.1256C40.1025 61.1845 40.2174 61.2283 40.3379 61.2506ZM36.5186 44.3102C34.7939 42.5856 33.2262 41.004 32.0898 39.8454C31.5216 39.266 31.0612 38.7921 30.7432 38.4596C30.5841 38.2934 30.4611 38.1628 30.3779 38.0719C30.3362 38.0264 30.3053 37.9914 30.2852 37.9674L30.2832 37.9665C30.2845 37.9625 30.2864 37.9584 30.2881 37.9538C30.2989 37.9235 30.3157 37.882 30.3379 37.8307C30.3821 37.7285 30.4458 37.5902 30.5254 37.4254C30.6844 37.0961 30.903 36.6638 31.1406 36.2067C31.6161 35.292 32.165 34.2829 32.4629 33.8034H32.4639C33.7156 31.8044 35.622 29.5144 37.2363 28.068L37.667 27.692C42.1448 23.8591 47.4728 21.7447 54.1846 21.1559L54.5898 21.1403C55.1407 21.1301 56.0806 21.135 56.9912 21.1491C57.5967 21.1584 58.1873 21.1724 58.6367 21.1881C58.8611 21.196 59.0497 21.2038 59.1875 21.2126C59.2566 21.2169 59.3123 21.2219 59.3525 21.2262C59.3725 21.2284 59.3877 21.2303 59.3984 21.2321C59.4011 21.2325 59.4036 21.2327 59.4053 21.2331L59.4082 21.234L59.4463 21.2682C59.4623 21.2905 59.4811 21.3266 59.5 21.3854C59.5367 21.4996 59.5672 21.6754 59.5898 21.9352C59.6351 22.4538 59.6492 23.2819 59.6445 24.5622L59.6299 25.4772C59.5843 27.2376 59.4393 28.6097 59.1309 30.2379L58.9619 31.0758C57.2244 39.2293 52.4118 45.549 44.9688 49.4782L44.2412 49.8512C43.7231 50.1056 43.1656 50.3745 43.002 50.4381V50.4391L42.7432 50.5368L36.5186 44.3102ZM27.1963 41.0563C27.1915 41.056 27.1854 41.0551 27.1777 41.0544C27.1618 41.0527 27.1402 41.0499 27.1143 41.0465C27.0624 41.0398 26.9927 41.0301 26.9072 41.0172C26.7361 40.9916 26.5036 40.9543 26.2305 40.9098C25.6843 40.8208 24.9756 40.7016 24.2686 40.5797C23.5617 40.4579 22.8566 40.3334 22.3164 40.235C22.0462 40.1858 21.8171 40.1437 21.6504 40.111C21.5674 40.0947 21.5003 40.0807 21.4512 40.07C21.4361 40.0667 21.4224 40.0638 21.4111 40.0612C21.4139 40.0497 21.4159 40.034 21.4229 40.0143C21.4569 39.9178 21.536 39.7565 21.6826 39.4938C21.9743 38.971 22.5218 38.0685 23.4736 36.5211L25.0498 33.9655C25.252 33.6367 25.416 33.3697 25.5293 33.1842C25.5858 33.0917 25.6292 33.019 25.6592 32.9694C25.6669 32.9566 25.6738 32.945 25.6797 32.9352C25.7091 32.9331 25.7514 32.9303 25.8047 32.9274C25.9179 32.9212 26.0804 32.9139 26.2783 32.9049C26.6746 32.8871 27.2124 32.8647 27.7793 32.8424C28.9136 32.7979 30.1641 32.7532 30.6367 32.7438H30.6377L31.1289 32.7311L31.0674 32.8229C29.9177 34.5568 28.1801 38.2781 27.4092 40.6286L27.4082 40.6315C27.3626 40.7864 27.3137 40.9013 27.2686 40.9753C27.2459 41.0123 27.2264 41.035 27.2119 41.0475C27.197 41.0603 27.195 41.0563 27.2041 41.0563H27.1963ZM35.1387 51.4059C34.3804 50.6851 32.4772 48.8118 30.9023 47.237L30.9033 47.236L28.0918 44.4167L28.248 43.7868L28.3691 43.3493C28.5223 42.8265 28.7594 42.08 28.9854 41.3961C29.1358 40.9408 29.2813 40.5148 29.3936 40.2028C29.4497 40.0466 29.4967 39.9196 29.5322 39.8327C29.5343 39.8277 29.5361 39.8227 29.5381 39.818C29.5478 39.8272 29.5591 39.8366 29.5703 39.8473C29.6511 39.9247 29.7692 40.0388 29.9199 40.1862C30.2215 40.4811 30.6536 40.9086 31.1855 41.4352C32.2495 42.4886 33.7103 43.9414 35.3086 45.5397L37.5566 47.7936C38.248 48.4892 38.87 49.1189 39.3926 49.6491C39.9151 50.1793 40.3377 50.6104 40.6279 50.9108C40.7731 51.061 40.8852 51.1782 40.96 51.2585C40.9671 51.2661 40.9731 51.274 40.9795 51.2809C40.9733 51.2833 40.9667 51.2862 40.96 51.2887C40.8756 51.3205 40.7579 51.3625 40.6152 51.4118C40.3297 51.5104 39.9464 51.6382 39.5371 51.7711C38.7186 52.037 37.798 52.3248 37.3408 52.4508V52.4499L36.4756 52.6803L35.1387 51.4059ZM40.7158 59.2731C40.6806 59.1071 40.6334 58.8701 40.5791 58.5856C40.4705 58.0168 40.332 57.2592 40.1973 56.5006C40.0626 55.7422 39.9314 54.9831 39.8369 54.4108C39.7896 54.1245 39.7523 53.8852 39.7275 53.7165C39.7152 53.6321 39.7062 53.5662 39.7012 53.5211L39.7002 53.5192C39.7085 53.5158 39.7175 53.5115 39.7275 53.5075C39.7816 53.4857 39.8589 53.4565 39.9531 53.4215C40.1419 53.3516 40.3995 53.2601 40.6797 53.1667H40.6807L41.54 52.8503C43.5796 52.0693 45.814 51.0022 47.3379 50.0631L47.8887 49.7399C47.9502 49.7056 48.0039 49.6774 48.0469 49.6549C48.0502 49.6978 48.0551 49.7512 48.0566 49.8141C48.0612 50.0006 48.0567 50.2603 48.0381 50.5436V50.5456C48.0099 51.1276 47.9632 52.3939 47.9258 53.3493V53.3503L47.8701 55.0407L44.2979 57.2526C43.3044 57.8664 42.3955 58.4239 41.7314 58.8268C41.3994 59.0283 41.1286 59.1908 40.9395 59.3024C40.8602 59.3491 40.7957 59.3871 40.7471 59.4147C40.7382 59.3765 40.7277 59.3291 40.7158 59.2731ZM38.0049 53.9626V53.9616L38.0059 53.9635V53.9645L38.0049 53.9626Z" fill="#003A2F" stroke="black" stroke-width="0.2"/>
<path d="M48.7139 38.1021C50.2159 38.0491 51.4018 37.5275 52.4746 36.4546L52.6367 36.2867C54.2195 34.5862 54.5917 32.3417 53.6602 30.1822L53.5625 29.9663C53.1023 28.9982 52.0356 27.932 51.0322 27.4351H51.0312C49.9601 26.9174 48.8946 26.7335 47.7598 26.8775L47.5312 26.9107C45.4482 27.2625 43.6471 28.9213 43.0596 30.9937L43.0068 31.1949C42.796 32.0668 42.8529 33.3149 43.1494 34.1949L43.2666 34.523C43.5416 35.2495 43.8359 35.7263 44.3701 36.3023L44.5674 36.5064C45.5803 37.5013 46.9941 38.097 48.4092 38.106L48.7139 38.1021ZM49.0967 36.3794C47.0161 36.7168 44.9753 35.2191 44.6182 33.0777V33.0767C44.1709 30.4189 46.6579 28.0495 49.2988 28.607L49.5938 28.6822C51.0473 29.1093 52.142 30.3458 52.4082 31.8824L52.4365 32.0777C52.6689 34.0903 51.1809 36.0423 49.0977 36.3794H49.0967Z" fill="#003A2F" stroke="black" stroke-width="0.2"/>
<path d="M19.3887 52.8379C19.3889 53.4259 19.9851 53.8271 20.5166 53.6377L20.6221 53.5918L20.625 53.5908L20.5781 53.5068L20.625 53.5898C20.6528 53.5741 20.6929 53.5436 20.7373 53.5068C20.7842 53.4679 20.8436 53.4167 20.9131 53.3545C21.0524 53.2297 21.2352 53.0593 21.4492 52.8564C21.8777 52.4502 22.4317 51.91 23.0088 51.333H23.0098L24.1182 50.2041C24.4013 49.9112 24.6054 49.6934 24.751 49.5254C25.0392 49.1925 25.119 49.034 25.1191 48.8535C25.1191 48.6382 25.0859 48.4598 25 48.3183C24.9344 48.2104 24.8421 48.1306 24.7266 48.0713L24.6025 48.0185C24.3889 47.9438 24.2036 47.9557 23.9863 48.0488H23.9854C23.9528 48.0631 23.9095 48.0948 23.8652 48.1299C23.8173 48.1678 23.7572 48.2191 23.6865 48.2812C23.5448 48.4058 23.3583 48.5782 23.1406 48.7841C22.9228 48.9902 22.6728 49.2309 22.4043 49.4941L21.5547 50.3388C20.6369 51.2613 20.1001 51.8097 19.793 52.1582C19.6398 52.332 19.5402 52.4607 19.4785 52.5634C19.4158 52.668 19.3887 52.7531 19.3887 52.8379Z" fill="#003A2F" stroke="black" stroke-width="0.2"/>
<path d="M20.0889 61.5996C20.1867 61.5996 20.2914 61.5496 20.4385 61.4414C20.5888 61.3308 20.8011 61.1458 21.1191 60.8476C21.7569 60.2499 22.8316 59.1842 24.7061 57.3144L27.0977 54.9209C27.6899 54.3229 28.0963 53.9041 28.375 53.6025C28.6527 53.302 28.8084 53.1121 28.8945 52.9736C28.9383 52.9032 28.9664 52.8432 28.9824 52.7861C28.9986 52.7285 29.001 52.678 29.001 52.6309C29.0009 52.3921 28.92 52.1902 28.7637 52.0488C28.6083 51.9085 28.3895 51.8379 28.1328 51.8379C28.0327 51.8379 27.9395 51.8569 27.7979 51.9463C27.6625 52.0317 27.4775 52.1846 27.1875 52.4512C26.6056 52.9861 25.582 54.0006 23.6562 55.917H23.6553C22.5395 57.0328 21.5038 58.0835 20.7324 58.876C20.3467 59.2722 20.0263 59.604 19.7959 59.8476C19.6808 59.9693 19.5876 60.0695 19.5195 60.1445C19.4542 60.2166 19.4059 60.2721 19.3867 60.3008L19.3848 60.3037C19.027 60.8827 19.4069 61.5996 20.0889 61.5996Z" fill="#003A2F" stroke="black" stroke-width="0.2"/>
<path d="M28.0127 61.3739L28.0752 61.3622L28.0811 61.3602L28.1377 61.3299C28.1549 61.3183 28.1758 61.3037 28.1982 61.286C28.2433 61.2506 28.3017 61.201 28.3711 61.1405C28.5102 61.0193 28.6968 60.8489 28.918 60.6424C29.1392 60.4359 29.3954 60.1926 29.6729 59.9247L30.5576 59.0585L31.7324 57.8739C32.0332 57.5656 32.2507 57.3352 32.4072 57.1581C32.7144 56.8104 32.8084 56.6448 32.8086 56.4754C32.8086 56.0402 32.5187 55.7115 32.0908 55.6278L32.0918 55.6268C32.0091 55.6093 31.9248 55.596 31.8145 55.6366C31.7127 55.6741 31.5948 55.7554 31.4277 55.8983C31.2594 56.0423 31.0306 56.2587 30.7041 56.578L29.3945 57.8758C28.2212 59.0445 27.6099 59.6609 27.3174 60.0477C27.1705 60.2419 27.0934 60.3911 27.0732 60.5331C27.053 60.6767 27.0926 60.7987 27.1396 60.9256L27.1406 60.9266L27.1689 60.9823C27.2018 61.0362 27.2481 61.0852 27.2988 61.1268C27.3679 61.1836 27.4523 61.2339 27.54 61.2743C27.6278 61.3147 27.7221 61.3462 27.8125 61.3631C27.8793 61.3757 27.9483 61.3812 28.0127 61.3739Z" fill="#003A2F" stroke="black" stroke-width="0.2"/>
</svg>
