<svg width="81" height="81" viewBox="0 0 81 81" fill="none" xmlns="http://www.w3.org/2000/svg">
<rect width="80" height="80" rx="40" transform="matrix(-1 0 0 1 80.7031 0.5)" fill="#D7FFF1"/>
<g clip-path="url(#clip0_1504_59675)">
<path d="M41.1512 30.0553C43.5734 30.3348 45.7369 30.8006 47.7244 31.4631C49.7119 32.1256 51.2025 32.8088 54.2459 34.4444L55.6433 35.1897L57.0408 35.3139C59.7943 35.5416 62.258 36.2248 64.701 37.4153C66.1605 38.1295 66.9472 38.8127 67.4027 39.7237C67.6512 40.2412 67.6512 40.2723 67.6822 43.678C67.7133 47.0215 67.7029 47.125 67.4959 47.3321C67.3096 47.5184 67.1646 47.5391 65.6429 47.5391H63.9867L63.6555 48.2119C63.2828 48.978 62.5375 49.7854 61.7611 50.2719C59.1318 51.9281 55.7469 51.0172 54.2976 48.2533L53.925 47.5391H42.1863H30.4373L30.1164 48.1809C29.2262 49.951 27.3111 51.1104 25.3133 51.0793C23.3154 51.0586 21.5764 49.9717 20.6861 48.1809C20.417 47.6322 20.3238 47.5391 20.0961 47.5391C19.7752 47.5391 16.9699 46.4315 16.3074 46.0485C16.059 45.9035 15.6967 45.5619 15.5 45.2928C14.8168 44.3508 14.8064 44.2576 14.8064 39.7961C14.8168 35.5934 14.8168 35.5934 15.2826 35.3449C15.3965 35.2828 16.856 35.0447 18.533 34.7963L21.566 34.3615L22.4355 33.8647C25.5514 32.0635 29.2986 30.7799 33.1494 30.1899C34.4226 30.0035 39.8779 29.9 41.1512 30.0553ZM39.5467 33.461V35.2207L45.7265 35.2104H51.9168L50.8816 34.6824C47.7244 33.0779 44.2773 32.1256 40.2713 31.7633C40.0746 31.7529 39.8262 31.7219 39.7226 31.7219C39.557 31.7012 39.5467 31.8461 39.5467 33.461ZM33.3357 31.96C31.3172 32.2705 28.6258 32.9537 27.2801 33.5231L26.8867 33.6887L27.6527 34.4547L28.4084 35.2207H33.0976H37.7869V33.4403V31.6701L36.0996 31.7322C35.1783 31.7737 33.9361 31.8772 33.3357 31.96ZM24.2988 34.8688C23.8951 35.0758 23.243 35.4278 22.8599 35.6555C22.1767 36.0592 22.1146 36.0695 19.7027 36.4215C18.3467 36.6078 17.0838 36.7942 16.8974 36.8252C16.5765 36.8873 16.5662 36.8977 16.5662 37.3946V37.9121H17.9119H19.268L19.2369 38.761L19.2058 39.6201L17.8808 39.6512L16.5662 39.6822V41.649C16.5662 43.7504 16.6076 43.9367 17.1045 44.4026C17.3115 44.5992 19.7545 45.6758 19.9926 45.6758C20.034 45.6758 20.0961 45.4274 20.1375 45.1272C20.3652 43.4399 21.4728 41.8871 22.9842 41.1211C25.0752 40.0653 27.4664 40.4483 29.1226 42.1045C29.9922 42.974 30.6443 44.3715 30.6443 45.386V45.7793H34.2156H37.7869V41.3799V36.9805H32.7457H27.7148L26.4623 35.7383C25.7687 35.0551 25.1787 34.4961 25.1269 34.4961C25.0855 34.4961 24.7129 34.6617 24.2988 34.8688ZM39.5467 41.3799V45.7793H46.5857H53.6144L53.6765 45.386C53.7076 45.1789 53.8008 44.7338 53.8939 44.4026C54.3701 42.5082 56.1506 40.9244 58.1691 40.5932C60.964 40.1274 63.7279 42.1666 64.1937 45.0237L64.318 45.7793H65.1875H66.0674L66.026 43.3156L65.9949 40.8623L65.7051 40.3654C65.3531 39.7754 64.6803 39.3096 63.2517 38.6781C61.3781 37.8604 59.3906 37.3117 57.4549 37.0944C57.0305 37.0426 52.8277 37.0012 48.1074 36.9908L39.5467 36.9805V41.3799ZM57.8586 42.4772C57.6619 42.5289 57.2685 42.7153 56.9994 42.9016C54.7842 44.3612 55.0015 47.7047 57.4031 48.9676C57.8586 49.216 58.0346 49.2471 58.9558 49.2471C59.8771 49.2471 60.0531 49.216 60.5086 48.9676C62.6513 47.8393 63.1275 45.034 61.4609 43.3571C60.4879 42.3944 59.3078 42.0942 57.8586 42.4772ZM23.8537 42.6842C22.4252 43.3674 21.6385 44.9408 21.949 46.4625C22.1146 47.2699 22.3838 47.7772 22.9221 48.3051C23.6156 48.9676 24.2367 49.2367 25.2098 49.2781C26.3691 49.3299 27.0834 49.0608 27.8598 48.274C28.6361 47.477 28.9156 46.7627 28.8639 45.6758C28.7396 43.0983 26.1724 41.5662 23.8537 42.6842Z" fill="#003A2F"/>
<path d="M45.7346 38.761L45.7035 39.6201H43.9438H42.184L42.1529 38.761L42.1219 37.9121H43.9438H45.7656L45.7346 38.761Z" fill="#003A2F"/>
</g>
<defs>
<clipPath id="clip0_1504_59675">
<rect width="53" height="53" fill="white" transform="matrix(-1 0 0 1 67.7031 14)"/>
</clipPath>
</defs>
</svg>
