<svg width="81" height="81" viewBox="0 0 81 81" fill="none" xmlns="http://www.w3.org/2000/svg">
<rect x="0.109375" y="0.5" width="80" height="80" rx="40" fill="#D7FFF1"/>
<path d="M51.9628 55.768H56.2388C56.6149 55.7739 56.9869 55.6886 57.3229 55.5195C57.6589 55.3504 57.949 55.1024 58.1683 54.7968C58.3876 54.4912 58.5297 54.1371 58.5824 53.7646C58.6351 53.3921 58.5968 53.0125 58.4708 52.658C57.3805 50.3243 55.6544 48.3452 53.4904 46.9478C51.3265 45.5505 48.8125 44.7915 46.2368 44.758M46.2368 39.24C47.1993 39.2403 48.1524 39.0509 49.0417 38.6828C49.931 38.3146 50.7391 37.7749 51.4198 37.0944C52.1005 36.4139 52.6404 35.606 53.0088 34.7168C53.3772 33.8276 53.5668 32.8745 53.5668 31.912C53.5694 30.9478 53.3818 29.9926 53.0146 29.1011C52.6473 28.2096 52.1078 27.3993 51.4269 26.7167C50.7459 26.0341 49.937 25.4926 49.0464 25.1232C48.1557 24.7538 47.201 24.5637 46.2368 24.564M34.7868 39.47C36.9903 39.4647 39.1017 38.5855 40.6577 37.0254C42.2138 35.4652 43.0873 33.3515 43.0868 31.148C43.0868 28.9462 42.2121 26.8345 40.6552 25.2776C39.0983 23.7207 36.9866 22.846 34.7848 22.846C32.583 22.846 30.4713 23.7207 28.9144 25.2776C27.3575 26.8345 26.4828 28.9462 26.4828 31.148C26.4828 33.3515 27.3569 35.465 28.9133 37.0248C30.4697 38.5846 32.5813 39.4632 34.7848 39.468M44.1568 58.154C44.8613 58.1531 45.5517 57.9571 46.1517 57.5879C46.7517 57.2186 47.2377 56.6905 47.556 56.0621C47.8743 55.4336 48.0123 54.7293 47.955 54.0271C47.8976 53.325 47.6469 52.6525 47.2308 52.084C45.7731 50.149 43.8964 48.5688 41.7414 47.4618C39.5864 46.3549 37.2088 45.7498 34.7868 45.692C32.3646 45.7501 29.987 46.3554 27.832 47.4627C25.6769 48.57 23.8004 50.1506 22.3428 52.086C21.9281 52.6545 21.6786 53.3265 21.6218 54.0279C21.565 54.7293 21.7032 55.4327 22.021 56.0605C22.3389 56.6883 22.824 57.2161 23.4229 57.5855C24.0218 57.955 24.7111 58.1517 25.4148 58.154H44.1568Z" stroke="#003A2F" stroke-width="2.6" stroke-linecap="round" stroke-linejoin="round"/>
</svg>
