<svg width="6" height="10" viewBox="0 0 6 10" fill="none" xmlns="http://www.w3.org/2000/svg">
<path d="M2.12208 5.23871L5.45999 8.57663C5.57314 8.68978 5.62655 8.82179 5.62029 8.97266C5.61399 9.12352 5.55429 9.25553 5.44114 9.36868C5.32799 9.48183 5.19281 9.5384 5.03568 9.5384C4.87852 9.5384 4.74338 9.48183 4.63023 9.36868L0.896287 5.63474C0.833413 5.57187 0.789398 5.50903 0.764279 5.44616C0.739122 5.38328 0.726562 5.31415 0.726562 5.23871C0.726562 5.16328 0.739122 5.09415 0.764279 5.03127C0.789398 4.9684 0.833413 4.90556 0.896287 4.84269L4.64909 1.08989C4.76224 0.976741 4.89738 0.920166 5.05454 0.920166C5.21167 0.920166 5.34684 0.976741 5.45999 1.08989C5.57314 1.20304 5.62972 1.33818 5.62972 1.49534C5.62972 1.65251 5.57314 1.78765 5.45999 1.9008L2.12208 5.23871Z" fill="white"/>
</svg>
