<svg width="10" height="10" viewBox="0 0 10 10" fill="none" xmlns="http://www.w3.org/2000/svg">
<path d="M8.55236 5.23841L5.21444 8.57633C5.10129 8.68948 5.04472 8.82149 5.04472 8.97235C5.04472 9.12322 5.10129 9.25523 5.21444 9.36838C5.32759 9.48153 5.4596 9.5381 5.61047 9.5381C5.76133 9.5381 5.89334 9.48153 6.00649 9.36838L9.74043 5.63444C9.80331 5.57156 9.84728 5.50873 9.87244 5.44585C9.8976 5.38298 9.91016 5.31384 9.91016 5.23841C9.91016 5.16298 9.8976 5.09384 9.87244 5.03097C9.84728 4.9681 9.80331 4.90526 9.74043 4.84239L6.00649 1.10845C5.89334 0.995295 5.76133 0.938721 5.61047 0.938721C5.4596 0.938721 5.32759 0.995295 5.21444 1.10845C5.10129 1.22159 5.04472 1.3536 5.04472 1.50447C5.04472 1.65534 5.10129 1.78734 5.21444 1.90049L8.55236 5.23841ZM3.78121 5.23841L0.443295 8.57633C0.330145 8.68948 0.273569 8.82149 0.273569 8.97235C0.273569 9.12322 0.330145 9.25523 0.443295 9.36838C0.556444 9.48153 0.688452 9.5381 0.839318 9.5381C0.990185 9.5381 1.12219 9.48153 1.23534 9.36838L4.96928 5.63444C5.03216 5.57156 5.07614 5.50873 5.10129 5.44585C5.12645 5.38298 5.13901 5.31384 5.13901 5.23841C5.13901 5.16298 5.12645 5.09384 5.10129 5.03097C5.07614 4.9681 5.03216 4.90526 4.96928 4.84239L1.23534 1.10845C1.12219 0.995295 0.990185 0.938721 0.839318 0.938721C0.688452 0.938721 0.556444 0.995295 0.443295 1.10845C0.330145 1.22159 0.273569 1.3536 0.273569 1.50447C0.273569 1.65534 0.330145 1.78734 0.443295 1.90049L3.78121 5.23841Z" fill="white"/>
</svg>
