<svg width="281" height="267" viewBox="0 0 281 267" fill="none" xmlns="http://www.w3.org/2000/svg">
<path fill-rule="evenodd" clip-rule="evenodd" d="M104.955 234.623C80.1695 226.168 57.1547 214.749 41.2691 193.903C25.005 172.561 9.77327 145.767 17.6822 120.1C25.1868 95.7461 57.8868 93.6218 77.2624 77.0963C99.9738 57.7256 109.004 18.0841 138.798 16.8002C169.44 15.4797 188.381 48.237 208.468 71.4423C231.396 97.9292 262.078 122.845 260.933 157.894C259.709 195.347 236.252 232.44 202.666 248.961C171.941 264.076 137.346 245.673 104.955 234.623Z" fill="#D7FFF1"/>
<path d="M110.78 85.3795C92.3533 93.6107 84.7328 97.1421 84.308 97.62L83.6973 98.3104V130.545V162.779L84.2814 163.443C84.7062 163.894 93.2029 167.797 110.117 175.312C124.003 181.472 135.846 186.702 136.483 186.915C137.625 187.313 137.625 187.313 139.935 186.145C142.776 184.711 143.44 183.835 142.935 182.162C142.59 180.994 141.395 180.064 140.28 180.064C139.908 180.064 139.112 180.303 138.501 180.622L137.359 181.153L113.303 170.479L89.2732 159.805V131.846C89.2732 116.445 89.3529 103.86 89.4325 103.86C89.5387 103.86 100.239 108.586 113.25 114.374C132.314 122.845 137.067 124.862 137.731 124.756C138.182 124.677 148.936 120.003 161.628 114.348C174.346 108.692 184.94 103.993 185.206 103.939C185.631 103.807 185.657 104.524 185.657 116.233C185.657 127.624 185.71 128.739 186.135 129.244C187.304 130.704 189.029 130.81 190.331 129.509L191.233 128.606V113.631C191.233 99.4521 191.207 98.629 190.729 97.859C190.277 97.1421 187.383 95.7879 164.389 85.5388C150.157 79.2194 138.103 74.0152 137.598 73.9621C136.828 73.8825 132.181 75.8473 110.78 85.3795ZM154.113 87.424C153.901 87.6364 111.365 106.542 110.727 106.701C110.302 106.834 93.7871 99.638 93.7871 99.3459C93.7871 99.2663 103.611 94.8321 115.613 89.4951L137.439 79.8036L145.856 83.5209C150.502 85.5919 154.193 87.3444 154.113 87.424ZM171.372 94.8852C176.762 97.2749 181.144 99.2663 181.144 99.3459C181.144 99.4256 171.319 103.833 159.291 109.197L137.439 118.888L127.561 114.507C122.118 112.091 117.684 110.046 117.684 109.967C117.711 109.781 160.725 90.6368 161.229 90.6103C161.442 90.5837 166.009 92.522 171.372 94.8852Z" fill="black"/>
<path d="M165.345 130.704C151.697 132.323 141.129 143.528 140.333 157.256C139.775 167.133 144.581 176.825 152.786 182.268C171.664 194.827 196.809 181.418 196.809 158.822C196.809 144.404 186.162 132.483 171.717 130.704C169.062 130.385 168.053 130.385 165.345 130.704ZM174.718 137.023C182.205 139.2 188.047 145.015 190.33 152.582C190.968 154.707 191.047 155.397 191.047 158.822C191.047 162.247 190.968 162.938 190.33 165.062C188.047 172.629 182.205 178.444 174.718 180.621C171.956 181.418 167.071 181.604 164.203 181.02C159.503 180.064 156.264 178.285 152.6 174.621C150.237 172.284 149.759 171.647 148.537 169.178C146.599 165.301 146.042 162.964 146.042 158.822C146.042 154.919 146.573 152.476 148.192 149.078C149.467 146.422 150.821 144.59 153.025 142.466C156.344 139.333 159.424 137.687 164.017 136.625C166.38 136.094 172.222 136.306 174.718 137.023Z" fill="#026442"/>
<path d="M159.158 147.697C158.202 147.989 157.246 149.263 157.246 150.272C157.246 151.308 157.724 151.945 161.176 155.423L164.521 158.822L161.043 162.327C159.131 164.265 157.485 166.15 157.379 166.469C156.768 168.514 158.786 170.691 160.751 170.107C161.096 170 162.981 168.301 164.946 166.363L168.557 162.805L171.85 166.15C175.302 169.629 176.417 170.399 177.718 170.107C178.86 169.841 179.815 168.567 179.815 167.266C179.815 166.204 179.656 166.018 176.178 162.486L172.54 158.822L176.178 155.158C179.656 151.653 179.815 151.414 179.815 150.405C179.815 148.361 177.851 146.98 176.045 147.75C175.567 147.962 173.682 149.662 171.85 151.494L168.557 154.839L164.92 151.255C162.955 149.29 161.202 147.67 161.043 147.67C160.884 147.67 160.592 147.617 160.379 147.564C160.193 147.511 159.636 147.564 159.158 147.697Z" fill="#026442"/>
</svg>
