<svg width="11" height="10" viewBox="0 0 11 10" fill="none" xmlns="http://www.w3.org/2000/svg">
<path d="M2.13514 5.23841L5.47306 8.57633C5.58621 8.68948 5.64278 8.82149 5.64278 8.97235C5.64278 9.12322 5.58621 9.25523 5.47306 9.36838C5.35991 9.48153 5.2279 9.5381 5.07703 9.5381C4.92617 9.5381 4.79416 9.48153 4.68101 9.36838L0.947068 5.63444C0.884195 5.57156 0.840217 5.50873 0.815061 5.44585C0.789904 5.38298 0.777344 5.31384 0.777344 5.23841C0.777344 5.16298 0.789904 5.09384 0.815061 5.03097C0.840217 4.9681 0.884195 4.90526 0.947068 4.84239L4.68101 1.10845C4.79416 0.995295 4.92617 0.938721 5.07703 0.938721C5.2279 0.938721 5.35991 0.995295 5.47306 1.10845C5.58621 1.22159 5.64278 1.3536 5.64278 1.50447C5.64278 1.65534 5.58621 1.78734 5.47306 1.90049L2.13514 5.23841ZM6.90629 5.23841L10.2442 8.57633C10.3574 8.68948 10.4139 8.82149 10.4139 8.97235C10.4139 9.12322 10.3574 9.25523 10.2442 9.36838C10.1311 9.48153 9.99905 9.5381 9.84818 9.5381C9.69732 9.5381 9.56531 9.48153 9.45216 9.36838L5.71822 5.63444C5.65534 5.57156 5.61136 5.50873 5.58621 5.44585C5.56105 5.38298 5.54849 5.31384 5.54849 5.23841C5.54849 5.16298 5.56105 5.09384 5.58621 5.03097C5.61136 4.9681 5.65534 4.90526 5.71822 4.84239L9.45216 1.10845C9.56531 0.995295 9.69732 0.938721 9.84818 0.938721C9.99905 0.938721 10.1311 0.995295 10.2442 1.10845C10.3574 1.22159 10.4139 1.3536 10.4139 1.50447C10.4139 1.65534 10.3574 1.78734 10.2442 1.90049L6.90629 5.23841Z" fill="white"/>
</svg>
