<svg width="177" height="63" viewBox="0 0 177 63" fill="none" xmlns="http://www.w3.org/2000/svg">
<path d="M98.0449 3.97998C98.0449 3.97998 107.252 6.52028 126.651 19.7889L127.637 25.0171L109.033 23.1974C109.033 23.1974 95.2414 8.53428 95.2414 8.30727C95.2414 8.08027 98.0449 3.97998 98.0449 3.97998Z" fill="#C8DAE5"/>
<path d="M131.387 20.3572L128.621 19.7889C128.621 19.7889 127.068 18.0451 126.348 18.1977C125.628 18.3488 124.756 18.463 125.174 18.917C125.59 19.3711 126.007 21.5318 127.447 22.1752C128.887 22.8194 132.335 22.2895 131.387 20.3572Z" fill="#121111"/>
<path d="M161.122 50.798L157.696 54.8563C157.696 54.8563 156.549 55.1529 155.254 53.8575C153.959 52.563 133.162 55.3267 133.162 55.3267C133.162 55.3267 128.847 55.336 126.258 55.3218C123.669 55.3055 59.0364 52.4593 59.0364 52.4593L49.0169 54.8563C49.0169 54.8563 45.4259 54.0833 43.6879 54.3755C41.9507 54.6677 22.4471 53.7711 22.4471 53.7711C22.4471 53.7711 16.8379 54.7734 15.9753 53.0645C15.1119 51.3555 8.64442 29.1777 25.9445 28.833C43.2446 28.4874 121.926 41.7759 121.926 41.7759L142.568 29.6083L160.518 35.1814L161.122 50.798Z" fill="#121111"/>
<path d="M0.0268707 33.959C-0.276047 32.3302 2.07356 31.5329 2.07356 31.5329C2.07356 31.5329 1.80824 30.5107 2.07356 28.9578C2.33817 27.4034 2.98213 22.5164 3.70219 21.1524C4.42226 19.7889 4.96291 19.6341 4.96291 19.6341L5.104 20.4699C6.51997 19.7506 12.2491 18.9553 13.348 18.7666C14.4467 18.5757 15.9408 17.4385 19.35 13.8391C22.7602 10.2397 24.2002 6.26272 24.2002 6.26272L21.9267 4.51913C21.4343 3.45856 27.4209 3.07899 27.4209 3.07899C29.5043 2.85198 55.8747 0.616624 71.2955 0.502576C86.7165 0.389617 98.6896 4.02753 99.3338 4.44323C99.9772 4.8611 99.5984 6.11017 99.5984 6.11017C102.857 6.67842 123.545 20.9254 124.832 21.2652C126.121 21.6064 129.417 21.7588 130.743 21.1907C132.07 20.6224 129.152 19.9016 129.152 19.9016C129.152 19.9016 136.464 19.8272 154.878 24.2602C173.293 28.6924 175.263 33.4652 175.528 34.4896C175.793 35.5119 176.171 37.1031 176.171 37.1031C176.437 38.4664 176.285 42.8996 176.356 43.3919C176.426 43.8855 176.322 44.2636 176.322 44.2636C176.344 44.4432 176.353 44.6198 176.354 44.7901C175.783 44.8448 174.997 44.9063 174.414 44.9063C173.39 44.9063 170.832 45.3462 170.954 46.7841C171.076 48.2206 170.49 49.6593 172.562 50.073C174.367 50.4348 175.285 50.5185 175.894 49.8389C175.953 49.9168 176.008 50.0006 176.053 50.095C176.356 50.7397 175.478 51.0611 175.478 51.0611C172.523 53.0935 157.696 54.8563 157.696 54.8563C159.492 50.0296 159.539 33.8064 143.587 33.6944C127.637 33.5794 127.371 55.3267 127.371 55.3267L49.0171 54.8563C49.9647 51.9621 51.8964 34.4464 34.0515 34.484C16.2061 34.5223 17.5547 53.9356 17.5547 53.9356H17.3426C15.2966 53.9356 11.2424 52.7176 9.87822 52.4905C8.51401 52.2635 4.04343 49.7935 2.45221 48.884C0.86116 47.976 1.27759 42.7471 1.27759 42.066C1.27759 41.3836 2.07356 38.9971 1.92174 38.0507C1.76991 37.1031 0.330505 35.5885 0.0268707 33.959Z" fill="#39393A"/>
<path d="M172.562 50.0732C170.49 49.6595 171.076 48.2208 170.953 46.7843C170.832 45.3464 173.39 44.9065 174.414 44.9065C174.996 44.9065 175.783 44.8449 176.354 44.7903C176.358 46.6921 175.14 47.9555 175.07 48.5828C175.006 49.1637 175.545 49.3871 175.894 49.8391C175.284 50.5187 174.367 50.4349 172.562 50.0732Z" fill="#565759"/>
<path d="M22.5182 4.14746C22.5182 4.14746 21.879 4.48507 20.9014 5.08819C19.924 5.68894 6.6156 16.327 4.54785 20.3138C2.48063 24.2979 8.90909 21.8916 8.90909 21.8916L27.1045 10.952C27.1045 10.952 26.5404 5.38746 22.5182 4.14746Z" fill="#C8DAE5"/>
<path d="M121.926 23.6864C121.926 23.6864 108.889 11.5584 98.9344 7.71712C88.9795 3.87653 81.2484 3.52821 63.5624 3.98004C45.8765 4.43405 38.2965 6.20107 35.1128 8.82872C31.9298 11.4571 30.4138 13.095 30.6159 14.499C30.8182 15.9042 32.0816 19.2896 33.4458 19.491C34.8099 19.6945 69.7271 21.4632 70.4343 21.512C71.1424 21.5631 121.926 23.6864 121.926 23.6864Z" fill="#191817"/>
<path d="M110.456 16.0041L111.163 22.0681L72.1023 20.6528L67.2515 5.08924C67.2515 5.08924 87.9191 4.13019 94.9426 7.26288C101.966 10.3956 104.493 11.3058 110.456 16.0041Z" fill="#C8DAE5"/>
<path d="M59.9621 5.87601L62.9324 17.0044C62.9324 17.0044 63.458 18.5466 62.9324 18.8459C62.4052 19.1475 46.2028 18.47 46.2028 18.47C46.2028 18.47 34.624 18.2451 34.2097 17.869C33.796 17.4931 31.804 15.1671 32.8192 13.5105C33.8336 11.8541 36.5784 8.88321 42.2548 7.6808C47.9315 6.47694 58.6838 5.65046 59.9621 5.87601Z" fill="#C8DAE5"/>
<path d="M80.012 50.9812C80.6794 50.9812 81.1314 50.9598 81.2045 50.9563L122.857 50.5582L122.894 50.4257C125.445 41.1113 124.834 31.0776 124.153 27.073C123.54 23.4609 121.629 23.3955 121.548 23.3955C121.448 23.3899 121.366 23.4736 121.364 23.5749C121.363 23.675 121.443 23.7566 121.542 23.7587C121.614 23.7609 123.237 23.8461 123.795 27.1348C124.468 31.0918 125.073 40.9822 122.579 50.1965L81.1937 50.5931C81.11 50.5966 73.558 50.9563 72.4335 48.5806C71.253 46.0891 66.8938 27.9322 68.019 20.8509L68.0246 20.8169L68.0168 20.7822L64.1819 3.92907C64.1599 3.83118 64.0618 3.77162 63.9639 3.79287C63.8668 3.81484 63.805 3.91273 63.8277 4.00917L67.6551 20.8296C66.5405 27.9903 70.9181 46.2302 72.1051 48.7366C73.052 50.7364 77.7596 50.9812 80.012 50.9812Z" fill="#11100F"/>
<path d="M174.877 36.5001C174.877 36.5001 174.745 34.6118 172.538 33.3803C170.222 32.0891 168.98 31.9671 168.175 32.4538C167.371 32.9405 166.25 34.428 166.177 35.2814C166.104 36.1335 165.836 37.9134 167.761 37.9622C169.687 38.0113 174.56 38.9369 174.877 36.5001Z" fill="#C7E6D9"/>
<path d="M18.5037 25.1534C18.5037 25.1534 16.4126 22.6876 12.366 22.7215C8.31895 22.7564 4.07247 23.7936 4.13857 26.5133C4.2045 29.2339 10.0535 28.384 10.0535 28.384C10.0535 28.384 20.0169 27.5504 18.5037 25.1534Z" fill="#ED1D35"/>
<path d="M28.019 36.1298C28.1027 36.1298 28.1786 36.0716 28.1962 35.9843C28.2169 35.8864 28.1545 35.79 28.0559 35.7702L16.3231 33.2907C12.7278 32.897 3.20136 31.5933 2.09484 30.2837C2.02946 30.2078 1.91522 30.1964 1.83877 30.2617C1.76213 30.3269 1.75287 30.4419 1.81734 30.5178C3.24331 32.2069 15.735 33.5924 16.2664 33.6505L27.9814 36.1263L28.019 36.1298Z" fill="#11100F"/>
<path d="M113.971 21.349C113.971 21.349 115.32 19.1859 111.976 17.3862C108.632 15.5886 108.632 18.3411 108.604 18.9313C108.576 19.5215 108.435 21.6576 109.503 21.8555C110.571 22.052 113.708 22.279 113.971 21.349Z" fill="#39393A"/>
<path d="M132.28 30.725C132.28 30.725 131.974 31.4896 131.465 31.7436C130.956 31.9997 130.141 31.9494 129.122 31.8982C128.104 31.8457 126.321 31.718 126.601 30.9298C126.882 30.1404 131.593 30.2417 132.28 30.725Z" fill="#C7E6D9"/>
<path d="M20.9804 49.0995C20.9804 56.2532 26.7797 62.0518 33.9339 62.0518C41.0882 62.0518 46.8867 56.2532 46.8867 49.0995C46.8867 41.9447 41.0882 36.146 33.9339 36.146C26.7797 36.146 20.9804 41.9447 20.9804 49.0995Z" fill="#242227"/>
<path d="M43.688 49.0999C43.688 54.5027 39.3075 58.8846 33.9025 58.8846C28.4983 58.8846 24.1178 54.5027 24.1178 49.0999C24.1178 43.6957 28.4983 39.3152 33.9025 39.3152C39.3075 39.3152 43.688 43.6957 43.688 49.0999Z" fill="#C2BDBA"/>
<path d="M37.2984 42.5386L35.0341 45.1116C35.0341 45.1116 34.6424 45.7296 34.1076 45.7296C33.572 45.7296 33.1812 45.2975 33.1812 45.2975L30.8131 42.5386C30.8131 42.5386 30.484 42.1485 30.8131 41.8795C31.1431 41.6122 32.2979 41.2219 33.9025 41.2219C35.5072 41.2219 37.8752 41.654 37.2984 42.5386Z" fill="#242227"/>
<path d="M37.2986 55.6595L35.0351 53.0858C35.0351 53.0858 34.6426 52.4688 34.1085 52.4688C33.573 52.4688 33.1814 52.9008 33.1814 52.9008L30.814 55.6595C30.814 55.6595 30.4842 56.0498 30.814 56.3186C31.1433 56.5861 32.2988 56.9776 33.9028 56.9776C35.5082 56.9776 37.8754 56.5441 37.2986 55.6595Z" fill="#242227"/>
<path d="M27.2626 45.8273L29.8355 48.0915C29.8355 48.0915 30.4534 48.4839 30.4534 49.018C30.4534 49.5536 30.0206 49.9446 30.0206 49.9446L27.2626 52.3125C27.2626 52.3125 26.8708 52.6431 26.6042 52.3125C26.3353 51.9833 25.9445 50.827 25.9445 49.2231C25.9445 47.6177 26.3772 45.2519 27.2626 45.8273Z" fill="#242227"/>
<path d="M40.3824 45.8273L37.8094 48.0915C37.8094 48.0915 37.1916 48.4825 37.1916 49.018C37.1916 49.5536 37.6241 49.9446 37.6241 49.9446L40.3824 52.3125C40.3824 52.3125 40.7739 52.6431 41.0421 52.3125C41.3095 51.9833 41.7012 50.827 41.7012 49.2231C41.7012 47.6177 41.2684 45.2519 40.3824 45.8273Z" fill="#242227"/>
<path d="M130.854 49.0995C130.854 56.2532 136.652 62.0518 143.807 62.0518C150.961 62.0518 156.76 56.2532 156.76 49.0995C156.76 41.9447 150.961 36.146 143.807 36.146C136.652 36.146 130.854 41.9447 130.854 49.0995Z" fill="#242227"/>
<path d="M153.562 49.0999C153.562 54.5027 149.18 58.8846 143.775 58.8846C138.371 58.8846 133.991 54.5027 133.991 49.0999C133.991 43.6957 138.371 39.3152 143.775 39.3152C149.18 39.3152 153.562 43.6957 153.562 49.0999Z" fill="#C2BDBA"/>
<path d="M147.171 42.5386L144.907 45.1116C144.907 45.1116 144.516 45.7296 143.981 45.7296C143.445 45.7296 143.054 45.2975 143.054 45.2975L140.687 42.5386C140.687 42.5386 140.358 42.1485 140.687 41.8795C141.016 41.6122 142.171 41.2219 143.775 41.2219C145.381 41.2219 147.748 41.654 147.171 42.5386Z" fill="#242227"/>
<path d="M147.171 55.6595L144.907 53.0858C144.907 53.0858 144.516 52.4688 143.981 52.4688C143.446 52.4688 143.054 52.9008 143.054 52.9008L140.687 55.6595C140.687 55.6595 140.358 56.0498 140.687 56.3186C141.017 56.5861 142.171 56.9776 143.776 56.9776C145.381 56.9776 147.748 56.5441 147.171 55.6595Z" fill="#242227"/>
<path d="M137.135 45.8273L139.708 48.0915C139.708 48.0915 140.326 48.4839 140.326 49.018C140.326 49.5536 139.894 49.9446 139.894 49.9446L137.135 52.3125C137.135 52.3125 136.744 52.6431 136.477 52.3125C136.209 51.9833 135.818 50.827 135.818 49.2231C135.818 47.6177 136.25 45.2519 137.135 45.8273Z" fill="#242227"/>
<path d="M150.256 45.8273L147.682 48.0915C147.682 48.0915 147.065 48.4825 147.065 49.018C147.065 49.5536 147.497 49.9446 147.497 49.9446L150.256 52.3125C150.256 52.3125 150.647 52.6431 150.914 52.3125C151.182 51.9833 151.573 50.827 151.573 49.2231C151.573 47.6177 151.141 45.2519 150.256 45.8273Z" fill="#242227"/>
</svg>
