<svg width="24" height="25" viewBox="0 0 24 25" fill="none" xmlns="http://www.w3.org/2000/svg">
<path d="M23.933 7.19364C23.8754 5.91582 23.669 5.04152 23.3761 4.27771C23.0689 3.48988 22.6608 2.81734 21.9934 2.15441C21.3261 1.49148 20.6588 1.07355 19.8714 0.770905C19.1081 0.473067 18.2343 0.271305 16.9572 0.213659C15.6754 0.156013 15.2673 0.141602 12.0122 0.141602C8.7524 0.141602 8.34431 0.156013 7.06726 0.213659C5.7902 0.271305 4.91643 0.477871 4.15308 0.770905C3.36092 1.07835 2.68878 1.48668 2.02625 2.15441C1.36372 2.82215 0.946035 3.48988 0.643574 4.27771C0.350716 5.04152 0.144274 5.91582 0.0866628 7.19364C0.0290513 8.47627 0.0146484 8.8846 0.0146484 12.1416C0.0146484 15.4034 0.0290513 15.8117 0.0866628 17.0896C0.144274 18.3674 0.350716 19.2417 0.643574 20.0055C0.950836 20.7933 1.35892 21.4659 2.02625 22.1288C2.68878 22.7965 3.36092 23.2097 4.14827 23.5123C4.91163 23.8101 5.7854 24.0119 7.06246 24.0695C8.34431 24.1272 8.7524 24.1416 12.0074 24.1416C15.2673 24.1416 15.6754 24.1272 16.9524 24.0695C18.2295 24.0119 19.1033 23.8053 19.8666 23.5123C20.654 23.2049 21.3261 22.7965 21.9886 22.1288C22.6512 21.4611 23.0689 20.7933 23.3713 20.0055C23.669 19.2417 23.8706 18.3674 23.9282 17.0896C23.9858 15.8069 24.0002 15.3986 24.0002 12.1416C24.0002 8.8846 23.9906 8.47147 23.933 7.19364ZM21.7774 16.9935C21.7246 18.1656 21.5278 18.8045 21.3645 19.2225C21.1485 19.7797 20.8844 20.1832 20.4619 20.606C20.0395 21.0287 19.641 21.2833 19.0793 21.5091C18.6568 21.6724 18.0182 21.8694 16.8516 21.9222C15.589 21.9799 15.2097 21.9943 12.0026 21.9943C8.7956 21.9943 8.41633 21.9799 7.15368 21.9222C5.98224 21.8694 5.34371 21.6724 4.92603 21.5091C4.36912 21.2929 3.96584 21.0287 3.54335 20.606C3.12087 20.1832 2.86642 19.7845 2.64077 19.2225C2.47754 18.7997 2.2807 18.1608 2.22789 16.9935C2.17028 15.7301 2.15588 15.3506 2.15588 12.1416C2.15588 8.93264 2.17028 8.55313 2.22789 7.28972C2.2807 6.11758 2.47754 5.47867 2.64077 5.06074C2.85682 4.50349 3.12087 4.09997 3.54335 3.67723C3.96584 3.25449 4.36432 2.99989 4.92603 2.77411C5.34852 2.61078 5.98704 2.41382 7.15368 2.36098C8.41633 2.30333 8.7956 2.28892 12.0026 2.28892C15.2097 2.28892 15.589 2.30333 16.8516 2.36098C18.0231 2.41382 18.6616 2.61078 19.0793 2.77411C19.6362 2.99028 20.0395 3.25449 20.4619 3.67723C20.8844 4.09997 21.1389 4.49869 21.3645 5.06074C21.5278 5.48348 21.7246 6.12239 21.7774 7.28972C21.835 8.55313 21.8494 8.93264 21.8494 12.1416C21.8494 15.3506 21.8302 15.7301 21.7774 16.9935Z" fill="white"/>
<path d="M12.0028 5.97363C8.59413 5.97363 5.83838 8.73584 5.83838 12.1418C5.83838 15.5525 8.59893 18.3099 12.0028 18.3099C15.4067 18.3099 18.1672 15.5429 18.1672 12.1418C18.1672 8.73104 15.4115 5.97363 12.0028 5.97363ZM12.0028 16.1434C9.79437 16.1434 8.00361 14.3515 8.00361 12.1418C8.00361 9.932 9.79437 8.14017 12.0028 8.14017C14.2113 8.14017 16.002 9.932 16.002 12.1418C16.002 14.3515 14.2113 16.1434 12.0028 16.1434Z" fill="white"/>
<path d="M18.4071 7.1743C19.2025 7.1743 19.8474 6.52907 19.8474 5.73315C19.8474 4.93722 19.2025 4.29199 18.4071 4.29199C17.6116 4.29199 16.9668 4.93722 16.9668 5.73315C16.9668 6.52907 17.6116 7.1743 18.4071 7.1743Z" fill="white"/>
<path d="M0 12.1416C0 15.4034 0.0144029 15.8117 0.0720144 17.0896C0.129626 18.3674 0.336067 19.2417 0.628926 20.0055C0.936187 20.7933 1.34427 21.4659 2.0116 22.1288C2.67413 22.7917 3.34627 23.2097 4.13363 23.5123C4.89698 23.8101 5.77075 24.0119 7.04781 24.0695C8.32967 24.1272 8.73775 24.1416 11.9928 24.1416C15.2527 24.1416 15.6607 24.1272 16.9378 24.0695C18.2148 24.0119 19.0886 23.8053 19.852 23.5123C20.6393 23.2049 21.3115 22.7965 21.974 22.1288C22.6365 21.4659 23.0542 20.7933 23.3567 20.0055C23.6543 19.2417 23.856 18.3674 23.9136 17.0896C23.9712 15.8069 23.9856 15.3986 23.9856 12.1416C23.9856 8.87979 23.9712 8.47147 23.9136 7.19364C23.856 5.91582 23.6495 5.04152 23.3567 4.27771C23.0494 3.48988 22.6413 2.81734 21.974 2.15441C21.3163 1.48668 20.6441 1.07355 19.8568 0.770905C19.0934 0.473067 18.2196 0.271305 16.9426 0.213659C15.6607 0.156013 15.2527 0.141602 11.9976 0.141602C8.73775 0.141602 8.32967 0.156013 7.05261 0.213659C5.77555 0.271305 4.90178 0.477871 4.13843 0.770905C3.35107 1.07835 2.67894 1.48668 2.0164 2.15441C1.35387 2.82215 0.936187 3.48988 0.633727 4.27771C0.336067 5.04152 0.129626 5.91582 0.0720144 7.19364C0.0144029 8.47147 0 8.87979 0 12.1416ZM2.16523 12.1416C2.16523 8.93744 2.17964 8.55313 2.23725 7.28972C2.29006 6.11758 2.4869 5.47867 2.65013 5.06074C2.86617 4.50349 3.13023 4.09997 3.55271 3.67723C3.97519 3.25449 4.37367 2.99989 4.93539 2.77411C5.35787 2.61078 5.9964 2.41382 7.16303 2.36098C8.42568 2.30333 8.80496 2.28892 12.012 2.28892C15.219 2.28892 15.5983 2.30333 16.861 2.36098C18.0324 2.41382 18.6709 2.61078 19.0886 2.77411C19.6455 2.99028 20.0488 3.25449 20.4713 3.67723C20.8938 4.09997 21.1482 4.49869 21.3739 5.06074C21.5371 5.48348 21.7339 6.12239 21.7868 7.28972C21.8444 8.55313 21.8588 8.93264 21.8588 12.1416C21.8588 15.3506 21.8444 15.7301 21.7868 16.9935C21.7339 18.1656 21.5371 18.8045 21.3739 19.2225C21.1578 19.7797 20.8938 20.1832 20.4713 20.606C20.0488 21.0287 19.6503 21.2833 19.0886 21.5091C18.6661 21.6724 18.0276 21.8694 16.861 21.9222C15.5983 21.9799 15.219 21.9943 12.012 21.9943C8.80496 21.9943 8.42568 21.9799 7.16303 21.9222C5.9916 21.8694 5.35307 21.6724 4.93539 21.5091C4.37848 21.2929 3.97519 21.0287 3.55271 20.606C3.13023 20.1832 2.87578 19.7845 2.65013 19.2225C2.4869 18.7997 2.29006 18.1608 2.23725 16.9935C2.17483 15.7301 2.16523 15.3458 2.16523 12.1416Z" fill="white"/>
</svg>
