<svg width="78" height="74" viewBox="0 0 78 74" fill="none" xmlns="http://www.w3.org/2000/svg">
<path fill-rule="evenodd" clip-rule="evenodd" d="M45.1069 3.64665C53.2383 5.08111 60.9615 7.52468 66.92 13.2504C73.0204 19.1126 79.063 26.7232 77.8413 35.1027C76.6821 43.0539 66.5969 45.2986 61.3602 51.3853C55.2219 58.5198 54.3273 71.3077 45.1069 73.1499C35.6239 75.0446 28.137 65.7556 20.7554 59.4982C12.3298 52.3558 1.56427 46.0781 0.224519 35.1027C-1.20713 23.3746 4.3056 10.6825 13.9697 3.90941C22.811 -2.28706 34.4803 1.77199 45.1069 3.64665Z" fill="#D7FFF1"/>
<g clip-path="url(#clip0_1516_41033)">
<path d="M35.7083 32.8972C32.4374 32.8492 27.8939 32.9194 26.9585 35.4323L24.6602 40.8253C24.5582 40.7087 24.4245 40.6243 24.2754 40.5824L23.3501 40.322C23.2484 40.2932 23.1419 40.2847 23.0369 40.2971C22.9318 40.3095 22.8303 40.3425 22.7381 40.3943C22.6458 40.446 22.5647 40.5155 22.4994 40.5986C22.434 40.6818 22.3858 40.7771 22.3574 40.8789L21.8746 42.5931C21.8458 42.6948 21.8374 42.8012 21.8498 42.9062C21.8622 43.0112 21.8952 43.1128 21.947 43.205C21.9987 43.2972 22.0681 43.3783 22.1513 43.4436C22.2344 43.5089 22.3297 43.5571 22.4315 43.5856L23.3571 43.8462C23.388 43.8546 23.4189 43.8574 23.4498 43.8624C23.2729 44.3033 23.1628 44.7881 23.1628 45.0765V51.3446C23.1628 51.6658 23.2976 51.8147 23.5116 51.8843V53.5541C23.5113 53.7023 23.5403 53.8492 23.5969 53.9861C23.6535 54.1231 23.7366 54.2476 23.8414 54.3524C23.9462 54.4572 24.0707 54.5403 24.2077 54.5969C24.3446 54.6535 24.4915 54.6825 24.6397 54.6822H27.6662C27.8144 54.6825 27.9612 54.6535 28.0982 54.5969C28.2351 54.5403 28.3596 54.4572 28.4644 54.3524C28.5692 54.2476 28.6523 54.1231 28.7089 53.9861C28.7655 53.8492 28.7945 53.7023 28.7942 53.5541V51.9455H42.9769V53.5541C42.9767 53.7024 43.0057 53.8492 43.0623 53.9862C43.1189 54.1232 43.202 54.2477 43.3069 54.3525C43.4117 54.4573 43.5362 54.5404 43.6732 54.597C43.8102 54.6535 43.9571 54.6825 44.1053 54.6822H47.1312C47.2795 54.6826 47.4264 54.6536 47.5634 54.597C47.7005 54.5405 47.825 54.4574 47.9299 54.3526C48.0347 54.2478 48.1179 54.1233 48.1745 53.9863C48.2311 53.8492 48.2602 53.7024 48.2599 53.5541V51.8846C48.4742 51.815 48.6081 51.6661 48.6081 51.3448V45.0768C48.6081 44.7883 48.4978 44.3036 48.3211 43.8627C48.352 43.858 48.3829 43.8551 48.4138 43.8464L49.3397 43.5858C49.4415 43.5574 49.5367 43.5091 49.6198 43.4438C49.7029 43.3785 49.7723 43.2974 49.824 43.2052C49.8758 43.113 49.9088 43.0115 49.9212 42.9065C49.9335 42.8015 49.9251 42.6951 49.8963 42.5934L49.4141 40.8792C49.3857 40.7773 49.3374 40.682 49.2721 40.5988C49.2067 40.5156 49.1256 40.4462 49.0333 40.3944C48.941 40.3427 48.8395 40.3097 48.7344 40.2973C48.6293 40.2849 48.5229 40.2934 48.4211 40.3223L47.4958 40.5826C47.3467 40.6248 47.213 40.7092 47.1107 40.8256L44.8124 35.4325C43.8099 32.8815 38.9788 32.9455 35.708 32.8975M45.0756 41.1662C45.1301 41.328 44.9672 41.4358 44.7967 41.4456C44.7967 41.4456 44.2395 41.4928 43.4712 41.5549C42.8865 40.1889 41.5279 39.2262 39.9538 39.2262C38.2264 39.2262 36.76 40.3861 36.2896 41.9655C36.1593 41.9671 36.0079 41.9728 35.8869 41.9728C32.9109 41.9728 26.9736 41.4456 26.9736 41.4456C26.8035 41.4355 26.6403 41.3277 26.6948 41.1662C28.9813 34.1958 29.0495 34.7198 35.7588 34.7931C42.4678 34.8661 42.5068 34.3682 45.0756 41.1662ZM39.9538 40.5436C40.368 40.5423 40.7761 40.644 41.1411 40.8397C41.5062 41.0353 41.8169 41.3188 42.0452 41.6644C40.7014 41.7641 39.1549 41.866 37.7136 41.9253C37.9211 41.509 38.2407 41.159 38.6366 40.9148C39.0325 40.6707 39.4887 40.5421 39.9538 40.5436ZM24.4858 42.8054C24.506 42.8355 24.5257 42.8655 24.5481 42.8944H24.4611L24.4858 42.8054ZM25.9725 44.5561C26.5611 44.5465 29.721 45.61 29.721 45.61C30.1155 45.7213 30.4629 46.4671 30.461 46.8771C30.4551 48.258 26.8919 47.7786 25.4454 47.7842C25.3482 47.7844 25.2519 47.7654 25.162 47.7283C25.0722 47.6912 24.9906 47.6367 24.9218 47.568C24.8531 47.4993 24.7986 47.4177 24.7614 47.3278C24.7243 47.238 24.7052 47.1417 24.7054 47.0445V45.2964C24.7054 44.8863 25.3839 44.5662 25.9725 44.5561ZM45.7984 44.5561C46.387 44.5659 47.0655 44.8863 47.0655 45.2964V47.0445C47.0657 47.1417 47.0467 47.2381 47.0096 47.3279C46.9725 47.4178 46.918 47.4994 46.8492 47.5682C46.7805 47.6369 46.6988 47.6914 46.6089 47.7285C46.5191 47.7657 46.4228 47.7847 46.3255 47.7845C44.8793 47.7789 41.3158 48.258 41.3099 46.8771C41.308 46.4671 41.6554 45.7213 42.0499 45.61C42.0499 45.61 45.2098 44.5465 45.7984 44.5561Z" fill="#026442"/>
</g>
<g clip-path="url(#clip1_1516_41033)">
<circle cx="45.0752" cy="26.9824" r="10.341" fill="#D7FFF1" stroke="black" stroke-width="1.42635"/>
<path d="M40.339 27.1544L43.2725 30.0515L49.3166 24.1783" stroke="#026442" stroke-width="1.57368" stroke-linecap="round" stroke-linejoin="round"/>
</g>
<defs>
<clipPath id="clip0_1516_41033">
<rect width="28.0829" height="28.0829" fill="white" transform="translate(21.8442 29.7434)"/>
</clipPath>
<clipPath id="clip1_1516_41033">
<rect width="22.465" height="22.465" fill="white" transform="translate(34 15.8494)"/>
</clipPath>
</defs>
</svg>
