<svg width="78" height="74" viewBox="0 0 78 74" fill="none" xmlns="http://www.w3.org/2000/svg">
<path fill-rule="evenodd" clip-rule="evenodd" d="M32.8931 70.3536C24.7617 68.9191 17.0385 66.4756 11.08 60.7498C4.97964 54.8877 -1.063 47.277 0.158669 38.8975C1.31788 30.9464 11.4031 28.7016 16.6398 22.615C22.7781 15.4805 23.6727 2.69257 32.8931 0.850319C42.3761 -1.0444 49.863 8.24461 57.2446 14.5021C65.6702 21.6445 76.4357 27.9222 77.7755 38.8975C79.2071 50.6257 73.6944 63.3177 64.0303 70.0908C55.189 76.2873 43.5197 72.2283 32.8931 70.3536Z" fill="#D7FFF1"/>
<g clip-path="url(#clip0_1516_41075)">
<path d="M38.9705 33.9095C34.8449 33.8489 29.114 33.9374 27.9341 37.107L25.0352 43.9094C24.9066 43.7623 24.738 43.6558 24.5499 43.603L23.3828 43.2746C23.2544 43.2382 23.1202 43.2275 22.9877 43.2432C22.8552 43.2588 22.7271 43.3004 22.6108 43.3657C22.4945 43.431 22.3921 43.5186 22.3097 43.6235C22.2273 43.7284 22.1665 43.8485 22.1306 43.977L21.5217 46.1392C21.4854 46.2675 21.4747 46.4017 21.4904 46.5342C21.5061 46.6666 21.5477 46.7946 21.613 46.9109C21.6782 47.0272 21.7658 47.1295 21.8707 47.2119C21.9756 47.2943 22.0957 47.3551 22.2241 47.391L23.3916 47.7197C23.4306 47.7303 23.4696 47.7339 23.5085 47.7402C23.2854 48.2964 23.1465 48.9077 23.1465 49.2715V57.1777C23.1465 57.5829 23.3165 57.7706 23.5865 57.8585V59.9646C23.5861 60.1516 23.6227 60.3368 23.6941 60.5095C23.7655 60.6823 23.8703 60.8393 24.0025 60.9715C24.1347 61.1037 24.2917 61.2085 24.4645 61.2799C24.6372 61.3513 24.8224 61.3879 25.0094 61.3875H28.8268C29.0137 61.3879 29.1989 61.3513 29.3717 61.2799C29.5444 61.2085 29.7014 61.1037 29.8336 60.9715C29.9658 60.8393 30.0706 60.6823 30.142 60.5095C30.2134 60.3368 30.25 60.1516 30.2497 59.9646V57.9357H48.1387V59.9646C48.1384 60.1516 48.175 60.3368 48.2464 60.5096C48.3178 60.6824 48.4226 60.8394 48.5549 60.9716C48.6871 61.1038 48.8441 61.2086 49.0169 61.28C49.1898 61.3514 49.375 61.3879 49.562 61.3875H53.3787C53.5657 61.388 53.7509 61.3514 53.9238 61.2801C54.0966 61.2087 54.2537 61.104 54.386 60.9718C54.5182 60.8396 54.6231 60.6825 54.6945 60.5097C54.766 60.3369 54.8026 60.1517 54.8023 59.9646V57.8588C55.0725 57.771 55.2415 57.5832 55.2415 57.178V49.2719C55.2415 48.9081 55.1023 48.2967 54.8795 47.7406C54.9184 47.7346 54.9574 47.731 54.9964 47.72L56.1642 47.3913C56.2926 47.3554 56.4127 47.2946 56.5176 47.2122C56.6224 47.1298 56.7099 47.0275 56.7752 46.9112C56.8404 46.7949 56.882 46.6669 56.8976 46.5344C56.9133 46.402 56.9026 46.2678 56.8663 46.1395L56.2581 43.9774C56.2222 43.8489 56.1614 43.7287 56.0789 43.6237C55.9965 43.5188 55.8942 43.4312 55.7778 43.3659C55.6614 43.3006 55.5333 43.259 55.4008 43.2434C55.2682 43.2278 55.1339 43.2385 55.0056 43.275L53.8384 43.6033C53.6504 43.6565 53.4817 43.7629 53.3528 43.9097L50.4539 37.1073C49.1893 33.8896 43.0957 33.9704 38.9701 33.9098M50.7858 44.3394C50.8545 44.5434 50.6491 44.6794 50.434 44.6918C50.434 44.6918 49.7313 44.7513 48.7621 44.8296C48.0247 43.1067 46.3109 41.8925 44.3256 41.8925C42.1468 41.8925 40.297 43.3554 39.7037 45.3475C39.5394 45.3496 39.3484 45.3567 39.1958 45.3567C35.4421 45.3567 27.9533 44.6918 27.9533 44.6918C27.7386 44.6791 27.5328 44.5431 27.6015 44.3394C30.4856 35.5474 30.5716 36.2083 39.0343 36.3008C47.4965 36.3929 47.5457 35.7648 50.7858 44.3394ZM44.3256 43.5541C44.848 43.5524 45.3627 43.6807 45.8232 43.9275C46.2837 44.1743 46.6755 44.5318 46.9634 44.9678C45.2685 45.0935 43.3178 45.2221 41.5 45.2968C41.7616 44.7718 42.1648 44.3303 42.6641 44.0223C43.1634 43.7144 43.7389 43.5522 44.3256 43.5541ZM24.8152 46.407C24.8407 46.4449 24.8655 46.4828 24.8939 46.5192H24.7841L24.8152 46.407ZM26.6905 48.6152C27.4329 48.6031 31.4186 49.9445 31.4186 49.9445C31.9162 50.0848 32.3544 51.0256 32.3519 51.5428C32.3445 53.2845 27.8502 52.6798 26.0256 52.6869C25.903 52.6871 25.7816 52.6631 25.6682 52.6163C25.5549 52.5695 25.4519 52.5008 25.3652 52.4142C25.2785 52.3275 25.2098 52.2245 25.1629 52.1112C25.1161 51.9979 25.0921 51.8765 25.0922 51.7539V49.5489C25.0922 49.0317 25.948 48.6279 26.6905 48.6152ZM51.6975 48.6152C52.44 48.6276 53.2958 49.0317 53.2958 49.5489V51.7539C53.296 51.8765 53.272 51.998 53.2252 52.1113C53.1784 52.2247 53.1096 52.3277 53.0229 52.4144C52.9362 52.5011 52.8332 52.5698 52.7199 52.6167C52.6065 52.6635 52.485 52.6875 52.3624 52.6872C50.5382 52.6802 46.0435 53.2845 46.0361 51.5428C46.0336 51.0256 46.4718 50.0848 46.9694 49.9445C46.9694 49.9445 50.9551 48.6031 51.6975 48.6152Z" fill="#026442"/>
<path d="M43.139 44.5221H40.5642L41.9118 43.1745L46.0026 41.0569L48.6496 44.137C47.1095 44.3295 47.8796 44.137 43.139 44.5221Z" fill="#D7FFF1" stroke="#D7FFF1" stroke-width="1.61708"/>
</g>
<path d="M48.4664 23.9632C44.0959 24.4819 40.7117 28.0702 40.4566 32.4662C40.2781 35.6293 41.8171 38.7329 44.4445 40.476C50.4901 44.4979 58.5425 40.2039 58.5425 32.9679C58.5425 28.3508 55.1328 24.5329 50.5072 23.9632C49.6569 23.8612 49.3337 23.8612 48.4664 23.9632ZM51.468 25.9869C53.8658 26.6842 55.7365 28.5463 56.4677 30.9697C56.6718 31.6499 56.6973 31.871 56.6973 32.9679C56.6973 34.0648 56.6718 34.2858 56.4677 34.9661C55.7365 37.3894 53.8658 39.2516 51.468 39.9488C50.5837 40.2039 49.0191 40.2634 48.1008 40.0764C46.5958 39.7703 45.5584 39.2006 44.385 38.0272C43.6282 37.2789 43.4752 37.0748 43.0841 36.284C42.4633 35.0426 42.2848 34.2943 42.2848 32.9679C42.2848 31.7179 42.4548 30.9357 42.9735 29.8473C43.3817 28.997 43.8153 28.4103 44.5211 27.7301C45.5839 26.7267 46.5703 26.1995 48.0413 25.8594C48.7981 25.6893 50.6687 25.7574 51.468 25.9869Z" fill="#171616"/>
<circle cx="49.5096" cy="32.9539" r="7.52398" fill="#D7FFF1"/>
<g clip-path="url(#clip1_1516_41075)">
<path fill-rule="evenodd" clip-rule="evenodd" d="M53.6656 29.7478C53.7163 29.6971 53.7566 29.6369 53.7841 29.5706C53.8116 29.5043 53.8258 29.4333 53.8258 29.3615C53.8259 29.2898 53.8118 29.2187 53.7844 29.1524C53.757 29.0861 53.7167 29.0258 53.666 28.9751C53.6153 28.9243 53.5551 28.884 53.4888 28.8565C53.4226 28.829 53.3515 28.8148 53.2798 28.8148C53.208 28.8147 53.1369 28.8288 53.0706 28.8563C53.0043 28.8837 52.9441 28.9239 52.8933 28.9746L49.598 32.2698L46.3037 28.9746C46.2012 28.8721 46.0621 28.8145 45.9171 28.8145C45.7721 28.8145 45.633 28.8721 45.5305 28.9746C45.428 29.0771 45.3704 29.2162 45.3704 29.3612C45.3704 29.5062 45.428 29.6453 45.5305 29.7478L48.8258 33.0421L45.5305 36.3364C45.4797 36.3872 45.4395 36.4475 45.412 36.5138C45.3845 36.5801 45.3704 36.6512 45.3704 36.723C45.3704 36.7948 45.3845 36.8659 45.412 36.9323C45.4395 36.9986 45.4797 37.0589 45.5305 37.1097C45.633 37.2122 45.7721 37.2698 45.9171 37.2698C45.9889 37.2698 46.06 37.2557 46.1264 37.2282C46.1927 37.2007 46.253 37.1604 46.3037 37.1097L49.598 33.8144L52.8933 37.1097C52.9958 37.2121 53.1348 37.2695 53.2798 37.2695C53.4247 37.2694 53.5636 37.2117 53.666 37.1092C53.7684 37.0066 53.8259 36.8676 53.8258 36.7227C53.8258 36.5778 53.7681 36.4388 53.6656 36.3364L50.3703 33.0421L53.6656 29.7478Z" fill="#026442"/>
</g>
<defs>
<clipPath id="clip0_1516_41075">
<rect width="35.4218" height="35.4218" fill="white" transform="translate(21.4834 29.9316)"/>
</clipPath>
<clipPath id="clip1_1516_41075">
<rect width="9.06736" height="9.06736" fill="white" transform="translate(44.9761 28.4204)"/>
</clipPath>
</defs>
</svg>
