<svg width="114" height="75" viewBox="0 0 114 75" fill="none" xmlns="http://www.w3.org/2000/svg">
<path d="M4.6763 30.5594C4.87322 29.5391 4.91416 28.5793 4.82443 27.8157C6.88648 21.5239 10.7617 11.7498 10.7617 11.7498L15.7349 32.1582L4.55114 31.124C4.59636 30.9383 4.63874 30.7521 4.6763 30.5594Z" fill="#353433"/>
<path d="M15.7349 32.158L16.0952 33.6338C16.0952 33.6338 4.60116 42.7375 3.68105 41.6331C2.90498 40.7018 2.78391 37.5416 3.31803 33.8709C3.80283 33.3048 4.25701 32.3166 4.55113 31.1238L15.7349 32.158Z" fill="#292826"/>
<path d="M3.68102 31.7952C3.72625 31.5741 3.78393 31.3286 3.85212 31.058C4.07396 30.1859 4.41401 29.071 4.82439 27.8157C4.91412 28.5793 4.87318 29.5391 4.67627 30.5594C4.6387 30.7521 4.59633 30.9383 4.55111 31.124C4.25699 32.3169 3.8028 33.305 3.318 33.8712C3.41752 33.1925 3.53788 32.4962 3.68102 31.7952Z" fill="#DC4B65"/>
<path d="M20.6636 9.68775C20.6636 9.68775 18.5522 8.5896 17.8484 7.7975C17.1444 7.00469 17.4964 9.22182 17.4964 9.93878C17.4964 10.6565 20.6636 9.68775 20.6636 9.68775Z" fill="#141211"/>
<path d="M33.4639 62.6923C33.4639 62.6923 30.2972 63.0003 30.1213 63.2209C29.9454 63.4399 28.1782 66.2976 25.6787 66.9597C23.1792 67.6204 4.60883 62.2972 4.60883 62.2972C4.60883 62.2972 1.84015 61.6831 1.5592 61.5566C1.27825 61.4278 -0.302559 57.9847 1.5592 53.4981C3.42096 49.0139 9.55156 42.7665 17.0646 44.8333C24.5784 46.9018 33.0681 49.0562 33.4639 62.6923Z" fill="#141211"/>
<path d="M112.289 57.7659L111.717 65.0043C111.717 65.0043 109.914 65.206 109.122 65.0043C108.33 64.8033 85.1488 65.9036 85.1488 65.9036C85.1488 65.9036 84.1377 64.9801 83.4338 64.5398C82.7293 64.1002 81.6306 64.4953 81.6306 64.4953L77.3194 52.9706L98.5652 44.623C98.5652 44.623 113.344 48.0001 112.289 57.7659Z" fill="#141211"/>
<path d="M86.4368 32.9901L91.4941 28.0245C91.4941 28.0245 68.1509 12.8765 56.467 10.2435C44.7832 7.61187 43.4041 22.8752 43.4041 22.8752L86.4368 32.9901Z" fill="#292826"/>
<path d="M98.8501 30.8741L108.045 35.3808C108.045 35.3808 110.436 37.5882 110.436 40.5294C110.436 40.5294 109.425 43.7487 107.953 44.5762C106.482 45.4038 90.942 34.8286 90.942 34.8286C90.942 34.8286 93.2412 29.4965 98.8501 30.8741Z" fill="#292826"/>
<path d="M82.2072 66.1855L30.8074 64.6222C30.8074 64.6222 30.8163 63.1053 30.4367 60.9709L82.2656 63.1144C82.1216 64.9498 82.2072 66.1855 82.2072 66.1855Z" fill="#141211"/>
<path d="M0.00289917 56.714C0.0954742 51.2886 -0.27253 43.473 1.65813 41.9096C3.5895 40.3461 9.93411 32.8067 10.2095 31.5193C10.4857 30.232 10.3938 13.5887 10.1179 12.4851C9.84242 11.3814 8.92232 10.279 10.1179 10.003C11.3132 9.7276 46.5303 7.88809 58.0243 10.5551L56.3691 11.3814C56.3691 11.3814 59.8631 9.63431 86.7124 27.5648C86.7124 27.5648 93.3331 26.8297 95.9078 28.0245C98.4824 29.2208 108.045 35.3813 108.045 35.3813C108.045 35.3813 98.2062 31.7028 97.0114 32.0715C95.8159 32.4401 94.7122 33.0826 94.7122 33.0826L104.367 39.8871L109.517 42.1856C109.517 42.1856 111.907 43.3804 112.183 44.3917C112.459 45.4042 114.022 48.8977 113.93 50.92C113.838 52.9445 114.122 57.8176 113.934 59.84C113.746 61.8625 113.562 65.2647 111.539 64.9885C111.539 64.9885 114.569 46.9163 96.6436 47.3342C84.9813 47.6069 82.6778 57.8442 82.2655 63.1143L30.4366 60.9709C29.4789 55.5866 26.0412 46.2625 13.7036 47.3272C0.830605 48.4385 -0.180664 60.6677 2.02596 61.5864C2.02596 61.5864 -0.0887909 62.1399 0.00289917 56.714Z" fill="#E8DBE3"/>
<path d="M81.1044 31.7953L25.8418 26.2775C25.8418 26.2775 21.7955 15.3357 24.7389 13.4962C27.6806 11.6574 35.2209 11.7498 35.2209 11.7498C35.2209 11.7498 52.4156 11.8424 58.6678 14.5998C64.9208 17.358 81.6558 24.1625 81.1044 31.7953Z" fill="#292826"/>
<path d="M2.51539 62.0869C2.51539 69.1458 8.23776 74.8682 15.2967 74.8682C22.3558 74.8682 28.0781 69.1458 28.0781 62.0869C28.0781 55.0292 22.3558 49.3069 15.2967 49.3069C8.23776 49.3069 2.51539 55.0292 2.51539 62.0869Z" fill="#242227"/>
<path d="M96.9857 71.61C102.318 71.61 106.64 67.287 106.64 61.9548C106.64 56.6227 102.318 52.2997 96.9857 52.2997C91.6534 52.2997 87.3304 56.6227 87.3304 61.9548C87.3304 67.287 91.6534 71.61 96.9857 71.61ZM97.0163 49.1187C104.075 49.1187 109.797 54.8401 109.797 61.8978C109.797 68.9574 104.075 74.6798 97.0163 74.6798C89.9572 74.6798 84.2349 68.9574 84.2349 61.8978C84.2349 54.8401 89.9572 49.1187 97.0163 49.1187Z" fill="#242227"/>
<path d="M96.9858 52.2998C102.318 52.2998 106.64 56.6228 106.64 61.9549C106.64 67.2872 102.318 71.6101 96.9858 71.6101C91.6535 71.6101 87.3305 67.2872 87.3305 61.9549C87.3305 56.6228 91.6535 52.2998 96.9858 52.2998Z" fill="#C2BDBA"/>
<path d="M24.9209 62.0867C24.9209 67.4188 20.5986 71.7418 15.2665 71.7418C9.93426 71.7418 5.61128 67.4188 5.61128 62.0867C5.61128 56.7558 9.93426 52.4329 15.2665 52.4329C20.5986 52.4329 24.9209 56.7558 24.9209 62.0867Z" fill="#C2BDBA"/>
<path d="M100.336 55.5327L98.1009 58.0719C98.1009 58.0719 97.7157 58.6805 97.1871 58.6805C96.6594 58.6805 96.2734 58.2555 96.2734 58.2555L93.9373 55.5327C93.9373 55.5327 93.6117 55.1467 93.9373 54.8811C94.2621 54.6174 95.4019 54.2314 96.9855 54.2314C98.5683 54.2314 100.904 54.6586 100.336 55.5327Z" fill="#242227"/>
<path d="M100.337 68.4783L98.1021 65.9391C98.1021 65.9391 97.7161 65.3286 97.1875 65.3286C96.6598 65.3286 96.2738 65.7563 96.2738 65.7563L93.9378 68.4783C93.9378 68.4783 93.6121 68.865 93.9378 69.1278C94.2632 69.3936 95.4023 69.7782 96.986 69.7782C98.5694 69.7782 100.905 69.3525 100.337 68.4783Z" fill="#242227"/>
<path d="M90.433 58.7771L92.9722 61.011C92.9722 61.011 93.582 61.3975 93.582 61.9261C93.582 62.4533 93.1551 62.84 93.1551 62.84L90.433 65.1753C90.433 65.1753 90.0478 65.5015 89.7836 65.1753C89.5192 64.8513 89.1332 63.7101 89.1332 62.1278C89.1332 60.5449 89.5603 58.2088 90.433 58.7771Z" fill="#242227"/>
<path d="M103.379 58.7771L100.84 61.011C100.84 61.011 100.231 61.3975 100.231 61.9261C100.231 62.4533 100.657 62.84 100.657 62.84L103.379 65.1753C103.379 65.1753 103.766 65.5015 104.029 65.1753C104.294 64.8513 104.68 63.7101 104.68 62.1278C104.68 60.5449 104.253 58.2088 103.379 58.7771Z" fill="#242227"/>
<path d="M18.617 55.615L16.3824 58.1542C16.3824 58.1542 15.9964 58.7627 15.4678 58.7627C14.9401 58.7627 14.5541 58.3371 14.5541 58.3371L12.2179 55.615C12.2179 55.615 11.8924 55.229 12.2179 54.9655C12.5428 54.6997 13.6833 54.3137 15.2663 54.3137C16.849 54.3137 19.1851 54.7408 18.617 55.615Z" fill="#242227"/>
<path d="M18.6168 68.5603L16.3822 66.0211C16.3822 66.0211 15.9962 65.4126 15.4683 65.4126C14.9399 65.4126 14.5539 65.8383 14.5539 65.8383L12.2177 68.5603C12.2177 68.5603 11.8922 68.9463 12.2177 69.2098C12.5433 69.4756 13.6831 69.8602 15.2661 69.8602C16.8495 69.8602 19.1856 69.4345 18.6168 68.5603Z" fill="#242227"/>
<path d="M8.71333 58.8605L11.2532 61.0931C11.2532 61.0931 11.8623 61.4796 11.8623 62.0082C11.8623 62.5368 11.4354 62.9214 11.4354 62.9214L8.71333 65.2575C8.71333 65.2575 8.32804 65.5829 8.06366 65.2575C7.79945 64.9334 7.41346 63.7942 7.41346 62.2093C7.41346 60.6263 7.84058 58.291 8.71333 58.8605Z" fill="#242227"/>
<path d="M21.6603 58.8582L19.1211 61.0928C19.1211 61.0928 18.5111 61.4793 18.5111 62.0079C18.5111 62.5365 18.9382 62.9211 18.9382 62.9211L21.6603 65.2572C21.6603 65.2572 22.0463 65.5826 22.3098 65.2572C22.574 64.9331 22.96 63.7939 22.96 62.209C22.96 60.626 22.5337 58.2907 21.6603 58.8582Z" fill="#242227"/>
<path d="M17.8931 8.80307C17.9508 8.80307 18.0092 8.78705 18.0613 8.75162C18.1997 8.65921 18.2372 8.4721 18.1441 8.33305L12.9975 0.6348C12.9051 0.495751 12.7166 0.458185 12.5782 0.550765C12.4392 0.643168 12.4016 0.832424 12.4947 0.971473L17.6411 8.66758C17.6997 8.7566 17.7957 8.80307 17.8931 8.80307Z" fill="#141211"/>
<path d="M95.4453 39.7354C95.4453 39.7354 83.2044 41.9288 78.9003 49.3069C78.9003 49.3069 42.8493 45.7873 37.3343 47.4021C31.8185 49.0169 27.3814 35.6689 18.7041 37.635C10.0275 39.6004 6.26089 40.4071 3.57 45.7873C0.880005 51.1694 0.666542 52.2996 0.666542 52.2996L1.41823 43.6348L11.8627 31.7952L95.4453 39.7354Z" fill="#DAD7D7"/>
<path d="M77.5389 62.3877C77.788 62.3877 78.1718 62.3168 78.5633 62.0462C79.2372 61.5796 79.6656 60.6609 79.836 59.329C79.8709 59.064 83.0818 32.5613 80.4591 29.2104L80.2999 29.3314C82.5707 32.2337 80.3542 53.7049 79.6357 59.2971C79.4729 60.5683 79.0731 61.4336 78.4485 61.8648C77.8749 62.2632 77.3142 62.0886 77.3087 62.0886L77.2857 62.0393H75.4024C75.2105 62.0393 55.517 60.9155 45.8069 60.898C36.8813 60.8799 35.8193 58.5905 34.059 54.7557C33.8977 54.403 33.7302 54.0504 33.5507 53.675C31.5164 49.4179 25.4262 24.2233 25.0304 22.5798L31.0352 19.9377L30.9545 19.7549L24.7947 22.4678L24.8141 22.5513C24.8789 22.8184 31.2675 49.3748 33.3684 53.7743C33.5479 54.1485 33.7149 54.5116 33.8762 54.8621C35.6079 58.6364 36.7519 61.1596 45.8069 61.1754C55.5113 61.195 75.1988 62.3953 75.3962 62.3953H77.2747C77.3087 62.3953 77.4032 62.3877 77.5389 62.3877Z" fill="#292826"/>
<path d="M30.0277 32.3929C30.4597 32.3929 30.7768 32.2879 30.9708 32.078C31.2183 31.8088 31.1647 31.4742 31.1627 31.4618C31.1522 31.4263 30.5083 29.5019 29.8969 28.3336C29.2592 27.1144 27.9691 27.2104 27.9573 27.2118L26.0252 27.0254L26.0065 27.2264L27.9559 27.4135C28.0227 27.41 29.1445 27.3293 29.7181 28.4282C30.3219 29.5819 30.961 31.4903 30.9673 31.5097C30.9658 31.5097 31 31.7504 30.8206 31.9423C30.6334 32.144 30.267 32.224 29.7634 32.1795C28.3057 32.0459 27.3586 32.071 27.3488 32.071L27.3543 32.2733C27.3641 32.272 28.3009 32.2491 29.7454 32.3783C29.844 32.3874 29.9387 32.3929 30.0277 32.3929Z" fill="#292826"/>
<path d="M110.147 40.1118L105.931 38.5609C105.931 38.5609 103.877 34.9216 102.22 35.6072L105.174 39.1374C105.174 39.1374 110.579 40.9393 110.147 40.1118Z" fill="#7A7168"/>
<path d="M110.172 41.3009L109.606 42.1284L106.94 40.7953C106.94 40.7953 106.688 40.403 106.94 40.3286C107.193 40.2554 110.172 41.3009 110.172 41.3009Z" fill="#8E351C"/>
</svg>
