<svg width="78" height="74" viewBox="0 0 78 74" fill="none" xmlns="http://www.w3.org/2000/svg">
<path fill-rule="evenodd" clip-rule="evenodd" d="M32.8931 70.3536C24.7617 68.9191 17.0385 66.4756 11.08 60.7498C4.97964 54.8877 -1.063 47.277 0.158669 38.8975C1.31788 30.9464 11.4031 28.7016 16.6398 22.615C22.7781 15.4805 23.6727 2.69257 32.8931 0.850319C42.3761 -1.0444 49.863 8.24461 57.2446 14.5021C65.6702 21.6445 76.4357 27.9222 77.7755 38.8975C79.2071 50.6257 73.6944 63.3177 64.0303 70.0908C55.189 76.2873 43.5197 72.2283 32.8931 70.3536Z" fill="#D7FFF1"/>
<g clip-path="url(#clip0_1516_41093)">
<path d="M38.9705 33.9095C34.8449 33.8489 29.114 33.9374 27.9341 37.107L25.0352 43.9094C24.9066 43.7623 24.738 43.6558 24.5499 43.603L23.3828 43.2746C23.2544 43.2382 23.1202 43.2275 22.9877 43.2432C22.8552 43.2588 22.7271 43.3004 22.6108 43.3657C22.4945 43.431 22.3921 43.5186 22.3097 43.6235C22.2273 43.7284 22.1665 43.8485 22.1306 43.977L21.5217 46.1392C21.4854 46.2675 21.4747 46.4017 21.4904 46.5342C21.5061 46.6666 21.5477 46.7946 21.613 46.9109C21.6782 47.0272 21.7658 47.1295 21.8707 47.2119C21.9756 47.2943 22.0957 47.3551 22.2241 47.391L23.3916 47.7197C23.4306 47.7303 23.4696 47.7339 23.5085 47.7402C23.2854 48.2964 23.1465 48.9077 23.1465 49.2715V57.1777C23.1465 57.5829 23.3165 57.7706 23.5865 57.8585V59.9646C23.5861 60.1516 23.6227 60.3368 23.6941 60.5095C23.7655 60.6823 23.8703 60.8393 24.0025 60.9715C24.1347 61.1037 24.2917 61.2085 24.4645 61.2799C24.6372 61.3513 24.8224 61.3879 25.0094 61.3875H28.8268C29.0137 61.3879 29.1989 61.3513 29.3717 61.2799C29.5444 61.2085 29.7014 61.1037 29.8336 60.9715C29.9658 60.8393 30.0706 60.6823 30.142 60.5095C30.2134 60.3368 30.25 60.1516 30.2497 59.9646V57.9357H48.1387V59.9646C48.1384 60.1516 48.175 60.3368 48.2464 60.5096C48.3178 60.6824 48.4226 60.8394 48.5549 60.9716C48.6871 61.1038 48.8441 61.2086 49.0169 61.28C49.1898 61.3514 49.375 61.3879 49.562 61.3875H53.3787C53.5657 61.388 53.7509 61.3514 53.9238 61.2801C54.0966 61.2087 54.2537 61.104 54.386 60.9718C54.5182 60.8396 54.6231 60.6825 54.6945 60.5097C54.766 60.3369 54.8026 60.1517 54.8023 59.9646V57.8588C55.0725 57.771 55.2415 57.5832 55.2415 57.178V49.2719C55.2415 48.9081 55.1023 48.2967 54.8795 47.7406C54.9184 47.7346 54.9574 47.731 54.9964 47.72L56.1642 47.3913C56.2926 47.3554 56.4127 47.2946 56.5176 47.2122C56.6224 47.1298 56.7099 47.0275 56.7752 46.9112C56.8404 46.7949 56.882 46.6669 56.8976 46.5344C56.9133 46.402 56.9026 46.2678 56.8663 46.1395L56.2581 43.9774C56.2222 43.8489 56.1614 43.7287 56.0789 43.6237C55.9965 43.5188 55.8942 43.4312 55.7778 43.3659C55.6614 43.3006 55.5333 43.259 55.4008 43.2434C55.2682 43.2278 55.1339 43.2385 55.0056 43.275L53.8384 43.6033C53.6504 43.6565 53.4817 43.7629 53.3528 43.9097L50.4539 37.1073C49.1893 33.8896 43.0957 33.9704 38.9701 33.9098M50.7858 44.3394C50.8545 44.5434 50.6491 44.6794 50.434 44.6918C50.434 44.6918 49.7313 44.7513 48.7621 44.8296C48.0247 43.1067 46.3109 41.8925 44.3256 41.8925C42.1468 41.8925 40.297 43.3554 39.7037 45.3475C39.5394 45.3496 39.3484 45.3567 39.1958 45.3567C35.4421 45.3567 27.9533 44.6918 27.9533 44.6918C27.7386 44.6791 27.5328 44.5431 27.6015 44.3394C30.4856 35.5474 30.5716 36.2083 39.0343 36.3008C47.4965 36.3929 47.5457 35.7648 50.7858 44.3394ZM44.3256 43.5541C44.848 43.5524 45.3627 43.6807 45.8232 43.9275C46.2837 44.1743 46.6755 44.5318 46.9634 44.9678C45.2685 45.0935 43.3178 45.2221 41.5 45.2968C41.7616 44.7718 42.1648 44.3303 42.6641 44.0223C43.1634 43.7144 43.7389 43.5522 44.3256 43.5541ZM24.8152 46.407C24.8407 46.4449 24.8655 46.4828 24.8939 46.5192H24.7841L24.8152 46.407ZM26.6905 48.6152C27.4329 48.6031 31.4186 49.9445 31.4186 49.9445C31.9162 50.0848 32.3544 51.0256 32.3519 51.5428C32.3445 53.2845 27.8502 52.6798 26.0256 52.6869C25.903 52.6871 25.7816 52.6631 25.6682 52.6163C25.5549 52.5695 25.4519 52.5008 25.3652 52.4142C25.2785 52.3275 25.2098 52.2245 25.1629 52.1112C25.1161 51.9979 25.0921 51.8765 25.0922 51.7539V49.5489C25.0922 49.0317 25.948 48.6279 26.6905 48.6152ZM51.6975 48.6152C52.44 48.6276 53.2958 49.0317 53.2958 49.5489V51.7539C53.296 51.8765 53.272 51.998 53.2252 52.1113C53.1784 52.2247 53.1096 52.3277 53.0229 52.4144C52.9362 52.5011 52.8332 52.5698 52.7199 52.6167C52.6065 52.6635 52.485 52.6875 52.3624 52.6872C50.5382 52.6802 46.0435 53.2845 46.0361 51.5428C46.0336 51.0256 46.4718 50.0848 46.9694 49.9445C46.9694 49.9445 50.9551 48.6031 51.6975 48.6152Z" fill="#026442"/>
<path d="M43.139 44.5221H40.5642L41.9118 43.1745L46.0026 41.0569L48.6496 44.137C47.1095 44.3295 47.8796 44.137 43.139 44.5221Z" fill="#D7FFF1" stroke="#D7FFF1" stroke-width="1.61708"/>
</g>
<rect x="41.1587" y="24.3965" width="21.4789" height="16.8251" rx="4.29578" fill="#D7FFF1"/>
<path d="M47.4805 23.6804H56.0731C57.1692 23.6804 58.032 23.6804 58.7267 23.7374C59.4334 23.7944 60.0254 23.9136 60.5628 24.1852C61.4413 24.6298 62.1555 25.3393 62.603 26.2121C62.8763 26.746 62.9963 27.3342 63.0537 28.0376C63.111 28.7265 63.111 29.5849 63.111 30.6726V35.2351C63.111 36.3241 63.111 37.1812 63.0537 37.8714C62.9963 38.5736 62.8763 39.1618 62.603 39.6956C62.1555 40.5684 61.4413 41.278 60.5628 41.7225C60.0254 41.9941 59.4334 42.1134 58.7254 42.1703C58.032 42.2273 57.1692 42.2273 56.0731 42.2273H47.4805C46.3857 42.2273 45.523 42.2273 44.827 42.1703C44.1202 42.1134 43.5282 41.9941 42.9908 41.7225C42.1124 41.278 41.3982 40.5684 40.9507 39.6956C40.6773 39.1618 40.5573 38.5736 40.5 37.8701C40.4426 37.1812 40.4426 36.3228 40.4426 35.2351V30.6726C40.4426 29.5849 40.4426 28.7278 40.5 28.0363C40.5573 27.3342 40.6773 26.746 40.9507 26.2121C41.3982 25.3393 42.1124 24.6298 42.9908 24.1852C43.5282 23.9136 44.1202 23.7944 44.8283 23.7374C45.5217 23.6804 46.3857 23.6804 47.4805 23.6804ZM44.9363 25.0582C44.3109 25.1085 43.9149 25.2039 43.5962 25.3655C43.0596 25.6373 42.6071 26.0484 42.2868 26.5552L49.4193 32.6968C49.922 33.13 50.2727 33.4308 50.5647 33.6454C50.8501 33.8547 51.0408 33.9527 51.2141 34.0031C51.5821 34.1117 51.9728 34.1117 52.3409 34.0031C52.5142 33.9541 52.7049 33.8547 52.9902 33.6454C53.2836 33.4308 53.6316 33.1287 54.1357 32.6968L61.2669 26.5552C60.9466 26.0484 60.4941 25.6373 59.9574 25.3655C59.6388 25.2052 59.2427 25.1085 58.6173 25.0569C57.9826 25.0052 57.1746 25.0052 56.0438 25.0052H47.5098C46.3791 25.0052 45.5697 25.0052 44.9363 25.0582ZM41.8294 28.1449C41.7761 28.7742 41.7761 29.5783 41.7761 30.7017V35.206C41.7761 36.3294 41.7761 37.1335 41.8294 37.7628C41.8801 38.3841 41.9761 38.7776 42.1388 39.0942C42.2682 39.3459 42.4295 39.58 42.6188 39.791L46.6378 35.7968C46.6998 35.7352 46.7733 35.6864 46.8543 35.6531C46.9353 35.6197 47.0221 35.6026 47.1098 35.6026C47.1975 35.6026 47.2843 35.6197 47.3653 35.6531C47.4463 35.6864 47.5198 35.7352 47.5818 35.7968C47.6438 35.8584 47.693 35.9315 47.7265 36.012C47.7601 36.0925 47.7774 36.1787 47.7774 36.2658C47.7774 36.3529 47.7601 36.4391 47.7265 36.5196C47.693 36.6001 47.6438 36.6732 47.5818 36.7348L43.7002 40.5899C44.0002 40.7223 44.3776 40.8058 44.9363 40.8508C45.5697 40.9025 46.3791 40.9025 47.5098 40.9025H56.0438C57.1746 40.9025 57.9826 40.9025 58.6173 40.8495C59.1774 40.8045 59.5534 40.7223 59.8534 40.5899L55.9731 36.7348C55.9112 36.6733 55.862 36.6002 55.8284 36.5199C55.7948 36.4395 55.7775 36.3533 55.7774 36.2663C55.7773 36.0905 55.8475 35.9219 55.9725 35.7975C56.0975 35.6731 56.2671 35.6032 56.444 35.603C56.621 35.6029 56.7907 35.6726 56.9159 35.7968L60.9349 39.791C61.1233 39.5808 61.2833 39.3485 61.4149 39.0942C61.5762 38.7776 61.6736 38.3841 61.7256 37.7628C61.7776 37.1322 61.7776 36.3294 61.7776 35.206V30.7017C61.7776 29.5783 61.7776 28.7742 61.7242 28.1449L61.7042 27.933L54.9891 33.7143C54.509 34.1276 54.1223 34.4601 53.7836 34.7092C53.4356 34.9662 53.0996 35.1636 52.7169 35.2749C52.1032 35.4541 51.4505 35.4541 50.8368 35.2749C50.4541 35.1636 50.1194 34.9662 49.77 34.7092C49.4326 34.4614 49.0446 34.1263 48.5659 33.7156L41.8494 27.9303L41.8294 28.1449Z" fill="black"/>
<defs>
<clipPath id="clip0_1516_41093">
<rect width="35.4218" height="35.4218" fill="white" transform="translate(21.4834 29.9316)"/>
</clipPath>
</defs>
</svg>
