<svg width="60" height="56" viewBox="0 0 60 56" fill="none" xmlns="http://www.w3.org/2000/svg">
<path fill-rule="evenodd" clip-rule="evenodd" d="M25.3024 53.6565C19.0475 52.5531 13.1065 50.6734 8.52311 46.269C3.8305 41.7596 -0.817688 35.9053 0.122055 29.4595C1.01376 23.3433 8.77161 21.6165 12.7998 16.9345C17.5216 11.4464 18.2098 1.60955 25.3024 0.19244C32.597 -1.26503 38.3561 5.88035 44.0343 10.6938C50.5155 16.188 58.7967 21.0169 59.8273 29.4595C60.9286 38.4812 56.688 48.2443 49.2541 53.4544C42.4531 58.2209 33.4767 55.0985 25.3024 53.6565Z" fill="#D7FFF1"/>
<path d="M25.1511 40.0726H41.7577C42.312 40.0726 42.7959 39.6173 42.7959 39.0053C42.7959 38.3933 42.312 37.9379 41.7577 37.9379H25.3928C24.5816 37.9379 24.0838 37.3684 23.9557 36.5008L23.728 35.0066H41.7856C43.8633 35.0066 44.9306 33.7256 45.2293 31.691L46.3677 24.1631C46.3983 23.9843 46.4173 23.8038 46.4248 23.6227C46.4248 22.9397 45.9124 22.4697 45.1298 22.4697H21.8926L21.6218 20.6629C21.4797 19.567 21.0815 19.0114 19.6304 19.0114H14.6348C14.0659 19.0114 13.582 19.5105 13.582 20.08C13.582 20.6629 14.0659 21.1613 14.6354 21.1613H19.4446L21.7214 36.7856C22.0207 38.8061 23.0875 40.0726 25.1511 40.0726ZM44.0054 24.6184L42.9963 31.4348C42.8821 32.317 42.4128 32.8579 41.5731 32.8579L23.4159 32.8719L22.2059 24.6184H44.0054ZM26.2756 46.9886C26.579 46.9911 26.8799 46.9332 27.1607 46.8182C27.4416 46.7032 27.6967 46.5335 27.9113 46.319C28.1258 46.1044 28.2955 45.8493 28.4105 45.5684C28.5255 45.2876 28.5834 44.9867 28.5809 44.6833C28.5823 44.3801 28.5236 44.0798 28.4082 43.7994C28.2928 43.5191 28.1231 43.2645 27.9087 43.0501C27.6944 42.8358 27.4397 42.666 27.1594 42.5506C26.8791 42.4353 26.5787 42.3766 26.2756 42.3779C24.9811 42.3779 23.9563 43.4028 23.9563 44.6833C23.9563 45.9783 24.9811 46.9886 26.2756 46.9886ZM39.5805 46.9886C40.8755 46.9886 41.8998 45.9783 41.8998 44.6833C41.8998 43.4022 40.8755 42.3779 39.5805 42.3779C38.3 42.3779 37.2612 43.4028 37.2612 44.6833C37.2612 45.9783 38.3 46.9886 39.5805 46.9886Z" fill="#003A2F" stroke="#D7FFF1" stroke-width="0.5"/>
</svg>
