<svg width="191" height="178" viewBox="0 0 191 178" fill="none" xmlns="http://www.w3.org/2000/svg">
<path fill-rule="evenodd" clip-rule="evenodd" d="M80.6827 169.941C60.9537 166.461 42.2149 160.532 27.758 146.64C12.9567 132.416 -1.70445 113.951 1.25966 93.6198C4.07224 74.3281 28.5418 68.8816 41.2476 54.1137C56.1408 36.8033 58.3114 5.77617 80.6827 1.30637C103.691 -3.29076 121.857 19.247 139.767 34.4295C160.209 51.759 186.33 66.9904 189.58 93.6198C193.054 122.076 179.678 152.87 156.231 169.304C134.779 184.338 106.466 174.49 80.6827 169.941Z" fill="#D7FFF1"/>
<path d="M69.4587 98.9833L66.4708 107.802C66.1852 108.645 66.4296 109.577 67.092 110.171L87.8997 128.84C88.492 129.372 89.3232 129.546 90.0792 129.298L98.4517 126.547C100.053 126.021 100.51 123.975 99.2847 122.817L73.0924 98.0801C71.9139 96.9671 69.9789 97.4481 69.4587 98.9833Z" fill="#026442" stroke="black" stroke-width="2"/>
<path d="M136.112 73.9883L120.601 60.5512C119.042 59.2006 120.002 56.6391 122.065 56.646L137.259 56.6969C138.464 56.7009 139.446 57.6637 139.475 58.8683L139.792 72.2546C139.838 74.1846 137.571 75.2524 136.112 73.9883Z" fill="#026442" stroke="black" stroke-width="2.22415"/>
<circle cx="106.852" cy="89.018" r="7.5102" fill="#026442" stroke="black" stroke-width="2.81633"/>
<path d="M60.3023 117.573C59.9735 117.716 57.6106 119.956 55.0422 122.545C51.0149 126.593 50.3574 127.332 50.3574 127.867C50.3574 129.079 51.6724 129.88 52.7409 129.326C53.0696 129.141 55.3915 126.942 57.9188 124.415C61.9871 120.305 62.4803 119.751 62.4803 119.134C62.4803 118.23 62.1926 117.758 61.494 117.511C61.083 117.367 60.7337 117.388 60.3023 117.573Z" fill="#026442"/>
<path d="M59.6457 134.771C54.7555 139.662 50.5638 143.976 50.3173 144.346C49.6187 145.476 50.3584 146.853 51.6734 146.853C52.2282 146.853 53.4199 145.723 61.6388 137.525C70.5973 128.587 70.9877 128.155 70.9877 127.415C70.9877 126.47 70.3508 125.895 69.3029 125.895C68.6043 125.895 68.0906 126.367 59.6457 134.771Z" fill="#026442"/>
<path d="M72.2202 139.066C67.0628 144.202 66.919 144.408 67.3299 145.517C67.5149 145.99 68.5833 146.483 69.1175 146.339C69.3641 146.257 71.7681 144.018 74.4598 141.346C78.7542 137.052 79.3295 136.395 79.3295 135.84C79.3295 134.997 78.7747 134.36 77.9323 134.196C77.2542 134.052 77.1309 134.175 72.2202 139.066Z" fill="#026442"/>
<path d="M126.282 54.9459C114.672 55.7062 103.145 59.4252 94.2485 65.3017C88.9474 68.7742 84.0366 73.2329 80.3586 77.8766C79.3929 79.0888 78.4272 80.1367 78.2012 80.1778C77.9752 80.2189 74.6054 80.3628 70.7015 80.486C66.7975 80.6093 63.2839 80.8148 62.8935 80.9175C62.4826 81.0203 61.9278 81.349 61.6402 81.6572C61.3525 81.986 58.7636 86.0132 55.887 90.6569C50.8118 98.8347 50.668 99.1223 50.668 100.15C50.668 101.28 51.0378 101.999 52.0241 102.718C52.3939 103.006 54.4692 103.437 59.4827 104.3C63.2839 104.978 66.4482 105.554 66.5098 105.595C66.5509 105.656 66.4071 106.355 66.1811 107.156C65.688 108.903 65.6674 110.095 66.0578 110.855C66.2222 111.163 70.7426 115.766 76.0848 121.108C87.2009 132.183 86.153 131.423 89.2556 130.642C90.2624 130.375 91.1048 130.21 91.1459 130.251C91.187 130.292 91.7623 133.416 92.3993 137.176C93.6938 144.552 93.7965 144.922 95.1321 145.703C96.4882 146.484 97.3101 146.278 100.557 144.264C113.152 136.498 115.186 135.162 115.577 134.505C115.946 133.868 116.008 133.066 116.275 125.998L116.563 118.19L117.118 117.779C124.823 111.903 130.597 105.04 134.788 96.7183C139.987 86.4653 142.576 73.3973 141.815 61.4388C141.466 55.8089 141.137 55.3979 136.863 55.0075C134.685 54.8226 128.727 54.7815 126.282 54.9459ZM137.932 58.3978C138.466 58.6033 138.61 60.2882 138.589 65.8976C138.548 71.4864 138.158 75.1438 137.089 80.2189C133.144 98.7319 121.987 112.951 104.707 121.519C103.577 122.074 102.344 122.669 101.974 122.813L101.276 123.08L87.5296 109.334C79.9683 101.773 73.7835 95.4649 73.7835 95.3211C73.7835 94.9102 77.2971 88.1501 78.6121 86.0338C81.3655 81.6367 85.5571 76.6026 89.1117 73.4178C99.1593 64.4592 111.159 59.5485 126.384 58.2129C127.843 58.0896 137.541 58.2335 137.932 58.3978ZM75.9205 84.1229C73.4137 87.9036 69.6125 96.0403 67.9276 101.177C67.7221 101.876 67.4756 102.266 67.2701 102.266C66.7564 102.266 54.8185 100.211 54.4076 100.047C54.0993 99.9237 54.7363 98.773 58.9074 91.9925C61.5991 87.6365 63.7976 84.0613 63.7976 84.0407C63.8182 83.9996 72.7151 83.6503 74.7904 83.6092L76.2903 83.5681L75.9205 84.1229ZM85.1872 111.718C92.1733 118.704 97.8648 124.478 97.8237 124.539C97.6388 124.704 91.5569 126.676 89.5432 127.231L87.5296 127.765L84.5092 124.889C82.8449 123.306 78.6738 119.197 75.2219 115.745L68.9755 109.478L69.3454 107.978C69.859 105.965 72.1603 98.9785 72.3247 98.9785C72.3863 98.9785 78.1806 104.711 85.1872 111.718ZM113.152 122.854C113.09 124.128 112.988 126.902 112.905 128.998L112.782 132.82L104.851 137.73C100.495 140.422 96.8786 142.621 96.8169 142.6C96.6731 142.559 94.3307 129.327 94.4335 129.224C94.4746 129.183 95.5019 128.792 96.7347 128.382C101.646 126.656 107.481 123.943 111.282 121.601C112.186 121.046 113.008 120.594 113.111 120.574C113.193 120.553 113.234 121.601 113.152 122.854Z" fill="black"/>
<path d="M118.117 58.0391L138.77 75.8758" stroke="black" stroke-width="2.81633"/>
<path d="M86.4681 35.8847C75.8639 37.1432 67.6529 45.8493 67.034 56.5154C66.6008 64.19 70.3349 71.7202 76.7098 75.9495C91.3782 85.7078 110.915 75.2893 110.915 57.7326C110.915 46.5301 102.642 37.267 91.4194 35.8847C89.3564 35.6372 88.5724 35.6372 86.4681 35.8847ZM93.7507 40.7948C99.5685 42.4865 104.107 47.0047 105.882 52.8844C106.377 54.5348 106.439 55.0712 106.439 57.7326C106.439 60.3939 106.377 60.9303 105.882 62.5808C104.107 68.4605 99.5685 72.9786 93.7507 74.6704C91.6051 75.2893 87.8091 75.4337 85.581 74.9798C81.9293 74.2371 79.4124 72.8549 76.5654 70.0078C74.7292 68.1923 74.3579 67.6972 73.4089 65.7785C71.9028 62.7665 71.4696 60.951 71.4696 57.7326C71.4696 54.6999 71.8822 52.8019 73.1407 50.1611C74.1309 48.0981 75.1831 46.6746 76.8954 45.0241C79.4743 42.5897 81.8674 41.3106 85.4365 40.4854C87.2727 40.0728 91.8114 40.2378 93.7507 40.7948Z" fill="#171616"/>
<circle cx="88.9995" cy="57.6992" r="18.2553" fill="#D7FFF1"/>
<circle cx="89" cy="66.6992" r="2" fill="#02553C"/>
<line x1="89" y1="60.6992" x2="89" y2="48.6992" stroke="#02553C" stroke-width="4" stroke-linecap="round"/>
</svg>
