<svg width="191" height="177" viewBox="0 0 191 177" fill="none" xmlns="http://www.w3.org/2000/svg">
<path fill-rule="evenodd" clip-rule="evenodd" d="M80.6827 169.242C60.9537 165.762 42.2149 159.833 27.758 145.94C12.9567 131.717 -1.70445 113.252 1.25966 92.9205C4.07224 73.6288 28.5418 68.1823 41.2476 53.4144C56.1408 36.104 58.3114 5.07695 80.6827 0.607147C103.691 -3.98997 121.857 18.5478 139.767 33.7303C160.209 51.0598 186.33 66.2912 189.58 92.9205C193.054 121.376 179.678 152.171 156.231 168.604C134.779 183.639 106.466 173.79 80.6827 169.242Z" fill="#D7FFF1"/>
<g clip-path="url(#clip0_1880_29205)">
<path d="M95.4287 80.8181C85.4189 80.6712 71.5141 80.886 68.6513 88.5762L61.6177 105.081C61.3058 104.724 60.8966 104.466 60.4403 104.337L57.6085 103.541C57.2971 103.452 56.9713 103.426 56.6499 103.464C56.3285 103.502 56.0177 103.603 55.7354 103.762C55.4531 103.92 55.2049 104.133 55.005 104.387C54.805 104.642 54.6573 104.933 54.5704 105.245L53.093 110.491C53.0048 110.802 52.979 111.128 53.017 111.449C53.055 111.771 53.1561 112.081 53.3144 112.363C53.4727 112.646 53.6852 112.894 53.9397 113.094C54.1942 113.294 54.4856 113.441 54.7973 113.528L57.6299 114.326C57.7245 114.351 57.819 114.36 57.9136 114.376C57.3721 115.725 57.0352 117.208 57.0352 118.091V137.273C57.0352 138.257 57.4478 138.712 58.1026 138.925V144.035C58.1018 144.489 58.1906 144.938 58.3638 145.358C58.537 145.777 58.7913 146.158 59.112 146.478C59.4328 146.799 59.8137 147.053 60.2329 147.227C60.6521 147.4 61.1014 147.489 61.555 147.488H70.8171C71.2707 147.489 71.72 147.4 72.1392 147.227C72.5584 147.053 72.9393 146.799 73.26 146.478C73.5808 146.158 73.835 145.777 74.0083 145.358C74.1815 144.938 74.2702 144.489 74.2694 144.035V139.113H117.673V144.035C117.673 144.489 117.761 144.938 117.935 145.358C118.108 145.777 118.362 146.158 118.683 146.479C119.004 146.799 119.385 147.054 119.804 147.227C120.224 147.4 120.673 147.489 121.127 147.488H130.387C130.841 147.489 131.29 147.4 131.71 147.227C132.129 147.054 132.51 146.8 132.831 146.479C133.152 146.158 133.406 145.777 133.58 145.358C133.753 144.939 133.842 144.489 133.841 144.035V138.926C134.497 138.713 134.907 138.258 134.907 137.274V118.092C134.907 117.209 134.569 115.726 134.028 114.376C134.123 114.362 134.218 114.353 134.312 114.327L137.146 113.529C137.457 113.442 137.749 113.294 138.003 113.094C138.257 112.894 138.47 112.646 138.628 112.364C138.786 112.082 138.887 111.771 138.925 111.45C138.963 111.129 138.937 110.803 138.849 110.492L137.373 105.246C137.286 104.934 137.139 104.642 136.939 104.388C136.739 104.133 136.49 103.921 136.208 103.762C135.926 103.604 135.615 103.503 135.293 103.465C134.972 103.427 134.646 103.453 134.334 103.542L131.503 104.338C131.046 104.467 130.637 104.725 130.324 105.082L123.291 88.5771C120.222 80.77 105.438 80.9659 95.4278 80.819M124.096 106.124C124.263 106.619 123.764 106.949 123.243 106.979C123.243 106.979 121.537 107.124 119.186 107.314C117.397 103.133 113.239 100.187 108.422 100.187C103.135 100.187 98.6473 103.737 97.2077 108.57C96.8089 108.575 96.3457 108.592 95.9753 108.592C86.8679 108.592 68.6977 106.979 68.6977 106.979C68.1769 106.948 67.6776 106.618 67.8443 106.124C74.8418 84.7921 75.0507 86.3958 95.5834 86.6202C116.115 86.8436 116.235 85.3198 124.096 106.124ZM108.422 104.219C109.689 104.215 110.938 104.526 112.055 105.125C113.173 105.724 114.123 106.591 114.822 107.649C110.709 107.954 105.977 108.266 101.566 108.447C102.201 107.173 103.179 106.102 104.39 105.355C105.602 104.608 106.998 104.214 108.422 104.219ZM61.084 111.141C61.1459 111.233 61.2061 111.325 61.2748 111.413H61.0084L61.084 111.141ZM65.6339 116.498C67.4352 116.469 77.1056 119.724 77.1056 119.724C78.3131 120.064 79.3762 122.347 79.3702 123.602C79.3521 127.827 68.4476 126.36 64.0207 126.378C63.7232 126.378 63.4286 126.32 63.1536 126.206C62.8786 126.093 62.6288 125.926 62.4184 125.716C62.208 125.506 62.0412 125.256 61.9276 124.981C61.8139 124.706 61.7556 124.411 61.7561 124.114V118.764C61.7561 117.509 63.8325 116.529 65.6339 116.498ZM126.308 116.498C128.11 116.528 130.186 117.509 130.186 118.764V124.114C130.186 124.411 130.128 124.706 130.015 124.981C129.901 125.256 129.734 125.506 129.524 125.716C129.313 125.927 129.064 126.094 128.789 126.207C128.514 126.321 128.219 126.379 127.921 126.378C123.495 126.361 112.59 127.827 112.572 123.602C112.566 122.347 113.629 120.064 114.836 119.724C114.836 119.724 124.507 116.469 126.308 116.498Z" fill="#026442"/>
<path d="M105.542 106.567H99.2949L102.565 103.297L112.49 98.1592L118.912 105.633C115.176 106.1 117.044 105.633 105.542 106.567Z" fill="#D7FFF1" stroke="#D7FFF1" stroke-width="3.9235"/>
</g>
<path d="M118.468 56.6855C107.864 57.944 99.6529 66.6501 99.034 77.3162C98.6008 84.9908 102.335 92.521 108.71 96.7502C123.378 106.509 142.915 96.0901 142.915 78.5334C142.915 67.3309 134.642 58.0678 123.419 56.6855C121.356 56.4379 120.572 56.4379 118.468 56.6855ZM125.751 61.5956C131.569 63.2873 136.107 67.8054 137.882 73.6852C138.377 75.3356 138.439 75.872 138.439 78.5334C138.439 81.1947 138.377 81.7311 137.882 83.3816C136.107 89.2613 131.569 93.7794 125.751 95.4711C123.605 96.0901 119.809 96.2345 117.581 95.7806C113.929 95.0379 111.412 93.6556 108.565 90.8086C106.729 88.9931 106.358 88.498 105.409 86.5793C103.903 83.5673 103.47 81.7518 103.47 78.5334C103.47 75.5007 103.882 73.6026 105.141 70.9619C106.131 68.8989 107.183 67.4753 108.895 65.8249C111.474 63.3905 113.867 62.1114 117.437 61.2861C119.273 60.8735 123.811 61.0386 125.751 61.5956Z" fill="#171616"/>
<circle cx="120.999" cy="78.5004" r="18.2553" fill="#D7FFF1"/>
<path fill-rule="evenodd" clip-rule="evenodd" d="M131.084 70.7207C131.207 70.5976 131.304 70.4516 131.371 70.2907C131.438 70.1299 131.472 69.9576 131.472 69.7835C131.473 69.6094 131.438 69.4369 131.372 69.276C131.305 69.1152 131.208 68.9689 131.085 68.8458C130.962 68.7226 130.816 68.6248 130.655 68.5581C130.494 68.4914 130.322 68.457 130.147 68.4569C129.973 68.4568 129.801 68.4909 129.64 68.5575C129.479 68.624 129.333 68.7216 129.21 68.8446L121.215 76.8398L113.222 68.8446C112.973 68.5958 112.635 68.4561 112.284 68.4561C111.932 68.4561 111.594 68.5958 111.346 68.8446C111.097 69.0934 110.957 69.4308 110.957 69.7826C110.957 70.1345 111.097 70.4719 111.346 70.7207L119.341 78.7136L111.346 86.7065C111.222 86.8297 111.125 86.9759 111.058 87.1369C110.991 87.2978 110.957 87.4703 110.957 87.6445C110.957 87.8188 110.991 87.9913 111.058 88.1522C111.125 88.3132 111.222 88.4594 111.346 88.5826C111.594 88.8314 111.932 88.9711 112.284 88.9711C112.458 88.9711 112.63 88.9368 112.791 88.8701C112.952 88.8035 113.098 88.7058 113.222 88.5826L121.215 80.5874L129.21 88.5826C129.459 88.8311 129.796 88.9705 130.147 88.9703C130.499 88.9701 130.836 88.8302 131.085 88.5814C131.333 88.3326 131.473 87.9953 131.472 87.6437C131.472 87.2921 131.332 86.955 131.084 86.7065L123.088 78.7136L131.084 70.7207Z" fill="#026442"/>
<defs>
<clipPath id="clip0_1880_29205">
<rect width="85.9434" height="85.9434" fill="white" transform="translate(53 71.167)"/>
</clipPath>
</defs>
</svg>
