<svg width="190" height="177" viewBox="0 0 190 177" fill="none" xmlns="http://www.w3.org/2000/svg">
<path fill-rule="evenodd" clip-rule="evenodd" d="M80.1827 169.241C60.4537 165.761 41.7149 159.832 27.258 145.94C12.4567 131.716 -2.20445 113.251 0.759659 92.9196C3.57224 73.6279 28.0418 68.1814 40.7476 53.4135C55.6408 36.1031 57.8114 5.07597 80.1827 0.606171C103.191 -3.99095 121.357 18.5468 139.267 33.7293C159.709 51.0588 185.83 66.2903 189.08 92.9196C192.554 121.375 179.178 152.17 155.731 168.603C134.279 183.638 105.966 173.789 80.1827 169.241Z" fill="#D7FFF1"/>
<path d="M99.2185 67.0121C94.5665 66.9438 88.1043 67.0437 86.7739 70.6177L83.505 78.2881C83.3601 78.1223 83.1699 78.0022 82.9578 77.9426L81.6418 77.5724C81.497 77.5313 81.3457 77.5193 81.1963 77.5369C81.0469 77.5545 80.9025 77.6015 80.7713 77.6751C80.6401 77.7487 80.5247 77.8474 80.4318 77.9657C80.3389 78.084 80.2702 78.2195 80.2298 78.3644L79.5432 80.8024C79.5022 80.9471 79.4902 81.0985 79.5079 81.2478C79.5256 81.3972 79.5725 81.5415 79.6461 81.6727C79.7197 81.8038 79.8185 81.9192 79.9367 82.012C80.055 82.1049 80.1904 82.1736 80.3353 82.214L81.6517 82.5846C81.6957 82.5966 81.7396 82.6006 81.7836 82.6078C81.5319 83.2349 81.3754 83.9243 81.3754 84.3345V93.2495C81.3754 93.7064 81.5671 93.9181 81.8714 94.0172V96.3921C81.8711 96.6029 81.9123 96.8117 81.9928 97.0066C82.0733 97.2014 82.1915 97.3784 82.3405 97.5275C82.4896 97.6765 82.6666 97.7947 82.8615 97.8752C83.0563 97.9557 83.2651 97.997 83.4759 97.9966H87.7804C87.9912 97.997 88.2 97.9557 88.3949 97.8752C88.5897 97.7947 88.7667 97.6765 88.9158 97.5275C89.0648 97.3784 89.183 97.2014 89.2635 97.0066C89.344 96.8117 89.3852 96.6029 89.3849 96.3921V94.1043H109.557V96.3921C109.556 96.603 109.598 96.8118 109.678 97.0066C109.759 97.2015 109.877 97.3785 110.026 97.5276C110.175 97.6767 110.352 97.7948 110.547 97.8753C110.742 97.9558 110.951 97.997 111.162 97.9966H115.465C115.676 97.9971 115.885 97.9559 116.08 97.8754C116.275 97.795 116.452 97.6768 116.601 97.5277C116.75 97.3787 116.869 97.2016 116.949 97.0067C117.03 96.8119 117.071 96.603 117.071 96.3921V94.0176C117.375 93.9185 117.566 93.7068 117.566 93.2499V84.3349C117.566 83.9247 117.409 83.2353 117.158 82.6082C117.202 82.6014 117.245 82.5974 117.289 82.585L118.606 82.2144C118.751 82.1739 118.886 82.1053 119.005 82.0124C119.123 81.9194 119.222 81.8041 119.295 81.673C119.369 81.5418 119.416 81.3975 119.433 81.2482C119.451 81.0988 119.439 80.9475 119.398 80.8028L118.712 78.3648C118.672 78.2199 118.603 78.0843 118.51 77.966C118.417 77.8477 118.302 77.7489 118.171 77.6753C118.039 77.6017 117.895 77.5548 117.745 77.5372C117.596 77.5196 117.445 77.5317 117.3 77.5727L115.984 77.943C115.772 78.003 115.581 78.1229 115.436 78.2885L112.167 70.6181C110.741 66.9898 103.87 67.0808 99.2181 67.0125M112.542 78.773C112.619 79.0031 112.387 79.1564 112.145 79.1704C112.145 79.1704 111.352 79.2375 110.26 79.3258C109.428 77.383 107.496 76.0138 105.257 76.0138C102.8 76.0138 100.714 77.6634 100.045 79.9097C99.86 79.9121 99.6447 79.9201 99.4726 79.9201C95.2399 79.9201 86.7955 79.1704 86.7955 79.1704C86.5534 79.156 86.3213 79.0027 86.3988 78.773C89.6509 68.8591 89.7479 69.6044 99.2904 69.7086C108.833 69.8125 108.888 69.1043 112.542 78.773ZM105.257 77.8875C105.846 77.8856 106.426 78.0303 106.946 78.3086C107.465 78.5869 107.907 78.99 108.231 79.4816C106.32 79.6234 104.121 79.7683 102.071 79.8526C102.366 79.2605 102.82 78.7627 103.383 78.4155C103.947 78.0682 104.595 77.8853 105.257 77.8875ZM83.257 81.1044C83.2858 81.1471 83.3137 81.1899 83.3457 81.231H83.2219L83.257 81.1044ZM85.3715 83.5944C86.2087 83.5808 90.703 85.0934 90.703 85.0934C91.2641 85.2516 91.7582 86.3124 91.7554 86.8956C91.747 88.8595 86.6792 88.1777 84.6218 88.1857C84.4836 88.1859 84.3466 88.1589 84.2188 88.1061C84.0911 88.0534 83.9749 87.9759 83.8772 87.8781C83.7794 87.7804 83.7019 87.6643 83.649 87.5366C83.5962 87.4088 83.5691 87.2719 83.5694 87.1336V84.6472C83.5694 84.0641 84.5343 83.6088 85.3715 83.5944ZM113.57 83.5944C114.407 83.6084 115.372 84.0641 115.372 84.6472V87.1336C115.372 87.2719 115.345 87.4089 115.292 87.5367C115.239 87.6645 115.162 87.7806 115.064 87.8784C114.966 87.9762 114.85 88.0537 114.722 88.1065C114.595 88.1593 114.458 88.1863 114.319 88.1861C112.262 88.1781 107.194 88.8595 107.186 86.8956C107.183 86.3124 107.677 85.2516 108.238 85.0934C108.238 85.0934 112.732 83.5808 113.57 83.5944Z" fill="#026442"/>
<path d="M103.917 78.9777H101.014L102.533 77.4581L107.146 75.0703L110.131 78.5435C108.394 78.7606 109.263 78.5435 103.917 78.9777Z" fill="#D7FFF1" stroke="#D7FFF1" stroke-width="2.91914"/>
<path d="M135.187 82.6056C136.505 102.448 121.488 119.601 101.645 120.918C81.8034 122.236 64.6502 107.219 63.3327 87.3765C62.0153 67.5344 77.0325 50.3812 96.8746 49.0638C116.717 47.7463 133.87 62.7635 135.187 82.6056ZM69.436 86.9713C70.5296 103.443 84.7689 115.909 101.24 114.815C117.712 113.721 130.178 99.4822 129.084 83.0108C127.99 66.5395 113.751 54.0734 97.2798 55.167C80.8085 56.2607 68.3424 70.4999 69.436 86.9713Z" fill="#D7FFF1"/>
<path d="M107.988 46.427C108.165 46.4681 108.342 46.5091 108.525 46.5515C111.467 47.2385 114.167 48.3127 116.877 49.6371C117.165 49.7771 117.452 49.9172 117.748 50.0615C120.595 51.5245 123.14 53.3777 125.477 55.5585C125.947 55.9957 126.428 56.4063 126.924 56.8134C133.887 62.7906 137.769 72.6493 138.477 81.6171C139.059 90.5469 136.947 99.006 132.08 106.511C131.621 107.294 131.621 107.294 131.446 108.159C131.935 108.935 132.619 109.55 133.267 110.196C133.438 110.38 133.609 110.564 133.785 110.754C134.724 111.736 134.724 111.736 135.957 112.203C136.33 112.19 136.703 112.167 137.075 112.133C138.791 112.059 140.091 113.145 141.292 114.24C141.441 114.371 141.59 114.503 141.744 114.639C142.183 115.027 142.618 115.42 143.052 115.814C143.275 116.015 143.498 116.217 143.728 116.424C144.127 116.786 144.526 117.147 144.925 117.509C145.547 118.059 146.186 118.581 146.833 119.101C148.021 120.062 149.138 121.081 150.253 122.125C151.079 122.894 151.924 123.625 152.805 124.333C153.834 125.158 154.806 126.024 155.768 126.925C156.741 127.836 157.725 128.712 158.762 129.549C161.776 131.992 164.822 134.525 165.349 138.611C165.383 139.194 165.391 139.769 165.383 140.352C165.38 140.66 165.38 140.66 165.377 140.973C165.295 143.977 164.169 146.038 162.078 148.155C161.024 149.13 159.941 149.849 158.608 150.384C158.391 150.472 158.173 150.56 157.949 150.651C154.983 151.468 151.75 151.031 149.102 149.543C146.579 147.933 144.737 145.474 142.882 143.169C142.152 142.291 141.38 141.46 140.603 140.625C139.869 139.832 139.175 139.018 138.499 138.176C137.55 136.996 136.54 135.891 135.506 134.787C134.543 133.753 133.651 132.674 132.767 131.572C132.101 130.773 131.4 130.015 130.69 129.256C126.898 125.184 126.898 125.184 126.507 123.222C126.539 122.874 126.575 122.528 126.616 122.182C126.628 121.133 126.353 120.68 125.643 119.918C125.278 119.568 124.908 119.223 124.532 118.885C124.344 118.706 124.155 118.528 123.961 118.344C123.498 117.907 123.03 117.475 122.557 117.048C121.771 117.346 121.062 117.672 120.349 118.115C111.246 123.654 100.551 125.599 90.1084 123.155C84.9421 121.865 80.1387 119.795 75.8873 116.554C75.6763 116.395 75.4652 116.236 75.2478 116.072C72.6039 114.017 70.2613 111.815 68.2325 109.147C68.0654 108.931 67.8983 108.716 67.7261 108.494C61.4113 100.119 58.9066 89.5796 60.2264 79.2286C60.5242 77.2297 61.005 75.2821 61.5655 73.3421C61.6176 73.161 61.6697 72.9798 61.7234 72.7931C63.6156 66.4401 67.2986 61.1889 71.9365 56.5511C72.0759 56.4002 72.2153 56.2493 72.3589 56.0939C77.0752 51.0677 83.8962 48.1139 90.456 46.427C90.6255 46.3824 90.795 46.3377 90.9695 46.2917C96.1809 44.9879 102.795 45.1232 107.988 46.427ZM74.8996 59.7611C74.6936 59.9655 74.4877 60.1698 74.2755 60.3804C67.5229 67.1863 64.1764 76.1034 64.207 85.6582C64.3681 95.2046 68.5976 103.926 75.3558 110.584C79.6186 114.476 84.8119 117.223 90.3634 118.715C90.5459 118.764 90.7284 118.813 90.9164 118.864C93.6399 119.557 96.3373 119.856 99.1448 119.842C99.4356 119.84 99.7264 119.839 100.026 119.838C102.416 119.805 104.679 119.594 107 119.024C107.195 118.976 107.39 118.928 107.591 118.879C113.045 117.49 117.776 115.015 122.063 111.369C122.299 111.169 122.536 110.969 122.779 110.762C129.209 105.177 133.485 96.6464 134.162 88.1578C134.359 84.4147 134.318 80.6983 133.421 77.0461C133.374 76.8513 133.326 76.6565 133.277 76.4558C131.884 70.9895 129.402 66.2895 125.767 61.9835C125.594 61.7775 125.422 61.5716 125.244 61.3594C123.906 59.8149 122.447 58.5338 120.828 57.2918C120.618 57.127 120.407 56.9621 120.191 56.7922C106.642 46.5139 86.9426 47.7561 74.8996 59.7611ZM127.672 111.909C127.445 112.138 127.219 112.368 126.986 112.604C126.645 112.947 126.645 112.947 126.298 113.298C126.123 113.476 125.947 113.655 125.767 113.838C126.783 115.053 127.842 116.191 128.977 117.295C129.246 117.076 129.513 116.854 129.779 116.632C129.928 116.508 130.077 116.385 130.231 116.258C130.782 115.742 131.233 115.177 131.693 114.579C131.164 114.043 130.634 113.508 130.103 112.974C129.952 112.821 129.801 112.668 129.646 112.51C129.502 112.365 129.358 112.22 129.209 112.071C129.076 111.937 128.943 111.802 128.806 111.664C128.245 111.152 128.263 111.343 127.672 111.909ZM133.313 118.916C133.082 119.137 132.852 119.358 132.614 119.586C132.397 119.803 132.18 120.02 131.956 120.244C131.658 120.541 131.658 120.541 131.354 120.843C130.87 121.493 130.87 121.493 130.976 122.387C131.257 123.438 131.802 124.024 132.557 124.765C132.83 125.046 133.102 125.327 133.374 125.609C133.576 125.817 133.576 125.817 133.782 126.029C134.317 126.596 134.803 127.196 135.289 127.805C136.072 128.781 136.89 129.714 137.743 130.629C138.595 131.545 139.413 132.478 140.197 133.454C141.146 134.634 142.155 135.739 143.19 136.843C144.151 137.876 145.042 138.952 145.925 140.053C146.73 141.019 147.583 141.936 148.445 142.852C148.99 143.433 149.514 144.016 150.009 144.642C151.045 145.921 152.421 146.561 154.033 146.752C156.06 146.857 157.593 146.342 159.12 144.993C160.444 143.586 161.09 142.205 161.185 140.275C161.12 138.343 160.251 136.648 158.855 135.321C158.213 134.78 157.559 134.254 156.903 133.729C156.079 133.061 155.307 132.343 154.534 131.617C153.572 130.716 152.599 129.85 151.571 129.024C150.542 128.199 149.569 127.333 148.608 126.432C147.432 125.331 146.221 124.299 144.964 123.29C144.091 122.566 143.263 121.797 142.433 121.024C141.4 120.067 140.321 119.176 139.218 118.3C138.607 117.789 138.607 117.789 138.004 117.108C137.422 116.496 137.422 116.496 136.669 116.456C135.189 116.643 134.32 117.894 133.313 118.916Z" fill="black"/>
<path d="M110.456 55.3187C110.619 55.3798 110.782 55.4409 110.95 55.5038C118.714 58.4921 124.774 64.6243 128.224 72.1285C131.641 80.0136 131.541 88.9617 128.488 96.9243C126.879 100.858 124.469 104.088 121.568 107.174C121.438 107.319 121.308 107.465 121.174 107.615C116.039 113.143 108.064 116.077 100.661 116.378C94.615 116.526 89.0847 115.275 83.7879 112.359C83.4542 112.18 83.4542 112.18 83.1137 111.998C76.1594 108.073 70.9562 101.153 68.8061 93.4946C68.275 91.4256 67.808 89.3121 67.7376 87.1724C67.7281 86.9217 67.7281 86.9217 67.7183 86.6659C67.5652 82.1047 68.1704 77.8866 69.713 73.5914C69.8041 73.3361 69.8951 73.0808 69.9889 72.8178C71.18 69.7374 72.988 66.9434 75.1454 64.4551C75.3119 64.2558 75.4784 64.0566 75.6499 63.8513C84.1192 54.009 98.4228 50.7907 110.456 55.3187ZM81.8125 63.9612C81.6113 64.129 81.4101 64.2967 81.2029 64.4695C75.7351 69.2032 72.608 75.9357 71.9981 83.0885C71.5456 89.9063 73.8223 97.0374 78.2629 102.25C78.6989 102.746 79.1428 103.231 79.5901 103.717C79.8012 103.958 79.8012 103.958 80.0165 104.204C84.7273 109.313 91.8042 111.726 98.5746 112.157C105.399 112.331 112.338 109.84 117.355 105.198C117.862 104.713 118.359 104.217 118.852 103.717C119.057 103.511 119.263 103.305 119.475 103.093C120.93 101.561 122.016 99.8743 123.049 98.0372C123.184 97.7982 123.319 97.5591 123.458 97.3129C126.883 90.8748 127.314 83.3819 125.204 76.4677C123.963 72.6925 121.957 69.4053 119.345 66.4305C119.169 66.229 118.992 66.0275 118.81 65.8199C113.913 60.6106 107.104 58.009 100.085 57.5411C93.4248 57.3411 86.9046 59.7149 81.8125 63.9612Z" fill="#003A2F"/>
</svg>
