<svg width="164" height="54" viewBox="0 0 164 54" fill="none" xmlns="http://www.w3.org/2000/svg">
<path d="M159.023 43.0538L153.743 46.4302C153.743 46.4302 152.663 43.678 148.609 44.4961C144.555 45.3158 128.01 46.5976 128.01 46.5976C128.01 46.5976 122.05 48.2706 119.293 46.3336C116.539 44.397 55.4507 44.4883 55.4507 44.4883L46.6637 46.6985C46.6637 46.6985 43.7862 45.6974 41.7532 45.6211C39.7189 45.5448 22.2652 45.1614 22.2652 45.1614L19.1929 44.6272L11.9303 38.2137L26.5144 18.3501L133.546 22.2344L155.31 28.3887L159.023 43.0538Z" fill="#12100F"/>
<path d="M7.10295 40.1447H0.852694C0.852694 40.1447 0.0251269 40.0987 0.164174 41.6769C0.304748 43.2521 1.6021 43.0447 1.6021 43.0447H7.646L7.10295 40.1447Z" fill="#E2E7EA"/>
<path d="M146.694 21.1815L149.606 20.8059C149.606 20.8059 154.475 21.5709 157.216 23.9242C159.956 26.2779 161.107 30.8814 160.942 31.539C160.778 32.1973 151.899 28.6896 151.68 28.3886C151.46 28.0869 146.694 21.1815 146.694 21.1815Z" fill="#C8DAE5"/>
<path d="M120.652 16.7064C120.652 16.7064 119.471 16.0439 118.619 15.76C117.769 15.4763 114.79 15.0506 114.979 15.2867C115.168 15.5235 116.349 16.0439 116.114 16.7064C115.878 17.3676 120.652 16.7064 120.652 16.7064Z" fill="#545862"/>
<path d="M117.39 16.7541C117.39 16.7541 97.8515 5.7962 91.2323 3.47925L88.6894 3.60929L103.394 11.694L112.614 17.7934L117.39 16.7541Z" fill="#C8DAE5"/>
<path d="M8.25823 16.0293C8.25823 16.0293 5.9013 15.3181 5.51865 16.9069C5.13524 18.4952 5.13523 20.0293 4.47754 21.6749C3.82 23.3187 3.38178 24.3049 3.92958 25.4555C4.47753 26.6062 13.5747 24.3597 13.5747 24.3597C13.5747 24.3597 13.6295 16.1391 8.25823 16.0293Z" fill="#AD1D2E"/>
<path d="M122.204 47.3108C117.062 46.8512 58.0425 46.72 48.0861 46.7015L48.1422 43.9326L122.216 45.2164C122.213 46.0253 122.21 46.7218 122.204 47.3108Z" fill="#989A96"/>
<path d="M2.92508 28.1292C2.92508 27.594 3.69312 24.4476 3.69312 24.4476C3.69312 24.4476 4.68997 24.4095 7.56677 24.3331C10.444 24.2568 11.0194 21.612 11.6729 20.345C12.3244 19.0799 7.06766 17.1278 6.45424 16.2055C5.84065 15.2856 15.3939 14.4121 17.4269 14.1819C19.4612 13.9513 25.2922 10.4777 32.9662 6.71669C40.6388 2.95752 50.3447 0.5 68.8376 0.5C87.3304 0.5 92.4163 3.81852 92.4163 3.81852H90.2078C104.825 10.5343 113.114 16.3003 113.114 16.3003C114.649 16.7612 119.408 16.2014 119.408 16.2014C141.623 18.4646 149.606 20.806 149.606 20.806C149.606 20.806 147.579 21.7312 148 22.3448C148.423 22.9582 154.574 27.4167 156.491 29.1047C158.41 30.7927 161.043 30.6936 161.043 30.6936C163.049 31.6094 163.411 33.2317 163.334 34.3067C163.258 35.3811 162.451 40.5217 162.413 41.2133C162.375 41.9032 163.45 41.8269 163.103 43.092C162.758 44.3589 159.727 45.8542 159.727 45.8542L154.747 46.3336C155.047 44.8549 155.899 39.9325 154.654 36.8173C153.173 33.1172 149.385 25.6157 138.865 25.6157C130.361 25.6157 122.22 31.1777 122.22 42.8904C122.22 43.7573 122.219 44.5283 122.216 45.2164L48.1422 43.9326L48.1793 42.0569C48.1793 42.0569 45.9112 25.3683 31.3283 26.0933C18.8084 26.7145 16.5612 37.881 18.0465 44.5265C15.3056 44.2897 8.51355 43.7145 7.56677 43.7454C6.37793 43.7836 5.87881 42.7849 5.87881 42.7849C-0.757614 40.8663 1.54439 38.6805 1.54439 38.6805C0.0865936 35.7657 0.20108 33.847 0.00845337 31.1223C-0.182343 28.3982 2.92508 28.1292 2.92508 28.1292Z" fill="#A3A59E"/>
<path d="M31.3282 26.0933C45.9111 25.3683 48.1792 42.0569 48.1792 42.0569L48.0861 46.7014C47.1656 46.7002 46.6636 46.6985 46.6636 46.6985C46.8925 43.591 46.778 28.0792 31.2018 27.9081C17.1979 27.7536 19.1928 44.6272 19.1928 44.6272C19.1928 44.6272 18.7517 44.5878 18.0463 44.5264C16.5611 37.881 18.8083 26.7145 31.3282 26.0933Z" fill="#989A96"/>
<path d="M138.865 25.6157C149.385 25.6157 153.173 33.1173 154.654 36.8174C155.899 39.9326 155.047 44.8549 154.747 46.3336L153.743 46.4303C155.278 37.9133 151.709 25.866 137.399 27.0549C123.088 28.2456 122.819 44.2444 122.819 45.5477C122.819 46.8529 122.512 47.352 122.512 47.352C122.456 47.3383 122.351 47.3245 122.204 47.3108C122.215 46.221 122.221 44.7786 122.221 42.8904C122.221 31.1778 130.361 25.6157 138.865 25.6157Z" fill="#989A96"/>
<path d="M110.552 18.3502C110.552 18.3502 91.4733 5.1798 88.6896 4.69749C88.6896 4.69749 76.1112 1.18223 65.8556 2.15937C55.6019 3.13484 36.65 4.68848 36.1061 10.6364C35.5629 16.5843 36.4467 15.4962 36.4467 15.4962L110.552 18.3502Z" fill="#C8DAE5"/>
<path d="M71.0202 2.75L73.873 17.1123L67.7589 16.8208L66.7406 2.75H71.0202Z" fill="#2E3744"/>
<path d="M126.815 41.3551C126.815 48.0249 132.223 53.4327 138.892 53.4327C145.564 53.4327 150.972 48.0249 150.972 41.3551C150.972 34.6846 145.564 29.2769 138.892 29.2769C132.223 29.2769 126.815 34.6846 126.815 41.3551Z" fill="#242227"/>
<path d="M147.988 41.3551C147.988 46.3932 143.904 50.479 138.864 50.479C133.826 50.479 129.742 46.3932 129.742 41.3551C129.742 36.3164 133.826 32.2305 138.864 32.2305C143.904 32.2305 147.988 36.3164 147.988 41.3551Z" fill="#C2BDBA"/>
<path d="M142.031 35.2374L139.919 37.6364C139.919 37.6364 139.555 38.2137 139.055 38.2137C138.556 38.2137 138.192 37.8106 138.192 37.8106L135.984 35.2374C135.984 35.2374 135.677 34.8724 135.984 34.6238C136.291 34.3735 137.368 34.0085 138.864 34.0085C140.361 34.0085 142.569 34.4133 142.031 35.2374Z" fill="#242227"/>
<path d="M142.031 47.4727L139.92 45.0716C139.92 45.0716 139.555 44.4963 139.056 44.4963C138.557 44.4963 138.192 44.8993 138.192 44.8993L135.986 47.4727C135.986 47.4727 135.677 47.8374 135.986 48.0861C136.292 48.3366 137.369 48.7015 138.865 48.7015C140.361 48.7015 142.569 48.2966 142.031 47.4727Z" fill="#242227"/>
<path d="M132.673 38.3054L135.073 40.4159C135.073 40.4159 135.648 40.7809 135.648 41.28C135.648 41.7789 135.245 42.1439 135.245 42.1439L132.673 44.3511C132.673 44.3511 132.308 44.6593 132.058 44.3511C131.809 44.044 131.445 42.9666 131.445 41.4708C131.445 39.9736 131.847 37.7664 132.673 38.3054Z" fill="#242227"/>
<path d="M144.906 38.3037L142.507 40.4159C142.507 40.4159 141.931 40.7809 141.931 41.28C141.931 41.7789 142.334 42.1439 142.334 42.1439L144.906 44.3511C144.906 44.3511 145.271 44.6574 145.521 44.3511C145.77 44.044 146.135 42.9666 146.135 41.4708C146.135 39.9736 145.732 37.7664 144.906 38.3037Z" fill="#242227"/>
<path d="M20.5802 41.3551C20.5802 48.0249 25.9879 53.4327 32.6578 53.4327C39.3276 53.4327 44.7354 48.0249 44.7354 41.3551C44.7354 34.6846 39.3276 29.2769 32.6578 29.2769C25.9879 29.2769 20.5802 34.6846 20.5802 41.3551Z" fill="#242227"/>
<path d="M41.7529 41.3551C41.7529 46.3932 37.6671 50.479 32.6291 50.479C27.5904 50.479 23.5057 46.3932 23.5057 41.3551C23.5057 36.3164 27.5904 32.2305 32.6291 32.2305C37.6671 32.2305 41.7529 36.3164 41.7529 41.3551Z" fill="#C2BDBA"/>
<path d="M35.795 35.2374L33.6844 37.6364C33.6844 37.6364 33.3195 38.2137 32.8205 38.2137C32.3208 38.2137 31.9567 37.8106 31.9567 37.8106L29.7495 35.2374C29.7495 35.2374 29.4411 34.8724 29.7495 34.6238C30.0558 34.3735 31.1338 34.0085 32.6298 34.0085C34.1251 34.0085 36.334 34.4133 35.795 35.2374Z" fill="#242227"/>
<path d="M35.796 47.4727L33.6836 45.0716C33.6836 45.0716 33.3186 44.4963 32.8197 44.4963C32.32 44.4963 31.9558 44.8993 31.9558 44.8993L29.7486 47.4727C29.7486 47.4727 29.4403 47.8374 29.7486 48.0861C30.0549 48.3366 31.1329 48.7015 32.6289 48.7015C34.1259 48.7015 36.3331 48.2966 35.796 47.4727Z" fill="#242227"/>
<path d="M26.4373 38.3054L28.8365 40.4159C28.8365 40.4159 29.4136 40.7809 29.4136 41.28C29.4136 41.7789 29.0106 42.1439 29.0106 42.1439L26.4373 44.3511C26.4373 44.3511 26.0725 44.6593 25.8238 44.3511C25.5746 44.044 25.2086 42.9666 25.2086 41.4708C25.2086 39.9736 25.6127 37.7664 26.4373 38.3054Z" fill="#242227"/>
<path d="M38.6723 38.3037L36.2713 40.4159C36.2713 40.4159 35.696 40.7809 35.696 41.28C35.696 41.7789 36.0983 42.1439 36.0983 42.1439L38.6723 44.3511C38.6723 44.3511 39.0365 44.6574 39.2857 44.3511C39.5362 44.044 39.9004 42.9666 39.9004 41.4708C39.9004 39.9736 39.4981 37.7664 38.6723 38.3037Z" fill="#242227"/>
<path d="M37.1716 15.2183L70.7523 16.4714L109.679 18.2435C105.92 15.6243 91.8304 6.2726 87.6349 4.70812C82.7429 2.8825 67.8046 2.77275 66.1912 2.85395C64.5797 2.93439 47.5457 3.41854 39.9004 7.36849C39.9004 7.36849 34.9476 8.63656 37.1716 15.2183ZM42.8953 5.26859C42.8953 5.26859 52.8252 1.59886 68.7984 2.03417C68.7984 2.03417 82.2241 1.94106 88.5839 4.14949C88.5839 4.14949 98.4151 7.84776 112.251 18.894H110.078L109.342 18.8188L34.9614 15.8699C34.9936 15.1802 34.8606 13.8888 35.0652 12.375C35.4849 9.25792 36.5736 6.81749 42.8953 5.26859Z" fill="#F4F7F9"/>
<path d="M67.1803 2.15184C74.5341 2.15184 82.2896 2.73978 86.4792 3.61253C91.063 4.5677 99.6408 9.60637 110.63 17.7984L110.77 17.9022C113.458 19.906 114.029 20.8856 114.836 24.888C115.633 28.8332 114.557 41.3872 114.435 42.7812L48.1795 42.0572C47.1217 29.5308 36.744 26.5259 35.7948 26.2767C35.0012 24.299 34.9052 14.2116 35.3703 11.3401C35.8604 8.32152 37.2113 6.7111 48.0876 3.95305C53.9532 2.46489 61.7087 2.15184 67.1803 2.15184ZM114.683 43.0542L114.695 42.9308C114.707 42.7919 115.951 29.0306 115.104 24.8332C114.278 20.7438 113.694 19.7408 110.932 17.6852L110.794 17.5795C99.6114 9.24632 91.2227 4.32394 86.5341 3.34664C82.329 2.46901 74.5513 1.88184 67.1803 1.88184C61.6933 1.88184 53.9138 2.19473 48.0209 3.68884C36.9884 6.48811 35.6118 8.15637 35.1032 11.296C34.6166 14.2998 34.7186 24.5417 35.5718 26.4478L35.5992 26.5085L35.6666 26.5241C35.7781 26.5503 46.8909 29.2392 47.92 42.2022L47.929 42.3274L114.683 43.0542Z" fill="#1D1B1A"/>
<path d="M148.61 29.8645L155.452 29.8967C155.452 29.8967 155.733 31.2197 154.098 31.3223C152.466 31.4242 150.291 31.4642 150.291 31.4642C150.291 31.4642 149.298 30.3618 148.61 29.8645Z" fill="#BC3C21"/>
<path d="M45.8027 32.0183C45.7938 32.4928 60.8488 32.763 79.421 33.1159C97.9939 33.4671 113.049 33.7658 113.057 33.2929C113.066 32.8196 97.9586 32.3176 79.3866 31.9664C60.8143 31.614 45.8117 31.5448 45.8027 32.0183Z" fill="#989A96"/>
<path d="M72.051 42.4708C73.1701 34.3432 70.8653 16.2731 70.8407 16.0912L69.067 1.99902L68.7986 2.03428L70.5725 16.1265C70.5951 16.3082 72.8953 34.3415 71.7811 42.4345L72.051 42.4708Z" fill="#1D1B1A"/>
<path d="M82.8893 21.9328C82.8893 21.9328 82.9596 20.881 81.1369 20.4184C79.3161 19.9558 78.7967 19.9133 78.194 19.9133C77.5912 19.9133 73.7939 20.1667 73.7648 21.5679C73.7373 22.969 76.5824 23.4316 77.6889 23.5151C78.7967 23.5992 82.9596 23.7262 82.8893 21.9328Z" fill="#989A96"/>
<path d="M47.0235 21.116C47.0235 21.116 47.0939 20.0661 45.2732 19.6034C43.4504 19.1408 42.9318 19.0984 42.3284 19.0984C41.7274 19.0984 37.9282 19.3519 37.9009 20.7529C37.8734 22.1541 40.7168 22.6161 41.8252 22.7002C42.9318 22.7843 47.0939 22.9113 47.0235 21.116Z" fill="#989A96"/>
<path d="M75.2989 21.4684C75.2912 21.8076 75.5584 22.0867 75.8957 22.0944L80.92 22.2119C81.2575 22.2197 81.5383 21.9526 81.5461 21.6151L81.5492 21.4791C81.5568 21.1423 81.2897 20.8626 80.9522 20.8536L75.9279 20.7362C75.5904 20.7285 75.3097 20.9956 75.3019 21.333L75.2989 21.4684Z" fill="#E0E6F4"/>
<path d="M39.4334 20.6553C39.4256 20.9928 39.6928 21.2718 40.0302 21.2794L45.0564 21.397C45.3939 21.4047 45.6729 21.1376 45.6806 20.8002L45.6854 20.6642C45.6932 20.3267 45.4261 20.0477 45.0886 20.0388L40.0624 19.9213C39.725 19.9135 39.4459 20.1806 39.4363 20.5175L39.4334 20.6553Z" fill="#E0E6F4"/>
</svg>
