<svg width="190" height="177" viewBox="0 0 190 177" fill="none" xmlns="http://www.w3.org/2000/svg">
<path fill-rule="evenodd" clip-rule="evenodd" d="M80.1827 169.242C60.4537 165.762 41.7149 159.833 27.258 145.94C12.4567 131.717 -2.20445 113.252 0.759659 92.9205C3.57224 73.6288 28.0418 68.1823 40.7476 53.4144C55.6408 36.104 57.8114 5.07695 80.1827 0.607147C103.191 -3.98997 121.357 18.5478 139.267 33.7303C159.709 51.0598 185.83 66.2912 189.08 92.9205C192.554 121.376 179.178 152.171 155.731 168.604C134.279 183.639 105.966 173.79 80.1827 169.242Z" fill="#D7FFF1"/>
<g clip-path="url(#clip0_1491_67325)">
<path d="M94.9287 80.8181C84.9189 80.6712 71.0141 80.886 68.1513 88.5762L61.1177 105.081C60.8058 104.724 60.3966 104.466 59.9403 104.337L57.1085 103.541C56.7971 103.452 56.4713 103.426 56.1499 103.464C55.8285 103.502 55.5177 103.603 55.2354 103.762C54.9531 103.92 54.7049 104.133 54.505 104.387C54.305 104.642 54.1573 104.933 54.0704 105.245L52.593 110.491C52.5048 110.802 52.479 111.128 52.517 111.449C52.555 111.771 52.6561 112.081 52.8144 112.363C52.9727 112.646 53.1852 112.894 53.4397 113.094C53.6942 113.294 53.9856 113.441 54.2973 113.528L57.1299 114.326C57.2245 114.351 57.319 114.36 57.4136 114.376C56.8721 115.725 56.5352 117.208 56.5352 118.091V137.273C56.5352 138.257 56.9478 138.712 57.6026 138.925V144.035C57.6018 144.489 57.6906 144.938 57.8638 145.358C58.037 145.777 58.2913 146.158 58.612 146.478C58.9328 146.799 59.3137 147.053 59.7329 147.227C60.1521 147.4 60.6014 147.489 61.055 147.488H70.3171C70.7707 147.489 71.22 147.4 71.6392 147.227C72.0584 147.053 72.4393 146.799 72.76 146.478C73.0808 146.158 73.335 145.777 73.5083 145.358C73.6815 144.938 73.7702 144.489 73.7694 144.035V139.113H117.173V144.035C117.173 144.489 117.261 144.938 117.435 145.358C117.608 145.777 117.862 146.158 118.183 146.479C118.504 146.799 118.885 147.054 119.304 147.227C119.724 147.4 120.173 147.489 120.627 147.488H129.887C130.341 147.489 130.79 147.4 131.21 147.227C131.629 147.054 132.01 146.8 132.331 146.479C132.652 146.158 132.906 145.777 133.08 145.358C133.253 144.939 133.342 144.489 133.341 144.035V138.926C133.997 138.713 134.407 138.258 134.407 137.274V118.092C134.407 117.209 134.069 115.726 133.528 114.376C133.623 114.362 133.718 114.353 133.812 114.327L136.646 113.529C136.957 113.442 137.249 113.294 137.503 113.094C137.757 112.894 137.97 112.646 138.128 112.364C138.286 112.082 138.387 111.771 138.425 111.45C138.463 111.129 138.437 110.803 138.349 110.492L136.873 105.246C136.786 104.934 136.639 104.642 136.439 104.388C136.239 104.133 135.99 103.921 135.708 103.762C135.426 103.604 135.115 103.503 134.793 103.465C134.472 103.427 134.146 103.453 133.834 103.542L131.003 104.338C130.546 104.467 130.137 104.725 129.824 105.082L122.791 88.5771C119.722 80.77 104.938 80.9659 94.9278 80.819M123.596 106.124C123.763 106.619 123.264 106.949 122.743 106.979C122.743 106.979 121.037 107.124 118.686 107.314C116.897 103.133 112.739 100.187 107.922 100.187C102.635 100.187 98.1473 103.737 96.7077 108.57C96.3089 108.575 95.8457 108.592 95.4753 108.592C86.3679 108.592 68.1977 106.979 68.1977 106.979C67.6769 106.948 67.1776 106.618 67.3443 106.124C74.3418 84.7921 74.5507 86.3958 95.0834 86.6202C115.615 86.8436 115.735 85.3198 123.596 106.124ZM107.922 104.219C109.189 104.215 110.438 104.526 111.555 105.125C112.673 105.724 113.623 106.591 114.322 107.649C110.209 107.954 105.477 108.266 101.066 108.447C101.701 107.173 102.679 106.102 103.89 105.355C105.102 104.608 106.498 104.214 107.922 104.219ZM60.584 111.141C60.6459 111.233 60.7061 111.325 60.7748 111.413H60.5084L60.584 111.141ZM65.1339 116.498C66.9352 116.469 76.6056 119.724 76.6056 119.724C77.8131 120.064 78.8762 122.347 78.8702 123.602C78.8521 127.827 67.9476 126.36 63.5207 126.378C63.2232 126.378 62.9286 126.32 62.6536 126.206C62.3786 126.093 62.1288 125.926 61.9184 125.716C61.708 125.506 61.5412 125.256 61.4276 124.981C61.3139 124.706 61.2556 124.411 61.2561 124.114V118.764C61.2561 117.509 63.3325 116.529 65.1339 116.498ZM125.808 116.498C127.61 116.528 129.686 117.509 129.686 118.764V124.114C129.686 124.411 129.628 124.706 129.515 124.981C129.401 125.256 129.234 125.506 129.024 125.716C128.813 125.927 128.564 126.094 128.289 126.207C128.014 126.321 127.719 126.379 127.421 126.378C122.995 126.361 112.09 127.827 112.072 123.602C112.066 122.347 113.129 120.064 114.336 119.724C114.336 119.724 124.007 116.469 125.808 116.498Z" fill="#026442"/>
<path d="M105.042 106.567H98.7949L102.065 103.297L111.99 98.1592L118.412 105.633C114.676 106.1 116.544 105.633 105.042 106.567Z" fill="#D7FFF1" stroke="#D7FFF1" stroke-width="3.9235"/>
</g>
<rect x="100.236" y="57.7373" width="52.114" height="40.8226" rx="10.4228" fill="#D7FFF1"/>
<path d="M115.576 56H136.424C139.084 56 141.177 56 142.862 56.1382C144.577 56.2764 146.014 56.5657 147.317 57.2246C149.449 58.3033 151.182 60.0249 152.267 62.1425C152.931 63.4379 153.222 64.865 153.361 66.5718C153.5 68.2432 153.5 70.3261 153.5 72.965V84.035C153.5 86.6771 153.5 88.7568 153.361 90.4314C153.222 92.135 152.931 93.5621 152.267 94.8575C151.182 96.9751 149.449 98.6966 147.317 99.7754C146.014 100.434 144.577 100.724 142.859 100.862C141.177 101 139.084 101 136.424 101H115.576C112.92 101 110.826 101 109.138 100.862C107.423 100.724 105.986 100.434 104.683 99.7754C102.551 98.6966 100.818 96.9751 99.7326 94.8575C99.0694 93.5621 98.7782 92.135 98.6391 90.4282C98.5 88.7568 98.5 86.6739 98.5 84.035V72.965C98.5 70.3261 98.5 68.2464 98.6391 66.5686C98.7782 64.865 99.0694 63.4379 99.7326 62.1425C100.818 60.0249 102.551 58.3033 104.683 57.2246C105.986 56.5657 107.423 56.2764 109.141 56.1382C110.823 56 112.92 56 115.576 56ZM109.403 59.3429C107.886 59.465 106.925 59.6964 106.151 60.0886C104.849 60.7479 103.752 61.7454 102.974 62.975L120.28 77.8764C121.5 78.9275 122.351 79.6571 123.059 80.1779C123.751 80.6857 124.214 80.9236 124.635 81.0457C125.528 81.3093 126.476 81.3093 127.369 81.0457C127.789 80.9268 128.252 80.6857 128.944 80.1779C129.656 79.6571 130.5 78.9243 131.723 77.8764L149.026 62.975C148.248 61.7454 147.151 60.7479 145.849 60.0886C145.075 59.6996 144.114 59.465 142.597 59.3396C141.057 59.2143 139.096 59.2143 136.353 59.2143H115.647C112.904 59.2143 110.94 59.2143 109.403 59.3429ZM101.865 66.8321C101.735 68.3589 101.735 70.31 101.735 73.0357V83.9643C101.735 86.69 101.735 88.6411 101.865 90.1679C101.988 91.6754 102.221 92.63 102.615 93.3982C102.929 94.0089 103.321 94.577 103.78 95.0889L113.531 85.3979C113.682 85.2484 113.86 85.1299 114.057 85.049C114.253 84.9682 114.464 84.9265 114.676 84.9265C114.889 84.9265 115.1 84.9682 115.296 85.049C115.493 85.1299 115.671 85.2484 115.822 85.3979C115.972 85.5473 116.091 85.7247 116.173 85.9199C116.254 86.1151 116.296 86.3244 116.296 86.5357C116.296 86.747 116.254 86.9563 116.173 87.1515C116.091 87.3468 115.972 87.5241 115.822 87.6736L106.404 97.0271C107.132 97.3486 108.047 97.5511 109.403 97.6604C110.94 97.7857 112.904 97.7857 115.647 97.7857H136.353C139.096 97.7857 141.057 97.7857 142.597 97.6571C143.956 97.5479 144.868 97.3486 145.596 97.0271L136.181 87.6736C136.031 87.5244 135.912 87.3472 135.83 87.1521C135.749 86.9571 135.707 86.748 135.707 86.5368C135.706 86.1104 135.877 85.7012 136.18 85.3995C136.483 85.0977 136.895 84.928 137.324 84.9277C137.753 84.9274 138.165 85.0965 138.469 85.3979L148.22 95.0889C148.677 94.5789 149.065 94.0154 149.385 93.3982C149.776 92.63 150.012 91.6754 150.139 90.1679C150.265 88.6379 150.265 86.69 150.265 83.9643V73.0357C150.265 70.31 150.265 68.3589 150.135 66.8321L150.087 66.3179L133.794 80.345C132.629 81.3479 131.691 82.1546 130.869 82.7589C130.025 83.3825 129.209 83.8614 128.281 84.1314C126.792 84.5663 125.208 84.5663 123.719 84.1314C122.791 83.8614 121.979 83.3825 121.131 82.7589C120.312 82.1579 119.371 81.3446 118.209 80.3482L101.913 66.3114L101.865 66.8321Z" fill="black"/>
<defs>
<clipPath id="clip0_1491_67325">
<rect width="85.9434" height="85.9434" fill="white" transform="translate(52.5 71.167)"/>
</clipPath>
</defs>
</svg>
