<svg width="167" height="62" viewBox="0 0 167 62" fill="none" xmlns="http://www.w3.org/2000/svg">
<g clip-path="url(#clip0_2317_7913)">
<path d="M59.7076 29.5836C60.0215 29.3365 60.3376 29.092 60.6557 28.8499C76.126 16.987 94.2259 8.7145 94.2259 8.7145C102.323 4.83318 111.367 2.85652 120.412 2.00085C133.583 0.754322 143.755 3.16654 147.383 7.58803C152.305 13.5838 147.864 24.1025 147.864 24.1025L134.456 24.2581C134.456 24.2581 138.434 3.35634 111.359 6.73009C111.359 6.73009 106.218 7.07091 96.1272 11.1827C96.1272 11.1827 79.5227 17.3028 62.3159 30.4127C61.9739 30.6735 61.6312 30.9375 61.2877 31.2046" fill="#761B1C"/>
<path d="M44.1613 45.9739C39.197 50.2523 33.9594 54.9978 28.4523 60.2629C32.5966 55.2771 38.2691 49.3471 42.8038 45.019L44.1613 45.9739Z" fill="#761B1C"/>
<path d="M1.05943 45.655L1.11406 36.4159L4.29758 36.4347L4.28427 38.685C5.78975 41.4637 7.77562 42.86 10.2419 42.8739C11.5002 42.8813 12.5637 42.5031 13.4322 41.7392C14.3008 40.9754 14.7388 39.972 14.7461 38.7291C14.7533 37.5225 14.4047 36.6515 13.7004 36.116C12.9961 35.5805 11.6647 35.0448 9.70624 34.5089C7.42951 33.8866 5.74364 33.3006 4.64863 32.7509C3.5821 32.2239 2.68024 31.4149 2.0409 30.4117C1.39183 29.4012 1.07138 28.2056 1.07955 26.825C1.09217 24.6908 1.81284 22.9903 3.24157 21.7236C4.6703 20.4569 6.45667 19.8303 8.60068 19.8437C10.637 19.8557 12.5237 20.5258 14.2608 21.8538L14.2708 20.1561L17.381 20.1745L17.3353 27.8953L14.2283 27.8769L14.2388 26.1017C12.9453 24.131 11.1528 23.1385 8.86126 23.1243C7.47083 23.116 6.40148 23.4299 5.65319 24.0658C4.90491 24.7018 4.52778 25.465 4.52182 26.3556C4.50639 27.0021 4.70177 27.6359 5.07844 28.1615C5.4413 28.6722 5.93986 29.0711 6.51769 29.313C7.10206 29.5605 8.25349 29.9084 9.97198 30.3569C12.2132 30.9532 13.8384 31.5077 14.8477 32.0205C15.8569 32.5334 16.7237 33.3833 17.4479 34.5705C18.1728 35.759 18.5307 37.1215 18.5216 38.6581C18.5088 40.8293 17.7327 42.6182 16.1934 44.0248C14.6541 45.4313 12.7554 46.1276 10.4975 46.1135C8.18011 46.0998 6.09941 45.2521 4.25538 43.5704L4.24294 45.6739L1.05943 45.655Z" fill="white"/>
<path d="M23.1874 42.6946L23.3013 23.4299L20.0999 23.411L20.1182 20.3187L26.7957 20.3582L26.7379 30.1279C28.8338 28.459 30.8206 27.6301 32.6983 27.6412C33.8699 27.6481 34.8321 27.8985 35.5849 28.3923C36.3053 28.8418 36.8475 29.5273 37.1191 30.3319C37.3891 31.1325 37.5196 32.3011 37.5105 33.8376L37.4576 42.7842L40.4765 42.802L40.4582 45.8933L33.9632 45.8549L34.0273 35.0188C34.0352 33.678 33.9979 32.7815 33.9153 32.3294C33.8334 31.881 33.5838 31.4805 33.2172 31.2096C32.8267 30.9122 32.3474 30.755 31.8567 30.7632C30.5145 30.7552 28.8025 31.5075 26.7208 33.0199L26.6634 42.7162L29.7369 42.7343L29.7186 45.8256L19.9667 45.7679L19.985 42.6756L23.1874 42.6946Z" fill="white"/>
<path d="M60.3653 38.0289L45.4754 37.9408C45.6845 39.5765 46.323 40.9037 47.3907 41.9223C48.4585 42.9408 49.8278 43.4554 51.4985 43.466C53.9256 43.4804 55.8538 42.5158 57.2831 40.5725L60.3422 41.9443C59.3905 43.4369 58.0313 44.6257 56.4252 45.3701C54.8531 46.1041 53.1371 46.4784 51.4021 46.4656C48.6947 46.4495 46.3854 45.591 44.4744 43.8901C42.5634 42.1891 41.616 39.9059 41.6322 37.0404C41.6483 34.3204 42.5976 32.0889 44.48 30.346C46.3625 28.6032 48.5173 27.7375 50.9444 27.7491C53.3212 27.7631 55.4721 28.6329 57.3969 30.3585C59.3218 32.084 60.3113 34.6408 60.3653 38.0289ZM56.7941 35.4837C56.5582 34.2373 55.9185 33.108 54.8752 32.0958C53.8319 31.0837 52.5482 30.5731 51.0243 30.5641C49.6338 30.5558 48.4428 31.0032 47.451 31.9061C46.4593 32.8091 45.8487 33.9796 45.6193 35.4176L56.7941 35.4837Z" fill="white"/>
<path d="M81.39 38.1532L66.5 38.0651C66.7106 39.7008 67.3494 41.0279 68.4164 42.0465C69.4835 43.0651 70.8524 43.5797 72.5232 43.5903C74.9503 43.6046 76.8785 42.6401 78.3077 40.6967L81.3731 42.0686C80.422 43.5616 79.0626 44.7506 77.4562 45.4944C75.8854 46.228 74.1709 46.6022 72.4373 46.5899C69.7291 46.5739 67.4195 45.7154 65.5085 44.0144C63.5975 42.3134 62.6504 40.0302 62.6674 37.1647C62.6835 34.4447 63.6331 32.2132 65.5162 30.4704C67.3994 28.7275 69.5521 27.8618 71.9744 27.8734C74.3512 27.8874 76.5016 28.7572 78.4258 30.4828C80.35 32.2083 81.338 34.7651 81.39 38.1532ZM77.8198 35.608C77.5832 34.3615 76.9432 33.2322 75.8999 32.2201C74.8565 31.2079 73.5729 30.6973 72.0489 30.6883C70.6585 30.6801 69.4674 31.1275 68.4757 32.0304C67.4839 32.9334 66.8723 34.1038 66.6408 35.5419L77.8198 35.608Z" fill="white"/>
<path d="M89.9791 28.4706L89.9665 30.6118C92.2081 29.0172 94.2495 28.2253 96.0908 28.2362C97.238 28.243 98.1847 28.5198 98.9309 29.0667C99.677 29.6136 100.164 30.2806 100.392 31.0678C100.619 31.8556 100.728 33.0059 100.719 34.5186L100.668 43.1538L103.65 43.1714L103.632 46.2626L97.1747 46.2244L97.2431 34.6428C97.2511 33.3013 97.0549 32.4263 96.6547 32.0177C96.4644 31.8179 96.2349 31.6596 95.9805 31.5527C95.7262 31.4459 95.4525 31.3927 95.1766 31.3966C93.6387 31.3875 91.8961 32.1273 89.9487 33.616L89.8926 43.0932L92.9461 43.1112L92.9279 46.2025L83.2882 46.1455L83.3065 43.05L86.4166 43.0684L86.4848 31.5423L83.3746 31.524L83.3929 28.4317L89.9791 28.4706Z" fill="white"/>
<path d="M126.734 36.0431L130.034 37.9103C129.273 40.7363 127.757 42.9201 125.487 44.4614C123.216 46.0027 120.611 46.7647 117.671 46.7473C113.817 46.7245 110.732 45.456 108.418 42.9417C106.103 40.4274 104.956 37.3289 104.976 33.6462C105 29.6092 106.19 26.4022 108.546 24.0252C110.902 21.6483 113.965 20.471 117.733 20.4932C121.063 20.5129 123.856 21.4383 126.114 23.2692L126.128 20.9456L129.42 20.965L129.372 29.144L126.08 29.1246C125.399 27.5095 124.221 26.1536 122.717 25.2541C121.275 24.3582 119.613 23.8767 117.915 23.8625C115.377 23.8475 113.289 24.7499 111.65 26.5697C110.011 28.3895 109.183 30.6958 109.167 33.4885C109.15 36.3547 110.008 38.7017 111.741 40.5296C113.475 42.3574 115.537 43.2784 117.928 43.2926C119.891 43.3042 121.681 42.6838 123.299 41.4316C124.917 40.1793 126.062 38.3831 126.734 36.0431Z" fill="#AF8C32"/>
<path d="M149.85 43.4436L149.832 46.5348L143.758 46.4989L143.771 44.3419C142.078 45.9657 140.195 46.7714 138.121 46.7592C136.575 46.7722 135.081 46.2017 133.936 45.1615C132.754 44.1059 132.168 42.7605 132.178 41.1254C132.187 39.4791 132.827 38.1169 134.096 37.0387C135.365 35.9605 136.889 35.4267 138.67 35.4373C140.327 35.4471 141.928 35.9567 143.472 36.9662L143.482 35.2088C143.488 34.307 143.406 33.6113 143.239 33.1216C143.071 32.632 142.674 32.1906 142.048 31.7975C141.421 31.4037 140.602 31.2038 139.591 31.1979C137.844 31.1875 136.577 31.8753 135.792 33.2611L132.467 32.3627C133.959 29.6157 136.516 28.2526 140.139 28.2733C141.468 28.2812 142.616 28.468 143.584 28.8338C144.552 29.1995 145.272 29.6673 145.744 30.237C146.198 30.7706 146.523 31.4015 146.694 32.0809C146.855 32.7404 146.931 33.7894 146.922 35.2281L146.873 43.4249L149.85 43.4436ZM143.449 39.9106C141.959 38.7302 140.444 38.1354 138.907 38.1263C137.943 38.1206 137.137 38.3954 136.49 38.9509C135.843 39.5063 135.515 40.23 135.507 41.122C135.496 41.5095 135.564 41.8952 135.708 42.2549C135.853 42.6147 136.07 42.9407 136.346 43.2127C136.909 43.7753 137.679 44.0595 138.655 44.0653C140.339 44.0752 141.934 43.3772 143.442 41.9711L143.449 39.9106Z" fill="#AF8C32"/>
<path d="M155.175 43.475L155.243 31.9489L151.677 31.9279L151.696 28.8356L158.045 28.8731L158.021 32.8577C158.374 31.8907 158.935 31.0132 159.665 30.2879C160.363 29.6083 161.1 29.1614 161.875 28.9471C162.65 28.7329 163.709 28.6294 165.051 28.6367L165.966 28.6421L165.945 32.1548L165.25 32.1507C163.482 32.1403 162.16 32.309 161.286 32.6568C160.411 33.0047 159.761 33.6447 159.335 34.5769C158.91 35.5076 158.69 37.1803 158.676 39.5948L158.653 43.4924L162.513 43.5153L162.494 46.6065L151.589 46.542L151.607 43.4539L155.175 43.475Z" fill="#AF8C32"/>
</g>
<defs>
<clipPath id="clip0_2317_7913">
<rect width="164.895" height="59.176" fill="white" transform="translate(1.23047 0.924957) rotate(0.338812)"/>
</clipPath>
</defs>
</svg>
