<svg width="260" height="93" viewBox="0 0 260 93" fill="none" xmlns="http://www.w3.org/2000/svg">
<path d="M92.7166 44.3431C93.206 43.9533 93.6987 43.5674 94.1947 43.1853C118.314 24.4626 146.585 11.3387 146.585 11.3387C159.231 5.1849 173.377 2.00533 187.535 0.581428C208.151 -1.49284 224.105 2.19092 229.829 9.08216C237.592 18.4271 230.735 34.9424 230.735 34.9424L209.736 35.3103C209.736 35.3103 215.774 2.53745 173.4 8.07212C173.4 8.07212 165.352 8.65351 149.586 15.1867C149.586 15.1867 123.637 24.9258 96.8093 45.6176C96.276 46.0293 95.7417 46.4459 95.2063 46.8674" fill="#761B1C"/>
<path d="M68.5249 70.1574C60.7895 76.9041 52.6304 84.3849 44.0541 92.682C50.4986 84.8349 59.3278 75.495 66.3899 68.6743L68.5249 70.1574Z" fill="#761B1C"/>
<path d="M1.01337 70.0571V55.5865H5.9995V59.111C8.38308 63.4489 11.5063 65.6173 15.369 65.6163C17.3398 65.6163 19.0019 65.0141 20.3552 63.8097C21.7084 62.6053 22.3851 61.0298 22.3851 59.083C22.3851 57.1933 21.8311 55.8323 20.723 55.0002C19.615 54.1681 17.5249 53.3414 14.4526 52.5203C10.8811 51.5666 8.23527 50.6644 6.51519 49.8137C4.83993 48.9982 3.41996 47.7396 2.40935 46.1743C1.38344 44.5976 0.870483 42.7281 0.870483 40.5657C0.870483 37.223 1.98344 34.5531 4.20935 32.556C6.43527 30.5589 9.22724 29.5609 12.5853 29.562C15.7747 29.562 18.7358 30.594 21.4687 32.6578V29.9989H26.3398V42.0914H21.4736V39.311C19.4294 36.2365 16.6128 34.6987 13.0238 34.6976C10.846 34.6976 9.17414 35.1991 8.00808 36.202C6.84202 37.2049 6.25844 38.4038 6.25735 39.7987C6.23917 40.8113 6.55104 41.8023 7.14585 42.6219C7.71888 43.4183 8.5034 44.0384 9.41063 44.4121C10.3282 44.7942 12.1347 45.3285 14.8303 46.015C18.346 46.9281 20.8966 47.7816 22.482 48.5754C24.0674 49.3692 25.4327 50.6923 26.578 52.5449C27.7243 54.3996 28.2975 56.5303 28.2975 58.9369C28.2975 62.3376 27.0986 65.1465 24.7008 67.3637C22.303 69.5809 19.3358 70.6889 15.7993 70.6878C12.1698 70.6878 8.90315 69.3794 5.9995 66.7626V70.0571H1.01337Z" fill="white"/>
<path d="M35.6405 65.2156V35.0426H30.6264V30.1993H41.0848V45.501C44.352 42.8677 47.456 41.5511 50.3968 41.5511C52.2319 41.5511 53.7412 41.9344 54.9248 42.7008C56.0572 43.3982 56.9127 44.4668 57.3456 45.7243C57.7759 46.9758 57.991 48.8048 57.991 51.2114V65.2238H62.7193V70.0654H52.5467V53.0935C52.5467 50.9935 52.4799 49.5898 52.3463 48.8825C52.2139 48.1809 51.8193 47.5561 51.2426 47.1351C50.6283 46.673 49.8762 46.4311 49.1076 46.4486C47.0054 46.4486 44.3311 47.6426 41.0848 50.0305V65.2172H45.8985V70.0588H30.6248V65.2156H35.6405Z" fill="white"/>
<path d="M93.8267 57.5639H70.5055C70.8482 60.1238 71.8605 62.1964 73.5422 63.7818C75.224 65.3672 77.3732 66.1604 79.99 66.1615C83.7915 66.1615 86.8024 64.6331 89.0229 61.5761L93.8267 63.6964C92.35 66.0428 90.2322 67.9173 87.7238 69.098C85.2684 70.2623 82.5843 70.8643 79.8668 70.8603C75.6263 70.8603 72.0017 69.5371 68.9929 66.8907C65.9842 64.2444 64.4792 60.6772 64.4781 56.1893C64.4781 51.929 65.9442 48.4254 68.8763 45.6783C71.8084 42.9312 75.1752 41.5555 78.9767 41.5511C82.6993 41.5511 86.076 42.8935 89.1066 45.5781C92.1373 48.2628 93.7106 52.2581 93.8267 57.5639ZM88.2099 53.6108C87.8289 51.6608 86.8167 49.898 85.1732 48.3225C83.5298 46.7469 81.5147 45.9591 79.1278 45.9591C76.9501 45.9591 75.0887 46.6708 73.5438 48.0942C71.999 49.5175 71.0535 51.3564 70.7075 53.6108H88.2099Z" fill="white"/>
<path d="M126.756 57.5639H103.434C103.779 60.1238 104.792 62.1964 106.473 63.7818C108.153 65.3672 110.302 66.1604 112.919 66.1615C116.72 66.1615 119.731 64.6331 121.952 61.5761L126.765 63.6964C125.29 66.0435 123.172 67.9182 120.663 69.098C118.209 70.2615 115.527 70.8635 112.812 70.8603C108.571 70.8603 104.945 69.5371 101.937 66.8907C98.9278 64.2444 97.4235 60.6772 97.4235 56.1893C97.4235 51.929 98.8901 48.4254 101.823 45.6783C104.756 42.9312 108.12 41.5555 111.914 41.5511C115.636 41.5511 119.013 42.8935 122.042 45.5781C125.072 48.2628 126.643 52.2581 126.756 57.5639ZM121.14 53.6108C120.758 51.6608 119.746 49.898 118.102 48.3225C116.459 46.7469 114.444 45.9591 112.057 45.9591C109.879 45.9591 108.018 46.6708 106.473 48.0942C104.928 49.5175 103.981 51.3564 103.631 53.6108H121.14Z" fill="white"/>
<path d="M140.121 42.3197V45.6734C143.617 43.1551 146.807 41.896 149.691 41.896C151.488 41.896 152.973 42.3208 154.146 43.1704C155.32 44.0201 156.089 45.0602 156.454 46.2909C156.816 47.5226 156.998 49.3232 156.998 51.6925V65.2172H161.668V70.0588H151.555V51.9192C151.555 49.8181 151.24 48.4495 150.609 47.8133C150.309 47.5022 149.948 47.2564 149.549 47.0913C149.149 46.9262 148.72 46.8455 148.288 46.8542C145.88 46.8542 143.157 48.029 140.121 50.3787V65.2221H144.903V70.0637H129.805V65.2155H134.677V47.163H129.805V42.3197H140.121Z" fill="white"/>
<path d="M197.757 53.8391L202.944 56.7329C201.778 61.1661 199.424 64.6003 195.882 67.0353C192.34 69.4703 188.267 70.6878 183.663 70.6878C177.625 70.6878 172.783 68.7296 169.134 64.8132C165.486 60.8968 163.661 56.0546 163.659 50.2867C163.659 43.9637 165.493 38.93 169.161 35.1855C172.829 31.4409 177.614 29.5687 183.516 29.5687C188.731 29.5687 193.115 30.992 196.668 33.8387V30.1993H201.825V43.0095H196.668C195.588 40.4864 193.731 38.3737 191.367 36.9789C189.099 35.589 186.492 34.8503 183.832 34.8439C179.857 34.8439 176.595 36.2765 174.045 39.1418C171.495 42.0072 170.22 45.6269 170.22 50.001C170.22 54.49 171.586 58.1579 174.318 61.0046C177.049 63.8513 180.288 65.2747 184.032 65.2747C187.107 65.2747 189.905 64.2866 192.428 62.3103C194.95 60.334 196.727 57.5103 197.757 53.8391Z" fill="#AF8C32"/>
<path d="M234.026 65.2156V70.0572H224.514V66.6789C221.877 69.2377 218.935 70.517 215.688 70.517C213.266 70.5518 210.92 69.6721 209.119 68.0535C207.257 66.4112 206.327 64.3096 206.327 61.7486C206.327 59.1701 207.315 57.0307 209.293 55.3304C211.27 53.63 213.653 52.7798 216.442 52.7798C219.038 52.7798 221.549 53.5632 223.977 55.13V52.3774C223.977 50.965 223.843 49.8762 223.576 49.1108C223.309 48.3455 222.683 47.6579 221.699 47.0481C220.714 46.4371 219.429 46.1316 217.846 46.1316C215.109 46.1316 213.131 47.2205 211.914 49.3982L206.699 48.022C209.01 43.7059 213.002 41.5473 218.677 41.5462C220.757 41.5462 222.557 41.8282 224.077 42.392C225.597 42.9559 226.729 43.6818 227.473 44.5698C228.189 45.4012 228.704 46.3864 228.978 47.4488C229.236 48.4802 229.365 50.1225 229.364 52.3758V65.2139L234.026 65.2156ZM223.969 59.7417C221.623 57.9066 219.246 56.9891 216.838 56.9891C215.328 56.9891 214.069 57.4271 213.06 58.303C212.052 59.1789 211.545 60.3154 211.541 61.7125C211.527 62.3194 211.638 62.9228 211.867 63.4849C212.097 64.047 212.44 64.5557 212.875 64.9791C213.762 65.855 214.97 66.293 216.499 66.293C219.136 66.293 221.628 65.1849 223.977 62.9689L223.969 59.7417Z" fill="#AF8C32"/>
<path d="M242.368 65.2155V47.163H236.784V42.3197H246.728V48.5606C247.271 47.0427 248.142 45.6632 249.279 44.5205C250.366 43.4497 251.516 42.7429 252.728 42.4002C253.94 42.0575 255.597 41.8856 257.699 41.8845H259.131V47.3863H258.042C255.273 47.3863 253.206 47.6628 251.839 48.2157C250.473 48.7686 249.46 49.777 248.801 51.2409C248.144 52.7026 247.815 55.3243 247.815 59.1061V65.2106H253.861V70.0522H236.781V65.2155H242.368Z" fill="#AF8C32"/>
</svg>
