<svg width="155" height="64" viewBox="0 0 155 64" fill="none" xmlns="http://www.w3.org/2000/svg">
<path d="M146.732 52.3911C146.732 52.3911 143.123 55.1255 142.9 54.9672C142.676 54.809 143.069 53.8622 142.9 53.6955C142.731 53.5287 140.381 52.9501 140.381 52.9501L116.365 54.3824C116.365 54.3824 112.874 54.7028 112.218 54.4099C111.561 54.1152 43.0866 52.1408 43.0866 52.1408L42.312 52.9771C42.312 52.9771 40.3124 52.3468 39.0839 53.9256C37.8571 55.5033 9.68466 52.1858 9.09027 52.9771C8.49532 53.7689 10.6747 30.8268 10.6747 30.8268L68.1184 33.8883L134.515 30.5798C134.515 30.5798 149.081 41.4342 146.732 52.3911Z" fill="#100F0D"/>
<path d="M87.1028 3.46763C87.1028 3.46763 84.2698 1.16593 80.8334 0.847113C77.3963 0.528438 32.687 -0.464367 22.3081 0.917371C11.9275 2.29968 52.1019 12.8211 52.1019 12.8211L87.1028 3.46763Z" fill="#CACDD7"/>
<path d="M117.004 21.5362C117.004 21.5362 92.0993 4.56669 90.2573 4.28322C88.4153 3.99931 87.4943 5.6286 87.4943 5.6286L115.623 23.8037L117.004 21.5362Z" fill="#9195A3"/>
<path d="M113.031 21.531C113.031 21.531 98.7318 10.222 89.6196 4.47341L91.7691 4.94194C91.7691 4.94194 88.1716 0.59572 60.1329 1.48364C32.0945 2.37156 20.1796 1.76367 13.0288 2.55849C13.0288 2.55849 11.9153 2.34857 11.8143 4.89423C11.8143 4.89423 14.6648 6.24968 14.5715 6.9978C14.4784 7.74478 27.7023 19.9893 27.7023 19.9893L83.4038 23.1199L113.031 21.531Z" fill="#292B2D"/>
<path d="M3.41175 42.6033L3.04695 35.4414C3.04695 35.4414 1.12315 35.7388 0.857638 37.0976C0.593273 38.4586 -0.932716 45.6896 0.857638 46.5157C2.64914 47.3407 0.958029 49.566 0.958029 49.566L3.31136 52.4165C3.31136 52.4165 5.83127 44.0945 3.41175 42.6033Z" fill="#212121"/>
<path d="M151.013 36.575C151.013 36.575 153.031 36.8354 153.356 39.6989C153.682 42.564 154.071 48.1612 152.901 51.3506C151.729 54.5391 150.752 51.9748 150.752 51.9748L151.013 36.575Z" fill="#212121"/>
<path d="M152.995 47.6033C152.887 49.3229 152.979 50.7265 153.202 50.7412C153.423 50.7558 153.692 49.3734 153.799 47.6539C153.907 45.9353 153.815 44.53 153.593 44.516C153.371 44.503 153.103 45.8836 152.995 47.6033Z" fill="#B9B8B7"/>
<path d="M7.70495 17.0981C7.70495 17.0981 6.63299 16.6082 6.45066 17.0981C6.26661 17.5881 7.00241 18.1286 7.37726 18.1774C7.75384 18.2261 7.70495 17.0981 7.70495 17.0981Z" fill="#232122"/>
<path d="M11.7449 4.3283C11.7449 4.3283 14.238 3.56106 14.972 7.3955C15.7078 11.2304 15.5154 21.1037 15.5154 21.1037L10.3705 28.7083L5.25643 30.2501C5.25643 30.2501 5.8014 29.4111 6.02539 27.0792C6.02539 27.0792 6.31275 26.6959 6.31275 25.9286C6.31275 25.1614 7.49524 18.93 6.95199 18.7705C6.95199 18.7705 8.51676 10.9413 11.7449 4.3283Z" fill="#646367"/>
<path d="M145.275 25.946C145.275 25.946 147.475 27.0836 147.703 27.5421C147.932 28.0017 149.748 30.9646 149.334 33.9559C148.92 36.9456 144.995 35.3035 144.995 35.3035L139.934 32.407L132.419 24.97C132.419 24.97 143.206 24.3167 145.275 25.946Z" fill="#B5B2BC"/>
<path d="M12.3208 6.17041L10.8987 9.14552C10.8987 9.14552 11.6253 10.0049 11.361 11.1964C11.0968 12.3856 9.57639 19.5609 9.14536 20.2563C8.71591 20.95 7.59235 22.1085 7.5593 22.604C7.52611 23.0995 7.16132 26.5377 7.16132 26.5377C7.16132 26.5377 11.7573 23.199 12.3208 21.6774C12.8825 20.157 14.0392 8.84868 13.6424 7.79079C13.2463 6.73219 12.3208 6.17041 12.3208 6.17041Z" fill="#AF8C32"/>
<path d="M10.4432 10.7664C10.4432 10.7664 10.8327 11.13 10.6014 12.0548C10.3703 12.982 9.14726 19.3959 8.71623 19.8595C8.28693 20.3224 8.12141 20.7187 8.02198 20.4875C7.92328 20.2562 9.73045 11.9701 10.4432 10.7664Z" fill="#E4E2ED"/>
<path d="M6.83864 22.9649C6.83864 22.9649 7.47053 18.8308 7.16191 18.6675C6.8543 18.5036 6.1029 20.4646 5.82561 23.0138C5.54845 25.5623 5.61297 27.0496 5.97216 27.1141C6.33293 27.1804 6.65904 24.3528 6.83864 22.9649Z" fill="#AF8C32"/>
<path d="M129.013 31.759C111.895 31.759 109.487 50.1787 109.487 50.1787L46.1554 49.5277C46.1554 49.5277 45.3743 30.8268 24.7411 30.8268C10.3975 30.8268 6.45084 46.7934 6.45084 46.7934L3.26976 46.6239C3.33598 46.621 3.38039 46.6283 3.38039 46.6283C3.48973 46.4084 3.2153 43.555 3.0515 43.0623C2.88757 42.5678 2.72263 40.0434 2.72263 40.0434C2.72263 40.0434 2.55696 39.0567 2.72263 35.7101C2.88583 32.3628 4.47804 31.4845 4.64198 31.2662C4.80692 31.0468 5.51968 29.7923 5.51968 29.7923C5.51968 29.7923 8.97641 27.0406 11.4996 24.9562C14.0242 22.8713 14.2436 21.3357 14.5181 19.0307C14.7925 16.7262 14.8615 6.90293 14.8615 6.90293L23.9002 6.46802C23.1313 7.40019 27.6847 14.6412 28.7281 16.3974C29.7697 18.1529 32.5685 18.044 32.5685 18.044L67.6267 19.2506L107.568 20.8166C107.568 20.8166 115.359 21.3357 117.224 21.1157C119.089 20.8957 129.294 22.4329 137.084 23.5306C144.876 24.6267 147.124 26.9317 147.124 26.9317C147.124 26.9317 148.716 28.4129 146.631 26.7679C144.547 25.1213 136.866 25.1757 135.932 25.2306C135 25.2868 134.507 25.999 134.507 25.999C135.658 26.3284 141.913 31.2117 143.614 32.2551C145.315 33.2979 146.851 33.7923 148.169 33.7923C149.485 33.7923 149.378 32.887 149.378 32.887C150.804 34.9417 151.242 34.0522 151.955 35.9171C152.669 37.7833 151.8 48.7908 151.8 48.7908L146.713 48.9772C146.713 48.9772 146.131 31.759 129.013 31.759Z" fill="#FACC15"/>
<path d="M2.01782 46.7315C2.01782 48.3883 1.6945 49.7313 1.29551 49.7313C0.895946 49.7313 0.570955 48.3883 0.570955 46.7315C0.570955 45.0736 0.895946 43.73 1.29551 43.73C1.6945 43.73 2.01782 45.0736 2.01782 46.7315Z" fill="#C4C1C6"/>
<path d="M99.2372 19.7811L70.7275 18.7506L67.2445 5.53125H86.3147C86.3147 5.53125 99.0412 14.4201 99.7372 15.7176C100.433 17.0153 99.2372 19.7811 99.2372 19.7811Z" fill="#CACDD7"/>
<path d="M62.2389 5.65869L64.0938 18.3768L36.4675 17.5294L35.7261 10.3124L37.7191 6.17047L62.2389 5.65869Z" fill="#CACDD7"/>
<path d="M35.7258 6.17041L30.999 16.8816C30.999 16.8816 30.7661 17.3571 29.7003 16.1055C28.634 14.8539 25.065 8.45745 25.065 8.45745C25.065 8.45745 24.555 7.71608 25.065 7.06681C25.5752 6.41911 27.2433 6.51222 27.2433 6.51222L35.7258 6.17041Z" fill="#CACDD7"/>
<path d="M118.929 24.8409C118.929 24.8409 118.023 27.183 115.263 27.0966C112.502 27.0107 110.658 26.7952 110.658 26.7952C110.658 26.7952 110.183 24.5408 110.001 24.2478L118.929 24.8409Z" fill="#7A5D65"/>
<path d="M109.433 50.2156C112.057 42.3034 110.735 27.5636 110.692 27.0955C110.705 26.8535 110.816 23.7993 107.809 20.5812C104.772 17.3311 86.961 4.47478 86.7814 4.34576L86.7472 4.32104H86.704L41.5003 4.87722C40.9301 4.87449 27.4318 4.79805 25.1139 5.31227C24.3826 5.47491 23.8696 5.81672 23.5913 6.32691C23.13 7.17159 23.4846 8.16166 23.4992 8.20318L23.745 8.11396C23.7406 8.10376 23.4145 7.19012 23.8208 6.44875C24.0622 6.00924 24.5162 5.71183 25.1718 5.56701C27.4588 5.05796 41.3611 5.13713 41.5021 5.13713L86.6636 4.58254C87.556 5.22635 104.664 17.5955 107.619 20.7591C110.603 23.9532 110.434 27.0579 110.431 27.0882V27.1096C110.445 27.2589 111.822 42.1854 109.187 50.1337L109.433 50.2156Z" fill="#1A1817"/>
<path d="M134.497 26.1294L134.515 25.8696L110.01 24.1196L109.991 24.3795L134.497 26.1294Z" fill="#1A1817"/>
<path d="M111.178 25.2148H117.166C117.166 25.2148 117.297 26.2492 115.907 26.6472C115.907 26.6472 111.452 26.6381 111.178 26.3799C110.904 26.1213 111.178 25.2148 111.178 25.2148Z" fill="white"/>
<path d="M99.5613 14.3868L98.9609 13.8643H98.1604C98.1604 13.8643 97.6834 14.0753 97.6363 16.5308C97.5886 18.9845 97.9119 19.6024 98.5988 19.722C99.2842 19.8425 99.5613 14.3868 99.5613 14.3868Z" fill="#1C1819"/>
<path d="M103.988 17.9199C103.988 17.9199 103.399 19.8096 102.264 19.9515C101.132 20.0925 98.7699 19.8337 98.4393 19.6686C98.107 19.5019 98.1104 16.1441 98.2984 15.5564C98.4853 14.9678 101.51 15.4174 101.51 15.4174L102.761 16.2204L103.044 17.4242C103.044 17.4242 103.965 17.5192 103.988 17.9199Z" fill="#262021"/>
<path d="M102.835 17.3352C102.835 17.3352 102.737 17.5542 102.431 17.3352C102.124 17.117 101.282 16.5255 98.184 16.6674L98.286 15.705C98.286 15.705 103.451 15.0741 102.835 17.3352Z" fill="#E6EBED"/>
<path d="M103.209 17.5194C103.209 17.5194 103.091 14.2821 100.399 13.9993C97.7063 13.7164 98.84 13.8584 98.84 13.8584C98.84 13.8584 98.4393 13.5036 98.2727 15.866C98.2727 15.866 101.413 15.866 102.005 16.101C102.596 16.3385 102.855 16.6214 102.832 17.2118C102.809 17.8021 103.209 17.5194 103.209 17.5194Z" fill="#026442"/>
<path d="M69.2999 49.9958C69.506 49.2415 69.6553 44.8279 69.753 41.9073C69.7816 41.0721 69.8063 40.351 69.8258 39.8997C69.9067 38.0521 69.4039 25.8082 69.043 23.781C68.7085 21.9059 67.4613 18.8437 67.3705 18.6215L64.7905 4.72363L64.5345 4.77076L67.1191 18.6945L67.1253 18.7074C67.1381 18.7394 68.4452 21.9171 68.7859 23.827C69.1177 25.6802 69.658 37.7731 69.5649 39.8885C69.5458 40.3408 69.5217 41.062 69.4931 41.8982C69.401 44.6309 69.2472 49.2027 69.0485 49.9273L69.2999 49.9958Z" fill="#1A1817"/>
<path d="M109.487 50.1625C109.487 50.1625 111.895 31.7505 129.012 31.7505C146.131 31.7505 146.713 48.9731 146.713 48.9731L151.8 48.7874C153.018 48.7016 152.775 49.4256 152.775 49.6438C152.775 49.8639 153.104 50.2488 153.324 50.5233C153.544 50.7978 153.982 50.1944 154.366 52.2789C154.751 54.3639 147.673 54.5288 147.673 54.5288C147.508 54.8577 146.795 54.9672 146.795 54.9672C143.722 55.4617 142.9 54.9672 142.9 54.9672C147.124 48.9872 140.705 33.5005 128.031 35.3665C111.85 37.7474 113.132 54.3813 113.132 54.3813H41.5105C41.8855 53.2319 41.9601 51.5077 41.6918 49.4963H46.1553L109.487 50.1625Z" fill="#292B2D"/>
<path d="M0.308739 50.7979C0.692066 50.414 0.855873 48.4384 0.855873 48.4384C0.855873 48.4384 1.29601 50.0851 1.73379 50.0289C2.17373 49.9745 2.557 48.164 2.64909 47.3412C2.71648 46.7334 3.0829 46.634 3.26982 46.6239L6.45091 46.7935C6.45091 46.7935 10.3976 30.811 24.7411 30.811C45.3744 30.811 46.1555 49.4963 46.1555 49.4963H41.6921C40.7823 43.0309 35.9175 34.4933 25.3259 35.5524C7.47519 37.3365 10.1286 53.9172 10.1286 53.9172C10.1286 53.9172 4.53254 53.4272 2.17366 52.9328C-0.185799 52.44 -0.0763168 51.1812 0.308739 50.7979Z" fill="#292B2D"/>
<path d="M43.7909 49.7415L44.0508 49.7229C43.3654 40.5388 37.192 36.5738 33.5023 34.2041C32.9636 33.8567 32.4966 33.5576 32.1071 33.2793C29.531 31.4401 29.5035 26.1084 29.4879 22.9228C29.485 22.4087 29.4833 21.9648 29.4705 21.5797C29.3873 18.828 31.6861 17.3828 31.7093 17.3683L31.7434 17.3486L31.7608 17.3109L37.1873 5.14729L36.9506 5.04126L31.538 17.1701C31.2377 17.3699 29.1287 18.874 29.2106 21.587C29.2218 21.9687 29.2247 22.4115 29.228 22.9245C29.2436 26.16 29.2706 31.5737 31.9561 33.4919C32.3512 33.7731 32.8199 34.0751 33.3615 34.4231C37.0106 36.7662 43.1151 40.6871 43.7909 49.7415Z" fill="#1A1817"/>
<path d="M112.218 52.3696C112.191 52.9443 111.655 53.519 110.998 53.519H44.0576C43.3993 53.519 42.865 52.9443 42.8376 52.3696H112.218Z" fill="#C4C1C6"/>
<path d="M73.2861 26.3292C73.2172 27.4932 73.9917 28.4502 75.0131 28.5118L76.2473 28.5848C77.2704 28.6482 78.1538 27.7907 78.2246 26.6266C78.2947 25.4627 77.5201 24.5057 76.4976 24.444L75.2628 24.3693C74.2403 24.3077 73.3564 25.164 73.2861 26.3292Z" fill="#44161A"/>
<path d="M70.3048 26.2335C70.2931 26.6157 70.5748 26.9328 70.934 26.9446L80.0418 27.2275C80.401 27.2375 80.7013 26.939 80.7142 26.5579C80.726 26.1757 80.4442 25.8581 80.085 25.8467L70.9773 25.564C70.6164 25.5538 70.3162 25.8525 70.3048 26.2335Z" fill="#C4C1C6"/>
<path d="M34.884 24.7663C34.8139 25.9314 35.5884 26.8867 36.611 26.9483L37.8451 27.0236C38.8683 27.0854 39.7521 26.2289 39.8222 25.0649C39.8925 23.8998 39.1185 22.9429 38.0954 22.8811L36.8612 22.8081C35.8381 22.7458 34.9547 23.6022 34.884 24.7663Z" fill="#44161A"/>
<path d="M31.9022 24.6716C31.891 25.052 32.1727 25.3714 32.5319 25.3809L41.6392 25.6644C41.9984 25.6756 42.2986 25.3753 42.3114 24.9948C42.3232 24.6137 42.0416 24.2966 41.6824 24.2848L32.5735 24.002C32.2143 23.9903 31.914 24.2904 31.9022 24.6716Z" fill="#C4C1C6"/>
<path d="M114.88 50.4468C114.88 57.7816 120.825 63.7286 128.162 63.7286C135.498 63.7286 141.443 57.7816 141.443 50.4468C141.443 43.111 135.498 37.1641 128.162 37.1641C120.825 37.1641 114.88 43.111 114.88 50.4468Z" fill="#242227"/>
<path d="M138.165 50.4467C138.165 55.9873 133.672 60.4799 128.13 60.4799C122.589 60.4799 118.098 55.9873 118.098 50.4467C118.098 44.9051 122.589 40.4124 128.13 40.4124C133.672 40.4124 138.165 44.9051 138.165 50.4467Z" fill="#C2BDBA"/>
<path d="M131.611 43.72L129.289 46.3578C129.289 46.3578 128.888 46.9914 128.34 46.9914C127.791 46.9914 127.39 46.5492 127.39 46.5492L124.962 43.72C124.962 43.72 124.624 43.3193 124.962 43.0449C125.299 42.7705 126.485 42.3696 128.13 42.3696C129.775 42.3696 132.203 42.812 131.611 43.72Z" fill="#242227"/>
<path d="M131.611 57.1741L129.291 54.5345C129.291 54.5345 128.888 53.9009 128.341 53.9009C127.791 53.9009 127.39 54.3454 127.39 54.3454L124.963 57.1741C124.963 57.1741 124.624 57.5748 124.963 57.8493C125.299 58.1237 126.485 58.525 128.13 58.525C129.775 58.525 132.203 58.081 131.611 57.1741Z" fill="#242227"/>
<path d="M121.321 47.0922L123.96 49.4141C123.96 49.4141 124.593 49.8148 124.593 50.3636C124.593 50.9125 124.15 51.3132 124.15 51.3132L121.321 53.7412C121.321 53.7412 120.919 54.0789 120.646 53.7412C120.372 53.4038 119.969 52.2185 119.969 50.5735C119.969 48.928 120.413 46.5012 121.321 47.0922Z" fill="#242227"/>
<path d="M134.774 47.0925L132.136 49.4143C132.136 49.4143 131.502 49.8151 131.502 50.3639C131.502 50.9127 131.946 51.3135 131.946 51.3135L134.774 53.7414C134.774 53.7414 135.176 54.0792 135.45 53.7414C135.725 53.4041 136.126 52.2188 136.126 50.5738C136.126 48.9283 135.682 46.5003 134.774 47.0925Z" fill="#242227"/>
<path d="M13.3272 50.4468C13.3272 57.7816 19.274 63.7286 26.6099 63.7286C33.9447 63.7286 39.8916 57.7816 39.8916 50.4468C39.8916 43.111 33.9447 37.1641 26.6099 37.1641C19.274 37.1641 13.3272 43.111 13.3272 50.4468Z" fill="#242227"/>
<path d="M36.6111 50.4467C36.6111 55.9873 32.1183 60.4799 26.5767 60.4799C21.0366 60.4799 16.5452 55.9873 16.5452 50.4467C16.5452 44.9051 21.0366 40.4124 26.5767 40.4124C32.1183 40.4124 36.6111 44.9051 36.6111 50.4467Z" fill="#C2BDBA"/>
<path d="M30.0596 43.72L27.7377 46.3578C27.7377 46.3578 27.337 46.9914 26.7882 46.9914C26.2376 46.9914 25.8368 46.5492 25.8368 46.5492L23.41 43.72C23.41 43.72 23.0721 43.3193 23.41 43.0449C23.7478 42.7705 24.9316 42.3696 26.5765 42.3696C28.2232 42.3696 30.6499 42.812 30.0596 43.72Z" fill="#242227"/>
<path d="M30.0596 57.1741L27.7377 54.5345C27.7377 54.5345 27.337 53.9009 26.7882 53.9009C26.2392 53.9009 25.8368 54.3454 25.8368 54.3454L23.41 57.1741C23.41 57.1741 23.0721 57.5748 23.41 57.8493C23.7478 58.1237 24.9332 58.525 26.5783 58.525C28.2232 58.525 30.6499 58.081 30.0596 57.1741Z" fill="#242227"/>
<path d="M19.7673 47.0922L22.4068 49.4141C22.4068 49.4141 23.0405 49.8148 23.0405 50.3636C23.0405 50.9125 22.5966 51.3132 22.5966 51.3132L19.7673 53.7412C19.7673 53.7412 19.3665 54.0789 19.0938 53.7412C18.8177 53.4038 18.417 52.2185 18.417 50.5735C18.417 48.928 18.8609 46.5012 19.7673 47.0922Z" fill="#242227"/>
<path d="M33.222 47.0925L30.5831 49.4143C30.5831 49.4143 29.9504 49.8151 29.9504 50.3639C29.9504 50.9127 30.3933 51.3135 30.3933 51.3135L33.222 53.7414C33.222 53.7414 33.6232 54.0792 33.8988 53.7414C34.1715 53.4041 34.574 52.2188 34.574 50.5738C34.574 48.9283 34.13 46.5003 33.222 47.0925Z" fill="#242227"/>
</svg>
