<svg width="24" height="25" viewBox="0 0 24 25" fill="none" xmlns="http://www.w3.org/2000/svg">
<path d="M20.1998 10.2416C20.1998 10.4616 20.0198 10.6426 19.7998 10.6316C18.6244 10.5727 17.4764 10.2551 16.4378 9.7016C16.1568 9.5516 15.7998 9.7466 15.7998 10.0656V15.6416C15.7997 16.8112 15.4578 17.9553 14.8161 18.9332C14.1744 19.9111 13.2608 20.6801 12.1878 21.1456C11.1148 21.6111 9.92913 21.7528 8.77663 21.5534C7.62413 21.3539 6.55505 20.822 5.7009 20.0229C4.84674 19.2239 4.24475 18.1926 3.96897 17.056C3.69319 15.9193 3.75565 14.7268 4.14865 13.6252C4.54166 12.5236 5.24808 11.5608 6.18103 10.8554C7.11398 10.15 8.23277 9.73258 9.39981 9.6546C9.45196 9.65184 9.50412 9.65986 9.55304 9.67817C9.60195 9.69647 9.64657 9.72465 9.68411 9.76097C9.72164 9.79728 9.75129 9.84095 9.77119 9.88923C9.7911 9.93752 9.80084 9.98938 9.79981 10.0416V12.8416C9.79981 13.0616 9.61981 13.2386 9.40181 13.2746C8.95049 13.3505 8.53028 13.5538 8.19073 13.8607C7.85117 14.1675 7.60642 14.565 7.48533 15.0064C7.36425 15.4477 7.37187 15.9145 7.50731 16.3516C7.64275 16.7888 7.90035 17.1781 8.24975 17.4737C8.59915 17.7692 9.02577 17.9588 9.47933 18.0199C9.93288 18.081 10.3944 18.0111 10.8096 17.8186C11.2248 17.626 11.5762 17.3188 11.8226 16.9331C12.0689 16.5474 12.1998 16.0993 12.1998 15.6416V3.0416C12.1998 2.93552 12.2419 2.83377 12.317 2.75876C12.392 2.68374 12.4937 2.6416 12.5998 2.6416H15.3998C15.5068 2.64433 15.6088 2.68683 15.6861 2.76079C15.7634 2.83476 15.8104 2.93488 15.8178 3.0416C15.9113 4.06632 16.361 5.02586 17.0887 5.75337C17.8164 6.48088 18.7761 6.93034 19.8008 7.0236C20.0208 7.0436 20.2008 7.2206 20.2008 7.4416L20.1998 10.2416Z" stroke="white" stroke-width="1.5" stroke-linecap="round" stroke-linejoin="round"/>
</svg>
