<svg width="191" height="178" viewBox="0 0 191 178" fill="none" xmlns="http://www.w3.org/2000/svg">
<path fill-rule="evenodd" clip-rule="evenodd" d="M110.376 7.42108C130.183 10.9153 148.996 16.8676 163.51 30.8149C178.37 45.0945 193.089 63.6333 190.114 84.0449C187.29 103.413 162.723 108.881 149.967 123.707C135.015 141.086 132.836 172.236 110.376 176.724C87.2762 181.339 69.0389 158.712 51.0579 143.47C30.5342 126.071 4.31041 110.78 1.0469 84.0449C-2.44044 55.4763 10.988 24.5598 34.5287 8.06114C56.0652 -7.03282 84.4905 2.85462 110.376 7.42108Z" fill="#D7FFF1"/>
<g clip-path="url(#clip0_1444_67057)">
<path d="M87.481 78.6731C79.5136 78.5562 68.4461 78.7272 66.1674 84.8482L60.569 97.9851C60.3207 97.7011 59.995 97.4955 59.6318 97.3934L57.3778 96.7593C57.13 96.689 56.8707 96.6684 56.6148 96.6985C56.359 96.7287 56.1116 96.8092 55.8869 96.9352C55.6623 97.0612 55.4647 97.2304 55.3055 97.433C55.1464 97.6356 55.0289 97.8676 54.9596 98.1158L53.7837 102.291C53.7135 102.539 53.693 102.798 53.7232 103.054C53.7535 103.31 53.8339 103.557 53.9599 103.782C54.086 104.006 54.2551 104.204 54.4576 104.363C54.6602 104.522 54.8922 104.64 55.1402 104.709L57.3949 105.344C57.4702 105.364 57.5454 105.371 57.6207 105.383C57.1897 106.457 56.9215 107.638 56.9215 108.341V123.609C56.9215 124.392 57.2499 124.754 57.7712 124.924V128.991C57.7705 129.352 57.8412 129.71 57.979 130.044C58.1169 130.377 58.3193 130.68 58.5746 130.936C58.8299 131.191 59.1331 131.393 59.4667 131.531C59.8004 131.669 60.158 131.74 60.5191 131.739H67.8913C68.2523 131.74 68.6099 131.669 68.9436 131.531C69.2773 131.393 69.5805 131.191 69.8358 130.936C70.091 130.68 70.2934 130.377 70.4313 130.044C70.5692 129.71 70.6398 129.352 70.6392 128.991V125.073H105.187V128.991C105.186 129.352 105.257 129.71 105.395 130.044C105.533 130.377 105.735 130.681 105.99 130.936C106.246 131.191 106.549 131.394 106.883 131.531C107.217 131.669 107.574 131.74 107.935 131.739H115.306C115.667 131.74 116.025 131.669 116.359 131.532C116.693 131.394 116.996 131.192 117.252 130.936C117.507 130.681 117.71 130.378 117.847 130.044C117.985 129.71 118.056 129.352 118.056 128.991V124.924C118.577 124.755 118.904 124.392 118.904 123.61V108.341C118.904 107.639 118.635 106.458 118.205 105.384C118.28 105.372 118.355 105.366 118.43 105.344L120.686 104.71C120.934 104.64 121.166 104.523 121.368 104.364C121.571 104.204 121.74 104.007 121.866 103.782C121.992 103.558 122.072 103.31 122.102 103.055C122.132 102.799 122.112 102.54 122.042 102.292L120.867 98.1165C120.798 97.8682 120.68 97.6361 120.521 97.4335C120.362 97.2308 120.164 97.0616 119.939 96.9356C119.715 96.8095 119.467 96.7291 119.211 96.699C118.955 96.6689 118.696 96.6896 118.448 96.76L116.194 97.3941C115.831 97.4967 115.505 97.7022 115.256 97.9858L109.658 84.8489C107.216 78.6348 95.4477 78.7908 87.4803 78.6738M110.299 98.8156C110.432 99.2096 110.035 99.4723 109.62 99.4962C109.62 99.4962 108.262 99.6112 106.391 99.7623C104.967 96.435 101.657 94.09 97.8228 94.09C93.6151 94.09 90.0428 96.9152 88.897 100.762C88.5796 100.767 88.2109 100.78 87.9161 100.78C80.667 100.78 66.2044 99.4962 66.2044 99.4962C65.7898 99.4716 65.3924 99.2089 65.5251 98.8156C71.0948 81.8363 71.261 83.1128 87.6041 83.2913C103.947 83.4692 104.042 82.2563 110.299 98.8156ZM97.8228 97.299C98.8317 97.2958 99.8257 97.5436 100.715 98.0202C101.604 98.4968 102.361 99.1872 102.917 100.029C99.6438 100.272 95.8766 100.52 92.3659 100.665C92.8712 99.6506 93.6499 98.798 94.6142 98.2033C95.5784 97.6085 96.6898 97.2953 97.8228 97.299ZM60.1442 102.808C60.1934 102.882 60.2413 102.955 60.2961 103.025H60.084L60.1442 102.808ZM63.7657 107.073C65.1995 107.05 72.8966 109.64 72.8966 109.64C73.8577 109.911 74.7039 111.728 74.6991 112.727C74.6848 116.09 66.0053 114.923 62.4817 114.936C62.2449 114.937 62.0103 114.891 61.7915 114.8C61.5726 114.71 61.3738 114.577 61.2063 114.41C61.0389 114.242 60.9061 114.043 60.8156 113.825C60.7252 113.606 60.6788 113.371 60.6791 113.135V108.876C60.6791 107.877 62.3318 107.098 63.7657 107.073ZM112.06 107.073C113.493 107.097 115.146 107.877 115.146 108.876V113.135C115.147 113.371 115.1 113.606 115.01 113.825C114.919 114.044 114.787 114.243 114.619 114.41C114.452 114.578 114.253 114.71 114.034 114.801C113.815 114.891 113.58 114.938 113.344 114.937C109.821 114.923 101.141 116.09 101.126 112.727C101.121 111.728 101.968 109.911 102.929 109.64C102.929 109.64 110.626 107.05 112.06 107.073Z" fill="#026442"/>
</g>
<g clip-path="url(#clip1_1444_67057)">
<circle cx="110.298" cy="64.2647" r="25.1896" fill="#D7FFF1" stroke="black" stroke-width="3.47443"/>
<path d="M98.7618 64.6819L105.908 71.7389L120.63 57.4324" stroke="#026442" stroke-width="3.83331" stroke-linecap="round" stroke-linejoin="round"/>
</g>
<defs>
<clipPath id="clip0_1444_67057">
<rect width="68.407" height="68.407" fill="white" transform="translate(53.7098 70.9902)"/>
</clipPath>
<clipPath id="clip1_1444_67057">
<rect width="54.7223" height="54.7223" fill="white" transform="translate(83.3203 37.1465)"/>
</clipPath>
</defs>
</svg>
