<?xml version="1.0" encoding="UTF-8"?>
<svg width="300" height="150" viewBox="0 0 300 150" xmlns="http://www.w3.org/2000/svg">
    <g fill="#E8E8E8" stroke="#CCCCCC" stroke-width="1">
        <path d="M233.333,111.111C233.333,119.444 226.667,126.111 218.333,126.111C210,126.111 203.333,119.444 203.333,111.111C203.333,102.778 210,96.111 218.333,96.111C226.667,96.111 233.333,102.778 233.333,111.111Z" />
        <path d="M96.667,111.111C96.667,119.444 90,126.111 81.667,126.111C73.333,126.111 66.667,119.444 66.667,111.111C66.667,102.778 73.333,96.111 81.667,96.111C90,96.111 96.667,102.778 96.667,111.111Z" />
        <path d="M243.333,100.556C242.778,98.889 241.667,97.222 240,96.111C238.333,94.444 225.556,82.778 223.333,79.444C221.111,76.111 221.111,73.889 220,71.667C219.444,70 218.333,67.778 216.667,66.111C214.444,63.889 211.667,62.778 208.333,63.333L84.444,63.333C81.111,62.778 78.333,63.889 76.111,66.111C74.444,67.778 73.333,70 72.778,71.667C71.667,73.889 71.667,76.111 69.444,79.444C67.222,82.778 54.444,94.444 53.333,96.111C51.111,97.222 50,98.889 50,100.556L50,111.111C50,112.778 51.111,114.444 52.778,114.444C54.444,115 56.111,113.889 56.667,112.222C56.667,111.667 56.667,111.111 56.667,111.111L60,111.111C60,112.778 61.111,113.889 62.778,113.889C64.444,113.889 65.556,112.778 65.556,111.111L234.444,111.111C234.444,112.778 235.556,113.889 237.222,113.889C238.889,113.889 240,112.778 240,111.111L243.333,111.111C243.333,112.778 244.444,113.889 246.111,113.889C247.778,113.889 248.889,112.778 248.889,111.111C248.889,110.556 248.889,110 248.889,109.444C249.444,107.778 248.333,106.111 246.667,105.556C245,105 243.333,106.111 242.778,107.778C242.778,108.333 242.778,108.889 242.778,109.444L239.444,109.444L239.444,107.778C239.444,106.667 240,105.556 241.111,105C242.222,104.444 242.778,103.333 242.778,101.667L243.333,100.556Z" />
        <path d="M228.889,65C225,64.444 220.556,63.889 217.222,63.333C211.667,65 205.556,66.111 199.444,66.111L100.556,66.111C94.444,66.111 88.333,65 82.778,63.333C78.889,63.889 74.444,64.444 71.111,65C67.778,65.556 63.889,68.333 65,71.667C66.111,75 77.778,83.333 86.667,82.778L213.333,82.778C222.222,83.333 233.889,75 235,71.667C236.111,68.333 232.222,65.556 228.889,65Z" />
        <path d="M213.333,85.556L86.667,85.556C80.556,85.556 75.556,91.111 75.556,97.222L75.556,98.889C75.556,105 80.556,110.556 86.667,110.556L213.333,110.556C219.444,110.556 224.444,105 224.444,98.889L224.444,97.222C224.444,91.111 219.444,85.556 213.333,85.556Z" />
    </g>
</svg>