<?xml version="1.0" encoding="UTF-8"?>
<svg width="300" height="150" viewBox="0 0 300 150" xmlns="http://www.w3.org/2000/svg">
  <g fill="#000000">
    <!-- Car Body -->
    <path d="M22,113 C22,113 50,113 77,113 C104,113 196,113 223,113 C250,113 278,113 278,113 L278,98 C278,98 256,86 250,75 C244,64 232,42 199,42 C166,42 134,42 101,42 C68,42 56,64 50,75 C44,86 22,98 22,98 L22,113 Z" />
    
    <!-- Windows -->
    <path d="M77,42 C77,42 81,20 87,20 C93,20 123,15 150,15 C177,15 207,20 213,20 C219,20 223,42 223,42 C223,42 212,42 204,39 C196,36 177,34 150,34 C123,34 104,36 96,39 C88,42 77,42 77,42 Z" />
    
    <!-- Left Front -->
    <path d="M23,113 C23,113 10,105 9,94 C8,83 13,73 23,70 C33,67 34,70 34,70 L23,113 Z" />
    
    <!-- Right Front -->
    <path d="M277,113 C277,113 290,105 291,94 C292,83 287,73 277,70 C267,67 266,70 266,70 L277,113 Z" />
    
    <!-- Left Wheel -->
    <circle cx="80" cy="114" r="25" />
    
    <!-- Right Wheel -->
    <circle cx="220" cy="114" r="25" />
    
    <!-- Wheel Hub Left -->
    <circle cx="80" cy="114" r="15" fill="#d9d9d9" />
    
    <!-- Wheel Hub Right -->
    <circle cx="220" cy="114" r="15" fill="#d9d9d9" />
    
    <!-- Wheel Detail Left -->
    <path d="M80,106 C80,106 74,104 72,108 C70,112 73,120 80,122 C87,124 90,116 88,112 C86,108 80,106 80,106 Z" fill="#ffffff" />
    <path d="M80,99 L80,129 M65,114 L95,114 M67,101 L93,127 M67,127 L93,101" stroke="#333333" stroke-width="1.5" />
    
    <!-- Wheel Detail Right -->
    <path d="M220,106 C220,106 214,104 212,108 C210,112 213,120 220,122 C227,124 230,116 228,112 C226,108 220,106 220,106 Z" fill="#ffffff" />
    <path d="M220,99 L220,129 M205,114 L235,114 M207,101 L233,127 M207,127 L233,101" stroke="#333333" stroke-width="1.5" />
  </g>
</svg>