<?xml version="1.0" encoding="UTF-8"?>
<svg width="320" height="200" viewBox="0 0 320 200" xmlns="http://www.w3.org/2000/svg">
  <rect width="320" height="200" fill="#efefef"/>
  <g transform="translate(30, 50)" fill="#111">
    <path d="M0,70 C10,70 20,90 30,90 L210,90 C220,90 230,70 240,70 L260,70 L260,90 L0,90 Z" />
    <path d="M40,90 C40,90 60,35 120,35 L140,35 C200,35 220,90 220,90 Z" />
    <circle cx="60" cy="90" r="20" />
    <circle cx="210" cy="90" r="20" />
    <circle cx="60" cy="90" r="15" fill="#555" />
    <circle cx="210" cy="90" r="15" fill="#555" />
    <!-- BMW Kidney Grille -->
    <rect x="120" y="60" width="10" height="20" rx="2" fill="#555" />
    <rect x="132" y="60" width="10" height="20" rx="2" fill="#555" />
  </g>
  <text x="160" y="170" font-family="Arial, sans-serif" font-size="16" text-anchor="middle" fill="#333">BMW 3 Series 330i</text>
</svg>