<svg width="30" height="30" viewBox="0 0 30 30" fill="none" xmlns="http://www.w3.org/2000/svg">
<rect x="0.311523" y="0.375" width="29.5032" height="29.5032" rx="14.7516" fill="#026442"/>
<path d="M17.4719 12.7729L12.5253 19.1316C12.4387 19.2429 12.3307 19.3067 12.2012 19.3228C12.0718 19.339 11.9514 19.3038 11.8401 19.2172C11.7288 19.1306 11.665 19.0225 11.6489 18.8931C11.6327 18.7637 11.6679 18.6433 11.7545 18.532L16.7012 12.1733L13.321 12.5955C13.184 12.6126 13.0657 12.5791 12.9663 12.4948C12.8669 12.4106 12.8086 12.3 12.7915 12.163C12.7744 12.0259 12.8058 11.906 12.8857 11.8033C12.9657 11.7005 13.0742 11.6405 13.2112 11.6234L17.7562 11.0558C17.8323 11.0463 17.8984 11.0496 17.9546 11.0658C18.0107 11.082 18.0645 11.11 18.1159 11.15C18.1672 11.19 18.2077 11.2352 18.2372 11.2856C18.2667 11.3361 18.2862 11.3993 18.2957 11.4755L18.8605 15.9976C18.8776 16.1346 18.8462 16.2545 18.7662 16.3573C18.6863 16.4601 18.5778 16.52 18.4408 16.5371C18.3037 16.5542 18.1817 16.5212 18.0746 16.4379C17.9676 16.3546 17.9055 16.2445 17.8884 16.1074L17.4719 12.7729Z" fill="white"/>
</svg>
