<svg width="25" height="24" viewBox="0 0 25 24" fill="none" xmlns="http://www.w3.org/2000/svg">
<path d="M12.5804 4.34094H6.68453C6.23776 4.34094 5.8093 4.51842 5.49339 4.83434C5.17748 5.15026 5 5.57873 5 6.02551V17.8175C5 18.2643 5.17748 18.6927 5.49339 19.0086C5.8093 19.3246 6.23776 19.502 6.68453 19.502H18.4762C18.923 19.502 19.3514 19.3246 19.6674 19.0086C19.9833 18.6927 20.1607 18.2643 20.1607 17.8175V11.9215" stroke="white" stroke-width="1.04414" stroke-linecap="round" stroke-linejoin="round"/>
<path d="M17.9508 4.02528C18.2859 3.6902 18.7404 3.50195 19.2142 3.50195C19.6881 3.50195 20.1426 3.6902 20.4776 4.02528C20.8127 4.36036 21.0009 4.81483 21.0009 5.28871C21.0009 5.76258 20.8127 6.21705 20.4776 6.55213L12.8863 14.1445C12.6863 14.3443 12.4392 14.4906 12.1679 14.5698L9.74803 15.2773C9.67556 15.2985 9.59873 15.2998 9.5256 15.281C9.45247 15.2623 9.38571 15.2242 9.33233 15.1708C9.27895 15.1175 9.2409 15.0507 9.22216 14.9776C9.20342 14.9044 9.20469 14.8276 9.22583 14.7551L9.93333 12.3353C10.0129 12.0641 10.1595 11.8173 10.3595 11.6176L17.9508 4.02528Z" stroke="white" stroke-width="1.04414" stroke-linecap="round" stroke-linejoin="round"/>
</svg>
