<svg width="28" height="28" viewBox="0 0 28 28" fill="none" xmlns="http://www.w3.org/2000/svg">
<path d="M14.0918 5.06433H7.21333C6.6921 5.06433 6.19223 5.27139 5.82366 5.63996C5.4551 6.00853 5.24805 6.50842 5.24805 7.02966V20.787C5.24805 21.3082 5.4551 21.8081 5.82366 22.1767C6.19223 22.5452 6.6921 22.7523 7.21333 22.7523H20.9703C21.4915 22.7523 21.9914 22.5452 22.36 22.1767C22.7285 21.8081 22.9356 21.3082 22.9356 20.787V13.9083" stroke="black" stroke-width="1.68455" stroke-linecap="round" stroke-linejoin="round"/>
<path d="M20.357 4.69624C20.7479 4.30531 21.2781 4.08569 21.831 4.08569C22.3838 4.08569 22.914 4.30531 23.305 4.69624C23.6959 5.08717 23.9155 5.61738 23.9155 6.17024C23.9155 6.72309 23.6959 7.25331 23.305 7.64423L14.4484 16.502C14.2151 16.7351 13.9268 16.9058 13.6102 16.9982L10.7871 17.8237C10.7025 17.8483 10.6129 17.8498 10.5276 17.8279C10.4423 17.8061 10.3644 17.7617 10.3021 17.6994C10.2398 17.6371 10.1954 17.5592 10.1736 17.4739C10.1517 17.3886 10.1532 17.299 10.1779 17.2144L11.0033 14.3912C11.0962 14.0748 11.2671 13.7869 11.5005 13.554L20.357 4.69624Z" stroke="black" stroke-width="1.68455" stroke-linecap="round" stroke-linejoin="round"/>
</svg>
