<svg width="16" height="17" viewBox="0 0 16 17" fill="none" xmlns="http://www.w3.org/2000/svg">
<g clip-path="url(#clip0_1526_75266)">
<mask id="mask0_1526_75266" style="mask-type:luminance" maskUnits="userSpaceOnUse" x="0" y="0" width="16" height="17">
<path d="M0 0.779907H16V16.7799H0V0.779907Z" fill="white"/>
</mask>
<g mask="url(#mask0_1526_75266)">
<path fill-rule="evenodd" clip-rule="evenodd" d="M0 8.82457C0 12.8026 2.88867 16.1092 6.66667 16.7799V11.0019H4.66667V8.77991H6.66667V7.00191C6.66667 5.00191 7.95533 3.89124 9.778 3.89124C10.3553 3.89124 10.978 3.97991 11.5553 4.06857V6.11324H10.5333C9.55533 6.11324 9.33333 6.60191 9.33333 7.22457V8.77991H11.4667L11.1113 11.0019H9.33333V16.7799C13.1113 16.1092 16 12.8026 16 8.82457C16 4.39991 12.4 0.779907 8 0.779907C3.6 0.779907 0 4.39991 0 8.82457Z" fill="#54A0FF"/>
</g>
</g>
<defs>
<clipPath id="clip0_1526_75266">
<rect width="16" height="16" fill="white" transform="translate(0 0.779907)"/>
</clipPath>
</defs>
</svg>
