<svg width="19" height="21" viewBox="0 0 19 21" fill="none" xmlns="http://www.w3.org/2000/svg">
<g clip-path="url(#clip0_1430_31896)">
<path d="M7.22528 3.4937C5.72655 4.01362 4.43405 5.00046 3.53762 6.30925C2.64119 7.61804 2.18809 9.17981 2.24487 10.7651C2.30164 12.3505 2.86531 13.8758 3.85307 15.1171C4.84083 16.3584 6.20062 17.2503 7.73271 17.6617C8.9748 17.9822 10.2762 17.9962 11.5249 17.7027C12.6561 17.4486 13.702 16.9051 14.5601 16.1253C15.4531 15.289 16.1013 14.2251 16.4351 13.048C16.7978 11.7679 16.8623 10.4217 16.6237 9.11284H9.64872V12.0062H13.6882C13.6074 12.4677 13.4344 12.9081 13.1795 13.3012C12.9246 13.6942 12.593 14.0318 12.2046 14.2937C11.7113 14.62 11.1553 14.8395 10.5722 14.9382C9.98733 15.047 9.38746 15.047 8.80263 14.9382C8.20988 14.8157 7.64915 14.571 7.15614 14.2199C6.36413 13.6592 5.76944 12.8628 5.45693 11.9441C5.13913 11.0082 5.13913 9.99363 5.45693 9.05776C5.67938 8.40177 6.04712 7.80448 6.53271 7.3105C7.0884 6.73481 7.79192 6.32331 8.56609 6.12113C9.34026 5.91896 10.1552 5.93393 10.9214 6.1644C11.5199 6.34814 12.0673 6.66917 12.5198 7.1019C12.9753 6.64878 13.43 6.19448 13.8839 5.73901C14.1183 5.49409 14.3737 5.26089 14.6046 5.01011C13.9138 4.36731 13.103 3.86713 12.2186 3.53823C10.6081 2.95345 8.84596 2.93774 7.22528 3.4937Z" fill="white"/>
<path d="M7.22507 3.49427C8.84562 2.93793 10.6078 2.95323 12.2184 3.53763C13.103 3.86876 13.9134 4.37135 14.6032 5.01654C14.3688 5.26732 14.1216 5.50169 13.8825 5.74544C13.4278 6.19935 12.9735 6.65169 12.5196 7.10247C12.0671 6.66974 11.5197 6.34871 10.9212 6.16497C10.1552 5.93369 9.34033 5.91786 8.56596 6.1192C7.79158 6.32055 7.08763 6.7313 6.53132 7.30638C6.04574 7.80037 5.67799 8.39765 5.45554 9.05365L3.02625 7.17279C3.89579 5.44844 5.40134 4.12945 7.22507 3.49427Z" fill="#E33629"/>
<path d="M2.38542 9.03442C2.51599 8.38731 2.73277 7.76063 3.02995 7.17114L5.45925 9.05669C5.14145 9.99256 5.14145 11.0072 5.45925 11.943C4.64987 12.568 3.84011 13.1961 3.02995 13.8274C2.28599 12.3465 2.05909 10.6592 2.38542 9.03442Z" fill="#F8BD00"/>
<path d="M9.65042 9.11206H16.6254C16.864 10.421 16.7995 11.7671 16.4368 13.0472C16.103 14.2243 15.4548 15.2882 14.5618 16.1246C13.7778 15.5128 12.9903 14.9058 12.2063 14.2941C12.595 14.0319 12.9267 13.694 13.1816 13.3005C13.4366 12.907 13.6094 12.4661 13.6899 12.0042H9.65042C9.64925 11.041 9.65042 10.0765 9.65042 9.11206Z" fill="#587DBD"/>
<path d="M3.02625 13.8272C3.8364 13.2022 4.64617 12.5741 5.45554 11.9429C5.76868 12.8619 6.36422 13.6584 7.1571 14.2187C7.65164 14.5682 8.21359 14.8108 8.8071 14.9312C9.39194 15.0399 9.9918 15.0399 10.5766 14.9312C11.1598 14.8324 11.7158 14.6129 12.2091 14.2866C12.993 14.8983 13.7805 15.5054 14.5645 16.1171C13.7066 16.8972 12.6607 17.4412 11.5294 17.6956C10.2806 17.9892 8.97928 17.9751 7.73718 17.6546C6.7548 17.3923 5.83719 16.9299 5.04187 16.2964C4.20007 15.6281 3.51252 14.7858 3.02625 13.8272Z" fill="#319F43"/>
</g>
<defs>
<clipPath id="clip0_1430_31896">
<rect width="15" height="15" fill="white" transform="translate(2 3)"/>
</clipPath>
</defs>
</svg>
