<svg width="191" height="177" viewBox="0 0 191 177" fill="none" xmlns="http://www.w3.org/2000/svg">
<path fill-rule="evenodd" clip-rule="evenodd" d="M80.6827 169.242C60.9537 165.762 42.2149 159.833 27.758 145.94C12.9567 131.717 -1.70445 113.252 1.25966 92.9205C4.07224 73.6288 28.5418 68.1823 41.2476 53.4144C56.1408 36.104 58.3114 5.07695 80.6827 0.607147C103.691 -3.98997 121.857 18.5478 139.767 33.7303C160.209 51.0598 186.33 66.2912 189.58 92.9205C193.054 121.376 179.678 152.171 156.231 168.604C134.779 183.639 106.466 173.79 80.6827 169.242Z" fill="#D7FFF1"/>
<g clip-path="url(#clip0_1489_64142)">
<path d="M69.4587 98.2841L66.4708 107.103C66.1852 107.945 66.4296 108.877 67.092 109.472L87.8997 128.141C88.492 128.672 89.3232 128.847 90.0792 128.599L98.4517 125.848C100.053 125.322 100.51 123.275 99.2847 122.118L73.0924 97.3809C71.9139 96.2679 69.9789 96.7489 69.4587 98.2841Z" fill="#026442" stroke="black" stroke-width="2"/>
<path d="M136.112 73.2891L120.601 59.852C119.042 58.5013 120.002 55.9399 122.065 55.9468L137.259 55.9976C138.464 56.0017 139.446 56.9645 139.475 58.1691L139.792 71.5553C139.838 73.4854 137.571 74.5532 136.112 73.2891Z" fill="#026442" stroke="black" stroke-width="2.22415"/>
<circle cx="106.852" cy="88.3188" r="7.5102" fill="#026442" stroke="black" stroke-width="2.81633"/>
<path d="M60.3023 116.873C59.9735 117.017 57.6106 119.257 55.0422 121.846C51.0149 125.894 50.3574 126.633 50.3574 127.167C50.3574 128.38 51.6724 129.181 52.7409 128.626C53.0696 128.441 55.3915 126.243 57.9188 123.716C61.9871 119.606 62.4803 119.051 62.4803 118.435C62.4803 117.531 62.1926 117.058 61.494 116.812C61.083 116.668 60.7337 116.688 60.3023 116.873Z" fill="#026442"/>
<path d="M59.6457 134.072C54.7555 138.962 50.5638 143.277 50.3173 143.647C49.6187 144.777 50.3584 146.154 51.6734 146.154C52.2282 146.154 53.4199 145.024 61.6388 136.825C70.5973 127.887 70.9877 127.456 70.9877 126.716C70.9877 125.771 70.3508 125.196 69.3029 125.196C68.6043 125.196 68.0906 125.668 59.6457 134.072Z" fill="#026442"/>
<path d="M72.2202 138.366C67.0628 143.503 66.919 143.709 67.3299 144.818C67.5149 145.291 68.5833 145.784 69.1175 145.64C69.3641 145.558 71.7681 143.318 74.4598 140.647C78.7542 136.353 79.3295 135.695 79.3295 135.141C79.3295 134.298 78.7747 133.661 77.9323 133.497C77.2542 133.353 77.1309 133.476 72.2202 138.366Z" fill="#026442"/>
<path d="M126.282 54.2467C114.672 55.0069 103.145 58.726 94.2485 64.6025C88.9474 68.0749 84.0366 72.5337 80.3586 77.1773C79.3929 78.3896 78.4272 79.4375 78.2012 79.4786C77.9752 79.5197 74.6054 79.6635 70.7015 79.7868C66.7975 79.9101 63.2839 80.1156 62.8935 80.2183C62.4826 80.3211 61.9278 80.6498 61.6402 80.958C61.3525 81.2868 58.7636 85.314 55.887 89.9577C50.8118 98.1355 50.668 98.4231 50.668 99.4505C50.668 100.581 51.0378 101.3 52.0241 102.019C52.3939 102.307 54.4692 102.738 59.4827 103.601C63.2839 104.279 66.4482 104.854 66.5098 104.895C66.5509 104.957 66.4071 105.656 66.1811 106.457C65.688 108.204 65.6674 109.395 66.0578 110.156C66.2222 110.464 70.7426 115.066 76.0848 120.409C87.2009 131.484 86.153 130.723 89.2556 129.942C90.2624 129.675 91.1048 129.511 91.1459 129.552C91.187 129.593 91.7623 132.716 92.3993 136.476C93.6938 143.853 93.7965 144.223 95.1321 145.004C96.4882 145.784 97.3101 145.579 100.557 143.565C113.152 135.798 115.186 134.463 115.577 133.805C115.946 133.168 116.008 132.367 116.275 125.299L116.563 117.491L117.118 117.08C124.823 111.203 130.597 104.341 134.788 96.0191C139.987 85.7661 142.576 72.6981 141.815 60.7396C141.466 55.1097 141.137 54.6987 136.863 54.3083C134.685 54.1234 128.727 54.0823 126.282 54.2467ZM137.932 57.6986C138.466 57.9041 138.61 59.589 138.589 65.1983C138.548 70.7872 138.158 74.4446 137.089 79.5197C133.144 98.0327 121.987 112.251 104.707 120.82C103.577 121.374 102.344 121.97 101.974 122.114L101.276 122.381L87.5296 108.635C79.9683 101.074 73.7835 94.7657 73.7835 94.6219C73.7835 94.2109 77.2971 87.4509 78.6121 85.3346C81.3655 80.9375 85.5571 75.9034 89.1117 72.7186C99.1593 63.76 111.159 58.8493 126.384 57.5137C127.843 57.3904 137.541 57.5342 137.932 57.6986ZM75.9205 83.4237C73.4137 87.2044 69.6125 95.341 67.9276 100.478C67.7221 101.176 67.4756 101.567 67.2701 101.567C66.7564 101.567 54.8185 99.5121 54.4076 99.3477C54.0993 99.2245 54.7363 98.0738 58.9074 91.2932C61.5991 86.9372 63.7976 83.362 63.7976 83.3415C63.8182 83.3004 72.7151 82.9511 74.7904 82.91L76.2903 82.8689L75.9205 83.4237ZM85.1872 111.019C92.1733 118.005 97.8648 123.778 97.8237 123.84C97.6388 124.004 91.5569 125.977 89.5432 126.532L87.5296 127.066L84.5092 124.189C82.8449 122.607 78.6738 118.498 75.2219 115.046L68.9755 108.779L69.3454 107.279C69.859 105.265 72.1603 98.2793 72.3247 98.2793C72.3863 98.2793 78.1806 104.012 85.1872 111.019ZM113.152 122.155C113.09 123.429 112.988 126.203 112.905 128.299L112.782 132.12L104.851 137.031C100.495 139.723 96.8786 141.922 96.8169 141.901C96.6731 141.86 94.3307 128.627 94.4335 128.525C94.4746 128.484 95.5019 128.093 96.7347 127.682C101.646 125.956 107.481 123.244 111.282 120.902C112.186 120.347 113.008 119.895 113.111 119.874C113.193 119.854 113.234 120.902 113.152 122.155Z" fill="black"/>
<path d="M118.117 57.3398L138.77 75.1766" stroke="black" stroke-width="2.81633"/>
</g>
<defs>
<clipPath id="clip0_1489_64142">
<rect width="92" height="92.1541" fill="white" transform="translate(50 54)"/>
</clipPath>
</defs>
</svg>
